<?xml version="1.0" encoding="UTF-8" standalone="no"?>
<svg
   xmlns:dc="http://purl.org/dc/elements/1.1/"
   xmlns:cc="http://creativecommons.org/ns#"
   xmlns:rdf="http://www.w3.org/1999/02/22-rdf-syntax-ns#"
   xmlns:svg="http://www.w3.org/2000/svg"
   xmlns="http://www.w3.org/2000/svg"
   xmlns:sodipodi="http://sodipodi.sourceforge.net/DTD/sodipodi-0.dtd"
   xmlns:inkscape="http://www.inkscape.org/namespaces/inkscape"
   inkscape:version="1.0 (4035a4fb49, 2020-05-01)"
   sodipodi:docname="ChowDer.svg"
   id="svg909"
   version="1.1"
   fill="none"
   viewBox="0 0 115 486"
   height="128.58749mm"
   width="30.427084mm">
  <metadata
     id="metadata915">
    <rdf:RDF>
      <cc:Work
         rdf:about="">
        <dc:format>image/svg+xml</dc:format>
        <dc:type
           rdf:resource="http://purl.org/dc/dcmitype/StillImage" />
        <dc:title />
      </cc:Work>
    </rdf:RDF>
  </metadata>
  <defs
     id="defs913" />
  <sodipodi:namedview
     inkscape:current-layer="svg909"
     inkscape:window-maximized="0"
     inkscape:window-y="0"
     inkscape:window-x="767"
     inkscape:cy="191.31826"
     inkscape:cx="54.834235"
     inkscape:zoom="6.5925924"
     units="mm"
     inkscape:document-units="mm"
     showgrid="false"
     id="namedview911"
     inkscape:window-height="991"
     inkscape:window-width="1143"
     inkscape:pageshadow="2"
     inkscape:pageopacity="0"
     guidetolerance="10"
     gridtolerance="10"
     objecttolerance="10"
     borderopacity="1"
     bordercolor="#666666"
     pagecolor="#ffffff"
     inkscape:document-rotation="0" />
  <rect
     y="0"
     x="0"
     id="rect833"
     fill="#16161d"
     height="486"
     width="115" />
  <path
     id="path835"
     fill="#daa520"
     d="m 7,0 h 101 v 47 c 0,2.2091 -1.791,4 -4,4 H 11 C 8.79086,51 7,49.2091 7,47 Z" />
  <path
     id="path853"
     fill="#daa520"
     d="m 78.3679,107.06091 c 0.4668,0.467 1.2257,0.468 1.6736,-0.017 3.7439,-4.055 6.3024,-9.069998 7.3821,-14.497996 1.1575,-5.819999 0.5634,-11.851699 -1.7072,-17.333499 -2.2706,-5.4818 -6.1158,-10.1671 -11.0493,-13.4636 -4.9335,-3.2964 -10.7337,-5.0559 -16.6671,-5.0559 -5.9334,0 -11.7336,1.7595 -16.6671,5.0559 -4.9335,3.2965 -8.7787,7.9818 -11.0493,13.4636 -2.2706,5.4818 -2.8647,11.5135 -1.7072,17.333499 1.0797,5.427998 3.6382,10.442996 7.3821,14.497996 0.4479,0.485 1.2068,0.484 1.6736,0.017 v 0 c 0.4669,-0.467 0.4647,-1.222 0.0185,-1.709 -3.4104,-3.719 -5.7417,-8.308998 -6.7292,-13.272995 -1.0653,-5.355 -0.5185,-10.9066 1.5712,-15.9515 2.0896,-5.0449 5.6283,-9.3569 10.1686,-12.3906 4.5403,-3.0337 9.8782,-4.653 15.3388,-4.653 5.4606,0 10.7985,1.6193 15.3388,4.653 4.5403,3.0337 8.079,7.3457 10.1686,12.3906 2.0897,5.0449 2.6365,10.5965 1.5712,15.9515 -0.9875,4.963997 -3.3188,9.553995 -6.7292,13.272995 -0.4462,0.487 -0.4484,1.242 0.0185,1.709 z" />
  <path
     id="path855"
     fill="#daa520"
     d="m 78.3679,182.65147 c 0.4668,0.467 1.2257,0.468 1.6736,-0.017 3.7439,-4.055 6.3024,-9.07 7.3821,-14.498 1.1575,-5.82 0.5634,-11.852 -1.7072,-17.333 -2.2706,-5.482 -6.1158,-10.168 -11.0493,-13.464 -4.9335,-3.296 -10.7337,-5.056 -16.6671,-5.056 -5.9334,0 -11.7336,1.759 -16.6671,5.056 -4.9335,3.296 -8.7787,7.982 -11.0493,13.464 -2.2706,5.481 -2.8647,11.513 -1.7072,17.333 1.0797,5.428 3.6382,10.443 7.3821,14.498 0.4479,0.485 1.2068,0.484 1.6736,0.017 v 0 c 0.4669,-0.467 0.4647,-1.222 0.0185,-1.709 -3.4104,-3.719 -5.7417,-8.309 -6.7292,-13.273 -1.0653,-5.355 -0.5185,-10.907 1.5712,-15.952 2.0896,-5.044 5.6283,-9.356 10.1686,-12.39 4.5403,-3.034 9.8782,-4.653 15.3388,-4.653 5.4606,0 10.7985,1.619 15.3388,4.653 4.5403,3.034 8.079,7.346 10.1686,12.39 2.0897,5.045 2.6365,10.597 1.5712,15.952 -0.9875,4.964 -3.3188,9.554 -6.7292,13.273 -0.4462,0.487 -0.4484,1.242 0.0185,1.709 z" />
  <path
     id="path895"
     fill="#ffffff"
     d="m 54.9219,403 h -1.5791 v -7.82 h 1.5791 z" />
  <path
     id="path897"
     fill="#ffffff"
     d="m 61.7163,403 h -1.5791 l -2.3096,-5.129 V 403 h -1.5791 v -7.82 h 1.5791 l 2.315,5.134 v -5.134 h 1.5737 z" />
  <path
     id="path899"
     fill="#ffffff"
     d="m 54.186,460.793 c 0,1.05 -0.2488,1.864 -0.7465,2.444 -0.4942,0.58 -1.1817,0.87 -2.0625,0.87 -0.8773,0 -1.5666,-0.286 -2.0679,-0.859 -0.5013,-0.576 -0.7556,-1.382 -0.7627,-2.417 v -1.337 c 0,-1.075 0.2488,-1.912 0.7466,-2.514 0.4977,-0.605 1.1888,-0.908 2.0732,-0.908 0.8701,0 1.5558,0.297 2.0571,0.892 0.5013,0.591 0.7556,1.421 0.7627,2.492 z m -1.5844,-1.31 c 0,-0.705 -0.1003,-1.23 -0.3008,-1.574 -0.2005,-0.344 -0.5121,-0.515 -0.9346,-0.515 -0.4189,0 -0.7287,0.166 -0.9292,0.499 -0.2005,0.329 -0.3044,0.833 -0.3115,1.509 v 1.391 c 0,0.684 0.102,1.189 0.3061,1.515 0.2041,0.322 0.5192,0.484 0.9454,0.484 0.4117,0 0.7179,-0.158 0.9184,-0.473 0.2005,-0.319 0.3026,-0.811 0.3062,-1.477 z" />
  <path
     id="path901"
     fill="#ffffff"
     d="m 60.4058,456.18 v 5.414 c -0.0072,0.813 -0.231,1.436 -0.6714,1.869 -0.4405,0.43 -1.0725,0.644 -1.896,0.644 -0.8379,0 -1.4789,-0.218 -1.9229,-0.655 -0.4404,-0.437 -0.6606,-1.069 -0.6606,-1.896 v -5.376 h 1.5898 v 5.382 c 0,0.444 0.0716,0.76 0.2149,0.95 0.1432,0.19 0.4028,0.285 0.7788,0.285 0.376,0 0.6338,-0.093 0.7734,-0.279 0.1397,-0.19 0.2113,-0.5 0.2149,-0.93 v -5.408 z" />
  <path
     id="path903"
     fill="#ffffff"
     d="M 66.6685,457.496 H 64.7349 V 464 h -1.5845 v -6.504 H 61.249 v -1.316 h 5.4195 z" />
  <path
     id="path905"
     fill="#daa520"
     d="m 78.3679,258.24202 c 0.4668,0.467 1.2257,0.468 1.6736,-0.017 3.7439,-4.055 6.3024,-9.07 7.3821,-14.498 1.1575,-5.82 0.5634,-11.852 -1.7072,-17.334 -2.2706,-5.481 -6.1158,-10.167 -11.0493,-13.463 -4.9335,-3.297 -10.7337,-5.056 -16.6671,-5.056 -5.9334,0 -11.7336,1.759 -16.6671,5.056 -4.9335,3.296 -8.7787,7.982 -11.0493,13.463 -2.2706,5.482 -2.8647,11.514 -1.7072,17.334 1.0797,5.428 3.6382,10.443 7.3821,14.498 0.4479,0.485 1.2068,0.484 1.6736,0.017 v 0 c 0.4669,-0.467 0.4647,-1.222 0.0185,-1.709 -3.4104,-3.719 -5.7417,-8.309 -6.7292,-13.273 -1.0653,-5.355 -0.5185,-10.907 1.5712,-15.952 2.0896,-5.044 5.6283,-9.356 10.1686,-12.39 4.5403,-3.034 9.8782,-4.653 15.3388,-4.653 5.4606,0 10.7985,1.619 15.3388,4.653 4.5403,3.034 8.079,7.346 10.1686,12.39 2.0897,5.045 2.6365,10.597 1.5712,15.952 -0.9875,4.964 -3.3188,9.554 -6.7292,13.273 -0.4462,0.487 -0.4484,1.242 0.0185,1.709 z" />
  <path
     id="path907"
     fill="#daa520"
     d="m 42,413 h 31 c 3.3137,0 6,2.686 6,6 v 46 c 0,3.314 -2.6863,6 -6,6 H 42 c -3.3137,0 -6,-2.686 -6,-6 v -46 c 0,-3.314 2.6863,-6 6,-6 z m 0,2 c -2.2091,0 -4,1.791 -4,4 v 46 c 0,2.209 1.7909,4 4,4 h 31 c 2.2091,0 4,-1.791 4,-4 v -46 c 0,-2.209 -1.7909,-4 -4,-4 z"
     clip-rule="evenodd"
     fill-rule="evenodd" />
  <g
     transform="translate(4.6475844)"
     id="g2257">
    <g
       id="g2246">
      <g
         id="g2239">
        <path
           d="m 31.7266,26.2109 c -0.0573,1.2969 -0.4219,2.2787 -1.0938,2.9453 -0.6719,0.6667 -1.6198,1 -2.8437,1 -1.2865,0 -2.2735,-0.4218 -2.961,-1.2656 -0.6823,-0.8489 -1.0234,-2.0573 -1.0234,-3.625 v -1.914 c 0,-1.5625 0.3542,-2.7657 1.0625,-3.6094 0.7083,-0.849 1.6927,-1.2734 2.9531,-1.2734 1.2396,0 2.1797,0.3463 2.8203,1.039 0.6459,0.6927 1.013,1.6875 1.1016,2.9844 h -2.3047 c -0.0208,-0.8021 -0.1458,-1.3542 -0.375,-1.6563 -0.224,-0.3073 -0.638,-0.4609 -1.2422,-0.4609 -0.6146,0 -1.0495,0.2161 -1.3047,0.6484 -0.2552,0.4271 -0.3906,1.1328 -0.4062,2.1172 v 2.1485 c 0,1.1302 0.125,1.9062 0.375,2.3281 0.2552,0.4219 0.6901,0.6328 1.3047,0.6328 0.6041,0 1.0208,-0.1458 1.25,-0.4375 0.2291,-0.2969 0.3593,-0.8307 0.3906,-1.6016 z"
           fill="#ffffff"
           id="path837" />
        <path
           d="m 35.1875,22.2891 c 0.4792,-0.599 1.0677,-0.8985 1.7656,-0.8985 0.7709,0 1.3568,0.2709 1.7578,0.8125 0.4011,0.5417 0.6042,1.349 0.6094,2.4219 V 30 h -2.2187 v -5.3516 c 0,-0.4948 -0.0782,-0.8515 -0.2344,-1.0703 -0.1511,-0.2239 -0.3984,-0.3359 -0.7422,-0.3359 -0.401,0 -0.7135,0.1849 -0.9375,0.5547 V 30 H 32.9766 V 18 h 2.2109 z"
           fill="#ffffff"
           id="path839" />
      </g>
      <path
         id="path841"
         fill="#ffffff"
         d="m 40.6484,25.5 c 0,-1.2812 0.3021,-2.2865 0.9063,-3.0156 0.6042,-0.7292 1.4401,-1.0938 2.5078,-1.0938 1.0781,0 1.9193,0.3646 2.5234,1.0938 0.6042,0.7291 0.9063,1.7396 0.9063,3.0312 v 0.5391 c 0,1.2864 -0.2995,2.2917 -0.8984,3.0156 -0.599,0.724 -1.4376,1.0859 -2.5157,1.0859 -1.0833,0 -1.9271,-0.3619 -2.5312,-1.0859 -0.599,-0.7292 -0.8985,-1.7396 -0.8985,-3.0312 z m 2.2188,0.5547 c 0,1.5104 0.4036,2.2656 1.2109,2.2656 0.7448,0 1.1459,-0.6302 1.2031,-1.8906 L 45.2891,25.5 c 0,-0.7708 -0.1068,-1.3411 -0.3203,-1.7109 -0.2136,-0.375 -0.5157,-0.5625 -0.9063,-0.5625 -0.375,0 -0.6693,0.1875 -0.8828,0.5625 -0.2083,0.3698 -0.3125,0.9401 -0.3125,1.7109 z" />
      <path
         id="path843"
         fill="#ffffff"
         d="m 55.0312,26.2891 0.7579,-4.7422 h 2.1171 L 56.1562,30 H 54.3203 L 53.125,25.1094 51.9297,30 h -1.8438 l -1.75,-8.4531 h 2.125 l 0.75,4.75 1.125,-4.75 h 1.5703 z" />
    </g>
    <path
       d="m 73.674384,30.308908 c -1.1354,0 -2.0208,-0.3385 -2.6562,-1.0156 -0.6354,-0.6771 -0.9531,-1.6458 -0.9531,-2.9062 v -0.6719 c 0,-1.3333 0.2916,-2.362 0.875,-3.0859 0.5833,-0.724 1.4192,-1.086 2.5078,-1.086 1.0625,0 1.862,0.3412 2.3984,1.0235 0.5365,0.677 0.8099,1.6823 0.8203,3.0156 v 1.0859 h -4.3984 c 0.0312,0.625 0.1693,1.0834 0.4141,1.375 0.2447,0.2865 0.6223,0.4297 1.1328,0.4297 0.7395,0 1.3567,-0.2526 1.8515,-0.7578 l 0.8672,1.3359 c -0.2708,0.375 -0.6641,0.6797 -1.1797,0.9141 -0.5156,0.2292 -1.0755,0.3437 -1.6797,0.3437 z m -1.3906,-5.1874 h 2.2109 v -0.2032 c -0.0104,-0.5052 -0.0937,-0.888 -0.25,-1.1484 -0.1562,-0.2604 -0.427,-0.3906 -0.8124,-0.3906 -0.3855,0 -0.6667,0.138 -0.8438,0.414 -0.1719,0.2761 -0.2734,0.7188 -0.3047,1.3282 z"
       fill="#ffffff"
       id="path851" />
    <path
       d="M 61.814175,30.349607 V 18.633071 h 3.0078 c 1.3281,0 2.3854,0.434568 3.1719,1.3036 0.7917,0.869135 1.1953,2.06005 1.2109,3.572951 v 1.899057 c 0,1.539683 -0.3958,2.749447 -1.1875,3.629294 -0.7864,0.874388 -1.8724,1.311634 -3.2578,1.311634 z m 2.2969,-9.744965 v 7.781532 h 0.6875 c 0.7656,0 1.3047,-0.206623 1.6172,-0.619663 0.3125,-0.418499 0.4765,-1.137355 0.4921,-2.156668 v -2.035844 c 0,-1.094402 -0.1484,-1.856209 -0.4453,-2.28542 -0.2968,-0.434568 -0.802,-0.662512 -1.5156,-0.683937 z"
       fill="#ffffff"
       id="path106"
       style="stroke-width:1.0149" />
    <path
       d="m 81.875908,23.832408 -0.7344,-0.0625 c -0.6042,0 -1.013,0.2656 -1.2265,0.7969 v 5.5859 h -2.2188 v -8.4531 h 2.0859 l 0.0625,0.914 c 0.349,-0.7135 0.8308,-1.0703 1.4454,-1.0703 0.25,0 0.4531,0.0339 0.6093,0.1016 z"
       fill="#ffffff"
       id="path1059" />
  </g>
  <g
     transform="translate(1.7848891,-10.36181)"
     id="g2922">
    <path
       d="m 42.537632,133.70064 v -9.953 h 3.0762 c 1.039,0 1.8274,0.232 2.3652,0.697 0.5423,0.46 0.8135,1.137 0.8135,2.03 0,0.506 -0.1117,0.941 -0.335,1.306 -0.2233,0.365 -0.5286,0.631 -0.916,0.8 0.4466,0.127 0.7907,0.385 1.0322,0.772 0.2416,0.383 0.3623,0.857 0.3623,1.422 0,0.966 -0.2666,1.696 -0.7998,2.188 -0.5286,0.492 -1.2965,0.738 -2.3037,0.738 z m 2.0098,-4.327 v 2.659 h 1.2851 c 0.36,0 0.6335,-0.112 0.8203,-0.335 0.1869,-0.223 0.2803,-0.54 0.2803,-0.95 0,-0.893 -0.3236,-1.351 -0.9707,-1.374 z m 0,-1.463 h 1.0459 c 0.7884,0 1.1826,-0.408 1.1826,-1.224 0,-0.451 -0.0912,-0.774 -0.2735,-0.97 -0.1823,-0.196 -0.4785,-0.294 -0.8886,-0.294 h -1.0664 z"
       fill="#ffffff"
       id="path857" />
    <path
       d="m 53.979067,133.54895 c -0.0547,-0.114 -0.1093,-0.305 -0.164,-0.574 -0.3464,0.474 -0.8158,0.711 -1.4082,0.711 -0.6198,0 -1.1348,-0.205 -1.545,-0.616 -0.4056,-0.41 -0.6084,-0.941 -0.6084,-1.592 0,-0.775 0.2461,-1.374 0.7383,-1.798 0.4968,-0.424 1.21,-0.64 2.1397,-0.65 h 0.5879 v -0.594 c 0,-0.333 -0.057,-0.568 -0.1709,-0.704 -0.114,-0.137 -0.2803,-0.205 -0.4991,-0.205 -0.483,0 -0.7246,0.282 -0.7246,0.847 h -1.9345 c 0,-0.683 0.2552,-1.246 0.7656,-1.688 0.515,-0.447 1.1644,-0.67 1.9482,-0.67 0.8112,0 1.4379,0.212 1.8799,0.636 0.446601,0.419 0.669901,1.02 0.669901,1.804 v 3.48 c 0.0092,0.638 0.1003,1.137 0.2735,1.497 v 0.116 z m -1.1416,-1.381 c 0.2142,0 0.3965,-0.043 0.5469,-0.13 0.1504,-0.086 0.2621,-0.189 0.335,-0.307 v -1.538 h -0.4649 c -0.3281,0 -0.5879,0.104 -0.7793,0.314 -0.1868,0.21 -0.2802,0.49 -0.2802,0.841 0,0.547 0.2141,0.82 0.6425,0.82 z"
       fill="#ffffff"
       id="path861" />
    <path
       d="m 67.088093,131.56695 c 0,-0.164 -0.0797,-0.315 -0.2392,-0.452 -0.155,-0.141 -0.5036,-0.33 -1.0459,-0.567 -0.7976,-0.324 -1.3467,-0.659 -1.6475,-1.005 -0.2962,-0.346 -0.4443,-0.777 -0.4443,-1.292 0,-0.647 0.2324,-1.18 0.6972,-1.599 0.4694,-0.424 1.0892,-0.636 1.8594,-0.636 0.8112,0 1.4606,0.209 1.9483,0.629 0.4876,0.419 0.7314,0.982 0.7314,1.688 h -1.9346 c 0,-0.601 -0.2506,-0.902 -0.7519,-0.902 -0.2051,0 -0.3737,0.064 -0.5059,0.191 -0.1321,0.128 -0.1982,0.306 -0.1982,0.533 0,0.165 0.0729,0.31 0.2187,0.438 0.1459,0.123 0.4899,0.301 1.0322,0.533 0.7885,0.292 1.3444,0.618 1.668,0.978 0.3281,0.355 0.4922,0.818 0.4922,1.387 0,0.661 -0.2484,1.192 -0.7451,1.593 -0.4968,0.401 -1.1485,0.602 -1.9551,0.602 -0.5423,0 -1.0208,-0.105 -1.4355,-0.315 -0.4148,-0.214 -0.7406,-0.51 -0.9776,-0.888 -0.2324,-0.379 -0.3486,-0.787 -0.3486,-1.224 h 1.8389 c 0.0091,0.337 0.0865,0.59 0.2324,0.759 0.1504,0.168 0.3942,0.253 0.7314,0.253 0.5196,0 0.7793,-0.235 0.7793,-0.704 z"
       fill="#ffffff"
       id="path863" />
    <path
       id="path863-9"
       fill="#ffffff"
       d="m 60.491503,131.56801 c 0,-0.164 -0.0797,-0.315 -0.2392,-0.452 -0.155,-0.141 -0.5036,-0.33 -1.0459,-0.567 -0.7976,-0.324 -1.3467,-0.659 -1.6475,-1.005 -0.2962,-0.346 -0.4443,-0.777 -0.4443,-1.292 0,-0.647 0.2324,-1.18 0.6972,-1.599 0.4694,-0.424 1.0892,-0.636 1.8594,-0.636 0.8112,0 1.4606,0.209 1.9483,0.629 0.4876,0.419 0.7314,0.982 0.7314,1.688 h -1.9346 c 0,-0.601 -0.2506,-0.902 -0.7519,-0.902 -0.2051,0 -0.3737,0.064 -0.5059,0.191 -0.1321,0.128 -0.1982,0.306 -0.1982,0.533 0,0.165 0.0729,0.31 0.2187,0.438 0.1459,0.123 0.4899,0.301 1.0322,0.533 0.7885,0.292 1.3444,0.618 1.668,0.978 0.3281,0.355 0.4922,0.818 0.4922,1.387 0,0.661 -0.2484,1.192 -0.7451,1.593 -0.4968,0.401 -1.1485,0.602 -1.9551,0.602 -0.5423,0 -1.0208,-0.105 -1.4355,-0.315 -0.4148,-0.214 -0.7406,-0.51 -0.9776,-0.888 -0.2324,-0.379 -0.3486,-0.787 -0.3486,-1.224 h 1.8389 c 0.0091,0.337 0.0865,0.59 0.2324,0.759 0.1504,0.168 0.3942,0.253 0.7314,0.253 0.5196,0 0.7793,-0.235 0.7793,-0.704 z" />
  </g>
  <path
     d="m 78.366658,333.83257 c 0.4668,0.467 1.2257,0.468 1.6736,-0.017 3.7439,-4.055 6.3024,-9.07 7.3821,-14.498 1.1575,-5.82 0.5634,-11.852 -1.7072,-17.334 -2.2706,-5.481 -6.1158,-10.167 -11.049301,-13.463 -4.9335,-3.297 -10.7337,-5.056 -16.6671,-5.056 -5.9334,0 -11.7336,1.759 -16.667101,5.056 -4.933499,3.296 -8.778699,7.982 -11.049299,13.463 -2.2706,5.482 -2.8647,11.514 -1.7072,17.334 1.0797,5.428 3.6382,10.443 7.3821,14.498 0.4479,0.485 1.2068,0.484 1.6736,0.017 v 0 c 0.466899,-0.467 0.464699,-1.222 0.0185,-1.709 -3.4104,-3.719 -5.7417,-8.309 -6.7292,-13.273 -1.0653,-5.355 -0.5185,-10.907 1.5712,-15.952 2.0896,-5.044 5.628299,-9.356 10.168599,-12.39 4.540301,-3.034 9.878201,-4.653 15.338801,-4.653 5.4606,0 10.7985,1.619 15.3388,4.653 4.540301,3.034 8.079001,7.346 10.168601,12.39 2.0897,5.045 2.6365,10.597 1.5712,15.952 -0.9875,4.964 -3.3188,9.554 -6.7292,13.273 -0.4462,0.487 -0.4484,1.242 0.0185,1.709 z"
     fill="#daa520"
     id="path905-0" />
  <g
     transform="translate(0,-3.7795273)"
     id="g3049">
    <path
       d="m 47.815323,195.10441 h -2.4609 v 8.27801 h -2.0166 v -8.27801 h -2.4199 v -1.675 h 6.8974 z"
       fill="#ffffff"
       id="path24" />
    <path
       d="m 51.70612,197.78596 -0.642,-0.055 c -0.529,0 -0.887,0.232 -1.073,0.697 v 4.888 h -1.9418 v -7.396 h 1.8248 l 0.055,0.799 c 0.305,-0.624 0.727,-0.936 1.265,-0.936 0.219,0 0.396,0.029 0.533,0.089 z"
       fill="#ffffff"
       id="path80" />
    <path
       d="m 55.293931,203.27459 c -0.993,0 -1.768,-0.297 -2.324,-0.889 -0.556,-0.592 -0.834,-1.44 -0.834,-2.543 v -0.588 c 0,-1.166 0.255,-2.067 0.766,-2.7 0.51,-0.633 1.242,-0.95 2.194,-0.95 0.93,0 1.629,0.298 2.099,0.895 0.469,0.593 0.708,1.472 0.717,2.639 v 0.95 h -3.848 c 0.027,0.547 0.148,0.948 0.362,1.203 0.214,0.251 0.545,0.376 0.991,0.376 0.647,0 1.187,-0.221 1.62,-0.663 l 0.759,1.169 c -0.237,0.328 -0.581,0.595 -1.032,0.8 -0.451,0.2 -0.941,0.301 -1.47,0.301 z m -1.217,-4.539 h 1.935 v -0.178 c -0.009,-0.442 -0.082,-0.777 -0.219,-1.005 -0.136,-0.228 -0.373,-0.342 -0.711,-0.342 -0.337,0 -0.583,0.121 -0.738,0.363 -0.15,0.241 -0.239,0.628 -0.267,1.162 z"
       fill="#ffffff"
       id="path88" />
    <path
       d="m 64.58289,199.79691 c 0,1.199 -0.1914,2.099 -0.5742,2.7 -0.3829,0.597 -0.9844,0.896 -1.8047,0.896 -0.6426,0 -1.1576,-0.29 -1.545,-0.868 l -0.0615,0.731 h -1.7842 v -10.5 h 1.9346 v 3.705 c 0.3646,-0.492 0.8454,-0.738 1.4424,-0.738 0.8203,0 1.4219,0.298 1.8047,0.895 0.3828,0.593 0.5788,1.463 0.5879,2.612 z m -1.9346,-0.485 c 0,-0.78 -0.0752,-1.301 -0.2256,-1.566 -0.1504,-0.269 -0.4124,-0.403 -0.7861,-0.403 -0.4056,0 -0.7018,0.184 -0.8887,0.554 v 3.37 c 0.1732,0.346 0.474,0.519 0.9024,0.519 0.3691,0 0.6243,-0.12 0.7656,-0.362 0.1458,-0.242 0.2233,-0.711 0.2324,-1.408 z"
       fill="#ffffff"
       id="path1029" />
    <path
       d="m 67.466537,203.4761 h -1.9414 v -10.5 h 1.9414 z"
       fill="#ffffff"
       id="path42" />
    <path
       id="path88-6"
       fill="#ffffff"
       d="m 71.468088,203.72966 c -0.993,0 -1.768,-0.297 -2.324,-0.889 -0.556,-0.592 -0.834,-1.44 -0.834,-2.543 v -0.588 c 0,-1.166 0.255,-2.067 0.766,-2.7 0.51,-0.633 1.242,-0.95 2.194,-0.95 0.93,0 1.629,0.298 2.099,0.895 0.469,0.593 0.708,1.472 0.717,2.639 v 0.95 h -3.848 c 0.027,0.547 0.148,0.948 0.362,1.203 0.214,0.251 0.545,0.376 0.991,0.376 0.647,0 1.187,-0.221 1.62,-0.663 l 0.759,1.169 c -0.237,0.328 -0.581,0.595 -1.032,0.8 -0.451,0.2 -0.941,0.301 -1.47,0.301 z m -1.217,-4.539 h 1.935 v -0.178 c -0.009,-0.442 -0.082,-0.777 -0.219,-1.005 -0.136,-0.228 -0.373,-0.342 -0.711,-0.342 -0.337,0 -0.583,0.121 -0.738,0.363 -0.15,0.241 -0.239,0.628 -0.267,1.162 z" />
  </g>
  <g
     transform="translate(11.236237,-0.90377903)"
     id="g3079">
    <path
       d="m 34.745497,351.39727 v -9.953 h 3.0762 c 1.039,0 1.8274,0.232 2.3652,0.697 0.5423,0.46 0.8135,1.137 0.8135,2.03 0,0.506 -0.1117,0.941 -0.335,1.306 -0.2233,0.365 -0.5286,0.631 -0.916,0.8 0.4466,0.127 0.7907,0.385 1.0322,0.772 0.2416,0.383 0.3623,0.857 0.3623,1.422 0,0.966 -0.2666,1.696 -0.7998,2.188 -0.5286,0.492 -1.2965,0.738 -2.3037,0.738 z m 2.0098,-4.327 v 2.659 h 1.2851 c 0.36,0 0.6335,-0.112 0.8203,-0.335 0.1869,-0.223 0.2803,-0.54 0.2803,-0.95 0,-0.893 -0.3236,-1.351 -0.9707,-1.374 z m 0,-1.463 h 1.0459 c 0.7884,0 1.1826,-0.408 1.1826,-1.224 0,-0.451 -0.0912,-0.774 -0.2735,-0.97 -0.1823,-0.196 -0.4785,-0.294 -0.8886,-0.294 h -1.0664 z"
       fill="#ffffff"
       id="path857-3" />
    <path
       d="m 44.541398,351.39727 h -1.941401 v -7.396 h 1.941401 z m -2.030301,-9.311 c 0,-0.3 0.0957,-0.546 0.287101,-0.738 0.1914,-0.191 0.4466,-0.287 0.7657,-0.287 0.319,0 0.5742,0.096 0.7656,0.287 0.1914,0.192 0.2871,0.438 0.2871,0.738 0,0.297 -0.0957,0.543 -0.2871,0.739 -0.1869,0.196 -0.4421,0.294 -0.7656,0.294 -0.3236,0 -0.5811,-0.098 -0.7725,-0.294 -0.186901,-0.196 -0.280301,-0.442 -0.280301,-0.739 z"
       fill="#ffffff"
       id="path859" />
    <path
       d="m 49.552097,351.39727 c -0.0547,-0.114 -0.1093,-0.305 -0.164,-0.574 -0.3464,0.474 -0.8158,0.711 -1.4082,0.711 -0.6198,0 -1.1348,-0.205 -1.545,-0.616 -0.4056,-0.41 -0.6084,-0.941 -0.6084,-1.592 0,-0.775 0.2461,-1.374 0.7383,-1.798 0.4968,-0.424 1.21,-0.64 2.1397,-0.65 h 0.5879 v -0.594 c 0,-0.333 -0.057,-0.568 -0.1709,-0.704 -0.114,-0.137 -0.2803,-0.205 -0.4991,-0.205 -0.483,0 -0.7246,0.282 -0.7246,0.847 h -1.9345 c 0,-0.683 0.2552,-1.246 0.7656,-1.688 0.515,-0.447 1.1644,-0.67 1.9482,-0.67 0.8112,0 1.4379,0.212 1.8799,0.636 0.446601,0.419 0.669901,1.02 0.669901,1.804 v 3.48 c 0.0092,0.638 0.1003,1.137 0.2735,1.497 v 0.116 z m -1.1416,-1.381 c 0.2142,0 0.3965,-0.043 0.5469,-0.13 0.1504,-0.086 0.2621,-0.189 0.335,-0.307 v -1.538 h -0.4649 c -0.3281,0 -0.5879,0.104 -0.7793,0.314 -0.1868,0.21 -0.2802,0.49 -0.2802,0.841 0,0.547 0.2141,0.82 0.6425,0.82 z"
       fill="#ffffff"
       id="path861-9" />
    <path
       d="m 55.902698,349.41527 c 0,-0.164 -0.0797,-0.315 -0.2392,-0.452 -0.155,-0.141 -0.5036,-0.33 -1.0459,-0.567 -0.7976,-0.324 -1.3467,-0.659 -1.6475,-1.005 -0.2962,-0.346 -0.4443,-0.777 -0.4443,-1.292 0,-0.647 0.2324,-1.18 0.6972,-1.599 0.4694,-0.424 1.0892,-0.636 1.8594,-0.636 0.8112,0 1.4606,0.209 1.9483,0.629 0.4876,0.419 0.7314,0.982 0.7314,1.688 h -1.9346 c 0,-0.601 -0.2506,-0.902 -0.7519,-0.902 -0.2051,0 -0.3737,0.064 -0.5059,0.191 -0.1321,0.128 -0.1982,0.306 -0.1982,0.533 0,0.165 0.0729,0.31 0.2187,0.438 0.1459,0.123 0.4899,0.301 1.0322,0.533 0.7885,0.292 1.3444,0.618 1.668,0.978 0.3281,0.355 0.4922,0.818 0.4922,1.387 0,0.661 -0.2484,1.192 -0.7451,1.593 -0.4968,0.401 -1.1485,0.602 -1.9551,0.602 -0.5423,0 -1.0208,-0.105 -1.4355,-0.315 -0.4148,-0.214 -0.7406,-0.51 -0.9776,-0.888 -0.2324,-0.379 -0.3486,-0.787 -0.3486,-1.224 h 1.8389 c 0.0091,0.337 0.0865,0.59 0.2324,0.759 0.1504,0.168 0.3942,0.253 0.7314,0.253 0.5196,0 0.7793,-0.235 0.7793,-0.704 z"
       fill="#ffffff"
       id="path863-90" />
  </g>
  <g
     transform="translate(11.844555,-8.2359026)"
     id="g3113">
    <path
       d="m 31.759856,283.13884 v -9.953 h 2.6318 c 1.1621,0 2.0873,0.369 2.7754,1.107 0.6927,0.739 1.0459,1.75 1.0596,3.035 v 1.614 c 0,1.308 -0.3464,2.335 -1.0391,3.083 -0.6881,0.743 -1.6383,1.114 -2.8506,1.114 z m 2.0097,-8.278 v 6.61 h 0.6016 c 0.6699,0 1.1416,-0.175 1.415,-0.526 0.2735,-0.356 0.417,-0.966 0.4307,-1.832 v -1.73 c 0,-0.93 -0.1299,-1.577 -0.3896,-1.941 -0.2598,-0.369 -0.7019,-0.563 -1.3262,-0.581 z"
       fill="#ffffff"
       id="path885" />
    <path
       d="m 43.230556,277.60884 -0.6426,-0.055 c -0.5286,0 -0.8864,0.232 -1.0732,0.697 v 4.888 h -1.9414 v -7.396 h 1.8251 l 0.0547,0.799 c 0.3054,-0.624 0.7269,-0.936 1.2647,-0.936 0.2187,0 0.3965,0.029 0.5332,0.089 z"
       fill="#ffffff"
       id="path887" />
    <path
       d="m 46.258856,283.13884 h -1.9414 v -7.396 h 1.9414 z m -2.0303,-9.311 c 0,-0.3 0.0957,-0.546 0.2871,-0.738 0.1914,-0.191 0.4466,-0.287 0.7657,-0.287 0.319,0 0.5742,0.096 0.7656,0.287 0.1914,0.192 0.2871,0.438 0.2871,0.738 0,0.297 -0.0957,0.543 -0.2871,0.739 -0.1869,0.196 -0.4421,0.294 -0.7656,0.294 -0.3236,0 -0.5811,-0.098 -0.7725,-0.294 -0.1869,-0.196 -0.2803,-0.442 -0.2803,-0.739 z"
       fill="#ffffff"
       id="path889" />
    <path
       d="m 50.182657,280.40484 0.9366,-4.662 h 2.0166 l -2.0303,7.396 h -1.8457 l -2.037101,-7.396 h 2.023401 z"
       fill="#ffffff"
       id="path891" />
    <path
       d="m 56.936557,283.27584 c -0.9935,0 -1.7682,-0.297 -2.3242,-0.889 -0.556,-0.592 -0.834,-1.44 -0.834,-2.543 v -0.588 c 0,-1.166 0.2552,-2.067 0.7657,-2.7 0.5104,-0.633 1.2418,-0.95 2.1943,-0.95 0.9297,0 1.6292,0.298 2.0986,0.895 0.4694,0.593 0.7087,1.472 0.7178,2.639 v 0.95 h -3.8486 c 0.0273,0.547 0.1481,0.948 0.3623,1.203 0.2142,0.251 0.5446,0.376 0.9912,0.376 0.6471,0 1.1872,-0.221 1.6201,-0.663 l 0.7588,1.169 c -0.237,0.328 -0.5811,0.595 -1.0322,0.8 -0.4512,0.2 -0.9411,0.301 -1.4698,0.301 z m -1.2168,-4.539 h 1.9346 v -0.178 c -0.0091,-0.442 -0.082,-0.777 -0.2187,-1.005 -0.1368,-0.228 -0.3737,-0.342 -0.711,-0.342 -0.3372,0 -0.5833,0.121 -0.7383,0.363 -0.1504,0.241 -0.2392,0.628 -0.2666,1.162 z"
       fill="#ffffff"
       id="path893" />
  </g>
</svg>
