<?xml version="1.0" encoding="UTF-8" standalone="no"?>
<svg
   xmlns:dc="http://purl.org/dc/elements/1.1/"
   xmlns:cc="http://creativecommons.org/ns#"
   xmlns:rdf="http://www.w3.org/1999/02/22-rdf-syntax-ns#"
   xmlns:svg="http://www.w3.org/2000/svg"
   xmlns="http://www.w3.org/2000/svg"
   xmlns:sodipodi="http://sodipodi.sourceforge.net/DTD/sodipodi-0.dtd"
   xmlns:inkscape="http://www.inkscape.org/namespaces/inkscape"
   width="40.745834mm"
   height="128.58749mm"
   viewBox="0 0 154 486"
   fill="none"
   version="1.1"
   id="svg78"
   sodipodi:docname="ChowPulse.svg"
   inkscape:version="1.0 (4035a4fb49, 2020-05-01)">
  <metadata
     id="metadata84">
    <rdf:RDF>
      <cc:Work
         rdf:about="">
        <dc:format>image/svg+xml</dc:format>
        <dc:type
           rdf:resource="http://purl.org/dc/dcmitype/StillImage" />
        <dc:title></dc:title>
      </cc:Work>
    </rdf:RDF>
  </metadata>
  <defs
     id="defs82" />
  <sodipodi:namedview
     inkscape:document-rotation="0"
     pagecolor="#ffffff"
     bordercolor="#666666"
     borderopacity="1"
     objecttolerance="10"
     gridtolerance="10"
     guidetolerance="10"
     inkscape:pageopacity="0"
     inkscape:pageshadow="2"
     inkscape:window-width="1291"
     inkscape:window-height="991"
     id="namedview80"
     showgrid="false"
     inkscape:document-units="mm"
     units="mm"
     inkscape:zoom="2.4152206"
     inkscape:cx="115.11577"
     inkscape:cy="315.79171"
     inkscape:window-x="619"
     inkscape:window-y="0"
     inkscape:window-maximized="0"
     inkscape:current-layer="svg78" />
  <path
     d="M 0,0 H 154 V 486 H 0 Z"
     fill="#16161d"
     id="path2" />
  <path
     d="m 27.3096,191 v -7.82 h 2.0678 c 0.9131,0 1.64,0.29 2.1807,0.87 0.5443,0.58 0.8218,1.375 0.8325,2.385 v 1.267 c 0,1.028 -0.2721,1.835 -0.8164,2.423 -0.5407,0.583 -1.2873,0.875 -2.2397,0.875 z m 1.5791,-6.504 v 5.193 h 0.4726 c 0.5264,0 0.897,-0.137 1.1118,-0.413 0.2149,-0.279 0.3277,-0.759 0.3384,-1.44 v -1.358 c 0,-0.731 -0.102,-1.239 -0.3061,-1.526 -0.2041,-0.29 -0.5515,-0.442 -1.042,-0.456 z"
     fill="#ffffff"
     id="path12" />
  <path
     d="m 37.5684,187.616 h -2.46 v 2.073 h 2.9111 V 191 h -4.4902 v -7.82 h 4.4795 v 1.316 h -2.9004 v 1.847 h 2.46 z"
     fill="#ffffff"
     id="path14" />
  <path
     d="m 44.2339,188.395 c -0.0394,0.892 -0.2901,1.567 -0.752,2.025 -0.4619,0.458 -1.1136,0.687 -1.955,0.687 -0.8845,0 -1.563,-0.29 -2.0357,-0.87 -0.4691,-0.583 -0.7036,-1.414 -0.7036,-2.492 v -1.316 c 0,-1.074 0.2435,-1.901 0.7305,-2.481 0.4869,-0.584 1.1637,-0.876 2.0302,-0.876 0.8523,0 1.4986,0.238 1.939,0.715 0.444,0.476 0.6965,1.16 0.7573,2.051 h -1.5844 c -0.0144,-0.551 -0.1003,-0.931 -0.2579,-1.138 -0.1539,-0.212 -0.4386,-0.317 -0.854,-0.317 -0.4225,0 -0.7215,0.148 -0.8969,0.446 -0.1755,0.293 -0.2686,0.778 -0.2793,1.455 v 1.477 c 0,0.777 0.0859,1.311 0.2578,1.601 0.1754,0.29 0.4744,0.435 0.897,0.435 0.4153,0 0.7018,-0.1 0.8593,-0.301 0.1576,-0.204 0.2471,-0.571 0.2686,-1.101 z"
     fill="#ffffff"
     id="path16" />
  <path
     d="M 48.939,189.399 H 46.7852 L 46.3662,191 h -1.6704 l 2.4438,-7.82 h 1.4449 l 2.4599,7.82 h -1.6865 z m -1.8101,-1.316 h 1.4609 l -0.7304,-2.787 z"
     fill="#ffffff"
     id="path18" />
  <path
     d="m 53.3325,186.692 1.1763,-3.512 h 1.7187 l -2.0947,4.984 V 191 h -1.6006 v -2.836 l -2.1001,-4.984 h 1.7188 z"
     fill="#ffffff"
     id="path20" />
  <path
     d="m 133.368,121.368 c 0.467,0.467 1.226,0.468 1.674,-0.017 3.743,-4.055 6.302,-9.07 7.382,-14.498 1.157,-5.82 0.563,-11.8517 -1.708,-17.3335 -2.27,-5.4818 -6.115,-10.1671 -11.049,-13.4636 C 124.734,72.7595 118.933,71 113,71 c -5.933,0 -11.734,1.7595 -16.6671,5.0559 -4.9335,3.2965 -8.7786,7.9818 -11.0493,13.4636 -2.2706,5.4818 -2.8647,11.5135 -1.7071,17.3335 1.0797,5.428 3.6381,10.443 7.382,14.498 0.4479,0.485 1.2068,0.484 1.6736,0.017 v 0 c 0.4669,-0.467 0.4647,-1.222 0.0185,-1.709 -3.4104,-3.719 -5.7417,-8.309 -6.7292,-13.273 -1.0653,-5.355 -0.5185,-10.9066 1.5712,-15.9515 2.0896,-5.0449 5.6284,-9.3569 10.1686,-12.3906 4.5408,-3.0337 9.8778,-4.653 15.3388,-4.653 5.461,0 10.799,1.6193 15.339,4.653 4.54,3.0337 8.079,7.3457 10.168,12.3906 2.09,5.0449 2.637,10.5965 1.572,15.9515 -0.988,4.964 -3.319,9.554 -6.73,13.273 -0.446,0.487 -0.448,1.242 0.019,1.709 z"
     fill="#d6700a"
     id="path38" />
  <path
     d="m 133.368,193.368 c 0.467,0.467 1.226,0.468 1.674,-0.017 3.743,-4.055 6.302,-9.07 7.382,-14.498 1.157,-5.82 0.563,-11.852 -1.708,-17.334 -2.27,-5.481 -6.115,-10.167 -11.049,-13.463 C 124.734,144.759 118.933,143 113,143 c -5.933,0 -11.734,1.759 -16.6671,5.056 -4.9335,3.296 -8.7786,7.982 -11.0493,13.463 -2.2706,5.482 -2.8647,11.514 -1.7071,17.334 1.0797,5.428 3.6381,10.443 7.382,14.498 0.4479,0.485 1.2068,0.484 1.6736,0.017 v 0 c 0.4669,-0.467 0.4647,-1.222 0.0185,-1.709 -3.4104,-3.719 -5.7417,-8.309 -6.7292,-13.273 -1.0653,-5.355 -0.5185,-10.907 1.5712,-15.952 2.0896,-5.044 5.6284,-9.356 10.1686,-12.39 4.5408,-3.034 9.8778,-4.653 15.3388,-4.653 5.461,0 10.799,1.619 15.339,4.653 4.54,3.034 8.079,7.346 10.168,12.39 2.09,5.045 2.637,10.597 1.572,15.952 -0.988,4.964 -3.319,9.554 -6.73,13.273 -0.446,0.487 -0.448,1.242 0.019,1.709 z"
     fill="#d6700a"
     id="path40" />
  <path
     d="m 133.368,265.368 c 0.467,0.467 1.226,0.468 1.674,-0.017 3.743,-4.055 6.302,-9.07 7.382,-14.498 1.157,-5.82 0.563,-11.852 -1.708,-17.334 -2.27,-5.481 -6.115,-10.167 -11.049,-13.463 C 124.734,216.759 118.933,215 113,215 c -5.933,0 -11.734,1.759 -16.6671,5.056 -4.9335,3.296 -8.7786,7.982 -11.0493,13.463 -2.2706,5.482 -2.8647,11.514 -1.7071,17.334 1.0797,5.428 3.6381,10.443 7.382,14.498 0.4479,0.485 1.2068,0.484 1.6736,0.017 v 0 c 0.4669,-0.467 0.4647,-1.222 0.0185,-1.709 -3.4104,-3.719 -5.7417,-8.309 -6.7292,-13.273 -1.0653,-5.355 -0.5185,-10.907 1.5712,-15.952 2.0896,-5.044 5.6284,-9.356 10.1686,-12.39 4.5408,-3.034 9.8778,-4.653 15.3388,-4.653 5.461,0 10.799,1.619 15.339,4.653 4.54,3.034 8.079,7.346 10.168,12.39 2.09,5.045 2.637,10.597 1.572,15.952 -0.988,4.964 -3.319,9.554 -6.73,13.273 -0.446,0.487 -0.448,1.242 0.019,1.709 z"
     fill="#d6700a"
     id="path42" />
  <path
     d="m 8,0 h 138 v 47 c 0,2.2091 -1.791,4 -4,4 H 12 C 9.79086,51 8,49.2091 8,47 Z"
     fill="#d6700a"
     id="path46" />
  <path
     d="m 46.9297,26.2109 c -0.0573,1.2969 -0.4219,2.2787 -1.0938,2.9453 -0.6718,0.6667 -1.6198,1 -2.8437,1 -1.2865,0 -2.2734,-0.4218 -2.961,-1.2656 -0.6822,-0.8489 -1.0234,-2.0573 -1.0234,-3.625 v -1.914 c 0,-1.5625 0.3542,-2.7657 1.0625,-3.6094 0.7083,-0.849 1.6927,-1.2734 2.9531,-1.2734 1.2396,0 2.1797,0.3463 2.8204,1.039 0.6458,0.6927 1.013,1.6875 1.1015,2.9844 h -2.3047 c -0.0208,-0.8021 -0.1458,-1.3542 -0.375,-1.6563 -0.2239,-0.3073 -0.638,-0.4609 -1.2422,-0.4609 -0.6145,0 -1.0494,0.2161 -1.3046,0.6484 -0.2553,0.4271 -0.3907,1.1328 -0.4063,2.1172 v 2.1485 c 0,1.1302 0.125,1.9062 0.375,2.3281 0.2552,0.4219 0.6901,0.6328 1.3047,0.6328 0.6042,0 1.0208,-0.1458 1.25,-0.4375 0.2292,-0.2969 0.3594,-0.8307 0.3906,-1.6016 z"
     fill="#ffffff"
     id="path48" />
  <path
     d="m 50.3906,22.2891 c 0.4792,-0.599 1.0677,-0.8985 1.7656,-0.8985 0.7709,0 1.3568,0.2709 1.7579,0.8125 0.401,0.5417 0.6041,1.349 0.6093,2.4219 V 30 h -2.2187 v -5.3516 c 0,-0.4948 -0.0781,-0.8515 -0.2344,-1.0703 -0.151,-0.2239 -0.3984,-0.3359 -0.7422,-0.3359 -0.401,0 -0.7135,0.1849 -0.9375,0.5547 V 30 H 48.1797 V 18 h 2.2109 z"
     fill="#ffffff"
     id="path50" />
  <path
     d="m 55.8516,25.5 c 0,-1.2812 0.302,-2.2865 0.9062,-3.0156 0.6042,-0.7292 1.4401,-1.0938 2.5078,-1.0938 1.0782,0 1.9193,0.3646 2.5235,1.0938 0.6041,0.7291 0.9062,1.7396 0.9062,3.0312 v 0.5391 c 0,1.2864 -0.2995,2.2917 -0.8984,3.0156 -0.599,0.724 -1.4375,1.0859 -2.5157,1.0859 -1.0833,0 -1.927,-0.3619 -2.5312,-1.0859 -0.599,-0.7292 -0.8984,-1.7396 -0.8984,-3.0312 z m 2.2187,0.5547 c 0,1.5104 0.4037,2.2656 1.2109,2.2656 0.7448,0 1.1459,-0.6302 1.2032,-1.8906 L 60.4922,25.5 c 0,-0.7708 -0.1068,-1.3411 -0.3203,-1.7109 -0.2136,-0.375 -0.5157,-0.5625 -0.9063,-0.5625 -0.375,0 -0.6692,0.1875 -0.8828,0.5625 -0.2083,0.3698 -0.3125,0.9401 -0.3125,1.7109 z"
     fill="#ffffff"
     id="path52" />
  <path
     d="m 70.2344,26.2891 0.7578,-4.7422 h 2.1172 L 71.3594,30 h -1.836 L 68.3281,25.1094 67.1328,30 h -1.8437 l -1.75,-8.4531 h 2.125 l 0.75,4.75 1.125,-4.75 h 1.5703 z"
     fill="#ffffff"
     id="path54" />
  <path
     d="m 96.910687,30.878313 h -2.219 v -12 h 2.219 z"
     fill="#ffffff"
     id="path64" />
  <path
     d="m 74.9219,398 h -1.5791 v -7.82 h 1.5791 z"
     fill="#ffffff"
     id="path66" />
  <path
     d="m 81.7163,398 h -1.5791 l -2.3096,-5.129 V 398 h -1.5791 v -7.82 h 1.5791 l 2.315,5.134 v -5.134 h 1.5737 z"
     fill="#ffffff"
     id="path68" />
  <path
     d="m 74.186,460.793 c 0,1.05 -0.2488,1.864 -0.7465,2.444 -0.4942,0.58 -1.1817,0.87 -2.0625,0.87 -0.8773,0 -1.5666,-0.286 -2.0679,-0.859 -0.5013,-0.576 -0.7556,-1.382 -0.7627,-2.417 v -1.337 c 0,-1.075 0.2488,-1.912 0.7466,-2.514 0.4977,-0.605 1.1888,-0.908 2.0732,-0.908 0.8701,0 1.5558,0.297 2.0571,0.892 0.5013,0.591 0.7556,1.421 0.7627,2.492 z m -1.5844,-1.31 c 0,-0.705 -0.1003,-1.23 -0.3008,-1.574 -0.2005,-0.344 -0.5121,-0.515 -0.9346,-0.515 -0.4189,0 -0.7287,0.166 -0.9292,0.499 -0.2005,0.329 -0.3044,0.833 -0.3115,1.509 v 1.391 c 0,0.684 0.102,1.189 0.3061,1.515 0.2041,0.322 0.5192,0.484 0.9454,0.484 0.4117,0 0.7179,-0.158 0.9184,-0.473 0.2005,-0.319 0.3026,-0.811 0.3062,-1.477 z"
     fill="#ffffff"
     id="path70" />
  <path
     d="m 80.4058,456.18 v 5.414 c -0.0072,0.813 -0.231,1.436 -0.6714,1.869 -0.4405,0.43 -1.0725,0.644 -1.896,0.644 -0.8379,0 -1.4789,-0.218 -1.9229,-0.655 -0.4404,-0.437 -0.6606,-1.069 -0.6606,-1.896 v -5.376 h 1.5898 v 5.382 c 0,0.444 0.0716,0.76 0.2149,0.95 0.1432,0.19 0.4028,0.285 0.7788,0.285 0.376,0 0.6338,-0.093 0.7734,-0.279 0.1397,-0.19 0.2113,-0.5 0.2149,-0.93 v -5.408 z"
     fill="#ffffff"
     id="path72" />
  <path
     d="M 86.6685,457.496 H 84.7349 V 464 h -1.5845 v -6.504 H 81.249 v -1.316 h 5.4195 z"
     fill="#ffffff"
     id="path74" />
  <path
     fill-rule="evenodd"
     clip-rule="evenodd"
     d="m 62,413 h 31 c 3.3137,0 6,2.686 6,6 v 46 c 0,3.314 -2.6863,6 -6,6 H 62 c -3.3137,0 -6,-2.686 -6,-6 v -46 c 0,-3.314 2.6863,-6 6,-6 z m 0,2 c -2.2091,0 -4,1.791 -4,4 v 46 c 0,2.209 1.7909,4 4,4 h 31 c 2.2091,0 4,-1.791 4,-4 v -46 c 0,-2.209 -1.7909,-4 -4,-4 z"
     fill="#d6700a"
     id="path76" />
  <path
     id="path1049"
     fill="#ffffff"
     d="m 80.487658,26.675454 v 4 h -2.2969 v -11.375 h 3.875 c 1.125,0 2.0208,0.349 2.6875,1.0469 0.6719,0.6979 1.0078,1.6041 1.0078,2.7187 0,1.1146 -0.3307,1.9948 -0.9922,2.6406 -0.6614,0.6459 -1.5781,0.9688 -2.75,0.9688 z m 0,-1.9141 h 1.5781 c 0.4375,0 0.776,-0.1432 1.0156,-0.4297 0.2396,-0.2864 0.3594,-0.7031 0.3594,-1.25 0,-0.5677 -0.1224,-1.0182 -0.3672,-1.3515 -0.2448,-0.3386 -0.5729,-0.5104 -0.9844,-0.5156 h -1.6015 z" />
  <path
     style="stroke-width:1.07073"
     id="path871"
     fill="#ffffff"
     d="m 90.818275,29.955022 c -0.43633,0.572122 -1.021512,0.857656 -1.755329,0.857656 -0.738931,0 -1.299196,-0.245496 -1.68112,-0.735435 -0.381816,-0.494153 -0.572669,-1.211676 -0.572669,-2.15257 V 22.87567 h 2.104936 v 5.098524 c 0.01001,0.758615 0.270285,1.137922 0.781041,1.137922 0.481051,0 0.828156,-0.201243 1.041424,-0.604784 V 22.87567 h 2.119843 v 7.792661 h -1.978607 z" />
  <path
     id="path1055"
     fill="#ffffff"
     d="m 102.2714,28.652568 c 0,-0.1875 -0.0911,-0.3594 -0.2734,-0.5156 -0.1771,-0.1615 -0.5755,-0.3777 -1.1953,-0.6485 -0.911501,-0.3698 -1.539103,-0.7526 -1.8828,-1.1484 -0.3386,-0.3959 -0.5078,-0.888 -0.5078,-1.4766 0,-0.7396 0.2656,-1.3489 0.796797,-1.8281 0.536502,-0.4844 1.244803,-0.7266 2.125003,-0.7266 0.9271,0 1.6693,0.2396 2.2266,0.7188 0.5573,0.4791 0.8359,1.1224 0.8359,1.9297 h -2.2109 c 0,-0.6875 -0.2865,-1.0313 -0.8594,-1.0313 -0.2344,0 -0.4271,0.0729 -0.5781,0.2188 -0.1511,0.1458 -0.2266,0.3489 -0.2266,0.6093 0,0.1875 0.0834,0.3542 0.25,0.5 0.1667,0.1407 0.5599,0.3438 1.1797,0.6094 0.9011,0.3333 1.5365,0.7057 1.9063,1.1172 0.375,0.4063 0.5625,0.9349 0.5625,1.5859 0,0.7552 -0.2839,1.362 -0.8516,1.8204 -0.5677,0.4583 -1.3125,0.6874 -2.2344,0.6874 -0.6198,0 -1.1666,-0.1197 -1.640602,-0.3593 -0.474001,-0.2448 -0.846398,-0.5834 -1.117198,-1.0157 -0.2656,-0.4322 -0.3984,-0.8984 -0.3984,-1.3984 h 2.1015 c 0.0105,0.3854 0.099,0.6745 0.2657,0.8672 0.1718,0.1927 0.4505,0.2891 0.8359,0.2891 0.5937,0 0.8906,-0.2683 0.8906,-0.8047 z" />
  <path
     id="path1065"
     fill="#ffffff"
     d="m 108.92668,31.317742 c -1.1354,0 -2.0209,-0.3385 -2.6563,-1.0156 -0.6354,-0.6771 -0.9531,-1.6458 -0.9531,-2.9062 v -0.6719 c 0,-1.3333 0.2917,-2.362 0.875,-3.0859 0.5833,-0.724 1.4193,-1.086 2.5078,-1.086 1.0625,0 1.862,0.3412 2.3984,1.0235 0.5365,0.677 0.8099,1.6823 0.8204,3.0156 v 1.0859 h -4.3985 c 0.0313,0.625 0.1693,1.0834 0.4141,1.375 0.2448,0.2865 0.6224,0.4297 1.1328,0.4297 0.7396,0 1.3568,-0.2526 1.8516,-0.7578 l 0.8672,1.3359 c -0.2709,0.375 -0.6641,0.6797 -1.1797,0.9141 -0.5157,0.2292 -1.0756,0.3437 -1.6797,0.3437 z m -1.3906,-5.1874 h 2.2109 v -0.2032 c -0.0104,-0.5052 -0.0938,-0.888 -0.25,-1.1484 -0.1563,-0.2604 -0.4271,-0.3906 -0.8125,-0.3906 -0.3854,0 -0.6667,0.138 -0.8438,0.414 -0.1718,0.2761 -0.2734,0.7188 -0.3046,1.3282 z" />
  <path
     style="stroke-width:0.715975"
     id="path56-7"
     fill="#ffffff"
     d="m 32.509073,119.26277 -1.578358,-5.74019 -1.5727,5.74019 h -2.203998 v -7.93701 h 1.693185 v 2.14777 l -0.154941,3.30891 1.67019,-5.45668 h 1.147917 l 1.670264,5.45668 -0.155015,-3.30891 v -2.14777 h 1.687455 v 7.93701 z" />
  <path
     id="path110"
     fill="#ffffff"
     d="m 37.626069,119.26182 h -1.5791 v -7.82 h 1.5791 z" />
  <path
     id="path12-2"
     fill="#ffffff"
     d="m 38.833971,119.26182 v -7.82 h 2.0678 c 0.9131,0 1.64,0.29 2.1807,0.87 0.5443,0.58 0.8218,1.375 0.8325,2.385 v 1.267 c 0,1.028 -0.2721,1.835 -0.8164,2.423 -0.5407,0.583 -1.2873,0.875 -2.2397,0.875 z m 1.5791,-6.504 v 5.193 h 0.4726 c 0.5264,0 0.897,-0.137 1.1118,-0.413 0.2149,-0.279 0.3277,-0.759 0.3384,-1.44 v -1.358 c 0,-0.731 -0.102,-1.239 -0.3061,-1.526 -0.2041,-0.29 -0.5515,-0.442 -1.042,-0.456 z" />
  <path
     id="path74-3"
     fill="#ffffff"
     d="m 49.646872,113.05058 h -1.9336 v 6.504 h -1.5845 v -6.504 h -1.9014 v -1.316 h 5.4195 z" />
  <path
     style="stroke-width:0.768199"
     id="path68-9"
     fill="#ffffff"
     d="m 55.618581,119.5872 h -1.518417 v -3.31547 h -2.249199 v 3.31547 h -1.523723 v -7.74803 h 1.523723 v 3.13409 h 2.249199 v -3.13409 h 1.518417 z" />
  <g
     transform="translate(-0.78432099)"
     id="g6962">
    <path
       d="m 25.126369,262.86602 v -7.82 h 2.0678 c 0.9131,0 1.64,0.29 2.1807,0.87 0.5443,0.58 0.8218,1.375 0.8325,2.385 v 1.267 c 0,1.028 -0.2721,1.835 -0.8164,2.423 -0.5407,0.583 -1.2873,0.875 -2.2397,0.875 z m 1.5791,-6.504 v 5.193 h 0.4726 c 0.5264,0 0.897,-0.137 1.1118,-0.413 0.2149,-0.279 0.3277,-0.759 0.3384,-1.44 v -1.358 c 0,-0.731 -0.102,-1.239 -0.3061,-1.526 -0.2041,-0.29 -0.5515,-0.442 -1.042,-0.456 z"
       fill="#ffffff"
       id="path12-6" />
    <path
       d="m 36.743635,259.65946 c 0,1.05 -0.2488,1.864 -0.7465,2.444 -0.4942,0.58 -1.1817,0.87 -2.0625,0.87 -0.8773,0 -1.5666,-0.286 -2.0679,-0.859 -0.5013,-0.576 -0.7556,-1.382 -0.7627,-2.417 v -1.337 c 0,-1.075 0.2488,-1.912 0.7466,-2.514 0.4977,-0.605 1.1888,-0.908 2.0732,-0.908 0.8701,0 1.5558,0.297 2.0571,0.892 0.5013,0.591 0.7556,1.421 0.7627,2.492 z m -1.5844,-1.31 c 0,-0.705 -0.1003,-1.23 -0.3008,-1.574 -0.2005,-0.344 -0.5121,-0.515 -0.9346,-0.515 -0.4189,0 -0.7287,0.166 -0.9292,0.499 -0.2005,0.329 -0.3044,0.833 -0.3115,1.509 v 1.391 c 0,0.684 0.102,1.189 0.3061,1.515 0.2041,0.322 0.5192,0.484 0.9454,0.484 0.4117,0 0.7179,-0.158 0.9184,-0.473 0.2005,-0.319 0.3026,-0.811 0.3062,-1.477 z"
       fill="#ffffff"
       id="path70-6" />
    <path
       d="m 42.963435,255.04646 v 5.414 c -0.0072,0.813 -0.231,1.436 -0.6714,1.869 -0.4405,0.43 -1.0725,0.644 -1.896,0.644 -0.8379,0 -1.4789,-0.218 -1.9229,-0.655 -0.4404,-0.437 -0.6606,-1.069 -0.6606,-1.896 v -5.376 h 1.5898 v 5.382 c 0,0.444 0.0716,0.76 0.2149,0.95 0.1432,0.19 0.4028,0.285 0.7788,0.285 0.376,0 0.6338,-0.093 0.7734,-0.279 0.1397,-0.19 0.2113,-0.5 0.2149,-0.93 v -5.408 z"
       fill="#ffffff"
       id="path72-9" />
    <path
       d="m 43.791834,262.68368 v -7.74803 h 2.089675 c 0.705796,0 1.24136,0.1806 1.606689,0.54259 0.368387,0.35809 0.552614,0.88511 0.552614,1.58028 0,0.3939 -0.07588,0.73253 -0.227567,1.01667 -0.151689,0.28414 -0.35908,0.49121 -0.622242,0.62277 0.303377,0.0989 0.537125,0.2997 0.701177,0.60097 0.16412,0.29815 0.246112,0.66714 0.246112,1.10697 0,0.752 -0.181102,1.32027 -0.543307,1.70328 -0.35908,0.383 -0.880717,0.5745 -1.564912,0.5745 z m 1.365265,-3.3684 v 2.06993 h 0.872974 c 0.24455,0 0.430339,-0.0872 0.557232,-0.26079 0.126963,-0.17359 0.19041,-0.42037 0.19041,-0.73954 0,-0.69516 -0.219823,-1.0517 -0.6594,-1.0696 z m 0,-1.13889 h 0.710485 c 0.535563,0 0.803344,-0.31762 0.803344,-0.95284 0,-0.35109 -0.06195,-0.60253 -0.185789,-0.75511 -0.123837,-0.15258 -0.325047,-0.22887 -0.60363,-0.22887 h -0.72441 z"
       fill="#ffffff"
       id="path857"
       style="stroke-width:0.727195" />
    <path
       d="m 50.560979,261.61109 h 2.64844 v 1.33015 h -4.15748 v -7.93701 h 1.50904 z"
       fill="#ffffff"
       id="path30"
       style="stroke-width:0.773794" />
    <path
       d="m 58.005955,259.62841 h -2.4599 v 2.073 h 2.9111 v 1.311 h -4.4902 v -7.82 h 4.4794 v 1.316 h -2.9003 v 1.847 h 2.4599 z"
       fill="#ffffff"
       id="path8-1" />
  </g>
</svg>
