<?xml version="1.0" encoding="UTF-8" standalone="no"?>
<svg
   xmlns:dc="http://purl.org/dc/elements/1.1/"
   xmlns:cc="http://creativecommons.org/ns#"
   xmlns:rdf="http://www.w3.org/1999/02/22-rdf-syntax-ns#"
   xmlns:svg="http://www.w3.org/2000/svg"
   xmlns="http://www.w3.org/2000/svg"
   xmlns:sodipodi="http://sodipodi.sourceforge.net/DTD/sodipodi-0.dtd"
   xmlns:inkscape="http://www.inkscape.org/namespaces/inkscape"
   width="30.48mm"
   height="128.5mm"
   viewBox="0 0 30.480002 128.50002"
   version="1.1"
   id="svg8"
   inkscape:version="1.0 (4035a4fb49, 2020-05-01)"
   sodipodi:docname="ChowPulse.svg">
  <defs
     id="defs2" />
  <sodipodi:namedview
     id="base"
     pagecolor="#ffffff"
     bordercolor="#666666"
     borderopacity="1.0"
     inkscape:pageopacity="0.0"
     inkscape:pageshadow="2"
     inkscape:zoom="0.98994949"
     inkscape:cx="168.45613"
     inkscape:cy="191.1767"
     inkscape:document-units="mm"
     inkscape:current-layer="layer1"
     showgrid="false"
     units="mm"
     inkscape:snap-bbox="true"
     inkscape:snap-page="true"
     inkscape:bbox-nodes="false"
     inkscape:snap-bbox-edge-midpoints="false"
     inkscape:window-width="1215"
     inkscape:window-height="991"
     inkscape:window-x="695"
     inkscape:window-y="0"
     inkscape:window-maximized="1"
     inkscape:snap-bbox-midpoints="true"
     inkscape:snap-nodes="false"
     inkscape:document-rotation="0" />
  <metadata
     id="metadata5">
    <rdf:RDF>
      <cc:Work
         rdf:about="">
        <dc:format>image/svg+xml</dc:format>
        <dc:type
           rdf:resource="http://purl.org/dc/dcmitype/StillImage" />
        <dc:title></dc:title>
      </cc:Work>
    </rdf:RDF>
  </metadata>
  <g
     inkscape:label="Layer 1"
     inkscape:groupmode="layer"
     id="layer1"
     transform="translate(0,-168.49998)"
     style="display:inline">
    <rect
       style="display:inline;opacity:1;vector-effect:none;fill:#7db8e6;fill-opacity:1;fill-rule:evenodd;stroke:none;stroke-width:0.649358;stroke-linecap:butt;stroke-linejoin:miter;stroke-miterlimit:4;stroke-dasharray:none;stroke-dashoffset:0;stroke-opacity:1;paint-order:normal"
       id="rect420"
       width="30.48"
       height="128.5"
       x="5.9211732e-17"
       y="168.49997" />
    <g
       aria-label="CHOW RNN"
       id="text851"
       style="font-style:normal;font-variant:normal;font-weight:normal;font-stretch:normal;font-size:5.64444px;line-height:1.25;font-family:sans-serif;-inkscape-font-specification:'sans-serif, Normal';font-variant-ligatures:normal;font-variant-caps:normal;font-variant-numeric:normal;font-variant-east-asian:normal;letter-spacing:0px;word-spacing:0px;fill:#000000;fill-opacity:1;stroke:none;stroke-width:0.264583"
       transform="matrix(0.8515024,0,0,1.1696809,-11.264398,-65.569647)">
      <path
         d="m 18.687797,209.36183 q -0.151585,0.0661 -0.275608,0.12402 -0.121267,0.0579 -0.319705,0.12127 -0.168121,0.0524 -0.366558,0.0882 -0.195681,0.0386 -0.432704,0.0386 -0.446484,0 -0.813043,-0.12402 -0.363802,-0.12678 -0.633897,-0.39412 -0.264583,-0.26183 -0.413412,-0.66422 -0.148828,-0.40514 -0.148828,-0.93982 0,-0.50712 0.143316,-0.90675 0.143316,-0.39963 0.413412,-0.67524 0.261827,-0.26734 0.631141,-0.4079 0.37207,-0.14056 0.824067,-0.14056 0.330729,0 0.658702,0.0799 0.330729,0.0799 0.733117,0.28112 V 206.49 h -0.04134 q -0.338997,-0.28388 -0.672482,-0.41341 -0.333485,-0.12954 -0.713824,-0.12954 -0.311437,0 -0.56224,0.10197 -0.248046,0.0992 -0.443728,0.31144 -0.190169,0.20671 -0.297656,0.52366 -0.104731,0.31419 -0.104731,0.7276 0,0.4327 0.115755,0.74414 0.118511,0.31144 0.303169,0.50712 0.192925,0.20395 0.44924,0.30317 0.259071,0.0965 0.545703,0.0965 0.394119,0 0.738629,-0.13505 0.344509,-0.13505 0.644922,-0.40514 h 0.03859 z"
         style="font-style:normal;font-variant:normal;font-weight:normal;font-stretch:normal;font-size:5.64444px;font-family:sans-serif;-inkscape-font-specification:'sans-serif, Normal';font-variant-ligatures:normal;font-variant-caps:normal;font-variant-numeric:normal;font-variant-east-asian:normal;stroke-width:0.264583"
         id="path853" />
      <path
         d="m 22.604181,209.65948 h -0.545703 v -2.00917 h -2.047765 v 2.00917 H 19.46501 v -4.10379 h 0.545703 v 1.60955 h 2.047765 v -1.60955 h 0.545703 z"
         style="font-style:normal;font-variant:normal;font-weight:normal;font-stretch:normal;font-size:5.64444px;font-family:sans-serif;-inkscape-font-specification:'sans-serif, Normal';font-variant-ligatures:normal;font-variant-caps:normal;font-variant-numeric:normal;font-variant-east-asian:normal;stroke-width:0.264583"
         id="path855" />
      <path
         d="m 26.768613,206.02698 q 0.250803,0.2756 0.383094,0.67523 0.135048,0.39964 0.135048,0.90675 0,0.50712 -0.137804,0.90951 -0.135048,0.39963 -0.380338,0.66697 -0.253559,0.27836 -0.600825,0.41892 -0.34451,0.14056 -0.788238,0.14056 -0.432704,0 -0.788238,-0.14331 -0.352777,-0.14332 -0.600824,-0.41617 -0.248047,-0.27285 -0.383095,-0.66973 -0.132292,-0.39687 -0.132292,-0.90675 0,-0.5016 0.132292,-0.89848 0.132292,-0.39963 0.385851,-0.6835 0.242534,-0.2701 0.600824,-0.41342 0.361046,-0.14331 0.785482,-0.14331 0.440972,0 0.790994,0.14607 0.352778,0.14332 0.598069,0.41066 z m -0.04961,1.58198 q 0,-0.79926 -0.35829,-1.23196 -0.35829,-0.43546 -0.978407,-0.43546 -0.625629,0 -0.983919,0.43546 -0.355534,0.4327 -0.355534,1.23196 0,0.80753 0.363802,1.23748 0.363802,0.42719 0.975651,0.42719 0.611849,0 0.972895,-0.42719 0.363802,-0.42995 0.363802,-1.23748 z"
         style="font-style:normal;font-variant:normal;font-weight:normal;font-stretch:normal;font-size:5.64444px;font-family:sans-serif;-inkscape-font-specification:'sans-serif, Normal';font-variant-ligatures:normal;font-variant-caps:normal;font-variant-numeric:normal;font-variant-east-asian:normal;stroke-width:0.264583"
         id="path857" />
      <path
         d="m 32.928443,205.55569 -1.066602,4.10379 h -0.614605 l -0.862651,-3.40651 -0.84336,3.40651 h -0.600824 l -1.085895,-4.10379 h 0.559484 l 0.862652,3.41202 0.848871,-3.41202 h 0.553972 l 0.857139,3.44509 0.85714,-3.44509 z"
         style="font-style:normal;font-variant:normal;font-weight:normal;font-stretch:normal;font-size:5.64444px;font-family:sans-serif;-inkscape-font-specification:'sans-serif, Normal';font-variant-ligatures:normal;font-variant-caps:normal;font-variant-numeric:normal;font-variant-east-asian:normal;stroke-width:0.264583"
         id="path859" />
      <path
         d="m 39.110322,209.65948 h -0.708311 l -1.372526,-1.63159 h -0.768946 v 1.63159 h -0.545703 v -4.10379 h 1.149284 q 0.37207,0 0.620117,0.0496 0.248047,0.0469 0.446485,0.17087 0.223242,0.14056 0.347265,0.35554 0.12678,0.21221 0.12678,0.54019 0,0.44373 -0.223242,0.74414 -0.223243,0.29765 -0.614605,0.44924 z m -1.276063,-2.949 q 0,-0.17639 -0.06339,-0.31143 -0.06063,-0.13781 -0.203949,-0.23151 -0.118512,-0.0799 -0.28112,-0.11025 -0.162609,-0.0331 -0.383095,-0.0331 h -0.642166 v 1.54892 h 0.551216 q 0.259071,0 0.451996,-0.0441 0.192926,-0.0469 0.327973,-0.17088 0.124024,-0.11575 0.181901,-0.26458 0.06063,-0.15159 0.06063,-0.3831 z"
         style="font-style:normal;font-variant:normal;font-weight:normal;font-stretch:normal;font-size:5.64444px;font-family:sans-serif;-inkscape-font-specification:'sans-serif, Normal';font-variant-ligatures:normal;font-variant-caps:normal;font-variant-numeric:normal;font-variant-east-asian:normal;stroke-width:0.264583"
         id="path861" />
      <path
         d="m 42.770393,209.65948 h -0.675239 l -1.94579,-3.67109 v 3.67109 H 39.63949 v -4.10379 h 0.846116 l 1.774913,3.35139 v -3.35139 h 0.509874 z"
         style="font-style:normal;font-variant:normal;font-weight:normal;font-stretch:normal;font-size:5.64444px;font-family:sans-serif;-inkscape-font-specification:'sans-serif, Normal';font-variant-ligatures:normal;font-variant-caps:normal;font-variant-numeric:normal;font-variant-east-asian:normal;stroke-width:0.264583"
         id="path863" />
      <path
         d="m 46.992702,209.65948 h -0.675239 l -1.94579,-3.67109 v 3.67109 h -0.509874 v -4.10379 h 0.846116 l 1.774913,3.35139 v -3.35139 h 0.509874 z"
         style="font-style:normal;font-variant:normal;font-weight:normal;font-stretch:normal;font-size:5.64444px;font-family:sans-serif;-inkscape-font-specification:'sans-serif, Normal';font-variant-ligatures:normal;font-variant-caps:normal;font-variant-numeric:normal;font-variant-east-asian:normal;stroke-width:0.264583"
         id="path865" />
    </g>
  </g>
  <g
     inkscape:groupmode="layer"
     id="layer2"
     inkscape:label="components" />
</svg>
