<?xml version="1.0" encoding="UTF-8" standalone="no"?>
<svg
   inkscape:version="1.1.1 (c3084ef, 2021-09-22)"
   sodipodi:docname="ChowChorus.svg"
   id="svg909"
   version="1.1"
   fill="none"
   viewBox="0 0 115 486"
   height="128.58749mm"
   width="30.427084mm"
   xmlns:inkscape="http://www.inkscape.org/namespaces/inkscape"
   xmlns:sodipodi="http://sodipodi.sourceforge.net/DTD/sodipodi-0.dtd"
   xmlns="http://www.w3.org/2000/svg"
   xmlns:svg="http://www.w3.org/2000/svg"
   xmlns:rdf="http://www.w3.org/1999/02/22-rdf-syntax-ns#"
   xmlns:cc="http://creativecommons.org/ns#"
   xmlns:dc="http://purl.org/dc/elements/1.1/">
  <metadata
     id="metadata915">
    <rdf:RDF>
      <cc:Work
         rdf:about="">
        <dc:format>image/svg+xml</dc:format>
        <dc:type
           rdf:resource="http://purl.org/dc/dcmitype/StillImage" />
      </cc:Work>
    </rdf:RDF>
  </metadata>
  <defs
     id="defs913" />
  <sodipodi:namedview
     inkscape:current-layer="svg909"
     inkscape:window-maximized="0"
     inkscape:window-y="25"
     inkscape:window-x="209"
     inkscape:cy="256.04495"
     inkscape:cx="-230.86518"
     inkscape:zoom="1.6481481"
     units="mm"
     inkscape:document-units="mm"
     showgrid="false"
     id="namedview911"
     inkscape:window-height="1214"
     inkscape:window-width="2328"
     inkscape:pageshadow="2"
     inkscape:pageopacity="0"
     guidetolerance="10"
     gridtolerance="10"
     objecttolerance="10"
     borderopacity="1"
     bordercolor="#666666"
     pagecolor="#ffffff"
     inkscape:pagecheckerboard="0" />
  <rect
     y="0"
     x="0"
     id="rect833"
     fill="#16161d"
     height="486"
     width="115" />
  <path
     id="path905-3"
     fill="#ff9300"
     d="m 78.366657,333.83258 c 0.4668,0.467 1.2257,0.468 1.6736,-0.017 3.7439,-4.055 6.3024,-9.07 7.3821,-14.498 1.1575,-5.82 0.5634,-11.852 -1.7072,-17.334 -2.2706,-5.481 -6.1158,-10.167 -11.0493,-13.463 -4.9335,-3.297 -10.7337,-5.056 -16.6671,-5.056 -5.9334,0 -11.7336,1.759 -16.6671,5.056 -4.9335,3.296 -8.7787,7.982 -11.0493,13.463 -2.2706,5.482 -2.8647,11.514 -1.7072,17.334 1.0797,5.428 3.6382,10.443 7.3821,14.498 0.4479,0.485 1.2068,0.484 1.6736,0.017 v 0 c 0.4669,-0.467 0.4647,-1.222 0.0185,-1.709 -3.4104,-3.719 -5.7417,-8.309 -6.7292,-13.273 -1.0653,-5.355 -0.5185,-10.907 1.5712,-15.952 2.0896,-5.044 5.6283,-9.356 10.1686,-12.39 4.5403,-3.034 9.8782,-4.653 15.3388,-4.653 5.4606,0 10.7985,1.619 15.3388,4.653 4.5403,3.034 8.079,7.346 10.1686,12.39 2.0897,5.045 2.6365,10.597 1.5712,15.952 -0.9875,4.964 -3.3188,9.554 -6.7292,13.273 -0.4462,0.487 -0.4484,1.242 0.0185,1.709 z" />
  <g
     aria-label="OUT L"
     id="text1773-1-3-5"
     style="font-size:10.6667px;line-height:1.25;font-family:'Roboto Condensed';-inkscape-font-specification:'Roboto Condensed, Normal';fill:#ffffff">
    <path
       d="m 21.803886,462.12398 q 0,0.79688 -0.197917,1.40105 -0.197918,0.60417 -0.557294,1.00521 -0.354168,0.40104 -0.859378,0.60417 -0.500001,0.20312 -1.109378,0.20312 -0.609377,0 -1.114587,-0.20312 -0.50521,-0.20313 -0.869794,-0.60417 -0.359377,-0.40104 -0.562502,-1.00521 -0.197917,-0.60417 -0.197917,-1.40105 v -1.26042 q 0,-0.81771 0.197917,-1.4375 0.197917,-0.625 0.557293,-1.04167 0.359376,-0.41667 0.864586,-0.625 0.50521,-0.21355 1.114587,-0.21355 0.609377,0 1.109379,0.21355 0.50521,0.20833 0.864586,0.625 0.364584,0.41667 0.562502,1.04167 0.197917,0.61979 0.197917,1.4375 z m -1.536463,-1.27083 q 0,-0.54167 -0.07813,-0.92188 -0.07813,-0.38542 -0.229167,-0.63021 -0.151042,-0.24479 -0.375001,-0.35938 -0.223959,-0.11458 -0.515627,-0.11458 -0.296876,0 -0.520835,0.11458 -0.223959,0.11459 -0.375001,0.35938 -0.151042,0.24479 -0.229167,0.63021 -0.07813,0.38021 -0.07813,0.92188 v 1.27083 q 0,0.51563 0.07813,0.88542 0.07813,0.36459 0.229167,0.59896 0.156251,0.23438 0.38021,0.34375 0.229167,0.10938 0.526043,0.10938 0.291667,0 0.510418,-0.10938 0.223959,-0.10937 0.375001,-0.34375 0.151042,-0.23437 0.223959,-0.59896 0.07813,-0.36979 0.07813,-0.88542 z"
       id="path4323" />
    <path
       d="m 27.835155,457.65001 v 5.20835 q 0,0.66146 -0.187501,1.13021 -0.182292,0.46875 -0.515626,0.77084 -0.328126,0.29687 -0.786461,0.4375 -0.458335,0.14062 -1.000003,0.14062 -0.552085,0 -1.015628,-0.14062 -0.458335,-0.14063 -0.79167,-0.4375 -0.328126,-0.30209 -0.515626,-0.77084 -0.182292,-0.46875 -0.182292,-1.13021 v -5.20835 h 1.541671 v 5.20835 q 0,0.375 0.0625,0.60938 0.0625,0.23437 0.182293,0.36979 0.125,0.13021 0.302084,0.18229 0.182292,0.0469 0.416668,0.0469 0.234376,0 0.411459,-0.0469 0.182293,-0.0521 0.302085,-0.18229 0.119792,-0.13542 0.182292,-0.36979 0.0625,-0.23438 0.0625,-0.60938 v -5.20835 z"
       id="path4325" />
    <path
       d="m 33.918507,458.92606 h -1.875006 v 6.30731 h -1.536463 v -6.30731 h -1.843756 v -1.27605 h 5.255225 z"
       id="path4327" />
    <path
       d="m 38.475815,463.96253 h 2.687508 v 1.27084 H 36.94456 v -7.58336 h 1.531255 z"
       id="path4329" />
  </g>
  <g
     aria-label="OUT R"
     id="text1773-1-3"
     style="font-size:10.6667px;line-height:1.25;font-family:'Roboto Condensed';-inkscape-font-specification:'Roboto Condensed, Normal';fill:#ffffff">
    <path
       d="m 78.870978,462.12246 q 0,0.79687 -0.197918,1.40104 -0.197917,0.60417 -0.557293,1.00521 -0.354168,0.40105 -0.859378,0.60417 -0.500001,0.20313 -1.109378,0.20313 -0.609377,0 -1.114587,-0.20313 -0.50521,-0.20312 -0.869794,-0.60417 -0.359377,-0.40104 -0.562502,-1.00521 -0.197918,-0.60417 -0.197918,-1.40104 v -1.26042 q 0,-0.81771 0.197918,-1.43751 0.197917,-0.625 0.557293,-1.04167 0.359376,-0.41667 0.864586,-0.625 0.50521,-0.21354 1.114587,-0.21354 0.609377,0 1.109379,0.21354 0.50521,0.20833 0.864586,0.625 0.364584,0.41667 0.562501,1.04167 0.197918,0.6198 0.197918,1.43751 z m -1.536463,-1.27084 q 0,-0.54167 -0.07813,-0.92188 -0.07813,-0.38542 -0.229167,-0.63021 -0.151042,-0.24479 -0.375001,-0.35937 -0.223959,-0.11459 -0.515627,-0.11459 -0.296876,0 -0.520835,0.11459 -0.223959,0.11458 -0.375001,0.35937 -0.151042,0.24479 -0.229167,0.63021 -0.07813,0.38021 -0.07813,0.92188 v 1.27084 q 0,0.51562 0.07813,0.88542 0.07813,0.36458 0.229167,0.59896 0.15625,0.23437 0.380209,0.34375 0.229168,0.10937 0.526044,0.10937 0.291667,0 0.510418,-0.10937 0.223959,-0.10938 0.375001,-0.34375 0.151042,-0.23438 0.223959,-0.59896 0.07813,-0.3698 0.07813,-0.88542 z"
       id="path4350" />
    <path
       d="m 84.902247,457.64848 v 5.20835 q 0,0.66146 -0.187501,1.13022 -0.182292,0.46875 -0.515626,0.77083 -0.328126,0.29688 -0.786461,0.4375 -0.458335,0.14063 -1.000003,0.14063 -0.552085,0 -1.015628,-0.14063 -0.458335,-0.14062 -0.79167,-0.4375 -0.328126,-0.30208 -0.515626,-0.77083 -0.182292,-0.46876 -0.182292,-1.13022 v -5.20835 h 1.541671 v 5.20835 q 0,0.37501 0.0625,0.60938 0.0625,0.23438 0.182293,0.36979 0.125,0.13021 0.302084,0.1823 0.182292,0.0469 0.416668,0.0469 0.234376,0 0.411459,-0.0469 0.182293,-0.0521 0.302085,-0.1823 0.119792,-0.13541 0.182292,-0.36979 0.0625,-0.23437 0.0625,-0.60938 v -5.20835 z"
       id="path4352" />
    <path
       d="m 90.985599,458.92453 h -1.875006 v 6.30731 H 87.57413 v -6.30731 h -1.843756 v -1.27605 h 5.255225 z"
       id="path4354" />
    <path
       d="m 96.308534,462.461 h -0.760419 v 2.77084 H 94.01686 v -7.58336 h 2.442716 q 0.567711,0 1.01042,0.15105 0.447918,0.14583 0.755211,0.4375 0.312501,0.28646 0.47396,0.71354 0.166667,0.42709 0.166667,0.98959 0,0.41146 -0.07813,0.74479 -0.07292,0.32813 -0.218751,0.58855 -0.140625,0.25521 -0.343751,0.44791 -0.203126,0.19271 -0.458335,0.33334 l 1.328129,3.10418 v 0.0729 h -1.645838 z m -0.760419,-1.27605 h 0.869795 q 0.458334,0 0.687502,-0.30208 0.229167,-0.30729 0.229167,-0.81771 0,-0.26042 -0.05208,-0.46875 -0.04687,-0.21354 -0.156251,-0.35938 -0.104167,-0.15104 -0.270834,-0.22917 -0.166667,-0.0833 -0.395835,-0.0833 h -0.911461 z"
       id="path4356" />
  </g>
  <path
     id="path907-5"
     fill="#ff9300"
     d="m 70.826459,413.92138 h 31.000001 c 3.3137,0 6,2.686 6,6 v 46 c 0,3.314 -2.6863,6 -6,6 H 70.826459 c -3.3137,0 -6,-2.686 -6,-6 v -46 c 0,-3.314 2.6863,-6 6,-6 z m 0,2 c -2.2091,0 -4,1.791 -4,4 v 46 c 0,2.209 1.7909,4 4,4 h 31.000001 c 2.2091,0 4,-1.791 4,-4 v -46 c 0,-2.209 -1.7909,-4 -4,-4 z"
     clip-rule="evenodd"
     fill-rule="evenodd" />
  <g
     aria-label="Feedback"
     id="text1773-1-7"
     style="font-size:14.6667px;line-height:1.25;font-family:'Roboto Condensed';-inkscape-font-specification:'Roboto Condensed, Normal';fill:#ffffff"
     transform="translate(0,-51.979513)">
    <path
       d="m 35.225197,323.29256 h -3.272794 v 4.25392 H 29.84693 v -10.42711 h 5.772148 v 1.75456 h -3.666675 v 2.67123 h 3.272794 z"
       id="path4288" />
    <path
       d="m 39.722603,327.68971 q -0.794924,0 -1.41081,-0.24349 -0.615887,-0.24349 -1.038414,-0.70183 -0.422527,-0.45833 -0.644533,-1.11719 -0.214844,-0.66601 -0.214844,-1.51107 v -0.63737 q 0,-0.94531 0.207683,-1.6543 0.214844,-0.71615 0.608725,-1.19597 0.401043,-0.48698 0.97396,-0.73047 0.58008,-0.24349 1.31055,-0.24349 1.475264,0 2.212896,0.95248 0.737632,0.95248 0.737632,2.82162 v 0.92383 h -4.03191 q 0.02148,0.4655 0.121745,0.7806 0.107422,0.31511 0.286459,0.50847 0.179037,0.19336 0.429688,0.27929 0.257813,0.0859 0.58008,0.0859 0.53711,0 0.952476,-0.17904 0.422527,-0.18619 0.744793,-0.51562 l 0.794924,1.22461 q -0.150391,0.20768 -0.393881,0.41537 -0.24349,0.20052 -0.572918,0.36523 -0.329428,0.16471 -0.744794,0.26498 -0.415365,0.10742 -0.909507,0.10742 z m -0.222006,-6.35223 q -0.529949,0 -0.773439,0.37956 -0.236329,0.37956 -0.279297,1.21745 h 2.026697 v -0.1862 q -0.01432,-0.69466 -0.229167,-1.05274 -0.214844,-0.35807 -0.744794,-0.35807 z"
       id="path4290" />
    <path
       d="m 46.740848,327.68971 q -0.794924,0 -1.410811,-0.24349 -0.615886,-0.24349 -1.038413,-0.70183 -0.422528,-0.45833 -0.644533,-1.11719 -0.214844,-0.66601 -0.214844,-1.51107 v -0.63737 q 0,-0.94531 0.207682,-1.6543 0.214845,-0.71615 0.608726,-1.19597 0.401042,-0.48698 0.97396,-0.73047 0.58008,-0.24349 1.31055,-0.24349 1.475264,0 2.212896,0.95248 0.737632,0.95248 0.737632,2.82162 v 0.92383 h -4.031911 q 0.02148,0.4655 0.121745,0.7806 0.107423,0.31511 0.286459,0.50847 0.179037,0.19336 0.429689,0.27929 0.257813,0.0859 0.580079,0.0859 0.537111,0 0.952477,-0.17904 0.422527,-0.18619 0.744793,-0.51562 l 0.794924,1.22461 q -0.150391,0.20768 -0.393881,0.41537 -0.243491,0.20052 -0.572918,0.36523 -0.329428,0.16471 -0.744794,0.26498 -0.415365,0.10742 -0.909507,0.10742 z m -0.222006,-6.35223 q -0.529949,0 -0.773439,0.37956 -0.236329,0.37956 -0.279298,1.21745 h 2.026698 v -0.1862 q -0.01432,-0.69466 -0.229167,-1.05274 -0.214845,-0.35807 -0.744794,-0.35807 z"
       id="path4292" />
    <path
       d="m 50.357393,323.43579 q 0,-1.90495 0.644533,-2.8431 0.644533,-0.93816 1.876306,-0.93816 0.472658,0 0.837893,0.20769 0.372396,0.20052 0.651694,0.56575 v -3.88152 h 2.04102 v 11.00003 H 54.56834 l -0.0931,-0.78776 q -0.29362,0.43685 -0.694663,0.6875 -0.393881,0.24349 -0.909507,0.24349 -1.231774,0 -1.876307,-0.95248 -0.637371,-0.95247 -0.637371,-2.79297 z m 2.033859,0.50847 q 0,0.53711 0.05013,0.92383 0.05013,0.38672 0.171876,0.64453 0.128906,0.25065 0.329427,0.3724 0.207683,0.11458 0.515627,0.11458 0.322266,0 0.544272,-0.14323 0.222005,-0.14323 0.365235,-0.39388 v -3.53777 q -0.14323,-0.27214 -0.372397,-0.42253 -0.222005,-0.15039 -0.529949,-0.15039 -0.300782,0 -0.508465,0.12175 -0.200521,0.12174 -0.329427,0.37239 -0.128907,0.25066 -0.186199,0.6517 -0.05013,0.39388 -0.05013,0.93815 z"
       id="path4294" />
    <path
       d="m 63.949872,323.92277 q 0,1.88347 -0.601564,2.82878 -0.601564,0.93816 -1.890629,0.93816 -0.537111,0 -0.938153,-0.23633 -0.393882,-0.24349 -0.680341,-0.67318 l -0.06445,0.76628 H 57.90559 v -11.00003 h 2.026698 v 3.88152 q 0.272136,-0.36523 0.644532,-0.56575 0.372397,-0.20769 0.866539,-0.20769 1.303388,0 1.904952,0.95964 0.601564,0.95248 0.601564,2.80014 z m -2.026697,-0.50846 q 0,-0.52279 -0.04297,-0.90951 -0.03581,-0.38672 -0.150391,-0.64453 -0.114584,-0.25782 -0.322267,-0.37956 -0.207682,-0.12891 -0.544272,-0.12891 -0.34375,0 -0.572918,0.15756 -0.222005,0.15039 -0.358073,0.42252 v 3.53061 q 0.128906,0.25781 0.358073,0.40104 0.229168,0.14323 0.587241,0.14323 0.329428,0 0.537111,-0.11458 0.207683,-0.11459 0.315105,-0.36524 0.114583,-0.25065 0.150391,-0.64453 0.04297,-0.39388 0.04297,-0.95964 z"
       id="path4296" />
    <path
       d="m 68.862642,327.54648 q -0.05729,-0.12175 -0.100261,-0.27214 -0.03581,-0.15755 -0.07162,-0.32943 -0.229167,0.31511 -0.594402,0.52995 -0.358074,0.21485 -0.880862,0.21485 -0.472657,0 -0.888022,-0.16472 -0.408205,-0.16471 -0.716148,-0.46549 -0.300782,-0.30078 -0.479819,-0.72331 -0.171875,-0.42969 -0.171875,-0.95964 0,-0.58724 0.186198,-1.0599 0.19336,-0.47982 0.572918,-0.80924 0.38672,-0.33659 0.959638,-0.51563 0.580079,-0.17904 1.36068,-0.17904 h 0.551434 v -0.62304 q 0,-0.52279 -0.179037,-0.73764 -0.179037,-0.21484 -0.522788,-0.21484 -0.393881,0 -0.580079,0.23633 -0.179037,0.22916 -0.179037,0.65169 h -2.026698 q 0,-0.50846 0.19336,-0.95247 0.200521,-0.45118 0.572918,-0.78777 0.372397,-0.33659 0.895185,-0.52995 0.522787,-0.20052 1.181643,-0.20052 0.580079,0 1.06706,0.15039 0.48698,0.14323 0.845054,0.45834 0.358073,0.30794 0.558595,0.79492 0.200521,0.47982 0.200521,1.16016 v 3.43751 q 0,0.33659 0.01432,0.60156 0.02148,0.25782 0.05729,0.47266 0.03581,0.20768 0.08594,0.37956 0.05729,0.16471 0.128907,0.3151 v 0.12175 z m -1.195967,-1.44662 q 0.33659,0 0.572918,-0.13607 0.236329,-0.13607 0.350913,-0.32226 v -1.61134 h -0.479819 q -0.286459,0 -0.494142,0.0931 -0.207683,0.0931 -0.350912,0.25782 -0.136068,0.16471 -0.207683,0.38672 -0.06445,0.222 -0.06445,0.47265 0,0.42253 0.171875,0.64454 0.179037,0.21484 0.501303,0.21484 z"
       id="path4298" />
    <path
       d="m 74.885444,326.00676 q 0.422527,0 0.651694,-0.25781 0.236329,-0.26498 0.24349,-0.88802 h 1.904953 q -0.0072,0.65885 -0.222006,1.1888 -0.214844,0.52279 -0.587241,0.88802 -0.365235,0.36524 -0.866539,0.5586 -0.501303,0.19336 -1.081382,0.19336 -0.780601,0 -1.36068,-0.25065 -0.58008,-0.25066 -0.9668,-0.72331 -0.379558,-0.47982 -0.572918,-1.17448 -0.186198,-0.69467 -0.186198,-1.58269 v -0.5586 q 0,-0.88802 0.186198,-1.58268 0.19336,-0.70183 0.572918,-1.18164 0.379559,-0.47982 0.959638,-0.73048 0.580079,-0.25065 1.353519,-0.25065 0.623048,0 1.131513,0.20052 0.515626,0.19336 0.8737,0.58008 0.365235,0.37956 0.558595,0.94532 0.200521,0.56575 0.207683,1.31055 h -1.904953 q -0.0072,-0.6517 -0.214844,-1.00261 -0.207683,-0.35091 -0.687502,-0.35091 -0.336589,0 -0.53711,0.13607 -0.19336,0.13607 -0.300782,0.40104 -0.100261,0.25781 -0.136068,0.64453 -0.02865,0.37956 -0.02865,0.88086 v 0.5586 q 0,0.50846 0.02865,0.89518 0.02865,0.37956 0.128906,0.63738 0.107422,0.25781 0.307944,0.38671 0.200521,0.12891 0.544272,0.12891 z"
       id="path4300" />
    <path
       d="m 81.41671,324.56014 -0.544272,0.60873 v 2.37761 H 78.84574 v -11.00003 h 2.026698 v 5.94403 l 0.250651,-0.3724 1.403649,-2.32032 h 2.413417 l -2.248703,3.19402 2.463548,4.5547 h -2.320318 z"
       id="path4302" />
  </g>
  <g
     aria-label="Depth"
     id="text1773-1-1"
     style="font-size:14.6667px;line-height:1.25;font-family:'Roboto Condensed';-inkscape-font-specification:'Roboto Condensed, Normal';fill:#ffffff"
     transform="translate(0,-34.771706)">
    <path
       d="m 41.132601,234.74806 v -10.42711 h 2.757168 q 0.902345,0 1.639977,0.30079 0.744794,0.29362 1.267581,0.85937 0.529949,0.5586 0.816408,1.38217 0.293621,0.81641 0.293621,1.86914 v 1.6185 q 0,1.05273 -0.286459,1.86914 -0.286459,0.81641 -0.816408,1.38217 -0.529949,0.55859 -1.274743,0.85221 -0.744793,0.29362 -1.661462,0.29362 z m 2.105473,-8.67254 v 6.92514 h 0.63021 q 0.558595,0 0.930992,-0.14323 0.372397,-0.15039 0.594402,-0.47265 0.222006,-0.32227 0.315105,-0.82357 0.0931,-0.50131 0.0931,-1.21029 v -1.63282 q 0,-0.71615 -0.0931,-1.21745 -0.0931,-0.5013 -0.315105,-0.81641 -0.222005,-0.3151 -0.594402,-0.45833 -0.365235,-0.15039 -0.909507,-0.15039 z"
       id="path4259" />
    <path
       d="m 52.440569,234.89129 q -0.794923,0 -1.41081,-0.24349 -0.615887,-0.24349 -1.038414,-0.70182 -0.422527,-0.45834 -0.644533,-1.11719 -0.214844,-0.66602 -0.214844,-1.51107 v -0.63738 q 0,-0.94531 0.207683,-1.6543 0.214844,-0.71614 0.608725,-1.19596 0.401043,-0.48698 0.973961,-0.73047 0.580079,-0.24349 1.310549,-0.24349 1.475264,0 2.212896,0.95247 0.737632,0.95248 0.737632,2.82162 v 0.92383 h -4.03191 q 0.02148,0.4655 0.121745,0.78061 0.107422,0.3151 0.286459,0.50846 0.179037,0.19336 0.429688,0.2793 0.257813,0.0859 0.58008,0.0859 0.53711,0 0.952476,-0.17904 0.422527,-0.1862 0.744793,-0.51563 l 0.794924,1.22461 q -0.150391,0.20769 -0.393881,0.41537 -0.24349,0.20052 -0.572918,0.36523 -0.329428,0.16472 -0.744793,0.26498 -0.415366,0.10742 -0.909508,0.10742 z m -0.222005,-6.35223 q -0.52995,0 -0.77344,0.37956 -0.236328,0.37956 -0.279297,1.21745 h 2.026697 v -0.1862 q -0.01432,-0.69466 -0.229167,-1.05273 -0.214844,-0.35808 -0.744793,-0.35808 z"
       id="path4261" />
    <path
       d="m 62.366373,231.11719 q 0,1.82618 -0.63021,2.80014 -0.623048,0.97396 -1.861983,0.97396 -0.494142,0 -0.8737,-0.20052 -0.372397,-0.20052 -0.644533,-0.56576 v 3.60223 h -2.026698 v -10.72789 h 1.876307 l 0.07162,0.70898 q 0.279297,-0.4082 0.666017,-0.63021 0.393881,-0.222 0.916669,-0.222 1.253258,0 1.876306,0.92383 0.63021,0.92383 0.63021,2.82878 z m -2.019536,-0.50846 q 0,-0.55143 -0.05729,-0.93815 -0.05729,-0.39388 -0.186198,-0.63737 -0.128907,-0.25066 -0.33659,-0.36524 -0.200521,-0.11458 -0.501303,-0.11458 -0.322266,0 -0.551433,0.13606 -0.222006,0.13607 -0.358074,0.38672 v 3.63087 q 0.128906,0.23633 0.350912,0.3724 0.229167,0.12891 0.572918,0.12891 0.601564,0 0.830731,-0.50847 0.236329,-0.50846 0.236329,-1.58269 z"
       id="path4263" />
    <path
       d="m 65.961433,225.09439 v 1.90496 h 1.038414 v 1.52539 h -1.038414 v 3.84571 q 0,0.24349 0.02865,0.40105 0.03581,0.15755 0.107422,0.25065 0.07878,0.0859 0.19336,0.12174 0.114583,0.0286 0.279297,0.0286 0.150391,0 0.272136,-0.0143 0.128907,-0.0143 0.207683,-0.0358 l -0.01432,1.57552 q -0.229167,0.0859 -0.494142,0.13607 -0.264974,0.0573 -0.623048,0.0573 -0.451173,0 -0.816408,-0.1289 -0.365235,-0.12175 -0.63021,-0.39389 -0.257813,-0.27929 -0.401042,-0.71614 -0.136068,-0.43685 -0.136068,-1.05274 v -4.07488 h -0.895185 v -1.52539 h 0.895185 v -1.90496 z"
       id="path4265" />
    <path
       d="m 70.079281,227.67969 q 0.315105,-0.39388 0.716147,-0.60873 0.408204,-0.21484 0.902346,-0.21484 0.479819,0 0.880861,0.16471 0.401043,0.16471 0.687502,0.52279 0.286459,0.35807 0.444011,0.93099 0.157553,0.57292 0.157553,1.39649 v 4.87696 h -2.033859 v -4.89129 q 0,-0.37239 -0.05729,-0.62304 -0.05729,-0.25066 -0.171875,-0.40105 -0.114584,-0.15039 -0.279298,-0.21484 -0.164714,-0.0644 -0.386719,-0.0644 -0.300782,0 -0.508465,0.13606 -0.207683,0.13607 -0.350912,0.3724 v 5.68621 h -2.026698 v -11.00002 h 2.026698 z"
       id="path4267" />
  </g>
  <g
     aria-label="Rate"
     id="text1773-1"
     style="font-size:14.6667px;line-height:1.25;font-family:'Roboto Condensed';-inkscape-font-specification:'Roboto Condensed, Normal';fill:#ffffff"
     transform="translate(0,-19.56962)">
    <path
       d="m 48.002702,139.57265 h -1.045575 v 3.8099 h -2.105474 v -10.4271 h 3.358732 q 0.780601,0 1.389326,0.20768 0.615887,0.20052 1.038414,0.60156 0.429689,0.39388 0.651694,0.98112 0.229167,0.58725 0.229167,1.36068 0,0.56576 -0.107422,1.0241 -0.10026,0.45117 -0.300782,0.80924 -0.193359,0.35091 -0.472657,0.61589 -0.279297,0.26497 -0.63021,0.45833 l 1.826176,4.26824 v 0.10026 h -2.263026 z m -1.045575,-1.75456 h 1.195966 q 0.63021,0 0.945315,-0.41537 0.315105,-0.42253 0.315105,-1.12435 0,-0.35807 -0.07162,-0.64453 -0.06445,-0.29362 -0.214844,-0.49414 -0.14323,-0.20769 -0.372397,-0.31511 -0.229167,-0.11458 -0.544272,-0.11458 h -1.253258 z"
       id="path4232" />
    <path
       d="m 56.560664,143.38255 q -0.05729,-0.12174 -0.10026,-0.27213 -0.03581,-0.15756 -0.07161,-0.32943 -0.229167,0.3151 -0.594402,0.52995 -0.358074,0.21484 -0.880862,0.21484 -0.472657,0 -0.888023,-0.16471 -0.408204,-0.16472 -0.716147,-0.4655 -0.300782,-0.30078 -0.479819,-0.72331 -0.171875,-0.42968 -0.171875,-0.95963 0,-0.58724 0.186198,-1.0599 0.19336,-0.47982 0.572918,-0.80925 0.38672,-0.33659 0.959638,-0.51562 0.580079,-0.17904 1.36068,-0.17904 h 0.551433 v -0.62305 q 0,-0.52279 -0.179036,-0.73763 -0.179037,-0.21485 -0.522788,-0.21485 -0.393881,0 -0.58008,0.23633 -0.179036,0.22917 -0.179036,0.6517 H 52.80089 q 0,-0.50847 0.19336,-0.95248 0.200521,-0.45117 0.572918,-0.78776 0.372397,-0.33659 0.895184,-0.52995 0.522788,-0.20052 1.181644,-0.20052 0.580079,0 1.067059,0.15039 0.486981,0.14323 0.845054,0.45833 0.358074,0.30795 0.558596,0.79493 0.200521,0.47982 0.200521,1.16016 v 3.4375 q 0,0.33659 0.01432,0.60157 0.02148,0.25781 0.05729,0.47265 0.03581,0.20769 0.08594,0.37956 0.05729,0.16472 0.128907,0.31511 v 0.12174 z m -1.195966,-1.44661 q 0.336589,0 0.572918,-0.13607 0.236329,-0.13607 0.350912,-0.32227 v -1.61133 H 55.80871 q -0.286459,0 -0.494142,0.0931 -0.207683,0.0931 -0.350912,0.25781 -0.136068,0.16472 -0.207683,0.38672 -0.06445,0.22201 -0.06445,0.47266 0,0.42253 0.171875,0.64453 0.179037,0.21485 0.501303,0.21485 z"
       id="path4234" />
    <path
       d="m 62.139453,133.72889 v 1.90495 h 1.038414 v 1.52539 h -1.038414 v 3.84571 q 0,0.24349 0.02865,0.40105 0.03581,0.15755 0.107422,0.25065 0.07878,0.0859 0.19336,0.12174 0.114584,0.0286 0.279298,0.0286 0.150391,0 0.272136,-0.0143 0.128906,-0.0143 0.207683,-0.0358 l -0.01432,1.57552 q -0.229168,0.0859 -0.494142,0.13607 -0.264975,0.0573 -0.623048,0.0573 -0.451173,0 -0.816409,-0.1289 -0.365235,-0.12175 -0.630209,-0.39389 -0.257813,-0.27929 -0.401043,-0.71614 -0.136068,-0.43685 -0.136068,-1.05274 v -4.07488 h -0.895184 v -1.52539 h 0.895184 v -1.90495 z"
       id="path4236" />
    <path
       d="m 67.410299,143.52578 q -0.794924,0 -1.410811,-0.24349 -0.615887,-0.24349 -1.038414,-0.70182 -0.422527,-0.45834 -0.644532,-1.11719 -0.214845,-0.66602 -0.214845,-1.51107 v -0.63737 q 0,-0.94532 0.207683,-1.65431 0.214844,-0.71614 0.608725,-1.19596 0.401043,-0.48698 0.973961,-0.73047 0.580079,-0.24349 1.31055,-0.24349 1.475264,0 2.212896,0.95247 0.737631,0.95248 0.737631,2.82163 v 0.92383 h -4.03191 q 0.02148,0.46549 0.121745,0.7806 0.107422,0.3151 0.286459,0.50846 0.179037,0.19336 0.429689,0.2793 0.257813,0.0859 0.580079,0.0859 0.537111,0 0.952476,-0.17904 0.422527,-0.1862 0.744794,-0.51563 l 0.794923,1.22462 q -0.150391,0.20768 -0.393881,0.41536 -0.24349,0.20052 -0.572918,0.36524 -0.329428,0.16471 -0.744793,0.26497 -0.415366,0.10742 -0.909507,0.10742 z m -0.222006,-6.35223 q -0.529949,0 -0.773439,0.37956 -0.236329,0.37956 -0.279298,1.21745 h 2.026698 v -0.1862 q -0.01432,-0.69466 -0.229168,-1.05273 -0.214844,-0.35808 -0.744793,-0.35808 z"
       id="path4238" />
  </g>
  <path
     id="path835"
     fill="#FF9300"
     d="m 7,0 h 101 v 47 c 0,2.2091 -1.791,4 -4,4 H 11 C 8.79086,51 7,49.2091 7,47 Z" />
  <path
     id="path853"
     fill="#ff9300"
     d="m 78.3679,107.06092 c 0.4668,0.467 1.2257,0.468 1.6736,-0.017 3.7439,-4.055 6.3024,-9.070005 7.3821,-14.498005 1.1575,-5.82 0.5634,-11.8517 -1.7072,-17.3335 -2.2706,-5.4818 -6.1158,-10.1671 -11.0493,-13.4636 -4.9335,-3.2964 -10.7337,-5.0559 -16.6671,-5.0559 -5.9334,0 -11.7336,1.7595 -16.6671,5.0559 -4.9335,3.2965 -8.7787,7.9818 -11.0493,13.4636 -2.2706,5.4818 -2.8647,11.5135 -1.7072,17.3335 1.0797,5.428 3.6382,10.443005 7.3821,14.498005 0.4479,0.485 1.2068,0.484 1.6736,0.017 v 0 c 0.4669,-0.467 0.4647,-1.222 0.0185,-1.709 -3.4104,-3.719 -5.7417,-8.309005 -6.7292,-13.273005 -1.0653,-5.355 -0.5185,-10.9066 1.5712,-15.9515 2.0896,-5.0449 5.6283,-9.3569 10.1686,-12.3906 4.5403,-3.0337 9.8782,-4.653 15.3388,-4.653 5.4606,0 10.7985,1.6193 15.3388,4.653 4.5403,3.0337 8.079,7.3457 10.1686,12.3906 2.0897,5.0449 2.6365,10.5965 1.5712,15.9515 -0.9875,4.964 -3.3188,9.554005 -6.7292,13.273005 -0.4462,0.487 -0.4484,1.242 0.0185,1.709 z" />
  <path
     id="path855"
     fill="#ff9300"
     d="m 78.3679,182.65147 c 0.4668,0.467 1.2257,0.468 1.6736,-0.017 3.7439,-4.055 6.3024,-9.07 7.3821,-14.498 1.1575,-5.82 0.5634,-11.852 -1.7072,-17.333 -2.2706,-5.482 -6.1158,-10.168 -11.0493,-13.464 -4.9335,-3.296 -10.7337,-5.056 -16.6671,-5.056 -5.9334,0 -11.7336,1.759 -16.6671,5.056 -4.9335,3.296 -8.7787,7.982 -11.0493,13.464 -2.2706,5.481 -2.8647,11.513 -1.7072,17.333 1.0797,5.428 3.6382,10.443 7.3821,14.498 0.4479,0.485 1.2068,0.484 1.6736,0.017 v 0 c 0.4669,-0.467 0.4647,-1.222 0.0185,-1.709 -3.4104,-3.719 -5.7417,-8.309 -6.7292,-13.273 -1.0653,-5.355 -0.5185,-10.907 1.5712,-15.952 2.0896,-5.044 5.6283,-9.356 10.1686,-12.39 4.5403,-3.034 9.8782,-4.653 15.3388,-4.653 5.4606,0 10.7985,1.619 15.3388,4.653 4.5403,3.034 8.079,7.346 10.1686,12.39 2.0897,5.045 2.6365,10.597 1.5712,15.952 -0.9875,4.964 -3.3188,9.554 -6.7292,13.273 -0.4462,0.487 -0.4484,1.242 0.0185,1.709 z" />
  <path
     id="path895"
     fill="#ffffff"
     d="m 54.9219,403 h -1.5791 v -7.82 h 1.5791 z" />
  <path
     id="path897"
     fill="#ffffff"
     d="m 61.7163,403 h -1.5791 l -2.3096,-5.129 V 403 h -1.5791 v -7.82 h 1.5791 l 2.315,5.134 v -5.134 h 1.5737 z" />
  <path
     id="path905"
     fill="#ff9300"
     d="m 78.3679,258.24202 c 0.4668,0.467 1.2257,0.468 1.6736,-0.017 3.7439,-4.055 6.3024,-9.07 7.3821,-14.498 1.1575,-5.82 0.5634,-11.852 -1.7072,-17.334 -2.2706,-5.481 -6.1158,-10.167 -11.0493,-13.463 -4.9335,-3.297 -10.7337,-5.056 -16.6671,-5.056 -5.9334,0 -11.7336,1.759 -16.6671,5.056 -4.9335,3.296 -8.7787,7.982 -11.0493,13.463 -2.2706,5.482 -2.8647,11.514 -1.7072,17.334 1.0797,5.428 3.6382,10.443 7.3821,14.498 0.4479,0.485 1.2068,0.484 1.6736,0.017 v 0 c 0.4669,-0.467 0.4647,-1.222 0.0185,-1.709 -3.4104,-3.719 -5.7417,-8.309 -6.7292,-13.273 -1.0653,-5.355 -0.5185,-10.907 1.5712,-15.952 2.0896,-5.044 5.6283,-9.356 10.1686,-12.39 4.5403,-3.034 9.8782,-4.653 15.3388,-4.653 5.4606,0 10.7985,1.619 15.3388,4.653 4.5403,3.034 8.079,7.346 10.1686,12.39 2.0897,5.045 2.6365,10.597 1.5712,15.952 -0.9875,4.964 -3.3188,9.554 -6.7292,13.273 -0.4462,0.487 -0.4484,1.242 0.0185,1.709 z" />
  <path
     id="path907"
     fill="#ff9300"
     d="m 13.324725,413 h 31 c 3.3137,0 6,2.686 6,6 v 46 c 0,3.314 -2.6863,6 -6,6 h -31 c -3.3137,0 -6,-2.686 -6,-6 v -46 c 0,-3.314 2.6863,-6 6,-6 z m 0,2 c -2.2091,0 -4,1.791 -4,4 v 46 c 0,2.209 1.7909,4 4,4 h 31 c 2.2091,0 4,-1.791 4,-4 v -46 c 0,-2.209 -1.7909,-4 -4,-4 z"
     clip-rule="evenodd"
     fill-rule="evenodd" />
  <g
     aria-label="Chow Chorus"
     id="text1773"
     style="font-size:16px;line-height:1.25;font-family:'Roboto Condensed';-inkscape-font-specification:'Roboto Condensed, Normal';fill:#ffffff">
    <path
       d="m 23.958411,26.643694 q -0.08594,1.945312 -1.09375,2.945312 -1.007812,1 -2.84375,1 -0.945312,0 -1.6875,-0.3125 -0.742187,-0.3125 -1.25,-0.929687 -0.507812,-0.617188 -0.78125,-1.523438 -0.265625,-0.914062 -0.265625,-2.101562 v -1.9375 q 0,-1.1875 0.273438,-2.101563 0.28125,-0.914062 0.804687,-1.53125 0.523438,-0.617187 1.265625,-0.929687 0.742188,-0.320313 1.671875,-0.320313 1.859375,0 2.820313,1.039063 0.96875,1.039062 1.101562,2.984375 h -2.304687 q -0.01563,-0.609375 -0.109375,-1.015625 -0.08594,-0.414063 -0.273438,-0.65625 -0.1875,-0.242188 -0.492187,-0.34375 -0.296875,-0.101563 -0.742188,-0.101563 -0.460937,0 -0.789062,0.15625 -0.320313,0.15625 -0.523438,0.507813 -0.203125,0.34375 -0.304687,0.914062 -0.09375,0.5625 -0.09375,1.382813 v 1.953125 q 0,0.796875 0.07813,1.359375 0.07813,0.5625 0.273437,0.921875 0.195313,0.351562 0.515625,0.515625 0.320313,0.164062 0.8125,0.164062 0.421875,0 0.71875,-0.08594 0.304688,-0.09375 0.5,-0.320313 0.195313,-0.226562 0.296875,-0.625 0.101563,-0.398437 0.125,-1.007812 z"
       id="path4193" />
    <path
       d="m 27.419349,22.721819 q 0.34375,-0.429688 0.78125,-0.664063 0.445312,-0.234375 0.984375,-0.234375 0.523437,0 0.960937,0.179688 0.4375,0.179687 0.75,0.570312 0.3125,0.390625 0.484375,1.015625 0.171875,0.625 0.171875,1.523438 v 5.320312 h -2.21875 v -5.335937 q 0,-0.40625 -0.0625,-0.679688 -0.0625,-0.273437 -0.1875,-0.4375 -0.125,-0.164062 -0.304687,-0.234375 -0.179688,-0.07031 -0.421875,-0.07031 -0.328125,0 -0.554688,0.148437 -0.226562,0.148438 -0.382812,0.40625 v 6.203125 h -2.210938 v -12 h 2.210938 z"
       id="path4195" />
    <path
       d="m 32.880286,25.932756 q 0,-0.992187 0.242188,-1.757812 0.242187,-0.765625 0.6875,-1.289063 0.445312,-0.523437 1.070312,-0.789062 0.632813,-0.273438 1.414063,-0.273438 0.789062,0 1.421875,0.273438 0.632812,0.265625 1.078125,0.789062 0.445312,0.523438 0.6875,1.289063 0.242187,0.765625 0.242187,1.757812 v 0.554688 q 0,1 -0.242187,1.765625 -0.234375,0.757812 -0.679688,1.28125 -0.445312,0.523437 -1.078125,0.789062 -0.632812,0.265625 -1.414062,0.265625 -0.789063,0 -1.421875,-0.265625 -0.632813,-0.265625 -1.078125,-0.789062 -0.445313,-0.523438 -0.6875,-1.28125 -0.242188,-0.765625 -0.242188,-1.765625 z m 2.21875,0.554688 q 0,1.179687 0.320313,1.726562 0.320312,0.539063 0.890625,0.539063 0.601562,0 0.90625,-0.539063 0.304687,-0.546875 0.304687,-1.726562 v -0.554688 q 0,-1.15625 -0.320312,-1.710937 -0.320313,-0.5625 -0.90625,-0.5625 -0.5625,0 -0.882813,0.5625 -0.3125,0.554687 -0.3125,1.710937 z"
       id="path4197" />
    <path
       d="m 47.263099,26.721819 0.757812,-4.742188 h 2.117188 l -1.75,8.453125 h -1.835938 l -1.195312,-4.890625 -1.195313,4.890625 h -1.84375 l -1.75,-8.453125 h 2.125 l 0.75,4.75 1.125,-4.75 h 1.570313 z"
       id="path4199" />
    <path
       d="m 62.739661,26.643694 q -0.08594,1.945312 -1.09375,2.945312 -1.007812,1 -2.84375,1 -0.945312,0 -1.6875,-0.3125 -0.742187,-0.3125 -1.25,-0.929687 -0.507812,-0.617188 -0.78125,-1.523438 -0.265625,-0.914062 -0.265625,-2.101562 v -1.9375 q 0,-1.1875 0.273438,-2.101563 0.28125,-0.914062 0.804687,-1.53125 0.523438,-0.617187 1.265625,-0.929687 0.742188,-0.320313 1.671875,-0.320313 1.859375,0 2.820313,1.039063 0.96875,1.039062 1.101562,2.984375 h -2.304687 q -0.01563,-0.609375 -0.109375,-1.015625 -0.08594,-0.414063 -0.273438,-0.65625 -0.1875,-0.242188 -0.492187,-0.34375 -0.296875,-0.101563 -0.742188,-0.101563 -0.460937,0 -0.789062,0.15625 -0.320313,0.15625 -0.523438,0.507813 -0.203125,0.34375 -0.304687,0.914062 -0.09375,0.5625 -0.09375,1.382813 v 1.953125 q 0,0.796875 0.07813,1.359375 0.07813,0.5625 0.273437,0.921875 0.195313,0.351562 0.515625,0.515625 0.320313,0.164062 0.8125,0.164062 0.421875,0 0.71875,-0.08594 0.304688,-0.09375 0.5,-0.320313 0.195313,-0.226562 0.296875,-0.625 0.101563,-0.398437 0.125,-1.007812 z"
       id="path4201" />
    <path
       d="m 66.200599,22.721819 q 0.34375,-0.429688 0.78125,-0.664063 0.445312,-0.234375 0.984375,-0.234375 0.523437,0 0.960937,0.179688 0.4375,0.179687 0.75,0.570312 0.3125,0.390625 0.484375,1.015625 0.171875,0.625 0.171875,1.523438 v 5.320312 h -2.21875 v -5.335937 q 0,-0.40625 -0.0625,-0.679688 -0.0625,-0.273437 -0.1875,-0.4375 -0.125,-0.164062 -0.304687,-0.234375 -0.179688,-0.07031 -0.421875,-0.07031 -0.328125,0 -0.554688,0.148437 -0.226562,0.148438 -0.382812,0.40625 v 6.203125 h -2.210938 v -12 h 2.210938 z"
       id="path4203" />
    <path
       d="m 71.661536,25.932756 q 0,-0.992187 0.242188,-1.757812 0.242187,-0.765625 0.6875,-1.289063 0.445312,-0.523437 1.070312,-0.789062 0.632813,-0.273438 1.414063,-0.273438 0.789062,0 1.421875,0.273438 0.632812,0.265625 1.078125,0.789062 0.445312,0.523438 0.6875,1.289063 0.242187,0.765625 0.242187,1.757812 v 0.554688 q 0,1 -0.242187,1.765625 -0.234375,0.757812 -0.679688,1.28125 -0.445312,0.523437 -1.078125,0.789062 -0.632812,0.265625 -1.414062,0.265625 -0.789063,0 -1.421875,-0.265625 -0.632813,-0.265625 -1.078125,-0.789062 -0.445313,-0.523438 -0.6875,-1.28125 -0.242188,-0.765625 -0.242188,-1.765625 z m 2.21875,0.554688 q 0,1.179687 0.320313,1.726562 0.320312,0.539063 0.890625,0.539063 0.601562,0 0.90625,-0.539063 0.304687,-0.546875 0.304687,-1.726562 v -0.554688 q 0,-1.15625 -0.320312,-1.710937 -0.320313,-0.5625 -0.90625,-0.5625 -0.5625,0 -0.882813,0.5625 -0.3125,0.554687 -0.3125,1.710937 z"
       id="path4205" />
    <path
       d="m 84.059974,24.112444 q -0.148438,-0.01563 -0.367188,-0.03906 -0.210937,-0.02344 -0.367187,-0.02344 -0.476563,0 -0.773438,0.203125 -0.296875,0.203125 -0.453125,0.59375 v 5.585937 h -2.21875 v -8.453125 h 2.085938 l 0.0625,0.914063 q 0.25,-0.507813 0.609375,-0.789063 0.367187,-0.28125 0.835937,-0.28125 0.148438,0 0.320313,0.03125 0.179687,0.02344 0.289062,0.07031 z"
       id="path4207" />
    <path
       d="m 89.356849,29.659319 q -0.328125,0.445312 -0.789063,0.6875 -0.453125,0.242187 -1.054687,0.242187 -0.53125,0 -0.96875,-0.171875 -0.429688,-0.179687 -0.742188,-0.554687 -0.3125,-0.382813 -0.484375,-0.976563 -0.171875,-0.601562 -0.171875,-1.4375 v -5.46875 h 2.210938 v 5.484375 q 0,0.695313 0.226562,0.992188 0.226563,0.289062 0.59375,0.289062 0.40625,0 0.671875,-0.171875 0.265625,-0.179687 0.421875,-0.484375 v -6.109375 h 2.226563 v 8.453125 h -2.078125 z"
       id="path4209" />
    <path
       d="m 96.817786,28.167131 q 0,-0.164062 -0.08594,-0.296875 -0.07813,-0.140625 -0.257813,-0.273437 -0.171875,-0.140625 -0.453125,-0.28125 -0.28125,-0.140625 -0.671875,-0.3125 -0.578125,-0.234375 -1.023437,-0.476563 -0.445313,-0.25 -0.75,-0.554687 -0.304688,-0.3125 -0.460938,-0.695313 -0.15625,-0.390625 -0.15625,-0.898437 0,-0.53125 0.195313,-0.992188 0.203125,-0.46875 0.578125,-0.8125 0.375,-0.351562 0.914062,-0.546875 0.546875,-0.203125 1.234375,-0.203125 0.710938,0 1.273438,0.195313 0.570312,0.1875 0.96875,0.539062 0.398437,0.34375 0.609375,0.835938 0.210937,0.484375 0.210937,1.078125 h -2.210937 q 0,-0.484375 -0.195313,-0.757813 -0.195312,-0.273437 -0.664062,-0.273437 -0.351563,0 -0.578125,0.21875 -0.226563,0.21875 -0.226563,0.609375 0,0.164062 0.07031,0.296875 0.07813,0.125 0.242187,0.25 0.171875,0.125 0.445313,0.257812 0.273437,0.132813 0.671875,0.304688 0.632812,0.234375 1.09375,0.492187 0.46875,0.257813 0.773437,0.578125 0.304688,0.3125 0.453125,0.710938 0.148438,0.398437 0.148438,0.921875 0,0.5625 -0.21875,1.023437 -0.21875,0.460938 -0.625,0.789063 -0.398438,0.328125 -0.96875,0.515625 -0.570313,0.179687 -1.273438,0.179687 -0.773437,0 -1.367187,-0.234375 -0.585938,-0.242187 -0.984375,-0.632812 -0.398438,-0.398438 -0.601563,-0.890625 -0.203125,-0.5 -0.203125,-1.015625 h 2.101563 q 0.0078,0.34375 0.09375,0.570312 0.08594,0.21875 0.226562,0.351563 0.148438,0.132812 0.34375,0.1875 0.203125,0.04687 0.4375,0.04687 0.890625,0 0.890625,-0.804688 z"
       id="path4211" />
  </g>
  <g
     aria-label="Mix"
     id="text1356"
     style="font-size:14.6667px;line-height:1.25;font-family:'Roboto Condensed';-inkscape-font-specification:'Roboto Condensed, Normal';fill:#ffffff">
    <path
       d="m 50.043236,340.55852 1.969406,7.54103 1.962244,-7.54103 h 2.750006 v 10.42711 h -2.112635 v -2.82162 l 0.19336,-4.34702 -2.083989,7.16864 h -1.432295 l -2.083989,-7.16864 0.19336,4.34702 v 2.82162 H 47.29323 v -10.42711 z"
       id="path2098" />
    <path
       d="m 60.434536,350.98563 h -2.033859 v -7.74872 h 2.033859 z m -2.126958,-9.75393 q 0,-0.23633 0.07878,-0.42969 0.07878,-0.20052 0.222006,-0.34375 0.14323,-0.14323 0.343751,-0.22201 0.207683,-0.0788 0.458334,-0.0788 0.250652,0 0.451173,0.0788 0.207683,0.0788 0.350912,0.22201 0.14323,0.14323 0.222006,0.34375 0.07878,0.19336 0.07878,0.42969 0,0.23633 -0.07878,0.43685 -0.07878,0.19336 -0.222006,0.34375 -0.143229,0.14323 -0.350912,0.222 -0.200521,0.0788 -0.451173,0.0788 -0.250651,0 -0.458334,-0.0788 -0.200521,-0.0788 -0.343751,-0.222 -0.143229,-0.15039 -0.222006,-0.34375 -0.07878,-0.20052 -0.07878,-0.43685 z"
       id="path2100" />
    <path
       d="m 64.595353,345.53574 0.902346,-2.29883 h 2.148442 l -1.768884,3.78842 1.833338,3.9603 h -2.155604 l -0.952476,-2.42774 -0.945315,2.42774 h -2.162765 l 1.833337,-3.9603 -1.754561,-3.78842 h 2.155604 z"
       id="path2102" />
  </g>
</svg>
