<?xml version="1.0" encoding="UTF-8" standalone="no"?>
<svg
   xmlns:dc="http://purl.org/dc/elements/1.1/"
   xmlns:cc="http://creativecommons.org/ns#"
   xmlns:rdf="http://www.w3.org/1999/02/22-rdf-syntax-ns#"
   xmlns:svg="http://www.w3.org/2000/svg"
   xmlns="http://www.w3.org/2000/svg"
   xmlns:sodipodi="http://sodipodi.sourceforge.net/DTD/sodipodi-0.dtd"
   xmlns:inkscape="http://www.inkscape.org/namespaces/inkscape"
   inkscape:version="1.0 (4035a4fb49, 2020-05-01)"
   sodipodi:docname="ChowFDN.svg"
   id="svg122"
   version="1.1"
   fill="none"
   viewBox="0 0 154 486"
   height="128.58749mm"
   width="40.745834mm">
  <metadata
     id="metadata128">
    <rdf:RDF>
      <cc:Work
         rdf:about="">
        <dc:format>image/svg+xml</dc:format>
        <dc:type
           rdf:resource="http://purl.org/dc/dcmitype/StillImage" />
        <dc:title></dc:title>
      </cc:Work>
    </rdf:RDF>
  </metadata>
  <defs
     id="defs126" />
  <sodipodi:namedview
     inkscape:current-layer="svg122"
     inkscape:window-maximized="1"
     inkscape:window-y="-9"
     inkscape:window-x="-9"
     inkscape:cy="243"
     inkscape:cx="77"
     inkscape:zoom="1.7078189"
     units="mm"
     inkscape:document-units="mm"
     showgrid="false"
     id="namedview124"
     inkscape:window-height="1001"
     inkscape:window-width="1920"
     inkscape:pageshadow="2"
     inkscape:pageopacity="0"
     guidetolerance="10"
     gridtolerance="10"
     objecttolerance="10"
     borderopacity="1"
     bordercolor="#666666"
     pagecolor="#ffffff" />
  <path
     id="path2"
     fill="#16161d"
     d="M 0,0 H 154 V 486 H 0 Z" />
  <path
     id="path4"
     fill="#ffffff"
     d="m 16.1221,139.5 v 3.5 h -2.0098 v -9.953 h 3.3906 c 0.9844,0 1.7683,0.305 2.3516,0.916 0.5879,0.611 0.8818,1.404 0.8818,2.379 0,0.975 -0.2894,1.745 -0.8681,2.31 -0.5788,0.565 -1.3809,0.848 -2.4063,0.848 z m 0,-1.675 h 1.3808 c 0.3828,0 0.6791,-0.125 0.8887,-0.376 0.2096,-0.25 0.3145,-0.615 0.3145,-1.094 0,-0.496 -0.1071,-0.89 -0.3213,-1.182 -0.2142,-0.296 -0.5013,-0.447 -0.8614,-0.451 h -1.4013 z" />
  <path
     id="path6"
     fill="#ffffff"
     d="m 25.6377,137.47 -0.6426,-0.055 c -0.5286,0 -0.8864,0.232 -1.0732,0.697 V 143 h -1.9414 v -7.396 h 1.8252 l 0.0547,0.799 c 0.3053,-0.624 0.7268,-0.936 1.2646,-0.936 0.2188,0 0.3965,0.029 0.5332,0.089 z" />
  <path
     id="path8"
     fill="#ffffff"
     d="m 29.4863,143.137 c -0.9935,0 -1.7682,-0.297 -2.3242,-0.889 -0.556,-0.592 -0.834,-1.44 -0.834,-2.543 v -0.588 c 0,-1.166 0.2552,-2.067 0.7657,-2.7 0.5104,-0.633 1.2418,-0.95 2.1943,-0.95 0.9297,0 1.6292,0.298 2.0986,0.895 0.4694,0.593 0.7087,1.472 0.7178,2.639 v 0.95 h -3.8486 c 0.0273,0.547 0.1481,0.948 0.3623,1.203 0.2142,0.251 0.5446,0.376 0.9912,0.376 0.6471,0 1.1871,-0.221 1.6201,-0.663 l 0.7588,1.169 c -0.237,0.328 -0.5811,0.595 -1.0322,0.8 -0.4512,0.2 -0.9411,0.301 -1.4698,0.301 z m -1.2168,-4.539 h 1.9346 v -0.178 c -0.0091,-0.442 -0.082,-0.777 -0.2187,-1.005 -0.1368,-0.228 -0.3737,-0.342 -0.711,-0.342 -0.3372,0 -0.5833,0.121 -0.7383,0.363 -0.1504,0.241 -0.2392,0.628 -0.2666,1.162 z" />
  <path
     id="path10"
     fill="#ffffff"
     d="M 36.6777,139.541 H 33.335 v -1.613 h 3.3427 z" />
  <path
     id="path12"
     fill="#ffffff"
     d="m 38.3799,143 v -9.953 h 2.6318 c 1.1621,0 2.0873,0.369 2.7754,1.107 0.6927,0.739 1.0459,1.75 1.0596,3.035 v 1.614 c 0,1.308 -0.3464,2.335 -1.0391,3.083 C 43.1195,142.629 42.1693,143 40.957,143 Z m 2.0097,-8.278 v 6.61 h 0.6016 c 0.6699,0 1.1416,-0.175 1.415,-0.526 0.2735,-0.356 0.417,-0.966 0.4307,-1.832 v -1.73 c 0,-0.93 -0.1299,-1.577 -0.3896,-1.941 -0.2598,-0.369 -0.7019,-0.563 -1.3262,-0.581 z" />
  <path
     id="path14"
     fill="#ffffff"
     d="m 49.1875,143.137 c -0.9935,0 -1.7682,-0.297 -2.3242,-0.889 -0.556,-0.592 -0.834,-1.44 -0.834,-2.543 v -0.588 c 0,-1.166 0.2552,-2.067 0.7656,-2.7 0.5104,-0.633 1.2419,-0.95 2.1944,-0.95 0.9296,0 1.6292,0.298 2.0986,0.895 0.4694,0.593 0.7086,1.472 0.7178,2.639 v 0.95 H 47.957 c 0.0274,0.547 0.1481,0.948 0.3623,1.203 0.2142,0.251 0.5446,0.376 0.9912,0.376 0.6472,0 1.1872,-0.221 1.6202,-0.663 l 0.7588,1.169 c -0.237,0.328 -0.5811,0.595 -1.0323,0.8 -0.4511,0.2 -0.9411,0.301 -1.4697,0.301 z m -1.2168,-4.539 h 1.9346 v -0.178 c -0.0091,-0.442 -0.0821,-0.777 -0.2188,-1.005 -0.1367,-0.228 -0.3737,-0.342 -0.7109,-0.342 -0.3373,0 -0.5833,0.121 -0.7383,0.363 -0.1504,0.241 -0.2393,0.628 -0.2666,1.162 z" />
  <path
     id="path16"
     fill="#ffffff"
     d="m 54.9297,143 h -1.9414 v -10.5 h 1.9414 z" />
  <path
     id="path18"
     fill="#ffffff"
     d="m 59.9404,143 c -0.0547,-0.114 -0.1093,-0.305 -0.164,-0.574 -0.3464,0.474 -0.8158,0.711 -1.4082,0.711 -0.6198,0 -1.1348,-0.205 -1.545,-0.616 -0.4056,-0.41 -0.6084,-0.941 -0.6084,-1.592 0,-0.775 0.2461,-1.374 0.7383,-1.798 0.4968,-0.424 1.21,-0.64 2.1397,-0.65 h 0.5879 v -0.594 c 0,-0.333 -0.057,-0.568 -0.1709,-0.704 -0.114,-0.137 -0.2803,-0.205 -0.4991,-0.205 -0.483,0 -0.7246,0.282 -0.7246,0.847 h -1.9345 c 0,-0.683 0.2552,-1.246 0.7656,-1.688 0.515,-0.447 1.1644,-0.67 1.9482,-0.67 0.8112,0 1.4379,0.212 1.8799,0.636 0.4466,0.419 0.6699,1.02 0.6699,1.804 v 3.48 c 0.0091,0.638 0.1003,1.137 0.2735,1.497 V 143 Z m -1.1416,-1.381 c 0.2142,0 0.3965,-0.043 0.5469,-0.13 0.1504,-0.086 0.262,-0.189 0.335,-0.307 v -1.538 h -0.4649 c -0.3281,0 -0.5879,0.104 -0.7793,0.314 -0.1868,0.21 -0.2803,0.49 -0.2803,0.841 0,0.547 0.2142,0.82 0.6426,0.82 z" />
  <path
     id="path20"
     fill="#ffffff"
     d="m 65.2793,139.78 0.9844,-4.176 h 2.0644 l -2.4336,8.503 c -0.3646,1.254 -1.0504,1.88 -2.0576,1.88 -0.2324,0 -0.4967,-0.043 -0.793,-0.13 v -1.51 l 0.2256,0.007 c 0.3008,0 0.5264,-0.06 0.6768,-0.178 0.1549,-0.114 0.2711,-0.315 0.3486,-0.602 l 0.1504,-0.499 -2.1328,-7.471 h 2.0781 z" />
  <path
     id="path22"
     fill="#2c854a"
     d="m 61.3679,121.368 c 0.4669,0.467 1.2257,0.468 1.6736,-0.017 3.744,-4.055 6.3024,-9.07 7.3821,-14.498 1.1575,-5.82 0.5634,-11.8517 -1.7072,-17.3335 C 66.4458,84.0377 62.6006,79.3524 57.6671,76.0559 52.7336,72.7595 46.9335,71 41,71 c -5.9334,0 -11.7336,1.7595 -16.6671,5.0559 -4.9335,3.2965 -8.7786,7.9818 -11.0493,13.4636 -2.2706,5.4818 -2.8647,11.5135 -1.7071,17.3335 1.0797,5.428 3.6381,10.443 7.382,14.498 0.4479,0.485 1.2068,0.484 1.6736,0.017 v 0 c 0.4669,-0.467 0.4647,-1.222 0.0185,-1.709 -3.4104,-3.719 -5.7417,-8.309 -6.7292,-13.273 -1.0653,-5.355 -0.5185,-10.9066 1.5712,-15.9515 2.0896,-5.0449 5.6284,-9.3569 10.1686,-12.3906 4.5403,-3.0337 9.8783,-4.653 15.3388,-4.653 5.4606,0 10.7985,1.6193 15.3388,4.653 4.5403,3.0337 8.079,7.3457 10.1687,12.3906 2.0896,5.0449 2.6364,10.5965 1.5711,15.9515 -0.9875,4.964 -3.3188,9.554 -6.7292,13.273 -0.4462,0.487 -0.4484,1.242 0.0185,1.709 z" />
  <path
     id="path24"
     fill="#ffffff"
     d="M 24.3662,226.722 H 21.9053 V 235 h -2.0166 v -8.278 h -2.4199 v -1.675 h 6.8974 z" />
  <path
     id="path26"
     fill="#ffffff"
     d="m 29.9854,224.944 v 1.641 H 29.876 c -0.7246,0.005 -1.3011,0.223 -1.7295,0.656 -0.4238,0.429 -0.6813,1.03 -0.7725,1.805 0.4147,-0.474 0.9343,-0.711 1.5586,-0.711 0.7201,0 1.2943,0.308 1.7227,0.923 0.4329,0.615 0.6494,1.435 0.6494,2.461 0,0.651 -0.1231,1.239 -0.3692,1.763 -0.246,0.525 -0.5924,0.932 -1.039,1.224 -0.4421,0.287 -0.9434,0.431 -1.5039,0.431 -0.9024,0 -1.627,-0.363 -2.1738,-1.087 -0.5424,-0.725 -0.8135,-1.7 -0.8135,-2.926 v -0.718 c 0,-1.098 0.1709,-2.06 0.5127,-2.885 0.3463,-0.824 0.8431,-1.458 1.4902,-1.9 0.6517,-0.447 1.4105,-0.672 2.2764,-0.677 z m -1.6612,4.991 c -0.2461,0 -0.4534,0.077 -0.6221,0.232 -0.164,0.155 -0.2871,0.346 -0.3691,0.574 v 0.697 c 0,0.702 0.0934,1.226 0.2803,1.573 0.1868,0.346 0.4329,0.519 0.7383,0.519 0.3099,0 0.5582,-0.166 0.7451,-0.499 0.1868,-0.337 0.2803,-0.768 0.2803,-1.292 0,-0.533 -0.098,-0.966 -0.294,-1.299 -0.1914,-0.337 -0.4443,-0.505 -0.7588,-0.505 z" />
  <path
     id="path28"
     fill="#ffffff"
     d="m 38.2363,230.885 c 0,1.376 -0.2506,2.429 -0.7519,3.158 -0.4968,0.729 -1.2077,1.094 -2.1328,1.094 -0.9161,0 -1.6247,-0.353 -2.126,-1.06 -0.4968,-0.711 -0.7542,-1.727 -0.7725,-3.049 v -1.88 c 0,-1.371 0.2484,-2.419 0.7451,-3.144 0.4968,-0.729 1.21,-1.094 2.1397,-1.094 0.9297,0 1.6429,0.36 2.1396,1.08 0.4968,0.72 0.7497,1.748 0.7588,3.083 z m -1.9414,-2.017 c 0,-0.784 -0.0775,-1.372 -0.2324,-1.764 -0.1549,-0.391 -0.3965,-0.587 -0.7246,-0.587 -0.6152,0 -0.9343,0.717 -0.957,2.153 v 2.481 c 0,0.802 0.0774,1.399 0.2324,1.791 0.1595,0.392 0.4056,0.588 0.7383,0.588 0.3144,0 0.5468,-0.182 0.6972,-0.547 0.155,-0.369 0.237,-0.932 0.2461,-1.688 z" />
  <path
     id="path30"
     fill="#ffffff"
     d="m 44.9219,233.332 h 3.5273 V 235 h -5.5371 v -9.953 h 2.0098 z" />
  <path
     id="path32"
     fill="#ffffff"
     d="m 49.29,231.062 c 0,-1.121 0.2644,-2 0.793,-2.638 0.5287,-0.638 1.2601,-0.957 2.1943,-0.957 0.9434,0 1.6794,0.319 2.2081,0.957 0.5286,0.638 0.7929,1.522 0.7929,2.652 v 0.472 c 0,1.126 -0.262,2.005 -0.7861,2.639 -0.5241,0.633 -1.2578,0.95 -2.2012,0.95 -0.9479,0 -1.6862,-0.317 -2.2148,-0.95 -0.5241,-0.638 -0.7862,-1.523 -0.7862,-2.653 z m 1.9414,0.486 c 0,1.321 0.3532,1.982 1.0596,1.982 0.6517,0 1.0026,-0.551 1.0528,-1.654 l 0.0068,-0.814 c 0,-0.674 -0.0934,-1.173 -0.2803,-1.497 -0.1868,-0.328 -0.4512,-0.492 -0.793,-0.492 -0.3281,0 -0.5856,0.164 -0.7724,0.492 -0.1823,0.324 -0.2735,0.823 -0.2735,1.497 z" />
  <path
     id="path34"
     fill="#ffffff"
     d="m 61.875,231.753 0.6631,-4.149 h 1.8525 L 62.8594,235 H 61.2529 L 60.207,230.721 59.1611,235 h -1.6132 l -1.5313,-7.396 h 1.8594 l 0.6562,4.156 0.9844,-4.156 h 1.374 z" />
  <path
     id="path36"
     fill="#2c854a"
     d="m 61.3679,213.368 c 0.4669,0.467 1.2257,0.468 1.6736,-0.017 3.744,-4.055 6.3024,-9.07 7.3821,-14.498 1.1575,-5.82 0.5634,-11.852 -1.7072,-17.334 C 66.4458,176.038 62.6006,171.352 57.6671,168.056 52.7336,164.759 46.9335,163 41,163 c -5.9334,0 -11.7336,1.759 -16.6671,5.056 -4.9335,3.296 -8.7786,7.982 -11.0493,13.463 -2.2706,5.482 -2.8647,11.514 -1.7071,17.334 1.0797,5.428 3.6381,10.443 7.382,14.498 0.4479,0.485 1.2068,0.484 1.6736,0.017 v 0 c 0.4669,-0.467 0.4647,-1.222 0.0185,-1.709 -3.4104,-3.719 -5.7417,-8.309 -6.7292,-13.273 -1.0653,-5.355 -0.5185,-10.907 1.5712,-15.952 2.0896,-5.044 5.6284,-9.356 10.1686,-12.39 4.5403,-3.034 9.8783,-4.653 15.3388,-4.653 5.4606,0 10.7985,1.619 15.3388,4.653 4.5403,3.034 8.079,7.346 10.1687,12.39 2.0896,5.045 2.6364,10.597 1.5711,15.952 -0.9875,4.964 -3.3188,9.554 -6.7292,13.273 -0.4462,0.487 -0.4484,1.242 0.0185,1.709 z" />
  <path
     id="path38"
     fill="#ffffff"
     d="m 23.0674,327 v -9.953 h 2.6318 c 1.1621,0 2.0873,0.369 2.7754,1.107 0.6927,0.739 1.0459,1.75 1.0596,3.035 v 1.614 c 0,1.308 -0.3464,2.335 -1.0391,3.083 C 27.807,326.629 26.8568,327 25.6445,327 Z m 2.0097,-8.278 v 6.61 h 0.6016 c 0.6699,0 1.1416,-0.175 1.4151,-0.526 0.2734,-0.356 0.4169,-0.966 0.4306,-1.832 v -1.73 c 0,-0.93 -0.1299,-1.577 -0.3896,-1.941 -0.2598,-0.369 -0.7019,-0.563 -1.3262,-0.581 z" />
  <path
     id="path40"
     fill="#ffffff"
     d="m 33.875,327.137 c -0.9935,0 -1.7682,-0.297 -2.3242,-0.889 -0.556,-0.592 -0.834,-1.44 -0.834,-2.543 v -0.588 c 0,-1.166 0.2552,-2.067 0.7656,-2.7 0.5104,-0.633 1.2419,-0.95 2.1944,-0.95 0.9296,0 1.6292,0.298 2.0986,0.895 0.4694,0.593 0.7086,1.472 0.7178,2.639 v 0.95 h -3.8487 c 0.0274,0.547 0.1481,0.948 0.3623,1.203 0.2142,0.251 0.5446,0.376 0.9912,0.376 0.6472,0 1.1872,-0.221 1.6202,-0.663 l 0.7588,1.169 c -0.237,0.328 -0.5811,0.595 -1.0323,0.8 -0.4511,0.2 -0.9411,0.301 -1.4697,0.301 z m -1.2168,-4.539 h 1.9346 v -0.178 c -0.0091,-0.442 -0.0821,-0.777 -0.2188,-1.005 -0.1367,-0.228 -0.3737,-0.342 -0.7109,-0.342 -0.3373,0 -0.5833,0.121 -0.7383,0.363 -0.1504,0.241 -0.2393,0.628 -0.2666,1.162 z" />
  <path
     id="path42"
     fill="#ffffff"
     d="m 39.6172,327 h -1.9414 v -10.5 h 1.9414 z" />
  <path
     id="path44"
     fill="#ffffff"
     d="m 44.6279,327 c -0.0547,-0.114 -0.1093,-0.305 -0.164,-0.574 -0.3464,0.474 -0.8158,0.711 -1.4082,0.711 -0.6198,0 -1.1348,-0.205 -1.545,-0.616 -0.4056,-0.41 -0.6084,-0.941 -0.6084,-1.592 0,-0.775 0.2461,-1.374 0.7383,-1.798 0.4968,-0.424 1.21,-0.64 2.1397,-0.65 h 0.5879 v -0.594 c 0,-0.333 -0.057,-0.568 -0.1709,-0.704 -0.114,-0.137 -0.2803,-0.205 -0.4991,-0.205 -0.483,0 -0.7246,0.282 -0.7246,0.847 h -1.9345 c 0,-0.683 0.2552,-1.246 0.7656,-1.688 0.515,-0.447 1.1644,-0.67 1.9482,-0.67 0.8112,0 1.4379,0.212 1.8799,0.636 0.4466,0.419 0.6699,1.02 0.6699,1.804 v 3.48 c 0.0091,0.638 0.1003,1.137 0.2735,1.497 V 327 Z m -1.1416,-1.381 c 0.2142,0 0.3965,-0.043 0.5469,-0.13 0.1504,-0.086 0.262,-0.189 0.335,-0.307 v -1.538 h -0.4649 c -0.3281,0 -0.5879,0.104 -0.7793,0.314 -0.1868,0.21 -0.2802,0.49 -0.2802,0.841 0,0.547 0.2141,0.82 0.6425,0.82 z" />
  <path
     id="path46"
     fill="#ffffff"
     d="m 49.9668,323.78 0.9844,-4.176 h 2.0644 l -2.4336,8.503 c -0.3646,1.254 -1.0504,1.88 -2.0576,1.88 -0.2324,0 -0.4967,-0.043 -0.793,-0.13 v -1.51 l 0.2256,0.007 c 0.3008,0 0.5264,-0.06 0.6768,-0.178 0.1549,-0.114 0.2711,-0.315 0.3486,-0.602 L 49.1328,327.075 47,319.604 h 2.0781 z" />
  <path
     id="path48"
     fill="#ffffff"
     d="m 57.1172,325.018 c 0,-0.164 -0.0798,-0.315 -0.2393,-0.452 -0.1549,-0.141 -0.5036,-0.33 -1.0459,-0.567 -0.7975,-0.324 -1.3466,-0.659 -1.6474,-1.005 -0.2963,-0.346 -0.4444,-0.777 -0.4444,-1.292 0,-0.647 0.2325,-1.18 0.6973,-1.599 0.4694,-0.424 1.0892,-0.636 1.8594,-0.636 0.8112,0 1.4606,0.209 1.9482,0.629 0.4876,0.419 0.7315,0.982 0.7315,1.688 H 57.042 c 0,-0.601 -0.2507,-0.902 -0.752,-0.902 -0.205,0 -0.3737,0.064 -0.5058,0.191 -0.1322,0.128 -0.1983,0.306 -0.1983,0.533 0,0.165 0.073,0.31 0.2188,0.438 0.1458,0.123 0.4899,0.301 1.0322,0.533 0.7884,0.292 1.3444,0.618 1.668,0.978 0.3281,0.355 0.4922,0.818 0.4922,1.387 0,0.661 -0.2484,1.192 -0.7451,1.593 -0.4968,0.401 -1.1485,0.602 -1.9551,0.602 -0.5423,0 -1.0209,-0.105 -1.4356,-0.315 -0.4147,-0.214 -0.7405,-0.51 -0.9775,-0.888 -0.2324,-0.379 -0.3486,-0.787 -0.3486,-1.224 h 1.8388 c 0.0091,0.337 0.0866,0.59 0.2324,0.759 0.1504,0.168 0.3943,0.253 0.7315,0.253 0.5195,0 0.7793,-0.235 0.7793,-0.704 z" />
  <path
     id="path50"
     fill="#2c854a"
     d="m 61.3679,305.368 c 0.4669,0.467 1.2257,0.468 1.6736,-0.017 3.744,-4.055 6.3024,-9.07 7.3821,-14.498 1.1575,-5.82 0.5634,-11.852 -1.7072,-17.334 C 66.4458,268.038 62.6006,263.352 57.6671,260.056 52.7336,256.759 46.9335,255 41,255 c -5.9334,0 -11.7336,1.759 -16.6671,5.056 -4.9335,3.296 -8.7786,7.982 -11.0493,13.463 -2.2706,5.482 -2.8647,11.514 -1.7071,17.334 1.0797,5.428 3.6381,10.443 7.382,14.498 0.4479,0.485 1.2068,0.484 1.6736,0.017 v 0 c 0.4669,-0.467 0.4647,-1.222 0.0185,-1.709 -3.4104,-3.719 -5.7417,-8.309 -6.7292,-13.273 -1.0653,-5.355 -0.5185,-10.907 1.5712,-15.952 2.0896,-5.044 5.6284,-9.356 10.1686,-12.39 4.5403,-3.034 9.8783,-4.653 15.3388,-4.653 5.4606,0 10.7985,1.619 15.3388,4.653 4.5403,3.034 8.079,7.346 10.1687,12.39 2.0896,5.045 2.6364,10.597 1.5711,15.952 -0.9875,4.964 -3.3188,9.554 -6.7292,13.273 -0.4462,0.487 -0.4484,1.242 0.0185,1.709 z" />
  <path
     id="path52"
     fill="#ffffff"
     d="m 105.875,140.389 c 0,-0.406 -0.105,-0.711 -0.314,-0.916 -0.206,-0.21 -0.582,-0.426 -1.128,-0.65 -0.998,-0.378 -1.716,-0.82 -2.154,-1.326 -0.437,-0.51 -0.656,-1.112 -0.656,-1.805 0,-0.838 0.296,-1.51 0.889,-2.016 0.597,-0.511 1.353,-0.766 2.269,-0.766 0.611,0 1.156,0.13 1.634,0.39 0.479,0.255 0.845,0.617 1.101,1.087 0.259,0.469 0.389,1.002 0.389,1.599 h -2.003 c 0,-0.465 -0.1,-0.818 -0.3,-1.059 -0.196,-0.246 -0.481,-0.369 -0.855,-0.369 -0.351,0 -0.624,0.104 -0.82,0.314 -0.196,0.205 -0.294,0.483 -0.294,0.834 0,0.273 0.109,0.522 0.328,0.745 0.219,0.219 0.606,0.447 1.162,0.684 0.971,0.351 1.675,0.781 2.112,1.292 0.442,0.51 0.663,1.16 0.663,1.948 0,0.866 -0.275,1.543 -0.827,2.03 -0.551,0.488 -1.301,0.732 -2.249,0.732 -0.642,0 -1.228,-0.132 -1.757,-0.397 -0.528,-0.264 -0.943,-0.642 -1.244,-1.135 -0.296,-0.492 -0.444,-1.073 -0.444,-1.743 h 2.017 c 0,0.575 0.111,0.992 0.335,1.251 0.223,0.26 0.587,0.39 1.093,0.39 0.702,0 1.053,-0.371 1.053,-1.114 z" />
  <path
     id="path54"
     fill="#ffffff"
     d="m 111.166,143 h -1.941 v -7.396 h 1.941 z m -2.03,-9.311 c 0,-0.3 0.095,-0.546 0.287,-0.738 0.191,-0.191 0.446,-0.287 0.765,-0.287 0.319,0 0.575,0.096 0.766,0.287 0.192,0.192 0.287,0.438 0.287,0.738 0,0.297 -0.095,0.543 -0.287,0.739 -0.187,0.196 -0.442,0.294 -0.766,0.294 -0.323,0 -0.581,-0.098 -0.772,-0.294 -0.187,-0.196 -0.28,-0.442 -0.28,-0.739 z" />
  <path
     id="path56"
     fill="#ffffff"
     d="m 114.803,141.394 h 2.926 V 143 h -5.223 v -1.21 l 2.857,-4.573 h -2.789 v -1.613 h 5.114 v 1.168 z" />
  <path
     id="path58"
     fill="#ffffff"
     d="m 121.885,143.137 c -0.994,0 -1.768,-0.297 -2.324,-0.889 -0.556,-0.592 -0.834,-1.44 -0.834,-2.543 v -0.588 c 0,-1.166 0.255,-2.067 0.765,-2.7 0.511,-0.633 1.242,-0.95 2.195,-0.95 0.929,0 1.629,0.298 2.098,0.895 0.47,0.593 0.709,1.472 0.718,2.639 v 0.95 h -3.849 c 0.028,0.547 0.148,0.948 0.363,1.203 0.214,0.251 0.544,0.376 0.991,0.376 0.647,0 1.187,-0.221 1.62,-0.663 l 0.759,1.169 c -0.237,0.328 -0.581,0.595 -1.033,0.8 -0.451,0.2 -0.941,0.301 -1.469,0.301 z m -1.217,-4.539 h 1.935 v -0.178 c -0.01,-0.442 -0.082,-0.777 -0.219,-1.005 -0.137,-0.228 -0.374,-0.342 -0.711,-0.342 -0.337,0 -0.583,0.121 -0.738,0.363 -0.151,0.241 -0.24,0.628 -0.267,1.162 z" />
  <path
     id="path60"
     fill="#2c854a"
     d="m 133.368,121.368 c 0.467,0.467 1.226,0.468 1.674,-0.017 3.743,-4.055 6.302,-9.07 7.382,-14.498 1.157,-5.82 0.563,-11.8517 -1.708,-17.3335 -2.27,-5.4818 -6.115,-10.1671 -11.049,-13.4636 C 124.734,72.7595 118.933,71 113,71 c -5.933,0 -11.734,1.7595 -16.6671,5.0559 -4.9335,3.2965 -8.7786,7.9818 -11.0493,13.4636 -2.2706,5.4818 -2.8647,11.5135 -1.7071,17.3335 1.0797,5.428 3.6381,10.443 7.382,14.498 0.4479,0.485 1.2068,0.484 1.6736,0.017 v 0 c 0.4669,-0.467 0.4647,-1.222 0.0185,-1.709 -3.4104,-3.719 -5.7417,-8.309 -6.7292,-13.273 -1.0653,-5.355 -0.5185,-10.9066 1.5712,-15.9515 2.0896,-5.0449 5.6284,-9.3569 10.1686,-12.3906 4.5408,-3.0337 9.8778,-4.653 15.3388,-4.653 5.461,0 10.799,1.6193 15.339,4.653 4.54,3.0337 8.079,7.3457 10.168,12.3906 2.09,5.0449 2.637,10.5965 1.572,15.9515 -0.988,4.964 -3.319,9.554 -6.73,13.273 -0.446,0.487 -0.448,1.242 0.019,1.709 z" />
  <path
     id="path62"
     fill="#ffffff"
     d="M 94.6025,226.722 H 92.1416 V 235 H 90.125 v -8.278 h -2.4199 v -1.675 h 6.8974 z" />
  <path
     id="path64"
     fill="#ffffff"
     d="m 100.222,224.944 v 1.641 h -0.11 c -0.7243,0.005 -1.3008,0.223 -1.7292,0.656 -0.4238,0.429 -0.6813,1.03 -0.7724,1.805 0.4147,-0.474 0.9342,-0.711 1.5585,-0.711 0.7201,0 1.2941,0.308 1.7231,0.923 0.433,0.615 0.649,1.435 0.649,2.461 0,0.651 -0.123,1.239 -0.369,1.763 -0.246,0.525 -0.593,0.932 -1.039,1.224 -0.4422,0.287 -0.9435,0.431 -1.5041,0.431 -0.9023,0 -1.6269,-0.363 -2.1738,-1.087 -0.5423,-0.725 -0.8135,-1.7 -0.8135,-2.926 v -0.718 c 0,-1.098 0.1709,-2.06 0.5127,-2.885 0.3464,-0.824 0.8431,-1.458 1.4902,-1.9 0.6517,-0.447 1.4105,-0.672 2.2764,-0.677 z m -1.6615,4.991 c -0.246,0 -0.4534,0.077 -0.622,0.232 -0.1641,0.155 -0.2871,0.346 -0.3692,0.574 v 0.697 c 0,0.702 0.0935,1.226 0.2803,1.573 0.1869,0.346 0.433,0.519 0.7383,0.519 0.3099,0 0.5583,-0.166 0.7451,-0.499 0.1869,-0.337 0.2803,-0.768 0.2803,-1.292 0,-0.533 -0.098,-0.966 -0.294,-1.299 -0.1914,-0.337 -0.4443,-0.505 -0.7588,-0.505 z" />
  <path
     id="path66"
     fill="#ffffff"
     d="m 108.473,230.885 c 0,1.376 -0.251,2.429 -0.752,3.158 -0.497,0.729 -1.208,1.094 -2.133,1.094 -0.916,0 -1.625,-0.353 -2.126,-1.06 -0.497,-0.711 -0.754,-1.727 -0.773,-3.049 v -1.88 c 0,-1.371 0.249,-2.419 0.746,-3.144 0.496,-0.729 1.21,-1.094 2.139,-1.094 0.93,0 1.643,0.36 2.14,1.08 0.497,0.72 0.75,1.748 0.759,3.083 z m -1.942,-2.017 c 0,-0.784 -0.077,-1.372 -0.232,-1.764 -0.155,-0.391 -0.397,-0.587 -0.725,-0.587 -0.615,0 -0.934,0.717 -0.957,2.153 v 2.481 c 0,0.802 0.078,1.399 0.233,1.791 0.159,0.392 0.405,0.588 0.738,0.588 0.314,0 0.547,-0.182 0.697,-0.547 0.155,-0.369 0.237,-0.932 0.246,-1.688 z" />
  <path
     id="path68"
     fill="#ffffff"
     d="m 120.128,235 h -2.003 v -4.259 h -2.967 V 235 h -2.01 v -9.953 h 2.01 v 4.026 h 2.967 v -4.026 h 2.003 z" />
  <path
     id="path70"
     fill="#ffffff"
     d="m 123.683,235 h -1.942 v -7.396 h 1.942 z m -2.031,-9.311 c 0,-0.3 0.096,-0.546 0.287,-0.738 0.192,-0.191 0.447,-0.287 0.766,-0.287 0.319,0 0.574,0.096 0.766,0.287 0.191,0.192 0.287,0.438 0.287,0.738 0,0.297 -0.096,0.543 -0.287,0.739 -0.187,0.196 -0.442,0.294 -0.766,0.294 -0.323,0 -0.581,-0.098 -0.772,-0.294 -0.187,-0.196 -0.281,-0.442 -0.281,-0.739 z" />
  <path
     id="path72"
     fill="#ffffff"
     d="m 124.947,231.076 c 0,-1.212 0.219,-2.117 0.657,-2.714 0.437,-0.597 1.05,-0.895 1.838,-0.895 0.67,0 1.188,0.264 1.552,0.793 l 0.075,-0.656 h 1.743 V 235 c 0,0.943 -0.264,1.663 -0.792,2.16 -0.529,0.501 -1.288,0.752 -2.277,0.752 -0.405,0 -0.832,-0.082 -1.278,-0.246 -0.447,-0.159 -0.779,-0.365 -0.998,-0.615 l 0.649,-1.34 c 0.183,0.191 0.419,0.346 0.711,0.465 0.292,0.123 0.568,0.184 0.827,0.184 0.433,0 0.743,-0.104 0.93,-0.314 0.191,-0.205 0.289,-0.538 0.294,-0.998 v -0.636 c -0.369,0.483 -0.85,0.725 -1.442,0.725 -0.789,0 -1.4,-0.306 -1.832,-0.916 -0.429,-0.616 -0.648,-1.481 -0.657,-2.598 z m 1.935,0.486 c 0,0.683 0.089,1.182 0.266,1.497 0.178,0.309 0.461,0.464 0.848,0.464 0.397,0 0.691,-0.143 0.882,-0.43 v -3.534 c -0.201,-0.315 -0.49,-0.472 -0.868,-0.472 -0.383,0 -0.668,0.157 -0.855,0.472 -0.182,0.314 -0.273,0.82 -0.273,1.517 z" />
  <path
     id="path74"
     fill="#ffffff"
     d="m 134.107,228.253 c 0.42,-0.524 0.935,-0.786 1.545,-0.786 0.675,0 1.188,0.237 1.538,0.711 0.351,0.474 0.529,1.18 0.534,2.119 V 235 h -1.942 v -4.683 c 0,-0.433 -0.068,-0.745 -0.205,-0.936 -0.132,-0.196 -0.348,-0.294 -0.649,-0.294 -0.351,0 -0.625,0.162 -0.821,0.485 V 235 h -1.934 v -10.5 h 1.934 z" />
  <path
     id="path76"
     fill="#2c854a"
     d="m 133.368,213.368 c 0.467,0.467 1.226,0.468 1.674,-0.017 3.743,-4.055 6.302,-9.07 7.382,-14.498 1.157,-5.82 0.563,-11.852 -1.708,-17.334 -2.27,-5.481 -6.115,-10.167 -11.049,-13.463 C 124.734,164.759 118.933,163 113,163 c -5.933,0 -11.734,1.759 -16.6671,5.056 -4.9335,3.296 -8.7786,7.982 -11.0493,13.463 -2.2706,5.482 -2.8647,11.514 -1.7071,17.334 1.0797,5.428 3.6381,10.443 7.382,14.498 0.4479,0.485 1.2068,0.484 1.6736,0.017 v 0 c 0.4669,-0.467 0.4647,-1.222 0.0185,-1.709 -3.4104,-3.719 -5.7417,-8.309 -6.7292,-13.273 -1.0653,-5.355 -0.5185,-10.907 1.5712,-15.952 2.0896,-5.044 5.6284,-9.356 10.1686,-12.39 4.5408,-3.034 9.8778,-4.653 15.3388,-4.653 5.461,0 10.799,1.619 15.339,4.653 4.54,3.034 8.079,7.346 10.168,12.39 2.09,5.045 2.637,10.597 1.572,15.952 -0.988,4.964 -3.319,9.554 -6.73,13.273 -0.446,0.487 -0.448,1.242 0.019,1.709 z" />
  <path
     id="path78"
     fill="#ffffff"
     d="m 91.2598,327 v -9.953 h 2.6318 c 1.1621,0 2.0872,0.369 2.7754,1.107 0.6927,0.739 1.0459,1.75 1.0596,3.035 v 1.614 c 0,1.308 -0.3464,2.335 -1.0391,3.083 -0.6882,0.743 -1.6383,1.114 -2.8506,1.114 z m 2.0097,-8.278 v 6.61 h 0.6016 c 0.6699,0 1.1416,-0.175 1.415,-0.526 0.2735,-0.356 0.417,-0.966 0.4307,-1.832 v -1.73 c 0,-0.93 -0.1299,-1.577 -0.3897,-1.941 -0.2597,-0.369 -0.7018,-0.563 -1.3261,-0.581 z" />
  <path
     id="path80"
     fill="#ffffff"
     d="m 102.73,321.47 -0.642,-0.055 c -0.529,0 -0.887,0.232 -1.073,0.697 V 327 h -1.9418 v -7.396 h 1.8248 l 0.055,0.799 c 0.305,-0.624 0.727,-0.936 1.265,-0.936 0.219,0 0.396,0.029 0.533,0.089 z" />
  <path
     id="path82"
     fill="#ffffff"
     d="m 106.224,323.78 0.984,-4.176 h 2.064 l -2.433,8.503 c -0.365,1.254 -1.051,1.88 -2.058,1.88 -0.232,0 -0.496,-0.043 -0.793,-0.13 v -1.51 l 0.226,0.007 c 0.301,0 0.526,-0.06 0.677,-0.178 0.155,-0.114 0.271,-0.315 0.348,-0.602 l 0.151,-0.499 -2.133,-7.471 h 2.078 z" />
  <path
     id="path84"
     fill="#ffffff"
     d="m 110.804,327.854 h -1.415 l 2.987,-10.807 h 1.415 z" />
  <path
     id="path86"
     fill="#ffffff"
     d="m 121.297,323.302 0.943,-6.255 h 1.989 l -1.77,9.953 h -2.017 l -1.162,-5.865 -1.148,5.865 h -2.024 l -1.777,-9.953 h 2.003 l 0.937,6.248 1.168,-6.248 h 1.689 z" />
  <path
     id="path88"
     fill="#ffffff"
     d="m 127.989,327.137 c -0.993,0 -1.768,-0.297 -2.324,-0.889 -0.556,-0.592 -0.834,-1.44 -0.834,-2.543 v -0.588 c 0,-1.166 0.255,-2.067 0.766,-2.7 0.51,-0.633 1.242,-0.95 2.194,-0.95 0.93,0 1.629,0.298 2.099,0.895 0.469,0.593 0.708,1.472 0.717,2.639 v 0.95 h -3.848 c 0.027,0.547 0.148,0.948 0.362,1.203 0.214,0.251 0.545,0.376 0.991,0.376 0.647,0 1.187,-0.221 1.62,-0.663 l 0.759,1.169 c -0.237,0.328 -0.581,0.595 -1.032,0.8 -0.451,0.2 -0.941,0.301 -1.47,0.301 z m -1.217,-4.539 h 1.935 v -0.178 c -0.009,-0.442 -0.082,-0.777 -0.219,-1.005 -0.136,-0.228 -0.373,-0.342 -0.711,-0.342 -0.337,0 -0.583,0.121 -0.738,0.363 -0.15,0.241 -0.239,0.628 -0.267,1.162 z" />
  <path
     id="path90"
     fill="#ffffff"
     d="m 133.95,317.785 v 1.819 h 0.991 v 1.456 h -0.991 v 3.67 c 0,0.292 0.039,0.493 0.116,0.602 0.082,0.109 0.237,0.164 0.465,0.164 0.187,0 0.34,-0.016 0.458,-0.048 l -0.013,1.504 c -0.329,0.123 -0.684,0.185 -1.067,0.185 -1.249,0 -1.88,-0.716 -1.893,-2.147 v -3.93 h -0.855 v -1.456 h 0.855 v -1.819 z" />
  <path
     id="path92"
     fill="#2c854a"
     d="m 133.368,305.368 c 0.467,0.467 1.226,0.468 1.674,-0.017 3.743,-4.055 6.302,-9.07 7.382,-14.498 1.157,-5.82 0.563,-11.852 -1.708,-17.334 -2.27,-5.481 -6.115,-10.167 -11.049,-13.463 C 124.734,256.759 118.933,255 113,255 c -5.933,0 -11.734,1.759 -16.6671,5.056 -4.9335,3.296 -8.7786,7.982 -11.0493,13.463 -2.2706,5.482 -2.8647,11.514 -1.7071,17.334 1.0797,5.428 3.6381,10.443 7.382,14.498 0.4479,0.485 1.2068,0.484 1.6736,0.017 v 0 c 0.4669,-0.467 0.4647,-1.222 0.0185,-1.709 -3.4104,-3.719 -5.7417,-8.309 -6.7292,-13.273 -1.0653,-5.355 -0.5185,-10.907 1.5712,-15.952 2.0896,-5.044 5.6284,-9.356 10.1686,-12.39 4.5408,-3.034 9.8778,-4.653 15.3388,-4.653 5.461,0 10.799,1.619 15.339,4.653 4.54,3.034 8.079,7.346 10.168,12.39 2.09,5.045 2.637,10.597 1.572,15.952 -0.988,4.964 -3.319,9.554 -6.73,13.273 -0.446,0.487 -0.448,1.242 0.019,1.709 z" />
  <path
     id="path94"
     fill="#2c854a"
     d="m 8,0 h 138 v 47 c 0,2.2091 -1.791,4 -4,4 H 12 C 9.79086,51 8,49.2091 8,47 Z" />
  <path
     id="path96"
     fill="#ffffff"
     d="m 53.5078,26.2109 c -0.0573,1.2969 -0.4219,2.2787 -1.0937,2.9453 -0.6719,0.6667 -1.6198,1 -2.8438,1 -1.2864,0 -2.2734,-0.4218 -2.9609,-1.2656 -0.6823,-0.8489 -1.0235,-2.0573 -1.0235,-3.625 v -1.914 c 0,-1.5625 0.3542,-2.7657 1.0625,-3.6094 0.7084,-0.849 1.6927,-1.2734 2.9532,-1.2734 1.2395,0 2.1796,0.3463 2.8203,1.039 0.6458,0.6927 1.013,1.6875 1.1015,2.9844 h -2.3046 c -0.0209,-0.8021 -0.1459,-1.3542 -0.375,-1.6563 -0.224,-0.3073 -0.6381,-0.4609 -1.2422,-0.4609 -0.6146,0 -1.0495,0.2161 -1.3047,0.6484 -0.2552,0.4271 -0.3907,1.1328 -0.4063,2.1172 v 2.1485 c 0,1.1302 0.125,1.9062 0.375,2.3281 0.2552,0.4219 0.6901,0.6328 1.3047,0.6328 0.6042,0 1.0208,-0.1458 1.25,-0.4375 0.2292,-0.2969 0.3594,-0.8307 0.3906,-1.6016 z" />
  <path
     id="path98"
     fill="#ffffff"
     d="m 56.9688,22.2891 c 0.4791,-0.599 1.0677,-0.8985 1.7656,-0.8985 0.7708,0 1.3567,0.2709 1.7578,0.8125 0.401,0.5417 0.6042,1.349 0.6094,2.4219 V 30 h -2.2188 v -5.3516 c 0,-0.4948 -0.0781,-0.8515 -0.2344,-1.0703 -0.151,-0.2239 -0.3984,-0.3359 -0.7422,-0.3359 -0.401,0 -0.7135,0.1849 -0.9374,0.5547 V 30 h -2.211 V 18 h 2.211 z" />
  <path
     id="path100"
     fill="#ffffff"
     d="m 62.4297,25.5 c 0,-1.2812 0.3021,-2.2865 0.9062,-3.0156 0.6042,-0.7292 1.4401,-1.0938 2.5079,-1.0938 1.0781,0 1.9192,0.3646 2.5234,1.0938 0.6042,0.7291 0.9062,1.7396 0.9062,3.0312 v 0.5391 c 0,1.2864 -0.2994,2.2917 -0.8984,3.0156 -0.599,0.724 -1.4375,1.0859 -2.5156,1.0859 -1.0834,0 -1.9271,-0.3619 -2.5313,-1.0859 -0.5989,-0.7292 -0.8984,-1.7396 -0.8984,-3.0312 z m 2.2187,0.5547 c 0,1.5104 0.4037,2.2656 1.211,2.2656 0.7448,0 1.1458,-0.6302 1.2031,-1.8906 L 67.0703,25.5 c 0,-0.7708 -0.1068,-1.3411 -0.3203,-1.7109 -0.2135,-0.375 -0.5156,-0.5625 -0.9062,-0.5625 -0.375,0 -0.6693,0.1875 -0.8829,0.5625 -0.2083,0.3698 -0.3125,0.9401 -0.3125,1.7109 z" />
  <path
     id="path102"
     fill="#ffffff"
     d="m 76.8125,26.2891 0.7578,-4.7422 h 2.1172 L 77.9375,30 H 76.1016 L 74.9062,25.1094 73.7109,30 h -1.8437 l -1.75,-8.4531 h 2.125 l 0.75,4.75 1.125,-4.75 h 1.5703 z" />
  <path
     id="path104"
     fill="#ffffff"
     d="M 90.4453,25.3594 H 86.875 V 30 H 84.5781 V 18.625 h 6.2969 v 1.9141 h -4 v 2.914 h 3.5703 z" />
  <path
     id="path106"
     fill="#ffffff"
     d="M 92.1875,30 V 18.625 h 3.0078 c 1.3281,0 2.3854,0.4219 3.1719,1.2656 0.7917,0.8438 1.1953,2 1.2109,3.4688 v 1.8437 c 0,1.4948 -0.3958,2.6693 -1.1875,3.5235 C 97.6042,29.5755 96.5182,30 95.1328,30 Z m 2.2969,-9.4609 v 7.5547 h 0.6875 c 0.7656,0 1.3047,-0.2006 1.6172,-0.6016 0.3125,-0.4063 0.4765,-1.1042 0.4921,-2.0938 v -1.9765 c 0,-1.0625 -0.1484,-1.8021 -0.4453,-2.2188 -0.2968,-0.4219 -0.802,-0.6432 -1.5156,-0.664 z" />
  <path
     id="path108"
     fill="#ffffff"
     d="m 109.188,30 h -2.297 l -3.36,-7.4609 V 30 h -2.297 V 18.625 h 2.297 l 3.367,7.4688 V 18.625 h 2.29 z" />
  <path
     id="path110"
     fill="#ffffff"
     d="m 74.9219,398 h -1.5791 v -7.82 h 1.5791 z" />
  <path
     id="path112"
     fill="#ffffff"
     d="m 81.7163,398 h -1.5791 l -2.3096,-5.129 V 398 h -1.5791 v -7.82 h 1.5791 l 2.315,5.134 v -5.134 h 1.5737 z" />
  <path
     id="path114"
     fill="#ffffff"
     d="m 74.186,460.793 c 0,1.05 -0.2488,1.864 -0.7465,2.444 -0.4942,0.58 -1.1817,0.87 -2.0625,0.87 -0.8773,0 -1.5666,-0.286 -2.0679,-0.859 -0.5013,-0.576 -0.7556,-1.382 -0.7627,-2.417 v -1.337 c 0,-1.075 0.2488,-1.912 0.7466,-2.514 0.4977,-0.605 1.1888,-0.908 2.0732,-0.908 0.8701,0 1.5558,0.297 2.0571,0.892 0.5013,0.591 0.7556,1.421 0.7627,2.492 z m -1.5844,-1.31 c 0,-0.705 -0.1003,-1.23 -0.3008,-1.574 -0.2005,-0.344 -0.5121,-0.515 -0.9346,-0.515 -0.4189,0 -0.7287,0.166 -0.9292,0.499 -0.2005,0.329 -0.3044,0.833 -0.3115,1.509 v 1.391 c 0,0.684 0.102,1.189 0.3061,1.515 0.2041,0.322 0.5192,0.484 0.9454,0.484 0.4117,0 0.7179,-0.158 0.9184,-0.473 0.2005,-0.319 0.3026,-0.811 0.3062,-1.477 z" />
  <path
     id="path116"
     fill="#ffffff"
     d="m 80.4058,456.18 v 5.414 c -0.0072,0.813 -0.231,1.436 -0.6714,1.869 -0.4405,0.43 -1.0725,0.644 -1.896,0.644 -0.8379,0 -1.4789,-0.218 -1.9229,-0.655 -0.4404,-0.437 -0.6606,-1.069 -0.6606,-1.896 v -5.376 h 1.5898 v 5.382 c 0,0.444 0.0716,0.76 0.2149,0.95 0.1432,0.19 0.4028,0.285 0.7788,0.285 0.376,0 0.6338,-0.093 0.7734,-0.279 0.1397,-0.19 0.2113,-0.5 0.2149,-0.93 v -5.408 z" />
  <path
     id="path118"
     fill="#ffffff"
     d="M 86.6685,457.496 H 84.7349 V 464 h -1.5845 v -6.504 H 81.249 v -1.316 h 5.4195 z" />
  <path
     id="path120"
     fill="#2c854a"
     d="m 62,413 h 31 c 3.3137,0 6,2.686 6,6 v 46 c 0,3.314 -2.6863,6 -6,6 H 62 c -3.3137,0 -6,-2.686 -6,-6 v -46 c 0,-3.314 2.6863,-6 6,-6 z m 0,2 c -2.2091,0 -4,1.791 -4,4 v 46 c 0,2.209 1.7909,4 4,4 h 31 c 2.2091,0 4,-1.791 4,-4 v -46 c 0,-2.209 -1.7909,-4 -4,-4 z"
     clip-rule="evenodd"
     fill-rule="evenodd" />
</svg>
