<?xml version="1.0" encoding="UTF-8" standalone="no"?>
<svg
   xmlns:dc="http://purl.org/dc/elements/1.1/"
   xmlns:cc="http://creativecommons.org/ns#"
   xmlns:rdf="http://www.w3.org/1999/02/22-rdf-syntax-ns#"
   xmlns:svg="http://www.w3.org/2000/svg"
   xmlns="http://www.w3.org/2000/svg"
   xmlns:sodipodi="http://sodipodi.sourceforge.net/DTD/sodipodi-0.dtd"
   xmlns:inkscape="http://www.inkscape.org/namespaces/inkscape"
   sodipodi:docname="ChowPhaseFB.svg"
   inkscape:version="1.0 (4035a4fb49, 2020-05-01)"
   id="svg8"
   version="1.1"
   viewBox="0 0 30.480002 128.50002"
   height="128.5mm"
   width="30.48mm">
  <defs
     id="defs2" />
  <sodipodi:namedview
     inkscape:document-rotation="0"
     inkscape:snap-nodes="false"
     inkscape:snap-bbox-midpoints="true"
     inkscape:window-maximized="0"
     inkscape:window-y="0"
     inkscape:window-x="-9"
     inkscape:window-height="1001"
     inkscape:window-width="1178"
     inkscape:snap-bbox-edge-midpoints="false"
     inkscape:bbox-nodes="false"
     inkscape:snap-page="true"
     inkscape:snap-bbox="true"
     units="mm"
     showgrid="false"
     inkscape:current-layer="layer2"
     inkscape:document-units="mm"
     inkscape:cy="191.1767"
     inkscape:cx="91.347819"
     inkscape:zoom="0.98994949"
     inkscape:pageshadow="2"
     inkscape:pageopacity="0.0"
     borderopacity="1.0"
     bordercolor="#666666"
     pagecolor="#ffffff"
     id="base" />
  <metadata
     id="metadata5">
    <rdf:RDF>
      <cc:Work
         rdf:about="">
        <dc:format>image/svg+xml</dc:format>
        <dc:type
           rdf:resource="http://purl.org/dc/dcmitype/StillImage" />
        <dc:title />
      </cc:Work>
    </rdf:RDF>
  </metadata>
  <g
     transform="translate(0,-168.49998)"
     id="layer1"
     inkscape:groupmode="layer"
     inkscape:label="Layer 1">
    <rect
       y="168.49997"
       x="5.9211732e-17"
       height="128.5"
       width="30.48"
       id="rect420"
       style="display:inline;opacity:1;vector-effect:none;fill:#7db8e6;fill-opacity:1;fill-rule:evenodd;stroke:none;stroke-width:0.64935839;stroke-linecap:butt;stroke-linejoin:miter;stroke-miterlimit:4;stroke-dasharray:none;stroke-dashoffset:0;stroke-opacity:1;paint-order:normal" />
    <g
       id="flowRoot3818-0"
       style="font-style:normal;font-variant:normal;font-weight:normal;font-stretch:normal;font-size:16px;line-height:1.25;font-family:'Gotham Rounded';-inkscape-font-specification:'Gotham Rounded, Normal';font-variant-ligatures:normal;font-variant-caps:normal;font-variant-numeric:normal;font-feature-settings:normal;text-align:start;letter-spacing:0px;word-spacing:0px;writing-mode:lr-tb;text-anchor:start;fill:#000000;fill-opacity:1;stroke:none"
       transform="matrix(0.33952249,0,0,0.34156126,7.6412477,117.8796)"
       aria-label="in">
      <path
         inkscape:connector-curvature="0"
         id="path3970"
         d="m 18.175781,439.57189 h -1.65625 v -1.52343 h 1.65625 z m -0.09375,10.1875 h -1.46875 v -8.72656 h 1.46875 z" />
      <path
         inkscape:connector-curvature="0"
         id="path3972"
         d="m 28.300781,449.75939 h -1.46875 v -4.96875 q 0,-0.60156 -0.07031,-1.125 -0.07031,-0.53125 -0.257813,-0.82812 -0.195312,-0.32813 -0.5625,-0.48438 -0.367187,-0.16406 -0.953125,-0.16406 -0.601562,0 -1.257812,0.29688 -0.65625,0.29687 -1.257813,0.75781 v 6.51562 h -1.46875 v -8.72656 h 1.46875 v 0.96875 q 0.6875,-0.57031 1.421875,-0.89062 0.734375,-0.32032 1.507813,-0.32032 1.414062,0 2.15625,0.85157 0.742187,0.85156 0.742187,2.45312 z" />
    </g>
    <rect
       style="display:inline;fill:#791413;fill-opacity:1;stroke-width:0.377902"
       id="rect885"
       width="12"
       height="17"
       x="9.25"
       y="275.49997"
       ry="3.6348655" />
  </g>
  <g
     inkscape:label="components"
     id="layer2"
     inkscape:groupmode="layer">
    <g
       transform="matrix(1.0305832,0,0,1.3998918,-0.46625857,2.3764111)"
       id="text4574"
       style="font-style:normal;font-variant:normal;font-weight:normal;font-stretch:normal;font-size:4.23333px;line-height:1.25;font-family:'Gotham Rounded';-inkscape-font-specification:'Gotham Rounded, Normal';font-variant-ligatures:normal;font-variant-caps:normal;font-variant-numeric:normal;font-feature-settings:normal;text-align:center;letter-spacing:0px;word-spacing:0px;writing-mode:lr-tb;text-anchor:middle;fill:#000000;fill-opacity:1;stroke:none;stroke-width:0.264583"
       aria-label="Chow Phase Feedback">
      <path
         id="path4662"
         d="M 5.1884676,5.867313 Q 5.0747794,5.916922 4.9817618,5.960331 4.8908118,6.003739 4.7419832,6.051281 4.6158927,6.090555 4.4670646,6.117427 4.3203035,6.146366 4.1425366,6.146366 3.8076734,6.146366 3.5327548,6.053349 3.2599032,5.9582635 3.0573316,5.757759 2.8588941,5.5613886 2.747273,5.2595982 2.6356519,4.9557408 2.6356519,4.5547317 q 0,-0.3803385 0.107487,-0.6800618 0.107487,-0.2997233 0.3100586,-0.506429 0.1963704,-0.2005046 0.4733561,-0.3059245 0.2790527,-0.1054199 0.6180501,-0.1054199 0.2480468,0 0.4940266,0.059945 0.2480469,0.059945 0.5498373,0.2108398 V 3.7134394 H 5.1574617 Q 4.9032137,3.5005325 4.6530997,3.4033809 4.4029858,3.3062292 4.1177319,3.3062292 q -0.2335774,0 -0.4216796,0.076481 -0.1860352,0.074414 -0.3327962,0.2335774 -0.142627,0.1550293 -0.2232422,0.3927409 -0.078548,0.2356445 -0.078548,0.5457031 0,0.324528 0.086816,0.5581054 0.088884,0.2335775 0.2273763,0.3803386 0.144694,0.1529622 0.3369303,0.2273763 0.1943034,0.072347 0.4092773,0.072347 0.2955892,0 0.5539714,-0.1012858 0.2583821,-0.1012858 0.4836914,-0.3038575 h 0.028939 z" />
      <path
         id="path4664"
         d="M 7.6710031,6.0905552 H 7.2823964 V 4.7759068 q 0,-0.1591634 -0.018603,-0.2976562 Q 7.2451894,4.3376907 7.19558,4.2591425 7.1439036,4.1723261 7.0467519,4.130985 6.9495999,4.087577 6.7945709,4.087577 q -0.1591634,0 -0.3327962,0.078548 Q 6.2881419,4.244673 6.1289785,4.3666295 V 6.0905552 H 5.7403717 v -3.216341 h 0.3886068 v 1.1637532 q 0.181901,-0.1508952 0.3762044,-0.2356445 0.1943034,-0.084749 0.398942,-0.084749 0.3741374,0 0.5705078,0.2253093 0.1963704,0.2253092 0.1963704,0.6490559 z" />
      <path
         id="path4666"
         d="m 10.387117,4.9371373 q 0,0.5643066 -0.289388,0.8909016 -0.2893884,0.3265951 -0.7751468,0.3265951 -0.4898926,0 -0.7792806,-0.3265951 -0.287321,-0.326595 -0.287321,-0.8909016 0,-0.5643066 0.287321,-0.8909017 0.289388,-0.3286621 0.7792806,-0.3286621 0.4857584,0 0.7751468,0.3286621 0.289388,0.3265951 0.289388,0.8909017 z m -0.4010095,0 q 0,-0.4485514 -0.1756999,-0.6655924 -0.1756998,-0.2191081 -0.4878254,-0.2191081 -0.3162598,0 -0.4919597,0.2191081 -0.1736328,0.217041 -0.1736328,0.6655924 0,0.434082 0.1756999,0.6593912 0.1756999,0.2232422 0.4898926,0.2232422 0.3100585,0 0.4857584,-0.2211751 0.1777669,-0.2232422 0.1777669,-0.6614583 z" />
      <path
         id="path4668"
         d="M 13.894912,3.7816523 13.293399,6.0905552 H 12.933731 L 12.340485,4.310819 11.751374,6.0905552 H 11.393773 L 10.786058,3.7816523 h 0.405143 l 0.423747,1.7880045 0.576709,-1.7880045 h 0.320394 l 0.591178,1.7880045 0.401009,-1.7880045 z" />
      <path
         id="path4670"
         d="m 17.987686,3.9428828 q 0,0.2046386 -0.07235,0.3803385 -0.07028,0.1736328 -0.198438,0.3017903 -0.159163,0.1591635 -0.376204,0.2397787 -0.217041,0.078548 -0.54777,0.078548 H 16.383649 V 6.0905552 H 15.974372 V 3.012707 h 0.835091 q 0.276986,0 0.469222,0.047542 0.192236,0.045475 0.341064,0.144694 0.1757,0.1178222 0.270785,0.2935221 0.09715,0.1756998 0.09715,0.4444173 z m -0.425814,0.010335 q 0,-0.1591634 -0.05581,-0.2769857 -0.05581,-0.1178223 -0.169498,-0.1922363 -0.09922,-0.064079 -0.227377,-0.09095 -0.12609,-0.028939 -0.320394,-0.028939 H 16.38365 v 1.229899 h 0.345199 q 0.248047,0 0.403076,-0.043408 0.155029,-0.045475 0.252181,-0.142627 0.09715,-0.099219 0.136426,-0.2087727 0.04134,-0.1095541 0.04134,-0.2459803 z" />
      <path
         id="path4672"
         d="M 20.42888,6.0905552 H 20.040274 V 4.7759068 q 0,-0.1591634 -0.0186,-0.2976562 -0.0186,-0.1405599 -0.06821,-0.2191081 -0.05168,-0.086816 -0.148828,-0.1281575 -0.09715,-0.043408 -0.252181,-0.043408 -0.159163,0 -0.332796,0.078548 -0.173633,0.078548 -0.332796,0.2005045 v 1.7239257 h -0.388607 v -3.216341 h 0.388607 v 1.1637532 q 0.181901,-0.1508952 0.376204,-0.2356445 0.194304,-0.084749 0.398942,-0.084749 0.374138,0 0.570508,0.2253093 0.19637,0.2253092 0.19637,0.6490559 z" />
      <path
         id="path4674"
         d="M 22.97136,6.0905552 H 22.584821 V 5.8445754 q -0.05168,0.03514 -0.14056,0.099219 -0.08682,0.062012 -0.169499,0.099219 -0.09715,0.047542 -0.223242,0.078548 -0.126091,0.033073 -0.295589,0.033073 -0.312126,0 -0.529167,-0.2067058 -0.217041,-0.2067057 -0.217041,-0.5270995 0,-0.2625163 0.111621,-0.4237468 0.113688,-0.1632975 0.322461,-0.256315 0.21084,-0.093018 0.506429,-0.1260905 0.295589,-0.033073 0.634587,-0.049609 v -0.059945 q 0,-0.1322916 -0.04754,-0.219108 Q 22.491811,4.1991988 22.40499,4.149589 22.32231,4.102047 22.206552,4.08551 22.090797,4.068974 21.964706,4.068974 q -0.152962,0 -0.341064,0.041341 -0.188102,0.039274 -0.388607,0.1157552 h -0.02067 V 3.8312617 q 0.113688,-0.031006 0.328662,-0.068213 0.214974,-0.037207 0.423746,-0.037207 0.243913,0 0.423747,0.041341 0.181901,0.039274 0.314193,0.1364258 0.130224,0.095085 0.198437,0.2459798 0.06821,0.1508952 0.06821,0.3741373 z M 22.584821,5.5221145 V 4.8792597 q -0.177767,0.010335 -0.419613,0.031006 -0.239779,0.020671 -0.380339,0.059945 -0.167431,0.047542 -0.270784,0.1488281 -0.103353,0.099219 -0.103353,0.2749186 0,0.1984375 0.119889,0.2997233 0.11989,0.099219 0.365869,0.099219 0.204639,0 0.374138,-0.078548 0.169498,-0.080615 0.314193,-0.1922372 z" />
      <path
         id="path4676"
         d="m 25.373282,5.4249628 q 0,0.3162597 -0.262516,0.5188313 -0.26045,0.2025716 -0.713135,0.2025716 -0.256315,0 -0.471289,-0.059945 Q 23.713435,6.0244087 23.568741,5.952062 V 5.5159133 h 0.02067 q 0.183969,0.1384928 0.409278,0.2211751 0.225309,0.080615 0.432015,0.080615 0.256315,0 0.401009,-0.082682 0.144694,-0.082682 0.144694,-0.2604492 0,-0.1364258 -0.07855,-0.2067058 -0.07855,-0.07028 -0.301791,-0.1198893 -0.08268,-0.018604 -0.217041,-0.043408 Q 24.246734,5.0797641 24.13718,5.0508251 23.833322,4.9702101 23.705165,4.8151806 23.579074,4.6580843 23.579074,4.430708 q 0,-0.142627 0.05788,-0.2687175 0.05994,-0.1260904 0.179834,-0.2253092 0.115755,-0.097152 0.293522,-0.1529622 0.179834,-0.057878 0.401009,-0.057878 0.206706,0 0.417545,0.051676 0.212907,0.049609 0.353467,0.1219564 V 4.314952 h -0.02067 Q 25.112833,4.205399 24.899926,4.130985 24.687019,4.0545039 24.48238,4.0545039 q -0.212907,0 -0.359668,0.082682 -0.146761,0.080615 -0.146761,0.2418456 0,0.142627 0.08888,0.214974 0.08682,0.072347 0.281119,0.1178222 0.107487,0.024805 0.239779,0.049609 0.134359,0.024805 0.223242,0.045475 0.270785,0.062012 0.417546,0.2129069 0.146761,0.1529622 0.146761,0.4051432 z" />
      <path
         id="path4678"
         d="m 27.864085,4.9764114 h -1.701188 q 0,0.2129069 0.06408,0.3720703 0.06408,0.1570963 0.1757,0.2583821 0.107487,0.099219 0.254248,0.1488281 0.148828,0.049609 0.326595,0.049609 0.235645,0 0.473356,-0.093018 0.239779,-0.095085 0.341065,-0.1860351 h 0.02067 v 0.4237467 q -0.19637,0.082682 -0.401009,0.1384928 -0.204639,0.055811 -0.429948,0.055811 -0.574642,0 -0.897103,-0.3100586 -0.322461,-0.3121256 -0.322461,-0.8847005 0,-0.5663736 0.307992,-0.8991698 0.310059,-0.3327963 0.81442,-0.3327963 0.467155,0 0.719336,0.2728516 0.254248,0.2728515 0.254248,0.7751464 z M 27.485814,4.6787551 Q 27.483747,4.3728307 27.330785,4.205399 27.17989,4.0379674 26.869831,4.0379674 q -0.312126,0 -0.498161,0.1839681 -0.183968,0.1839681 -0.208773,0.4568196 z" />
      <path
         id="path4680"
         d="M 7.6586009,8.6681755 H 6.1021068 v 0.868164 h 1.337386 V 9.9001416 H 6.1021068 V 11.382222 H 5.6928295 V 8.3043734 h 1.9657714 z" />
      <path
         id="path4682"
         d="M 9.9261626,10.268078 H 8.2249745 q 0,0.212907 0.064079,0.37207 0.064079,0.157096 0.1756999,0.258382 0.1074869,0.09922 0.254248,0.148828 0.1488281,0.04961 0.326595,0.04961 0.2356446,0 0.4733561,-0.09302 0.2397787,-0.09508 0.3410645,-0.186035 h 0.02067 v 0.423747 q -0.1963704,0.08268 -0.4010091,0.138493 -0.2046386,0.05581 -0.4299478,0.05581 -0.5746419,0 -0.8971029,-0.310059 -0.3224609,-0.312125 -0.3224609,-0.8847 0,-0.5663737 0.3079915,-0.8991699 0.3100586,-0.3327962 0.8144206,-0.3327962 0.4671549,0 0.7193359,0.2728516 0.254248,0.2728515 0.254248,0.7751465 z M 9.5478911,9.9704215 Q 9.5458241,9.6644971 9.3928618,9.4970654 9.2419667,9.3296338 8.9319081,9.3296338 q -0.3121256,0 -0.4981608,0.1839681 Q 8.2497792,9.69757 8.2249745,9.9704215 Z" />
      <path
         id="path4684"
         d="m 12.447972,10.268078 h -1.701188 q 0,0.212907 0.06408,0.37207 0.06408,0.157096 0.1757,0.258382 0.107487,0.09922 0.254248,0.148828 0.148828,0.04961 0.326595,0.04961 0.235645,0 0.473356,-0.09302 0.239779,-0.09508 0.341065,-0.186035 h 0.02067 v 0.423747 q -0.19637,0.08268 -0.401009,0.138493 -0.204639,0.05581 -0.429948,0.05581 -0.574642,0 -0.897103,-0.310059 -0.322461,-0.312125 -0.322461,-0.8847 0,-0.5663737 0.307992,-0.8991699 0.310059,-0.3327962 0.81442,-0.3327962 0.467155,0 0.719336,0.2728516 0.254248,0.2728515 0.254248,0.7751465 z M 12.069701,9.9704215 q -0.0021,-0.3059244 -0.155029,-0.4733561 -0.150896,-0.1674316 -0.460954,-0.1674316 -0.312126,0 -0.498161,0.1839681 -0.183968,0.1839681 -0.208773,0.4568196 z" />
      <path
         id="path4686"
         d="m 14.909838,11.382222 h -0.388607 v -0.241846 q -0.167432,0.144694 -0.349333,0.225309 -0.181901,0.08062 -0.394808,0.08062 -0.413411,0 -0.657324,-0.318326 -0.241845,-0.318327 -0.241845,-0.882634 0,-0.293522 0.08268,-0.5229653 0.08475,-0.2294434 0.227376,-0.3906738 0.14056,-0.1570964 0.326595,-0.2397787 0.188102,-0.082682 0.388607,-0.082682 0.181901,0 0.322461,0.039274 0.14056,0.037207 0.295589,0.1178223 V 8.1658806 h 0.388607 z M 14.521231,10.813781 V 9.4887972 q -0.157096,-0.07028 -0.28112,-0.097152 -0.124023,-0.026872 -0.270784,-0.026872 -0.326595,0 -0.508496,0.2273763 -0.181901,0.2273762 -0.181901,0.6449215 0,0.411344 0.14056,0.626318 0.140559,0.212907 0.450618,0.212907 0.165365,0 0.334863,-0.07235 0.169499,-0.07441 0.31626,-0.190169 z" />
      <path
         id="path4688"
         d="m 17.706566,10.2102 q 0,0.289388 -0.08268,0.520899 -0.08062,0.23151 -0.219108,0.388606 -0.146762,0.163298 -0.322461,0.24598 -0.1757,0.08062 -0.38654,0.08062 -0.196371,0 -0.343132,-0.04754 -0.146761,-0.04548 -0.289388,-0.124023 l -0.0248,0.107487 H 15.674649 V 8.1658806 h 0.388606 v 1.1492838 q 0.163298,-0.1343587 0.347266,-0.2191081 0.183968,-0.086816 0.413411,-0.086816 0.409278,0 0.644922,0.3141927 0.237712,0.3141927 0.237712,0.886767 z m -0.401009,0.01033 q 0,-0.413411 -0.136426,-0.6263179 -0.136426,-0.2149739 -0.440283,-0.2149739 -0.169499,0 -0.343132,0.074414 -0.173632,0.072347 -0.322461,0.1881022 v 1.3229166 q 0.165365,0.07441 0.283187,0.103353 0.11989,0.02894 0.270785,0.02894 0.322461,0 0.504362,-0.21084 0.183968,-0.212907 0.183968,-0.665593 z" />
      <path
         id="path4690"
         d="m 20.106419,11.382222 h -0.38654 v -0.24598 q -0.05168,0.03514 -0.14056,0.09922 -0.08682,0.06201 -0.169498,0.09922 -0.09715,0.04754 -0.223242,0.07855 -0.126091,0.03307 -0.29559,0.03307 -0.312125,0 -0.529166,-0.206705 -0.217041,-0.206706 -0.217041,-0.5271 0,-0.262516 0.111621,-0.423747 0.113688,-0.163297 0.322461,-0.256315 0.21084,-0.093017 0.506429,-0.1260902 0.295589,-0.033073 0.634586,-0.049609 v -0.059945 q 0,-0.1322916 -0.04754,-0.219108 Q 19.626869,9.4908668 19.540047,9.441257 19.457367,9.393715 19.34161,9.377178 19.225855,9.360642 19.099764,9.360642 q -0.152962,0 -0.341064,0.041341 -0.188103,0.039274 -0.388607,0.1157552 H 18.34942 V 9.1229281 q 0.113688,-0.031006 0.328662,-0.068213 0.214974,-0.037207 0.423747,-0.037207 0.243913,0 0.423747,0.041341 0.181901,0.039274 0.314193,0.1364258 0.130224,0.095085 0.198437,0.2459798 0.06821,0.1508952 0.06821,0.3741373 z m -0.38654,-0.568441 v -0.642855 q -0.177767,0.01033 -0.419612,0.03101 -0.239779,0.02067 -0.380339,0.05995 -0.167431,0.04754 -0.270784,0.148828 -0.103353,0.09922 -0.103353,0.274918 0,0.198438 0.119889,0.299724 0.119889,0.09922 0.365869,0.09922 0.204639,0 0.374138,-0.07855 0.169498,-0.08061 0.314192,-0.192236 z" />
      <path
         id="path4692"
         d="m 22.566217,11.237528 q -0.194303,0.09302 -0.370003,0.144694 -0.173633,0.05168 -0.370003,0.05168 -0.250114,0 -0.458887,-0.07235 -0.208773,-0.07441 -0.357601,-0.223242 -0.150895,-0.148828 -0.233577,-0.376205 -0.08268,-0.227376 -0.08268,-0.531233 0,-0.5663739 0.310059,-0.8888349 0.312126,-0.3224609 0.822689,-0.3224609 0.198437,0 0.388606,0.055811 0.192237,0.05581 0.3514,0.1364257 v 0.432015 h -0.02067 q -0.17777,-0.1384942 -0.36794,-0.2129083 -0.188102,-0.074414 -0.367936,-0.074414 -0.330729,0 -0.522965,0.2232422 -0.190169,0.2211751 -0.190169,0.6511232 0,0.417545 0.186035,0.642855 0.188102,0.223242 0.527099,0.223242 0.117823,0 0.239779,-0.03101 0.121956,-0.03101 0.219108,-0.08061 0.08475,-0.04341 0.159163,-0.09095 0.07441,-0.04961 0.117823,-0.08475 h 0.02067 z" />
      <path
         id="path4694"
         d="m 25.162441,11.382222 h -0.51263 l -0.926042,-1.010791 -0.252181,0.239778 v 0.771013 H 23.082981 V 8.1658806 h 0.388607 V 10.228804 L 24.594,9.0733187 h 0.489893 L 24.01109,10.13992 Z" />
    </g>
    <g
       transform="matrix(1.1020035,0,0,1.222439,-1.8704385,2.4090697)"
       id="text4574-2"
       style="font-style:normal;font-variant:normal;font-weight:normal;font-stretch:normal;font-size:4.23333px;line-height:1.25;font-family:'Gotham Rounded';-inkscape-font-specification:'Gotham Rounded, Normal';font-variant-ligatures:normal;font-variant-caps:normal;font-variant-numeric:normal;font-feature-settings:normal;text-align:center;letter-spacing:0px;word-spacing:0px;writing-mode:lr-tb;text-anchor:middle;fill:#000000;fill-opacity:1;stroke:none;stroke-width:0.264583"
       aria-label="Skew">
      <path
         id="path4714"
         d="m 12.464092,28.998419 q 0,0.179834 -0.08475,0.355534 -0.08268,0.1757 -0.233578,0.297657 -0.165364,0.132291 -0.386539,0.206705 -0.219108,0.07441 -0.529167,0.07441 -0.332796,0 -0.599447,-0.06201 -0.264583,-0.06201 -0.539501,-0.183968 v -0.512631 h 0.02894 q 0.233578,0.194304 0.539502,0.299724 0.305925,0.10542 0.574642,0.10542 0.380339,0 0.591178,-0.142627 0.212907,-0.142627 0.212907,-0.380339 0,-0.204639 -0.101285,-0.30179 -0.09922,-0.09715 -0.303858,-0.150895 -0.155029,-0.04134 -0.33693,-0.06821 -0.179834,-0.02687 -0.382406,-0.06821 -0.409277,-0.08682 -0.607715,-0.295589 -0.19637,-0.21084 -0.19637,-0.547771 0,-0.386539 0.326595,-0.632519 0.326595,-0.248047 0.82889,-0.248047 0.324528,0 0.595312,0.06201 0.270785,0.06201 0.479558,0.152962 v 0.483691 h -0.02894 q -0.1757,-0.148828 -0.463021,-0.245979 -0.285254,-0.09922 -0.584977,-0.09922 -0.328662,0 -0.529167,0.136426 -0.198437,0.136425 -0.198437,0.351399 0,0.192237 0.09922,0.301791 0.09922,0.109554 0.349332,0.167431 0.132292,0.02894 0.376205,0.07028 0.243912,0.04134 0.413411,0.08475 0.343132,0.09095 0.516764,0.274918 0.173633,0.183968 0.173633,0.514697 z" />
      <path
         id="path4716"
         d="m 15.186407,29.876919 h -0.512631 l -0.926041,-1.010791 -0.252181,0.239778 v 0.771013 h -0.388607 v -3.216341 h 0.388607 v 2.062923 l 1.122412,-1.155485 h 0.489892 l -1.072802,1.066601 z" />
      <path
         id="path4718"
         d="m 17.487041,28.762775 h -1.701188 q 0,0.212907 0.06408,0.37207 0.06408,0.157097 0.1757,0.258382 0.107487,0.09922 0.254248,0.148829 0.148828,0.04961 0.326595,0.04961 0.235644,0 0.473356,-0.09302 0.239779,-0.09508 0.341064,-0.186035 h 0.02067 v 0.423747 q -0.19637,0.08268 -0.401009,0.138493 -0.204639,0.05581 -0.429948,0.05581 -0.574642,0 -0.897103,-0.310058 -0.322461,-0.312126 -0.322461,-0.884701 0,-0.566373 0.307992,-0.89917 0.310058,-0.332796 0.81442,-0.332796 0.467155,0 0.719336,0.272852 0.254248,0.272851 0.254248,0.775146 z M 17.10877,28.465119 q -0.0021,-0.305925 -0.155029,-0.473356 -0.150896,-0.167432 -0.460954,-0.167432 -0.312126,0 -0.498161,0.183968 -0.183968,0.183968 -0.208773,0.45682 z" />
      <path
         id="path4720"
         d="m 20.980368,27.568016 -0.601513,2.308903 h -0.359668 l -0.593246,-1.779736 -0.589111,1.779736 h -0.357601 l -0.607715,-2.308903 h 0.405143 l 0.423747,1.788004 0.576709,-1.788004 h 0.320394 l 0.591178,1.788004 0.401009,-1.788004 z" />
    </g>
    <g
       transform="matrix(1.0272419,0,0,1.2193542,-1.3706016,-3.8785709)"
       id="text4574-2-5"
       style="font-style:normal;font-variant:normal;font-weight:normal;font-stretch:normal;font-size:4.23333px;line-height:1.25;font-family:'Gotham Rounded';-inkscape-font-specification:'Gotham Rounded, Normal';font-variant-ligatures:normal;font-variant-caps:normal;font-variant-numeric:normal;font-feature-settings:normal;text-align:center;letter-spacing:0px;word-spacing:0px;writing-mode:lr-tb;text-anchor:middle;fill:#000000;fill-opacity:1;stroke:none;stroke-width:0.264583"
       aria-label="Feedback">
      <path
         id="path4697"
         d="M 8.4107982,48.788979 H 6.8543041 v 0.868164 h 1.337386 v 0.363802 h -1.337386 v 1.48208 H 6.4450268 v -3.077848 h 1.9657714 z" />
      <path
         id="path4699"
         d="M 10.67836,50.388881 H 8.9771718 q 0,0.212907 0.064079,0.372071 0.064079,0.157096 0.1756998,0.258382 0.107487,0.09922 0.2542481,0.148828 0.1488281,0.04961 0.326595,0.04961 0.2356443,0 0.4733563,-0.09302 0.239778,-0.09509 0.341064,-0.186036 h 0.02067 v 0.423747 q -0.196371,0.08268 -0.401009,0.138493 -0.204639,0.05581 -0.4299482,0.05581 -0.5746419,0 -0.8971028,-0.310059 -0.3224609,-0.312126 -0.3224609,-0.884701 0,-0.566373 0.3079915,-0.899169 0.3100586,-0.332797 0.8144205,-0.332797 0.4671549,0 0.7193359,0.272852 0.254248,0.272852 0.254248,0.775146 z m -0.378272,-0.297656 q -0.0021,-0.305924 -0.155029,-0.473356 -0.1508951,-0.167432 -0.4609536,-0.167432 -0.3121257,0 -0.4981608,0.183968 -0.1839681,0.183968 -0.2087728,0.45682 z" />
      <path
         id="path4701"
         d="m 13.20017,50.388881 h -1.701188 q 0,0.212907 0.06408,0.372071 0.06408,0.157096 0.1757,0.258382 0.107487,0.09922 0.254248,0.148828 0.148828,0.04961 0.326595,0.04961 0.235645,0 0.473356,-0.09302 0.239779,-0.09509 0.341065,-0.186036 h 0.02067 v 0.423747 q -0.19637,0.08268 -0.401009,0.138493 -0.204638,0.05581 -0.429948,0.05581 -0.574641,0 -0.897102,-0.310059 -0.322461,-0.312126 -0.322461,-0.884701 0,-0.566373 0.307991,-0.899169 0.310059,-0.332797 0.814421,-0.332797 0.467155,0 0.719336,0.272852 0.254248,0.272852 0.254248,0.775146 z m -0.378272,-0.297656 q -0.0021,-0.305924 -0.155029,-0.473356 -0.150895,-0.167432 -0.460954,-0.167432 -0.312125,0 -0.498161,0.183968 -0.183968,0.183968 -0.208772,0.45682 z" />
      <path
         id="path4703"
         d="m 15.662035,51.503025 h -0.388607 v -0.241846 q -0.167431,0.144694 -0.349332,0.22531 -0.181901,0.08062 -0.394808,0.08062 -0.413412,0 -0.657324,-0.318327 -0.241846,-0.318327 -0.241846,-0.882633 0,-0.293523 0.08268,-0.522966 0.08475,-0.229443 0.227376,-0.390674 0.14056,-0.157096 0.326595,-0.239778 0.188103,-0.08268 0.388607,-0.08268 0.181901,0 0.322461,0.03927 0.14056,0.03721 0.295589,0.117823 v -1.000456 h 0.388607 z m -0.388607,-0.568441 v -1.324983 q -0.157096,-0.07028 -0.281119,-0.09715 -0.124024,-0.02687 -0.270785,-0.02687 -0.326595,0 -0.508496,0.227377 -0.181901,0.227376 -0.181901,0.644921 0,0.411345 0.14056,0.626319 0.14056,0.212907 0.450618,0.212907 0.165365,0 0.334864,-0.07235 0.169498,-0.07441 0.316259,-0.190171 z" />
      <path
         id="path4705"
         d="m 18.458763,50.331004 q 0,0.289388 -0.08268,0.520898 -0.08061,0.23151 -0.219108,0.388607 -0.146761,0.163297 -0.322461,0.24598 -0.1757,0.08062 -0.38654,0.08062 -0.19637,0 -0.343131,-0.04754 -0.146761,-0.04548 -0.289388,-0.124024 l -0.02481,0.107487 h -0.363802 v -3.216341 h 0.388607 v 1.149284 q 0.163297,-0.134359 0.347265,-0.219108 0.183968,-0.08682 0.413412,-0.08682 0.409277,0 0.644922,0.314193 0.237711,0.314193 0.237711,0.886768 z m -0.401009,0.01033 q 0,-0.413412 -0.136426,-0.626318 -0.136426,-0.214974 -0.440283,-0.214974 -0.169499,0 -0.343131,0.07441 -0.173633,0.07235 -0.322461,0.188102 v 1.322917 q 0.165364,0.07441 0.283187,0.103352 0.119889,0.02894 0.270784,0.02894 0.322461,0 0.504362,-0.21084 0.183968,-0.212907 0.183968,-0.665592 z" />
      <path
         id="path4707"
         d="m 20.858616,51.503025 h -0.386539 v -0.24598 q -0.05168,0.03514 -0.14056,0.09922 -0.08682,0.06201 -0.169499,0.09922 -0.09715,0.04754 -0.223242,0.07855 -0.126091,0.03307 -0.295589,0.03307 -0.312126,0 -0.529167,-0.206706 -0.217041,-0.206706 -0.217041,-0.527099 0,-0.262517 0.111621,-0.423747 0.113688,-0.163298 0.322461,-0.256315 0.21084,-0.09302 0.506429,-0.126091 0.295589,-0.03307 0.634587,-0.04961 v -0.05994 q 0,-0.132291 -0.04754,-0.219108 -0.04547,-0.08682 -0.132291,-0.136426 -0.08268,-0.04754 -0.198438,-0.06408 -0.115755,-0.01654 -0.241846,-0.01654 -0.152962,0 -0.341064,0.04134 -0.188102,0.03927 -0.388607,0.115755 h -0.02067 v -0.394807 q 0.113688,-0.03101 0.328662,-0.06821 0.214974,-0.03721 0.423746,-0.03721 0.243913,0 0.423747,0.04134 0.181901,0.03927 0.314193,0.136426 0.130224,0.09508 0.198437,0.245979 0.06821,0.150896 0.06821,0.374138 z M 20.472077,50.934584 V 50.29173 q -0.177767,0.01033 -0.419613,0.03101 -0.239779,0.02067 -0.380339,0.05994 -0.167431,0.04754 -0.270784,0.148828 -0.103353,0.09922 -0.103353,0.274919 0,0.198437 0.119889,0.299723 0.11989,0.09922 0.365869,0.09922 0.204639,0 0.374138,-0.07855 0.169499,-0.08062 0.314193,-0.192236 z" />
      <path
         id="path4709"
         d="m 23.318414,51.358331 q -0.194303,0.09302 -0.370003,0.144694 -0.173633,0.05168 -0.370003,0.05168 -0.250114,0 -0.458887,-0.07235 -0.208772,-0.07441 -0.357601,-0.223242 -0.150895,-0.148828 -0.233577,-0.376204 -0.08268,-0.227376 -0.08268,-0.531234 0,-0.566373 0.310058,-0.888834 0.312126,-0.322461 0.822689,-0.322461 0.198437,0 0.388607,0.05581 0.192236,0.05581 0.351399,0.136426 v 0.432015 h -0.02067 q -0.177767,-0.138493 -0.367936,-0.212907 -0.188102,-0.07441 -0.367936,-0.07441 -0.33073,0 -0.522966,0.223242 -0.190169,0.221175 -0.190169,0.651123 0,0.417546 0.186035,0.642855 0.188102,0.223242 0.5271,0.223242 0.117822,0 0.239778,-0.03101 0.121957,-0.03101 0.219108,-0.08062 0.08475,-0.04341 0.159164,-0.09095 0.07441,-0.04961 0.117822,-0.08475 h 0.02067 z" />
      <path
         id="path4711"
         d="m 25.914638,51.503025 h -0.51263 l -0.926042,-1.010791 -0.252181,0.239779 v 0.771012 h -0.388607 v -3.216341 h 0.388607 v 2.062923 l 1.122412,-1.155485 h 0.489893 l -1.072803,1.066602 z" />
    </g>
    <g
       transform="matrix(1.070901,0,0,1.2476583,-1.5251465,-16.012906)"
       id="text4574-2-5-6"
       style="font-style:normal;font-variant:normal;font-weight:normal;font-stretch:normal;font-size:4.23333px;line-height:1.25;font-family:'Gotham Rounded';-inkscape-font-specification:'Gotham Rounded, Normal';font-variant-ligatures:normal;font-variant-caps:normal;font-variant-numeric:normal;font-feature-settings:normal;text-align:center;letter-spacing:0px;word-spacing:0px;writing-mode:lr-tb;text-anchor:middle;fill:#000000;fill-opacity:1;stroke:none;stroke-width:0.264583"
       aria-label="LFO">
      <path
         id="path4723"
         d="m 13.876512,79.294914 h -1.947168 v -3.077848 h 0.409278 v 2.714046 h 1.53789 z" />
      <path
         id="path4725"
         d="m 16.251561,76.580868 h -1.556494 v 0.868164 h 1.337386 v 0.363802 h -1.337386 v 1.48208 h -0.409278 v -3.077848 h 1.965772 z" />
      <path
         id="path4727"
         d="m 19.011082,76.570533 q 0.188102,0.206706 0.287321,0.506429 0.101286,0.299723 0.101286,0.680062 0,0.380338 -0.103353,0.682129 -0.101286,0.299723 -0.285254,0.500227 -0.190169,0.208773 -0.450618,0.314193 -0.258383,0.10542 -0.591179,0.10542 -0.324528,0 -0.591178,-0.107487 -0.264583,-0.107487 -0.450619,-0.312126 -0.186035,-0.204638 -0.287321,-0.502294 -0.09922,-0.297657 -0.09922,-0.680062 0,-0.376205 0.09922,-0.673861 0.09922,-0.299723 0.289388,-0.51263 0.181902,-0.202572 0.450619,-0.310059 0.270784,-0.107487 0.589111,-0.107487 0.330729,0 0.593246,0.109554 0.264583,0.107487 0.448551,0.307992 z m -0.03721,1.186491 q 0,-0.599447 -0.268717,-0.923975 -0.268718,-0.326595 -0.733806,-0.326595 -0.469222,0 -0.737939,0.326595 -0.266651,0.324528 -0.266651,0.923975 0,0.605647 0.272852,0.928108 0.272852,0.320394 0.731738,0.320394 0.458887,0 0.729671,-0.320394 0.272852,-0.322461 0.272852,-0.928108 z" />
    </g>
    <g
       id="flowRoot3818"
       style="font-style:normal;font-variant:normal;font-weight:normal;font-stretch:normal;font-size:16px;line-height:1.25;font-family:'Gotham Rounded';-inkscape-font-specification:'Gotham Rounded, Normal';font-variant-ligatures:normal;font-variant-caps:normal;font-variant-numeric:normal;font-feature-settings:normal;text-align:start;letter-spacing:0px;word-spacing:0px;writing-mode:lr-tb;text-anchor:start;fill:#ffffff;fill-opacity:1;stroke:none"
       transform="matrix(0.32009998,0,0,0.34853618,6.1346522,-34.841839)"
       aria-label="out">
      <path
         style="fill:#ffffff;fill-opacity:1"
         inkscape:connector-curvature="0"
         id="path3975"
         d="m 24.035156,445.40002 q 0,2.13281 -1.09375,3.36719 -1.09375,1.23437 -2.929687,1.23437 -1.851563,0 -2.945313,-1.23437 -1.085937,-1.23438 -1.085937,-3.36719 0,-2.13281 1.085937,-3.36719 1.09375,-1.24219 2.945313,-1.24219 1.835937,0 2.929687,1.24219 1.09375,1.23438 1.09375,3.36719 z m -1.515625,0 q 0,-1.69531 -0.664062,-2.51563 -0.664063,-0.82812 -1.84375,-0.82812 -1.195313,0 -1.859375,0.82812 -0.65625,0.82032 -0.65625,2.51563 0,1.64062 0.664062,2.49219 0.664063,0.84375 1.851563,0.84375 1.171875,0 1.835937,-0.83594 0.671875,-0.84375 0.671875,-2.5 z" />
      <path
         style="fill:#ffffff;fill-opacity:1"
         inkscape:connector-curvature="0"
         id="path3977"
         d="m 33.550781,449.75939 h -1.46875 v -0.96875 q -0.742187,0.58594 -1.421875,0.89844 -0.679687,0.3125 -1.5,0.3125 -1.375,0 -2.140625,-0.83594 -0.765625,-0.84375 -0.765625,-2.46875 v -5.66406 h 1.46875 v 4.96875 q 0,0.66406 0.0625,1.14063 0.0625,0.46875 0.265625,0.80468 0.210938,0.34375 0.546875,0.5 0.335938,0.15625 0.976563,0.15625 0.570312,0 1.242187,-0.29687 0.679688,-0.29688 1.265625,-0.75781 v -6.51563 h 1.46875 z" />
      <path
         style="fill:#ffffff;fill-opacity:1"
         inkscape:connector-curvature="0"
         id="path3979"
         d="m 40.972656,449.68127 q -0.414062,0.10937 -0.90625,0.17969 -0.484375,0.0703 -0.867187,0.0703 -1.335938,0 -2.03125,-0.71875 -0.695313,-0.71875 -0.695313,-2.30469 v -4.64062 h -0.992187 v -1.23438 h 0.992187 v -2.50781 h 1.46875 v 2.50781 h 3.03125 v 1.23438 h -3.03125 v 3.97656 q 0,0.6875 0.03125,1.07812 0.03125,0.38282 0.21875,0.71875 0.171875,0.3125 0.46875,0.46094 0.304688,0.14063 0.921875,0.14063 0.359375,0 0.75,-0.10157 0.390625,-0.10937 0.5625,-0.17968 h 0.07813 z" />
    </g>
  </g>
</svg>
