<?xml version="1.0" encoding="UTF-8" standalone="no"?>
<svg
   xmlns:dc="http://purl.org/dc/elements/1.1/"
   xmlns:cc="http://creativecommons.org/ns#"
   xmlns:rdf="http://www.w3.org/1999/02/22-rdf-syntax-ns#"
   xmlns:svg="http://www.w3.org/2000/svg"
   xmlns="http://www.w3.org/2000/svg"
   xmlns:sodipodi="http://sodipodi.sourceforge.net/DTD/sodipodi-0.dtd"
   xmlns:inkscape="http://www.inkscape.org/namespaces/inkscape"
   inkscape:version="1.0 (4035a4fb49, 2020-05-01)"
   sodipodi:docname="ChowTape.svg"
   id="svg909"
   version="1.1"
   fill="none"
   viewBox="0 0 115 486"
   height="128.58749mm"
   width="30.427084mm">
  <metadata
     id="metadata915">
    <rdf:RDF>
      <cc:Work
         rdf:about="">
        <dc:format>image/svg+xml</dc:format>
        <dc:type
           rdf:resource="http://purl.org/dc/dcmitype/StillImage" />
        <dc:title></dc:title>
      </cc:Work>
    </rdf:RDF>
  </metadata>
  <defs
     id="defs913" />
  <sodipodi:namedview
     inkscape:current-layer="svg909"
     inkscape:window-maximized="0"
     inkscape:window-y="0"
     inkscape:window-x="96"
     inkscape:cy="255.94382"
     inkscape:cx="-7.4213483"
     inkscape:zoom="1.6481481"
     units="mm"
     inkscape:document-units="mm"
     showgrid="false"
     id="namedview911"
     inkscape:window-height="1030"
     inkscape:window-width="1424"
     inkscape:pageshadow="2"
     inkscape:pageopacity="0"
     guidetolerance="10"
     gridtolerance="10"
     objecttolerance="10"
     borderopacity="1"
     bordercolor="#666666"
     pagecolor="#ffffff" />
  <rect
     y="0"
     x="0"
     id="rect833"
     fill="#16161d"
     height="486"
     width="115" />
  <path
     id="path835"
     fill="#852c2c"
     d="m 7,0 h 101 v 47 c 0,2.2091 -1.791,4 -4,4 H 11 C 8.79086,51 7,49.2091 7,47 Z" />
  <path
     id="path837"
     fill="#ffffff"
     d="m 31.7266,26.2109 c -0.0573,1.2969 -0.4219,2.2787 -1.0938,2.9453 -0.6719,0.6667 -1.6198,1 -2.8437,1 -1.2865,0 -2.2735,-0.4218 -2.961,-1.2656 -0.6823,-0.8489 -1.0234,-2.0573 -1.0234,-3.625 v -1.914 c 0,-1.5625 0.3542,-2.7657 1.0625,-3.6094 0.7083,-0.849 1.6927,-1.2734 2.9531,-1.2734 1.2396,0 2.1797,0.3463 2.8203,1.039 0.6459,0.6927 1.013,1.6875 1.1016,2.9844 h -2.3047 c -0.0208,-0.8021 -0.1458,-1.3542 -0.375,-1.6563 -0.224,-0.3073 -0.638,-0.4609 -1.2422,-0.4609 -0.6146,0 -1.0495,0.2161 -1.3047,0.6484 -0.2552,0.4271 -0.3906,1.1328 -0.4062,2.1172 v 2.1485 c 0,1.1302 0.125,1.9062 0.375,2.3281 0.2552,0.4219 0.6901,0.6328 1.3047,0.6328 0.6041,0 1.0208,-0.1458 1.25,-0.4375 0.2291,-0.2969 0.3593,-0.8307 0.3906,-1.6016 z" />
  <path
     id="path839"
     fill="#ffffff"
     d="m 35.1875,22.2891 c 0.4792,-0.599 1.0677,-0.8985 1.7656,-0.8985 0.7709,0 1.3568,0.2709 1.7578,0.8125 0.4011,0.5417 0.6042,1.349 0.6094,2.4219 V 30 h -2.2187 v -5.3516 c 0,-0.4948 -0.0782,-0.8515 -0.2344,-1.0703 -0.1511,-0.2239 -0.3984,-0.3359 -0.7422,-0.3359 -0.401,0 -0.7135,0.1849 -0.9375,0.5547 V 30 H 32.9766 V 18 h 2.2109 z" />
  <path
     id="path841"
     fill="#ffffff"
     d="m 40.6484,25.5 c 0,-1.2812 0.3021,-2.2865 0.9063,-3.0156 0.6042,-0.7292 1.4401,-1.0938 2.5078,-1.0938 1.0781,0 1.9193,0.3646 2.5234,1.0938 0.6042,0.7291 0.9063,1.7396 0.9063,3.0312 v 0.5391 c 0,1.2864 -0.2995,2.2917 -0.8984,3.0156 -0.599,0.724 -1.4376,1.0859 -2.5157,1.0859 -1.0833,0 -1.9271,-0.3619 -2.5312,-1.0859 -0.599,-0.7292 -0.8985,-1.7396 -0.8985,-3.0312 z m 2.2188,0.5547 c 0,1.5104 0.4036,2.2656 1.2109,2.2656 0.7448,0 1.1459,-0.6302 1.2031,-1.8906 L 45.2891,25.5 c 0,-0.7708 -0.1068,-1.3411 -0.3203,-1.7109 -0.2136,-0.375 -0.5157,-0.5625 -0.9063,-0.5625 -0.375,0 -0.6693,0.1875 -0.8828,0.5625 -0.2083,0.3698 -0.3125,0.9401 -0.3125,1.7109 z" />
  <path
     id="path843"
     fill="#ffffff"
     d="m 55.0312,26.2891 0.7579,-4.7422 h 2.1171 L 56.1562,30 H 54.3203 L 53.125,25.1094 51.9297,30 h -1.8438 l -1.75,-8.4531 h 2.125 l 0.75,4.75 1.125,-4.75 h 1.5703 z" />
  <path
     id="path845"
     fill="#ffffff"
     d="M 69.6953,20.5391 H 66.8828 V 30 H 64.5781 V 20.5391 H 61.8125 V 18.625 h 7.8828 z" />
  <path
     id="path847"
     fill="#ffffff"
     d="m 73.6094,30 c -0.0625,-0.1302 -0.125,-0.349 -0.1875,-0.6562 -0.3959,0.5416 -0.9323,0.8124 -1.6094,0.8124 -0.7083,0 -1.2969,-0.2343 -1.7656,-0.7031 -0.4636,-0.4687 -0.6953,-1.0755 -0.6953,-1.8203 0,-0.8854 0.2812,-1.5703 0.8437,-2.0547 0.5677,-0.4843 1.3828,-0.7317 2.4453,-0.7422 h 0.6719 v -0.6797 c 0,-0.3802 -0.0651,-0.6484 -0.1953,-0.8046 -0.1302,-0.1563 -0.3203,-0.2344 -0.5703,-0.2344 -0.5521,0 -0.8281,0.3229 -0.8281,0.9687 h -2.211 c 0,-0.7812 0.2917,-1.4244 0.875,-1.9297 0.5886,-0.5104 1.3307,-0.7656 2.2266,-0.7656 0.9271,0 1.6432,0.2422 2.1484,0.7266 0.5104,0.4792 0.7656,1.1667 0.7656,2.0625 v 3.9765 c 0.0105,0.7292 0.1146,1.2995 0.3125,1.711 V 30 Z m -1.3047,-1.5781 c 0.2448,0 0.4531,-0.0495 0.625,-0.1485 0.1719,-0.0989 0.2995,-0.2161 0.3828,-0.3515 v -1.7578 h -0.5313 c -0.375,0 -0.6718,0.1198 -0.8906,0.3593 -0.2135,0.2396 -0.3203,0.5599 -0.3203,0.961 0,0.625 0.2448,0.9375 0.7344,0.9375 z" />
  <path
     id="path849"
     fill="#ffffff"
     d="m 83.7109,26.0391 c 0,1.3281 -0.2291,2.3463 -0.6875,3.0547 -0.4531,0.7083 -1.1302,1.0624 -2.0312,1.0624 -0.6875,0 -1.2396,-0.2786 -1.6563,-0.8359 V 33.25 H 77.125 V 21.5469 h 2.0469 l 0.0781,0.7734 c 0.4219,-0.6198 0.9974,-0.9297 1.7266,-0.9297 0.901,0 1.5781,0.3282 2.0312,0.9844 0.4583,0.6562 0.6927,1.6615 0.7031,3.0156 z m -2.2031,-0.5547 c 0,-0.8177 -0.0911,-1.3959 -0.2734,-1.7344 -0.1771,-0.3385 -0.4792,-0.5078 -0.9063,-0.5078 -0.4531,0 -0.7838,0.1901 -0.9922,0.5703 v 3.9609 c 0.198,0.3646 0.5339,0.5469 1.0079,0.5469 0.4374,0 0.7395,-0.1849 0.9062,-0.5547 0.1719,-0.3698 0.2578,-0.9453 0.2578,-1.7265 z" />
  <path
     id="path851"
     fill="#ffffff"
     d="m 88.4609,30.1562 c -1.1354,0 -2.0208,-0.3385 -2.6562,-1.0156 -0.6354,-0.6771 -0.9531,-1.6458 -0.9531,-2.9062 v -0.6719 c 0,-1.3333 0.2916,-2.362 0.875,-3.0859 0.5833,-0.724 1.4192,-1.086 2.5078,-1.086 1.0625,0 1.862,0.3412 2.3984,1.0235 0.5365,0.677 0.8099,1.6823 0.8203,3.0156 v 1.0859 h -4.3984 c 0.0312,0.625 0.1693,1.0834 0.4141,1.375 0.2447,0.2865 0.6223,0.4297 1.1328,0.4297 0.7395,0 1.3567,-0.2526 1.8515,-0.7578 l 0.8672,1.3359 c -0.2708,0.375 -0.6641,0.6797 -1.1797,0.9141 -0.5156,0.2292 -1.0755,0.3437 -1.6797,0.3437 z m -1.3906,-5.1874 h 2.2109 v -0.2032 c -0.0104,-0.5052 -0.0937,-0.888 -0.25,-1.1484 -0.1562,-0.2604 -0.427,-0.3906 -0.8124,-0.3906 -0.3855,0 -0.6667,0.138 -0.8438,0.414 -0.1719,0.2761 -0.2734,0.7188 -0.3047,1.3282 z" />
  <path
     id="path853"
     fill="#852c2c"
     d="m 78.3679,121.368 c 0.4668,0.467 1.2257,0.468 1.6736,-0.017 3.7439,-4.055 6.3024,-9.07 7.3821,-14.498 1.1575,-5.82 0.5634,-11.8517 -1.7072,-17.3335 C 83.4458,84.0377 79.6006,79.3524 74.6671,76.0559 69.7336,72.7595 63.9334,71 58,71 c -5.9334,0 -11.7336,1.7595 -16.6671,5.0559 -4.9335,3.2965 -8.7787,7.9818 -11.0493,13.4636 -2.2706,5.4818 -2.8647,11.5135 -1.7072,17.3335 1.0797,5.428 3.6382,10.443 7.3821,14.498 0.4479,0.485 1.2068,0.484 1.6736,0.017 v 0 c 0.4669,-0.467 0.4647,-1.222 0.0185,-1.709 -3.4104,-3.719 -5.7417,-8.309 -6.7292,-13.273 -1.0653,-5.355 -0.5185,-10.9066 1.5712,-15.9515 2.0896,-5.0449 5.6283,-9.3569 10.1686,-12.3906 4.5403,-3.0337 9.8782,-4.653 15.3388,-4.653 5.4606,0 10.7985,1.6193 15.3388,4.653 4.5403,3.0337 8.079,7.3457 10.1686,12.3906 2.0897,5.0449 2.6365,10.5965 1.5712,15.9515 -0.9875,4.964 -3.3188,9.554 -6.7292,13.273 -0.4462,0.487 -0.4484,1.242 0.0185,1.709 z" />
  <path
     id="path855"
     fill="#852c2c"
     d="m 78.3679,213.368 c 0.4668,0.467 1.2257,0.468 1.6736,-0.017 3.7439,-4.055 6.3024,-9.07 7.3821,-14.498 1.1575,-5.82 0.5634,-11.852 -1.7072,-17.333 C 83.4458,176.038 79.6006,171.352 74.6671,168.056 69.7336,164.76 63.9334,163 58,163 c -5.9334,0 -11.7336,1.759 -16.6671,5.056 -4.9335,3.296 -8.7787,7.982 -11.0493,13.464 -2.2706,5.481 -2.8647,11.513 -1.7072,17.333 1.0797,5.428 3.6382,10.443 7.3821,14.498 0.4479,0.485 1.2068,0.484 1.6736,0.017 v 0 c 0.4669,-0.467 0.4647,-1.222 0.0185,-1.709 -3.4104,-3.719 -5.7417,-8.309 -6.7292,-13.273 -1.0653,-5.355 -0.5185,-10.907 1.5712,-15.952 2.0896,-5.044 5.6283,-9.356 10.1686,-12.39 4.5403,-3.034 9.8782,-4.653 15.3388,-4.653 5.4606,0 10.7985,1.619 15.3388,4.653 4.5403,3.034 8.079,7.346 10.1686,12.39 2.0897,5.045 2.6365,10.597 1.5712,15.952 -0.9875,4.964 -3.3188,9.554 -6.7292,13.273 -0.4462,0.487 -0.4484,1.242 0.0185,1.709 z" />
  <path
     id="path857"
     fill="#ffffff"
     d="m 46.5138,143 v -9.953 H 49.59 c 1.039,0 1.8274,0.232 2.3652,0.697 0.5423,0.46 0.8135,1.137 0.8135,2.03 0,0.506 -0.1117,0.941 -0.335,1.306 -0.2233,0.365 -0.5286,0.631 -0.916,0.8 0.4466,0.127 0.7907,0.385 1.0322,0.772 0.2416,0.383 0.3623,0.857 0.3623,1.422 0,0.966 -0.2666,1.696 -0.7998,2.188 -0.5286,0.492 -1.2965,0.738 -2.3037,0.738 z m 2.0098,-4.327 v 2.659 h 1.2851 c 0.36,0 0.6335,-0.112 0.8203,-0.335 0.1869,-0.223 0.2803,-0.54 0.2803,-0.95 0,-0.893 -0.3236,-1.351 -0.9707,-1.374 z m 0,-1.463 h 1.0459 c 0.7884,0 1.1826,-0.408 1.1826,-1.224 0,-0.451 -0.0912,-0.774 -0.2735,-0.97 -0.1823,-0.196 -0.4785,-0.294 -0.8886,-0.294 h -1.0664 z" />
  <path
     id="path859"
     fill="#ffffff"
     d="m 56.3097,143 h -1.9414 v -7.396 h 1.9414 z m -2.0303,-9.311 c 0,-0.3 0.0957,-0.546 0.2871,-0.738 0.1914,-0.191 0.4466,-0.287 0.7657,-0.287 0.319,0 0.5742,0.096 0.7656,0.287 0.1914,0.192 0.2871,0.438 0.2871,0.738 0,0.297 -0.0957,0.543 -0.2871,0.739 -0.1869,0.196 -0.4421,0.294 -0.7656,0.294 -0.3236,0 -0.5811,-0.098 -0.7725,-0.294 -0.1869,-0.196 -0.2803,-0.442 -0.2803,-0.739 z" />
  <path
     id="path861"
     fill="#ffffff"
     d="m 61.3204,143 c -0.0547,-0.114 -0.1093,-0.305 -0.164,-0.574 -0.3464,0.474 -0.8158,0.711 -1.4082,0.711 -0.6198,0 -1.1348,-0.205 -1.545,-0.616 -0.4056,-0.41 -0.6084,-0.941 -0.6084,-1.592 0,-0.775 0.2461,-1.374 0.7383,-1.798 0.4968,-0.424 1.21,-0.64 2.1397,-0.65 h 0.5879 v -0.594 c 0,-0.333 -0.057,-0.568 -0.1709,-0.704 -0.114,-0.137 -0.2803,-0.205 -0.4991,-0.205 -0.483,0 -0.7246,0.282 -0.7246,0.847 h -1.9345 c 0,-0.683 0.2552,-1.246 0.7656,-1.688 0.515,-0.447 1.1644,-0.67 1.9482,-0.67 0.8112,0 1.4379,0.212 1.8799,0.636 0.4466,0.419 0.6699,1.02 0.6699,1.804 v 3.48 c 0.0092,0.638 0.1003,1.137 0.2735,1.497 V 143 Z m -1.1416,-1.381 c 0.2142,0 0.3965,-0.043 0.5469,-0.13 0.1504,-0.086 0.2621,-0.189 0.335,-0.307 v -1.538 h -0.4649 c -0.3281,0 -0.5879,0.104 -0.7793,0.314 -0.1868,0.21 -0.2802,0.49 -0.2802,0.841 0,0.547 0.2141,0.82 0.6425,0.82 z" />
  <path
     id="path863"
     fill="#ffffff"
     d="m 67.671,141.018 c 0,-0.164 -0.0797,-0.315 -0.2392,-0.452 -0.155,-0.141 -0.5036,-0.33 -1.0459,-0.567 -0.7976,-0.324 -1.3467,-0.659 -1.6475,-1.005 -0.2962,-0.346 -0.4443,-0.777 -0.4443,-1.292 0,-0.647 0.2324,-1.18 0.6972,-1.599 0.4694,-0.424 1.0892,-0.636 1.8594,-0.636 0.8112,0 1.4606,0.209 1.9483,0.629 0.4876,0.419 0.7314,0.982 0.7314,1.688 h -1.9346 c 0,-0.601 -0.2506,-0.902 -0.7519,-0.902 -0.2051,0 -0.3737,0.064 -0.5059,0.191 -0.1321,0.128 -0.1982,0.306 -0.1982,0.533 0,0.165 0.0729,0.31 0.2187,0.438 0.1459,0.123 0.4899,0.301 1.0322,0.533 0.7885,0.292 1.3444,0.618 1.668,0.978 0.3281,0.355 0.4922,0.818 0.4922,1.387 0,0.661 -0.2484,1.192 -0.7451,1.593 -0.4968,0.401 -1.1485,0.602 -1.9551,0.602 -0.5423,0 -1.0208,-0.105 -1.4355,-0.315 -0.4148,-0.214 -0.7406,-0.51 -0.9776,-0.888 -0.2324,-0.379 -0.3486,-0.787 -0.3486,-1.224 h 1.8389 c 0.0091,0.337 0.0865,0.59 0.2324,0.759 0.1504,0.168 0.3942,0.253 0.7314,0.253 0.5196,0 0.7793,-0.235 0.7793,-0.704 z" />
  <path
     id="path865"
     fill="#ffffff"
     d="m 33.8468,232.389 c 0,-0.406 -0.1048,-0.711 -0.3145,-0.916 -0.205,-0.21 -0.581,-0.426 -1.1279,-0.65 -0.998,-0.378 -1.7158,-0.82 -2.1533,-1.326 -0.4375,-0.51 -0.6563,-1.112 -0.6563,-1.805 0,-0.838 0.2963,-1.51 0.8887,-2.016 0.597,-0.511 1.3535,-0.766 2.2696,-0.766 0.6106,0 1.1552,0.13 1.6337,0.39 0.4786,0.255 0.8454,0.617 1.1006,1.087 0.2598,0.469 0.3897,1.002 0.3897,1.599 h -2.003 c 0,-0.464 -0.1002,-0.818 -0.3007,-1.059 -0.196,-0.246 -0.4808,-0.369 -0.8545,-0.369 -0.3509,0 -0.6244,0.104 -0.8203,0.314 -0.196,0.205 -0.294,0.483 -0.294,0.834 0,0.274 0.1094,0.522 0.3281,0.745 0.2188,0.219 0.6062,0.447 1.1621,0.684 0.9708,0.351 1.6749,0.781 2.1124,1.292 0.442,0.51 0.663,1.16 0.663,1.948 0,0.866 -0.2757,1.543 -0.8271,2.03 -0.5514,0.488 -1.3011,0.732 -2.249,0.732 -0.6426,0 -1.2282,-0.132 -1.7569,-0.397 -0.5286,-0.264 -0.9433,-0.642 -1.2441,-1.135 -0.2962,-0.492 -0.4443,-1.073 -0.4443,-1.743 h 2.0166 c 0,0.575 0.1116,0.992 0.3349,1.251 0.2233,0.26 0.5879,0.39 1.0938,0.39 0.7018,0 1.0527,-0.371 1.0527,-1.114 z" />
  <path
     id="path867"
     fill="#ffffff"
     d="m 40.6212,235 c -0.0547,-0.114 -0.1094,-0.305 -0.164,-0.574 -0.3464,0.474 -0.8158,0.711 -1.4082,0.711 -0.6198,0 -1.1348,-0.205 -1.545,-0.615 -0.4056,-0.411 -0.6084,-0.942 -0.6084,-1.593 0,-0.775 0.2461,-1.374 0.7383,-1.798 0.4968,-0.424 1.21,-0.64 2.1397,-0.65 h 0.5879 v -0.594 c 0,-0.333 -0.057,-0.568 -0.1709,-0.704 -0.114,-0.137 -0.2803,-0.205 -0.4991,-0.205 -0.483,0 -0.7246,0.282 -0.7246,0.847 h -1.9346 c 0,-0.683 0.2553,-1.246 0.7657,-1.688 0.5149,-0.447 1.1644,-0.67 1.9482,-0.67 0.8112,0 1.4378,0.212 1.8799,0.636 0.4466,0.419 0.6699,1.02 0.6699,1.804 v 3.48 c 0.0091,0.638 0.1003,1.137 0.2735,1.497 V 235 Z m -1.1416,-1.381 c 0.2142,0 0.3965,-0.043 0.5469,-0.13 0.1504,-0.086 0.262,-0.189 0.335,-0.307 v -1.538 h -0.4649 c -0.3281,0 -0.5879,0.104 -0.7793,0.314 -0.1868,0.21 -0.2803,0.49 -0.2803,0.841 0,0.547 0.2142,0.82 0.6426,0.82 z" />
  <path
     id="path869"
     fill="#ffffff"
     d="m 45.9464,225.785 v 1.819 h 0.9912 v 1.456 h -0.9912 v 3.67 c 0,0.292 0.0387,0.493 0.1162,0.602 0.0821,0.109 0.237,0.164 0.4649,0.164 0.1868,0 0.3395,-0.016 0.458,-0.048 l -0.0137,1.504 c -0.3281,0.123 -0.6836,0.185 -1.0664,0.185 -1.2487,0 -1.8799,-0.716 -1.8936,-2.147 v -3.93 h -0.8545 v -1.456 h 0.8545 v -1.819 z" />
  <path
     id="path871"
     fill="#ffffff"
     d="m 51.6407,234.323 c -0.401,0.543 -0.9388,0.814 -1.6132,0.814 -0.6791,0 -1.194,-0.233 -1.545,-0.698 -0.3509,-0.469 -0.5263,-1.15 -0.5263,-2.043 v -4.792 h 1.9345 v 4.839 c 0.0092,0.72 0.2484,1.08 0.7178,1.08 0.4421,0 0.7611,-0.191 0.9571,-0.574 v -5.345 h 1.9482 V 235 h -1.8184 z" />
  <path
     id="path873"
     fill="#ffffff"
     d="m 58.545,229.47 -0.6425,-0.055 c -0.5287,0 -0.8864,0.232 -1.0733,0.697 V 235 h -1.9414 v -7.396 h 1.8252 l 0.0547,0.799 c 0.3053,-0.624 0.7269,-0.936 1.2646,-0.936 0.2188,0 0.3965,0.029 0.5333,0.089 z" />
  <path
     id="path875"
     fill="#ffffff"
     d="m 62.8517,235 c -0.0547,-0.114 -0.1094,-0.305 -0.1641,-0.574 -0.3463,0.474 -0.8157,0.711 -1.4082,0.711 -0.6198,0 -1.1347,-0.205 -1.5449,-0.615 -0.4056,-0.411 -0.6084,-0.942 -0.6084,-1.593 0,-0.775 0.2461,-1.374 0.7383,-1.798 0.4967,-0.424 1.2099,-0.64 2.1396,-0.65 h 0.5879 v -0.594 c 0,-0.333 -0.0569,-0.568 -0.1709,-0.704 -0.1139,-0.137 -0.2803,-0.205 -0.499,-0.205 -0.4831,0 -0.7246,0.282 -0.7246,0.847 h -1.9346 c 0,-0.683 0.2552,-1.246 0.7656,-1.688 0.515,-0.447 1.1644,-0.67 1.9483,-0.67 0.8112,0 1.4378,0.212 1.8799,0.636 0.4466,0.419 0.6699,1.02 0.6699,1.804 v 3.48 c 0.0091,0.638 0.1002,1.137 0.2734,1.497 V 235 Z m -1.1416,-1.381 c 0.2142,0 0.3965,-0.043 0.5469,-0.13 0.1503,-0.086 0.262,-0.189 0.3349,-0.307 v -1.538 h -0.4648 c -0.3281,0 -0.5879,0.104 -0.7793,0.314 -0.1869,0.21 -0.2803,0.49 -0.2803,0.841 0,0.547 0.2142,0.82 0.6426,0.82 z" />
  <path
     id="path877"
     fill="#ffffff"
     d="m 68.1769,225.785 v 1.819 h 0.9912 v 1.456 h -0.9912 v 3.67 c 0,0.292 0.0387,0.493 0.1162,0.602 0.082,0.109 0.237,0.164 0.4648,0.164 0.1869,0 0.3396,-0.016 0.458,-0.048 l -0.0136,1.504 c -0.3282,0.123 -0.6836,0.185 -1.0664,0.185 -1.2487,0 -1.8799,-0.716 -1.8936,-2.147 v -3.93 h -0.8545 v -1.456 h 0.8545 v -1.819 z" />
  <path
     id="path879"
     fill="#ffffff"
     d="m 72.2648,235 h -1.9414 v -7.396 h 1.9414 z m -2.0303,-9.311 c 0,-0.3 0.0957,-0.546 0.2871,-0.738 0.1914,-0.191 0.4466,-0.287 0.7656,-0.287 0.319,0 0.5743,0.096 0.7657,0.287 0.1914,0.192 0.2871,0.438 0.2871,0.738 0,0.297 -0.0957,0.543 -0.2871,0.739 -0.1869,0.196 -0.4421,0.294 -0.7657,0.294 -0.3235,0 -0.581,-0.098 -0.7724,-0.294 -0.1869,-0.196 -0.2803,-0.442 -0.2803,-0.739 z" />
  <path
     id="path881"
     fill="#ffffff"
     d="m 73.5363,231.063 c 0,-1.122 0.2643,-2.001 0.7929,-2.639 0.5287,-0.638 1.2601,-0.957 2.1944,-0.957 0.9433,0 1.6793,0.319 2.208,0.957 0.5286,0.638 0.7929,1.522 0.7929,2.652 v 0.472 c 0,1.126 -0.262,2.005 -0.7861,2.639 -0.5241,0.633 -1.2578,0.95 -2.2012,0.95 -0.9479,0 -1.6862,-0.317 -2.2148,-0.95 -0.5241,-0.638 -0.7861,-1.523 -0.7861,-2.653 z m 1.9414,0.485 c 0,1.321 0.3532,1.982 1.0595,1.982 0.6517,0 1.0026,-0.551 1.0528,-1.654 l 0.0068,-0.813 c 0,-0.675 -0.0934,-1.174 -0.2803,-1.498 -0.1868,-0.328 -0.4511,-0.492 -0.7929,-0.492 -0.3282,0 -0.5857,0.164 -0.7725,0.492 -0.1823,0.324 -0.2734,0.823 -0.2734,1.498 z" />
  <path
     id="path883"
     fill="#ffffff"
     d="m 82.505,227.604 0.0547,0.731 c 0.4375,-0.579 1.0094,-0.868 1.7158,-0.868 1.2715,0 1.9255,0.891 1.9619,2.673 V 235 H 84.296 v -4.717 c 0,-0.419 -0.0638,-0.722 -0.1914,-0.909 -0.123,-0.191 -0.3418,-0.287 -0.6562,-0.287 -0.3509,0 -0.6244,0.18 -0.8203,0.54 V 235 h -1.9415 v -7.396 z" />
  <path
     id="path885"
     fill="#ffffff"
     d="m 44.1896,327 v -9.953 h 2.6318 c 1.1621,0 2.0873,0.369 2.7754,1.107 0.6927,0.739 1.0459,1.75 1.0596,3.035 v 1.614 c 0,1.308 -0.3464,2.335 -1.0391,3.083 C 48.9292,326.629 47.979,327 46.7667,327 Z m 2.0097,-8.278 v 6.61 h 0.6016 c 0.6699,0 1.1416,-0.175 1.415,-0.526 0.2735,-0.356 0.417,-0.966 0.4307,-1.832 v -1.73 c 0,-0.93 -0.1299,-1.577 -0.3896,-1.941 -0.2598,-0.369 -0.7019,-0.563 -1.3262,-0.581 z" />
  <path
     id="path887"
     fill="#ffffff"
     d="m 55.6603,321.47 -0.6426,-0.055 c -0.5286,0 -0.8864,0.232 -1.0732,0.697 V 327 h -1.9414 v -7.396 h 1.8251 l 0.0547,0.799 c 0.3054,-0.624 0.7269,-0.936 1.2647,-0.936 0.2187,0 0.3965,0.029 0.5332,0.089 z" />
  <path
     id="path889"
     fill="#ffffff"
     d="m 58.6886,327 h -1.9414 v -7.396 h 1.9414 z m -2.0303,-9.311 c 0,-0.3 0.0957,-0.546 0.2871,-0.738 0.1914,-0.191 0.4466,-0.287 0.7657,-0.287 0.319,0 0.5742,0.096 0.7656,0.287 0.1914,0.192 0.2871,0.438 0.2871,0.738 0,0.297 -0.0957,0.543 -0.2871,0.739 -0.1869,0.196 -0.4421,0.294 -0.7656,0.294 -0.3236,0 -0.5811,-0.098 -0.7725,-0.294 -0.1869,-0.196 -0.2803,-0.442 -0.2803,-0.739 z" />
  <path
     id="path891"
     fill="#ffffff"
     d="m 62.6124,324.266 0.9366,-4.662 h 2.0166 L 63.5353,327 h -1.8457 l -2.0371,-7.396 h 2.0234 z" />
  <path
     id="path893"
     fill="#ffffff"
     d="m 69.3663,327.137 c -0.9935,0 -1.7682,-0.297 -2.3242,-0.889 -0.556,-0.592 -0.834,-1.44 -0.834,-2.543 v -0.588 c 0,-1.166 0.2552,-2.067 0.7657,-2.7 0.5104,-0.633 1.2418,-0.95 2.1943,-0.95 0.9297,0 1.6292,0.298 2.0986,0.895 0.4694,0.593 0.7087,1.472 0.7178,2.639 v 0.95 h -3.8486 c 0.0273,0.547 0.1481,0.948 0.3623,1.203 0.2142,0.251 0.5446,0.376 0.9912,0.376 0.6471,0 1.1872,-0.221 1.6201,-0.663 l 0.7588,1.169 c -0.237,0.328 -0.5811,0.595 -1.0322,0.8 -0.4512,0.2 -0.9411,0.301 -1.4698,0.301 z m -1.2168,-4.539 h 1.9346 v -0.178 c -0.0091,-0.442 -0.082,-0.777 -0.2187,-1.005 -0.1368,-0.228 -0.3737,-0.342 -0.711,-0.342 -0.3372,0 -0.5833,0.121 -0.7383,0.363 -0.1504,0.241 -0.2392,0.628 -0.2666,1.162 z" />
  <path
     id="path895"
     fill="#ffffff"
     d="m 54.9219,403 h -1.5791 v -7.82 h 1.5791 z" />
  <path
     id="path897"
     fill="#ffffff"
     d="m 61.7163,403 h -1.5791 l -2.3096,-5.129 V 403 h -1.5791 v -7.82 h 1.5791 l 2.315,5.134 v -5.134 h 1.5737 z" />
  <path
     id="path899"
     fill="#ffffff"
     d="m 54.186,460.793 c 0,1.05 -0.2488,1.864 -0.7465,2.444 -0.4942,0.58 -1.1817,0.87 -2.0625,0.87 -0.8773,0 -1.5666,-0.286 -2.0679,-0.859 -0.5013,-0.576 -0.7556,-1.382 -0.7627,-2.417 v -1.337 c 0,-1.075 0.2488,-1.912 0.7466,-2.514 0.4977,-0.605 1.1888,-0.908 2.0732,-0.908 0.8701,0 1.5558,0.297 2.0571,0.892 0.5013,0.591 0.7556,1.421 0.7627,2.492 z m -1.5844,-1.31 c 0,-0.705 -0.1003,-1.23 -0.3008,-1.574 -0.2005,-0.344 -0.5121,-0.515 -0.9346,-0.515 -0.4189,0 -0.7287,0.166 -0.9292,0.499 -0.2005,0.329 -0.3044,0.833 -0.3115,1.509 v 1.391 c 0,0.684 0.102,1.189 0.3061,1.515 0.2041,0.322 0.5192,0.484 0.9454,0.484 0.4117,0 0.7179,-0.158 0.9184,-0.473 0.2005,-0.319 0.3026,-0.811 0.3062,-1.477 z" />
  <path
     id="path901"
     fill="#ffffff"
     d="m 60.4058,456.18 v 5.414 c -0.0072,0.813 -0.231,1.436 -0.6714,1.869 -0.4405,0.43 -1.0725,0.644 -1.896,0.644 -0.8379,0 -1.4789,-0.218 -1.9229,-0.655 -0.4404,-0.437 -0.6606,-1.069 -0.6606,-1.896 v -5.376 h 1.5898 v 5.382 c 0,0.444 0.0716,0.76 0.2149,0.95 0.1432,0.19 0.4028,0.285 0.7788,0.285 0.376,0 0.6338,-0.093 0.7734,-0.279 0.1397,-0.19 0.2113,-0.5 0.2149,-0.93 v -5.408 z" />
  <path
     id="path903"
     fill="#ffffff"
     d="M 66.6685,457.496 H 64.7349 V 464 h -1.5845 v -6.504 H 61.249 v -1.316 h 5.4195 z" />
  <path
     id="path905"
     fill="#852c2c"
     d="m 78.3679,305.368 c 0.4668,0.467 1.2257,0.468 1.6736,-0.017 3.7439,-4.055 6.3024,-9.07 7.3821,-14.498 1.1575,-5.82 0.5634,-11.852 -1.7072,-17.334 C 83.4458,268.038 79.6006,263.352 74.6671,260.056 69.7336,256.759 63.9334,255 58,255 c -5.9334,0 -11.7336,1.759 -16.6671,5.056 -4.9335,3.296 -8.7787,7.982 -11.0493,13.463 -2.2706,5.482 -2.8647,11.514 -1.7072,17.334 1.0797,5.428 3.6382,10.443 7.3821,14.498 0.4479,0.485 1.2068,0.484 1.6736,0.017 v 0 c 0.4669,-0.467 0.4647,-1.222 0.0185,-1.709 -3.4104,-3.719 -5.7417,-8.309 -6.7292,-13.273 -1.0653,-5.355 -0.5185,-10.907 1.5712,-15.952 2.0896,-5.044 5.6283,-9.356 10.1686,-12.39 4.5403,-3.034 9.8782,-4.653 15.3388,-4.653 5.4606,0 10.7985,1.619 15.3388,4.653 4.5403,3.034 8.079,7.346 10.1686,12.39 2.0897,5.045 2.6365,10.597 1.5712,15.952 -0.9875,4.964 -3.3188,9.554 -6.7292,13.273 -0.4462,0.487 -0.4484,1.242 0.0185,1.709 z" />
  <path
     id="path907"
     fill="#852c2c"
     d="m 42,413 h 31 c 3.3137,0 6,2.686 6,6 v 46 c 0,3.314 -2.6863,6 -6,6 H 42 c -3.3137,0 -6,-2.686 -6,-6 v -46 c 0,-3.314 2.6863,-6 6,-6 z m 0,2 c -2.2091,0 -4,1.791 -4,4 v 46 c 0,2.209 1.7909,4 4,4 h 31 c 2.2091,0 4,-1.791 4,-4 v -46 c 0,-2.209 -1.7909,-4 -4,-4 z"
     clip-rule="evenodd"
     fill-rule="evenodd" />
</svg>
