<?xml version="1.0" encoding="UTF-8" standalone="no"?>
<svg
   xmlns:dc="http://purl.org/dc/elements/1.1/"
   xmlns:cc="http://creativecommons.org/ns#"
   xmlns:rdf="http://www.w3.org/1999/02/22-rdf-syntax-ns#"
   xmlns:svg="http://www.w3.org/2000/svg"
   xmlns="http://www.w3.org/2000/svg"
   xmlns:sodipodi="http://sodipodi.sourceforge.net/DTD/sodipodi-0.dtd"
   xmlns:inkscape="http://www.inkscape.org/namespaces/inkscape"
   inkscape:version="1.0 (4035a4fb49, 2020-05-01)"
   sodipodi:docname="ChowPhaseMod.svg"
   id="svg94"
   version="1.1"
   fill="none"
   viewBox="0 0 115 486"
   height="128.58749mm"
   width="30.427084mm">
  <metadata
     id="metadata100">
    <rdf:RDF>
      <cc:Work
         rdf:about="">
        <dc:format>image/svg+xml</dc:format>
        <dc:type
           rdf:resource="http://purl.org/dc/dcmitype/StillImage" />
        <dc:title></dc:title>
      </cc:Work>
    </rdf:RDF>
  </metadata>
  <defs
     id="defs98" />
  <sodipodi:namedview
     inkscape:current-layer="svg94"
     inkscape:window-maximized="1"
     inkscape:window-y="-9"
     inkscape:window-x="-9"
     inkscape:cy="243"
     inkscape:cx="57.5"
     inkscape:zoom="1.7078189"
     units="mm"
     inkscape:document-units="mm"
     showgrid="false"
     id="namedview96"
     inkscape:window-height="1001"
     inkscape:window-width="1920"
     inkscape:pageshadow="2"
     inkscape:pageopacity="0"
     guidetolerance="10"
     gridtolerance="10"
     objecttolerance="10"
     borderopacity="1"
     bordercolor="#666666"
     pagecolor="#ffffff" />
  <path
     id="path2"
     fill="#16161d"
     d="M 0,0 H 115 V 486 H 0 Z" />
  <path
     id="path4"
     fill="#504fb6"
     d="m 7,0 h 101 v 47 c 0,2.2091 -1.791,4 -4,4 H 11 C 8.79086,51 7,49.2091 7,47 Z" />
  <path
     id="path6"
     fill="#ffffff"
     d="m 24.3594,18.2109 c -0.0573,1.2969 -0.4219,2.2787 -1.0938,2.9453 -0.6718,0.6667 -1.6198,1 -2.8437,1 -1.2865,0 -2.2735,-0.4218 -2.961,-1.2656 -0.6823,-0.8489 -1.0234,-2.0573 -1.0234,-3.625 v -1.914 c 0,-1.5625 0.3542,-2.7657 1.0625,-3.6094 0.7083,-0.849 1.6927,-1.2734 2.9531,-1.2734 1.2396,0 2.1797,0.3463 2.8203,1.039 0.6459,0.6927 1.0131,1.6875 1.1016,2.9844 h -2.3047 c -0.0208,-0.8021 -0.1458,-1.3542 -0.375,-1.6563 -0.2239,-0.3073 -0.638,-0.4609 -1.2422,-0.4609 -0.6146,0 -1.0495,0.2161 -1.3047,0.6484 -0.2552,0.4271 -0.3906,1.1328 -0.4062,2.1172 v 2.1485 c 0,1.1302 0.125,1.9062 0.375,2.3281 0.2552,0.4219 0.6901,0.6328 1.3047,0.6328 0.6041,0 1.0208,-0.1458 1.25,-0.4375 0.2291,-0.2969 0.3593,-0.8307 0.3906,-1.6016 z" />
  <path
     id="path8"
     fill="#ffffff"
     d="m 27.8203,14.2891 c 0.4792,-0.599 1.0677,-0.8985 1.7656,-0.8985 0.7709,0 1.3568,0.2709 1.7579,0.8125 0.401,0.5417 0.6041,1.349 0.6093,2.4219 V 22 h -2.2187 v -5.3516 c 0,-0.4948 -0.0782,-0.8515 -0.2344,-1.0703 -0.151,-0.2239 -0.3984,-0.3359 -0.7422,-0.3359 -0.401,0 -0.7135,0.1849 -0.9375,0.5547 V 22 H 25.6094 V 10 h 2.2109 z" />
  <path
     id="path10"
     fill="#ffffff"
     d="m 33.2812,17.5 c 0,-1.2812 0.3021,-2.2865 0.9063,-3.0156 0.6042,-0.7292 1.4401,-1.0938 2.5078,-1.0938 1.0781,0 1.9193,0.3646 2.5235,1.0938 0.6041,0.7291 0.9062,1.7396 0.9062,3.0312 v 0.5391 c 0,1.2864 -0.2995,2.2917 -0.8984,3.0156 -0.599,0.724 -1.4375,1.0859 -2.5157,1.0859 -1.0833,0 -1.927,-0.3619 -2.5312,-1.0859 -0.599,-0.7292 -0.8985,-1.7396 -0.8985,-3.0312 z M 35.5,18.0547 c 0,1.5104 0.4036,2.2656 1.2109,2.2656 0.7448,0 1.1459,-0.6302 1.2032,-1.8906 L 37.9219,17.5 c 0,-0.7708 -0.1068,-1.3411 -0.3203,-1.7109 -0.2136,-0.375 -0.5157,-0.5625 -0.9063,-0.5625 -0.375,0 -0.6693,0.1875 -0.8828,0.5625 C 35.6042,16.1589 35.5,16.7292 35.5,17.5 Z" />
  <path
     id="path12"
     fill="#ffffff"
     d="m 47.6641,18.2891 0.7578,-4.7422 h 2.1172 L 48.7891,22 h -1.836 L 45.7578,17.1094 44.5625,22 h -1.8437 l -1.75,-8.4531 h 2.125 l 0.75,4.75 1.125,-4.75 h 1.5703 z" />
  <path
     id="path14"
     fill="#ffffff"
     d="m 57.7266,18 v 4 H 55.4297 V 10.625 h 3.875 c 1.125,0 2.0208,0.349 2.6875,1.0469 C 62.6641,12.3698 63,13.276 63,14.3906 63,15.5052 62.6693,16.3854 62.0078,17.0312 61.3464,17.6771 60.4297,18 59.2578,18 Z m 0,-1.9141 h 1.5781 c 0.4375,0 0.776,-0.1432 1.0156,-0.4297 0.2396,-0.2864 0.3594,-0.7031 0.3594,-1.25 0,-0.5677 -0.1224,-1.0182 -0.3672,-1.3515 -0.2448,-0.3386 -0.5729,-0.5104 -0.9844,-0.5156 h -1.6015 z" />
  <path
     id="path16"
     fill="#ffffff"
     d="m 66.5859,14.2891 c 0.4792,-0.599 1.0677,-0.8985 1.7657,-0.8985 0.7708,0 1.3567,0.2709 1.7578,0.8125 0.401,0.5417 0.6041,1.349 0.6094,2.4219 V 22 H 68.5 v -5.3516 c 0,-0.4948 -0.0781,-0.8515 -0.2344,-1.0703 -0.151,-0.2239 -0.3984,-0.3359 -0.7422,-0.3359 -0.401,0 -0.7135,0.1849 -0.9375,0.5547 V 22 H 64.375 V 10 h 2.2109 z" />
  <path
     id="path18"
     fill="#ffffff"
     d="m 76.3203,22 c -0.0625,-0.1302 -0.125,-0.349 -0.1875,-0.6562 -0.3958,0.5416 -0.9323,0.8124 -1.6094,0.8124 -0.7083,0 -1.2968,-0.2343 -1.7656,-0.7031 -0.4635,-0.4687 -0.6953,-1.0755 -0.6953,-1.8203 0,-0.8854 0.2813,-1.5703 0.8437,-2.0547 0.5678,-0.4843 1.3829,-0.7317 2.4454,-0.7422 h 0.6718 v -0.6797 c 0,-0.3802 -0.0651,-0.6484 -0.1953,-0.8046 -0.1302,-0.1563 -0.3203,-0.2344 -0.5703,-0.2344 -0.5521,0 -0.8281,0.3229 -0.8281,0.9687 h -2.2109 c 0,-0.7812 0.2916,-1.4244 0.875,-1.9297 0.5885,-0.5104 1.3307,-0.7656 2.2265,-0.7656 0.9271,0 1.6432,0.2422 2.1485,0.7266 0.5104,0.4792 0.7656,1.1667 0.7656,2.0625 v 3.9765 c 0.0104,0.7292 0.1146,1.2995 0.3125,1.711 V 22 Z m -1.3047,-1.5781 c 0.2448,0 0.4532,-0.0495 0.625,-0.1485 0.1719,-0.0989 0.2995,-0.2161 0.3828,-0.3515 v -1.7578 h -0.5312 c -0.375,0 -0.6719,0.1198 -0.8906,0.3593 -0.2136,0.2396 -0.3204,0.5599 -0.3204,0.961 0,0.625 0.2448,0.9375 0.7344,0.9375 z" />
  <path
     id="path20"
     fill="#ffffff"
     d="m 83.5781,19.7344 c 0,-0.1875 -0.0911,-0.3594 -0.2734,-0.5156 -0.1771,-0.1615 -0.5755,-0.3777 -1.1953,-0.6485 -0.9115,-0.3698 -1.5391,-0.7526 -1.8828,-1.1484 -0.3386,-0.3959 -0.5078,-0.888 -0.5078,-1.4766 0,-0.7396 0.2656,-1.3489 0.7968,-1.8281 0.5365,-0.4844 1.2448,-0.7266 2.125,-0.7266 0.9271,0 1.6693,0.2396 2.2266,0.7188 0.5573,0.4791 0.8359,1.1224 0.8359,1.9297 h -2.2109 c 0,-0.6875 -0.2865,-1.0313 -0.8594,-1.0313 -0.2344,0 -0.4271,0.0729 -0.5781,0.2188 -0.1511,0.1458 -0.2266,0.3489 -0.2266,0.6093 0,0.1875 0.0834,0.3542 0.25,0.5 0.1667,0.1407 0.5599,0.3438 1.1797,0.6094 0.9011,0.3333 1.5365,0.7057 1.9063,1.1172 0.375,0.4063 0.5625,0.9349 0.5625,1.5859 0,0.7552 -0.2839,1.362 -0.8516,1.8204 -0.5677,0.4583 -1.3125,0.6874 -2.2344,0.6874 -0.6198,0 -1.1666,-0.1197 -1.6406,-0.3593 -0.474,-0.2448 -0.8464,-0.5834 -1.1172,-1.0157 -0.2656,-0.4322 -0.3984,-0.8984 -0.3984,-1.3984 h 2.1015 c 0.0105,0.3854 0.099,0.6745 0.2657,0.8672 0.1718,0.1927 0.4505,0.2891 0.8359,0.2891 0.5937,0 0.8906,-0.2683 0.8906,-0.8047 z" />
  <path
     id="path22"
     fill="#ffffff"
     d="m 90.5156,22.1562 c -1.1354,0 -2.0208,-0.3385 -2.6562,-1.0156 -0.6354,-0.6771 -0.9532,-1.6458 -0.9532,-2.9062 v -0.6719 c 0,-1.3333 0.2917,-2.362 0.875,-3.0859 0.5834,-0.724 1.4193,-1.086 2.5079,-1.086 1.0625,0 1.8619,0.3412 2.3984,1.0235 0.5365,0.677 0.8099,1.6823 0.8203,3.0156 v 1.0859 h -4.3984 c 0.0312,0.625 0.1692,1.0834 0.414,1.375 0.2448,0.2865 0.6224,0.4297 1.1328,0.4297 0.7396,0 1.3568,-0.2526 1.8516,-0.7578 l 0.8672,1.3359 c -0.2708,0.375 -0.6641,0.6797 -1.1797,0.9141 -0.5156,0.2292 -1.0755,0.3437 -1.6797,0.3437 z M 89.125,16.9688 h 2.2109 v -0.2032 c -0.0104,-0.5052 -0.0937,-0.888 -0.25,-1.1484 -0.1562,-0.2604 -0.427,-0.3906 -0.8125,-0.3906 -0.3854,0 -0.6666,0.138 -0.8437,0.414 -0.1719,0.2761 -0.2735,0.7188 -0.3047,1.3282 z" />
  <path
     id="path24"
     fill="#ffffff"
     d="m 98.9297,15.6797 -0.7344,-0.0625 c -0.6042,0 -1.013,0.2656 -1.2265,0.7969 V 22 H 94.75 v -8.4531 h 2.0859 l 0.0625,0.914 c 0.349,-0.7135 0.8308,-1.0703 1.4454,-1.0703 0.25,0 0.4531,0.0339 0.6093,0.1016 z" />
  <path
     id="path26"
     fill="#ffffff"
     d="m 47.3906,29.625 2.1485,8.2266 2.1406,-8.2266 h 3 V 41 H 52.375 V 37.9219 L 52.5859,33.1797 50.3125,41 H 48.75 l -2.2734,-7.8203 0.2109,4.7422 V 41 H 44.3906 V 29.625 Z" />
  <path
     id="path28"
     fill="#ffffff"
     d="m 56.1641,36.5 c 0,-1.2812 0.302,-2.2865 0.9062,-3.0156 0.6042,-0.7292 1.4401,-1.0938 2.5078,-1.0938 1.0781,0 1.9193,0.3646 2.5235,1.0938 0.6041,0.7291 0.9062,1.7396 0.9062,3.0312 v 0.5391 c 0,1.2864 -0.2995,2.2917 -0.8984,3.0156 -0.599,0.724 -1.4375,1.0859 -2.5156,1.0859 -1.0834,0 -1.9271,-0.3619 -2.5313,-1.0859 -0.599,-0.7292 -0.8984,-1.7396 -0.8984,-3.0312 z m 2.2187,0.5547 c 0,1.5104 0.4037,2.2656 1.211,2.2656 0.7447,0 1.1458,-0.6302 1.2031,-1.8906 L 60.8047,36.5 c 0,-0.7708 -0.1068,-1.3411 -0.3203,-1.7109 -0.2136,-0.375 -0.5156,-0.5625 -0.9063,-0.5625 -0.375,0 -0.6692,0.1875 -0.8828,0.5625 -0.2083,0.3698 -0.3125,0.9401 -0.3125,1.7109 z" />
  <path
     id="path30"
     fill="#ffffff"
     d="m 64.0938,36.5156 c 0,-1.3854 0.2343,-2.4192 0.7031,-3.1015 0.4687,-0.6823 1.151,-1.0235 2.0469,-1.0235 0.651,0 1.1927,0.2813 1.625,0.8438 V 29 h 2.2265 v 12 h -2.0078 l -0.1016,-0.8594 c -0.4531,0.6771 -1.0364,1.0156 -1.75,1.0156 -0.8854,0 -1.5625,-0.3385 -2.0312,-1.0156 -0.4636,-0.6771 -0.7005,-1.6718 -0.7109,-2.9844 z m 2.2187,0.5547 c 0,0.8333 0.0885,1.4167 0.2656,1.75 0.1771,0.3281 0.4766,0.4922 0.8985,0.4922 0.4375,0 0.7682,-0.1953 0.9922,-0.5859 v -3.8594 c -0.2188,-0.4167 -0.5469,-0.625 -0.9844,-0.625 -0.4063,0 -0.7032,0.164 -0.8906,0.4922 -0.1876,0.3281 -0.2813,0.9114 -0.2813,1.75 z" />
  <path
     id="path32"
     fill="#ffffff"
     d="m 34.1133,395.395 c -0.0394,0.892 -0.2901,1.567 -0.752,2.025 -0.4619,0.458 -1.1136,0.687 -1.9551,0.687 -0.8844,0 -1.5629,-0.29 -2.0356,-0.87 -0.4691,-0.583 -0.7036,-1.414 -0.7036,-2.492 v -1.316 c 0,-1.074 0.2435,-1.901 0.7305,-2.481 0.4869,-0.584 1.1637,-0.876 2.0302,-0.876 0.8522,0 1.4986,0.238 1.939,0.715 0.444,0.476 0.6965,1.16 0.7573,2.051 h -1.5844 c -0.0144,-0.551 -0.1003,-0.931 -0.2579,-1.138 -0.1539,-0.212 -0.4386,-0.317 -0.854,-0.317 -0.4225,0 -0.7215,0.148 -0.8969,0.446 -0.1755,0.293 -0.2686,0.778 -0.2793,1.455 v 1.477 c 0,0.777 0.0859,1.311 0.2578,1.601 0.1754,0.29 0.4744,0.435 0.8969,0.435 0.4154,0 0.7019,-0.1 0.8594,-0.301 0.1576,-0.204 0.2471,-0.571 0.2686,-1.101 z" />
  <path
     id="path34"
     fill="#ffffff"
     d="m 37.6313,395.852 1.316,-5.672 H 40.709 L 38.4531,398 h -1.6435 l -2.2398,-7.82 h 1.751 z" />
  <path
     id="path36"
     fill="#ffffff"
     d="m 77.9219,398 h -1.5791 v -7.82 h 1.5791 z" />
  <path
     id="path38"
     fill="#ffffff"
     d="m 84.7163,398 h -1.5791 l -2.3096,-5.129 V 398 h -1.5791 v -7.82 h 1.5791 l 2.315,5.134 v -5.134 h 1.5737 z" />
  <path
     id="path40"
     fill="#ffffff"
     d="m 48.0449,140.389 c 0,-0.406 -0.1048,-0.711 -0.3144,-0.916 -0.2051,-0.21 -0.5811,-0.426 -1.128,-0.65 -0.998,-0.378 -1.7158,-0.82 -2.1533,-1.326 -0.4375,-0.51 -0.6562,-1.112 -0.6562,-1.805 0,-0.838 0.2962,-1.51 0.8886,-2.016 0.597,-0.511 1.3536,-0.766 2.2696,-0.766 0.6106,0 1.1552,0.13 1.6338,0.39 0.4785,0.255 0.8453,0.617 1.1005,1.087 0.2598,0.469 0.3897,1.002 0.3897,1.599 h -2.0029 c 0,-0.465 -0.1003,-0.818 -0.3008,-1.059 -0.196,-0.246 -0.4808,-0.369 -0.8545,-0.369 -0.3509,0 -0.6244,0.104 -0.8203,0.314 -0.196,0.205 -0.294,0.483 -0.294,0.834 0,0.273 0.1094,0.522 0.3282,0.745 0.2187,0.219 0.6061,0.447 1.1621,0.684 0.9707,0.351 1.6748,0.781 2.1123,1.292 0.442,0.51 0.6631,1.16 0.6631,1.948 0,0.866 -0.2758,1.543 -0.8272,2.03 -0.5514,0.488 -1.3011,0.732 -2.249,0.732 -0.6426,0 -1.2282,-0.132 -1.7568,-0.397 -0.5287,-0.264 -0.9434,-0.642 -1.2442,-1.135 -0.2962,-0.492 -0.4443,-1.073 -0.4443,-1.743 h 2.0166 c 0,0.575 0.1116,0.992 0.3349,1.251 0.2233,0.26 0.5879,0.39 1.0938,0.39 0.7018,0 1.0527,-0.371 1.0527,-1.114 z" />
  <path
     id="path42"
     fill="#ffffff"
     d="m 53.7598,140.149 -0.5196,0.581 V 143 h -1.9345 v -10.5 h 1.9345 v 5.674 l 0.2393,-0.356 1.3398,-2.214 h 2.3037 l -2.1464,3.048 2.3515,4.348 h -2.2148 z" />
  <path
     id="path44"
     fill="#ffffff"
     d="m 60.8555,143.137 c -0.9935,0 -1.7683,-0.297 -2.3243,-0.889 -0.5559,-0.592 -0.8339,-1.44 -0.8339,-2.543 v -0.588 c 0,-1.166 0.2552,-2.067 0.7656,-2.7 0.5104,-0.633 1.2419,-0.95 2.1943,-0.95 0.9297,0 1.6293,0.298 2.0987,0.895 0.4694,0.593 0.7086,1.472 0.7177,2.639 v 0.95 H 59.625 c 0.0273,0.547 0.1481,0.948 0.3623,1.203 0.2142,0.251 0.5446,0.376 0.9912,0.376 0.6472,0 1.1872,-0.221 1.6201,-0.663 l 0.7588,1.169 c -0.237,0.328 -0.581,0.595 -1.0322,0.8 -0.4512,0.2 -0.9411,0.301 -1.4697,0.301 z m -1.2168,-4.539 h 1.9345 v -0.178 c -0.0091,-0.442 -0.082,-0.777 -0.2187,-1.005 -0.1367,-0.228 -0.3737,-0.342 -0.7109,-0.342 -0.3373,0 -0.5834,0.121 -0.7383,0.363 -0.1504,0.241 -0.2393,0.628 -0.2666,1.162 z" />
  <path
     id="path46"
     fill="#ffffff"
     d="m 69.9541,139.753 0.6631,-4.149 h 1.8525 L 70.9385,143 H 69.332 L 68.2861,138.721 67.2402,143 H 65.627 l -1.5313,-7.396 h 1.8594 l 0.6562,4.156 0.9844,-4.156 h 1.374 z" />
  <path
     id="path48"
     fill="#504fb6"
     d="m 78.3679,121.368 c 0.4669,0.467 1.2257,0.468 1.6736,-0.017 3.744,-4.055 6.3024,-9.07 7.3821,-14.498 1.1575,-5.82 0.5634,-11.8517 -1.7072,-17.3335 C 83.4458,84.0377 79.6006,79.3524 74.6671,76.0559 69.7336,72.7595 63.9335,71 58,71 c -5.9334,0 -11.7336,1.7595 -16.6671,5.0559 -4.9335,3.2965 -8.7786,7.9818 -11.0493,13.4636 -2.2706,5.4818 -2.8647,11.5135 -1.7071,17.3335 1.0797,5.428 3.6381,10.443 7.382,14.498 0.4479,0.485 1.2068,0.484 1.6736,0.017 v 0 c 0.4669,-0.467 0.4647,-1.222 0.0185,-1.709 -3.4104,-3.719 -5.7417,-8.309 -6.7292,-13.273 -1.0653,-5.355 -0.5185,-10.9066 1.5712,-15.9515 2.0896,-5.0449 5.6284,-9.3569 10.1686,-12.3906 4.5403,-3.0337 9.8783,-4.653 15.3388,-4.653 5.4606,0 10.7985,1.6193 15.3388,4.653 4.5403,3.0337 8.079,7.3457 10.1687,12.3906 2.0896,5.0449 2.6364,10.5965 1.5711,15.9515 -0.9875,4.964 -3.3188,9.554 -6.7292,13.273 -0.4462,0.487 -0.4484,1.242 0.0185,1.709 z" />
  <path
     id="path50"
     fill="#ffffff"
     d="m 29.6836,225.047 1.8799,7.198 1.873,-7.198 h 2.625 V 235 h -2.0166 v -2.693 l 0.1846,-4.15 L 32.2402,235 H 30.873 l -1.9892,-6.843 0.1846,4.15 V 235 h -2.0098 v -9.953 z" />
  <path
     id="path52"
     fill="#ffffff"
     d="m 37.3604,231.062 c 0,-1.121 0.2643,-2 0.7929,-2.638 0.5287,-0.638 1.2601,-0.957 2.1944,-0.957 0.9433,0 1.6793,0.319 2.208,0.957 0.5286,0.638 0.7929,1.522 0.7929,2.652 v 0.472 c 0,1.126 -0.262,2.005 -0.7861,2.639 -0.5241,0.633 -1.2578,0.95 -2.2012,0.95 -0.9479,0 -1.6862,-0.317 -2.2148,-0.95 -0.5241,-0.638 -0.7861,-1.523 -0.7861,-2.653 z m 1.9414,0.486 c 0,1.321 0.3531,1.982 1.0595,1.982 0.6517,0 1.0026,-0.551 1.0528,-1.654 l 0.0068,-0.814 c 0,-0.674 -0.0934,-1.173 -0.2803,-1.497 -0.1868,-0.328 -0.4511,-0.492 -0.7929,-0.492 -0.3282,0 -0.5857,0.164 -0.7725,0.492 -0.1823,0.324 -0.2734,0.823 -0.2734,1.497 z" />
  <path
     id="path54"
     fill="#ffffff"
     d="m 44.2988,231.076 c 0,-1.212 0.2051,-2.117 0.6153,-2.714 0.4101,-0.597 1.0071,-0.895 1.791,-0.895 0.5696,0 1.0436,0.246 1.4219,0.738 V 224.5 h 1.9482 V 235 h -1.7568 l -0.0889,-0.752 c -0.3965,0.592 -0.9069,0.889 -1.5313,0.889 -0.7747,0 -1.3671,-0.297 -1.7773,-0.889 -0.4056,-0.592 -0.613,-1.463 -0.6221,-2.611 z m 1.9414,0.486 c 0,0.729 0.0775,1.239 0.2325,1.531 0.1549,0.287 0.4169,0.43 0.7861,0.43 0.3828,0 0.6722,-0.17 0.8682,-0.512 v -3.377 c -0.1915,-0.365 -0.4786,-0.547 -0.8614,-0.547 -0.3554,0 -0.6152,0.143 -0.7793,0.431 -0.164,0.287 -0.2461,0.797 -0.2461,1.531 z" />
  <path
     id="path56"
     fill="#ffffff"
     d="m 55.1406,234.323 c -0.401,0.543 -0.9388,0.814 -1.6133,0.814 -0.679,0 -1.194,-0.233 -1.5449,-0.698 -0.3509,-0.469 -0.5263,-1.15 -0.5263,-2.043 v -4.792 h 1.9345 v 4.839 c 0.0091,0.72 0.2484,1.08 0.7178,1.08 0.4421,0 0.7611,-0.191 0.957,-0.574 v -5.345 h 1.9483 V 235 h -1.8184 z" />
  <path
     id="path58"
     fill="#ffffff"
     d="m 60.4248,235 h -1.9414 v -10.5 h 1.9414 z" />
  <path
     id="path60"
     fill="#ffffff"
     d="m 65.4355,235 c -0.0546,-0.114 -0.1093,-0.305 -0.164,-0.574 -0.3464,0.474 -0.8158,0.711 -1.4082,0.711 -0.6198,0 -1.1348,-0.205 -1.5449,-0.616 -0.4056,-0.41 -0.6084,-0.941 -0.6084,-1.592 0,-0.775 0.2461,-1.374 0.7382,-1.798 0.4968,-0.424 1.21,-0.64 2.1397,-0.65 h 0.5879 v -0.594 c 0,-0.333 -0.057,-0.568 -0.1709,-0.704 -0.1139,-0.137 -0.2803,-0.205 -0.499,-0.205 -0.4831,0 -0.7247,0.282 -0.7247,0.847 h -1.9345 c 0,-0.683 0.2552,-1.246 0.7656,-1.688 0.515,-0.447 1.1644,-0.67 1.9482,-0.67 0.8112,0 1.4379,0.212 1.8799,0.636 0.4466,0.419 0.67,1.02 0.67,1.804 v 3.48 c 0.0091,0.638 0.1002,1.137 0.2734,1.497 V 235 Z m -1.1416,-1.381 c 0.2142,0 0.3965,-0.043 0.5469,-0.13 0.1504,-0.086 0.2621,-0.189 0.335,-0.307 v -1.538 h -0.4649 c -0.3281,0 -0.5879,0.104 -0.7793,0.314 -0.1868,0.21 -0.2802,0.49 -0.2802,0.841 0,0.547 0.2142,0.82 0.6425,0.82 z" />
  <path
     id="path62"
     fill="#ffffff"
     d="m 70.7607,225.785 v 1.819 h 0.9913 v 1.456 h -0.9913 v 3.67 c 0,0.292 0.0388,0.493 0.1163,0.602 0.082,0.109 0.2369,0.164 0.4648,0.164 0.1868,0 0.3395,-0.016 0.458,-0.048 l -0.0137,1.504 c -0.3281,0.123 -0.6836,0.185 -1.0664,0.185 -1.2487,0 -1.8799,-0.716 -1.8935,-2.147 v -3.93 h -0.8545 v -1.456 h 0.8545 v -1.819 z" />
  <path
     id="path64"
     fill="#ffffff"
     d="m 74.8486,235 h -1.9414 v -7.396 h 1.9414 z m -2.0302,-9.311 c 0,-0.3 0.0957,-0.546 0.2871,-0.738 0.1914,-0.191 0.4466,-0.287 0.7656,-0.287 0.319,0 0.5742,0.096 0.7656,0.287 0.1914,0.192 0.2871,0.438 0.2871,0.738 0,0.297 -0.0957,0.543 -0.2871,0.739 -0.1868,0.196 -0.442,0.294 -0.7656,0.294 -0.3236,0 -0.5811,-0.098 -0.7725,-0.294 -0.1868,-0.196 -0.2802,-0.442 -0.2802,-0.739 z" />
  <path
     id="path66"
     fill="#ffffff"
     d="m 76.1201,231.062 c 0,-1.121 0.2643,-2 0.793,-2.638 0.5286,-0.638 1.2601,-0.957 2.1943,-0.957 0.9434,0 1.6794,0.319 2.208,0.957 0.5287,0.638 0.793,1.522 0.793,2.652 v 0.472 c 0,1.126 -0.262,2.005 -0.7861,2.639 -0.5241,0.633 -1.2578,0.95 -2.2012,0.95 -0.9479,0 -1.6862,-0.317 -2.2149,-0.95 -0.524,-0.638 -0.7861,-1.523 -0.7861,-2.653 z m 1.9414,0.486 c 0,1.321 0.3532,1.982 1.0596,1.982 0.6517,0 1.0026,-0.551 1.0527,-1.654 l 0.0069,-0.814 c 0,-0.674 -0.0935,-1.173 -0.2803,-1.497 -0.1869,-0.328 -0.4512,-0.492 -0.793,-0.492 -0.3281,0 -0.5856,0.164 -0.7724,0.492 -0.1823,0.324 -0.2735,0.823 -0.2735,1.497 z" />
  <path
     id="path68"
     fill="#ffffff"
     d="m 85.0889,227.604 0.0547,0.731 c 0.4375,-0.579 1.0094,-0.868 1.7158,-0.868 1.2715,0 1.9254,0.891 1.9619,2.673 V 235 h -1.9414 v -4.717 c 0,-0.419 -0.0638,-0.722 -0.1914,-0.909 -0.1231,-0.191 -0.3418,-0.287 -0.6563,-0.287 -0.3509,0 -0.6243,0.18 -0.8203,0.54 V 235 h -1.9414 v -7.396 z" />
  <path
     id="path70"
     fill="#504fb6"
     d="m 78.3679,213.368 c 0.4669,0.467 1.2257,0.468 1.6736,-0.017 3.744,-4.055 6.3024,-9.07 7.3821,-14.498 1.1575,-5.82 0.5634,-11.852 -1.7072,-17.334 C 83.4458,176.038 79.6006,171.352 74.6671,168.056 69.7336,164.759 63.9335,163 58,163 c -5.9334,0 -11.7336,1.759 -16.6671,5.056 -4.9335,3.296 -8.7786,7.982 -11.0493,13.463 -2.2706,5.482 -2.8647,11.514 -1.7071,17.334 1.0797,5.428 3.6381,10.443 7.382,14.498 0.4479,0.485 1.2068,0.484 1.6736,0.017 v 0 c 0.4669,-0.467 0.4647,-1.222 0.0185,-1.709 -3.4104,-3.719 -5.7417,-8.309 -6.7292,-13.273 -1.0653,-5.355 -0.5185,-10.907 1.5712,-15.952 2.0896,-5.044 5.6284,-9.356 10.1686,-12.39 4.5403,-3.034 9.8783,-4.653 15.3388,-4.653 5.4606,0 10.7985,1.619 15.3388,4.653 4.5403,3.034 8.079,7.346 10.1687,12.39 2.0896,5.045 2.6364,10.597 1.5711,15.952 -0.9875,4.964 -3.3188,9.554 -6.7292,13.273 -0.4462,0.487 -0.4484,1.242 0.0185,1.709 z" />
  <path
     id="path72"
     fill="#ffffff"
     d="m 43.6084,324.389 c 0,-0.406 -0.1048,-0.711 -0.3145,-0.916 -0.205,-0.21 -0.581,-0.426 -1.1279,-0.65 -0.998,-0.378 -1.7158,-0.82 -2.1533,-1.326 -0.4375,-0.51 -0.6563,-1.112 -0.6563,-1.805 0,-0.838 0.2963,-1.51 0.8887,-2.016 0.597,-0.511 1.3535,-0.766 2.2695,-0.766 0.6107,0 1.1553,0.13 1.6338,0.39 0.4786,0.255 0.8454,0.617 1.1006,1.087 0.2598,0.469 0.3897,1.002 0.3897,1.599 h -2.003 c 0,-0.465 -0.1002,-0.818 -0.3007,-1.059 -0.196,-0.246 -0.4808,-0.369 -0.8545,-0.369 -0.3509,0 -0.6244,0.104 -0.8203,0.314 -0.196,0.205 -0.294,0.483 -0.294,0.834 0,0.273 0.1094,0.522 0.3281,0.745 0.2188,0.219 0.6062,0.447 1.1621,0.684 0.9707,0.351 1.6748,0.781 2.1124,1.292 0.442,0.51 0.663,1.16 0.663,1.948 0,0.866 -0.2757,1.543 -0.8271,2.03 -0.5514,0.488 -1.3011,0.732 -2.249,0.732 -0.6426,0 -1.2282,-0.132 -1.7569,-0.397 -0.5286,-0.264 -0.9433,-0.642 -1.2441,-1.135 -0.2962,-0.492 -0.4443,-1.073 -0.4443,-1.743 h 2.0166 c 0,0.575 0.1116,0.992 0.3349,1.251 0.2233,0.26 0.5879,0.39 1.0938,0.39 0.7018,0 1.0527,-0.371 1.0527,-1.114 z" />
  <path
     id="path74"
     fill="#ffffff"
     d="m 49.1182,317.785 v 1.819 h 0.9912 v 1.456 h -0.9912 v 3.67 c 0,0.292 0.0387,0.493 0.1162,0.602 0.082,0.109 0.237,0.164 0.4648,0.164 0.1869,0 0.3395,-0.016 0.458,-0.048 l -0.0136,1.504 c -0.3282,0.123 -0.6836,0.185 -1.0665,0.185 -1.2486,0 -1.8798,-0.716 -1.8935,-2.147 v -3.93 h -0.8545 v -1.456 h 0.8545 v -1.819 z" />
  <path
     id="path76"
     fill="#ffffff"
     d="m 54.6895,327 c -0.0547,-0.114 -0.1094,-0.305 -0.1641,-0.574 -0.3464,0.474 -0.8158,0.711 -1.4082,0.711 -0.6198,0 -1.1348,-0.205 -1.5449,-0.616 -0.4056,-0.41 -0.6084,-0.941 -0.6084,-1.592 0,-0.775 0.2461,-1.374 0.7382,-1.798 0.4968,-0.424 1.21,-0.64 2.1397,-0.65 h 0.5879 v -0.594 c 0,-0.333 -0.057,-0.568 -0.1709,-0.704 -0.1139,-0.137 -0.2803,-0.205 -0.499,-0.205 -0.4831,0 -0.7246,0.282 -0.7246,0.847 h -1.9346 c 0,-0.683 0.2552,-1.246 0.7656,-1.688 0.515,-0.447 1.1644,-0.67 1.9483,-0.67 0.8112,0 1.4378,0.212 1.8798,0.636 0.4467,0.419 0.67,1.02 0.67,1.804 v 3.48 c 0.0091,0.638 0.1002,1.137 0.2734,1.497 V 327 Z m -1.1416,-1.381 c 0.2141,0 0.3964,-0.043 0.5468,-0.13 0.1504,-0.086 0.2621,-0.189 0.335,-0.307 v -1.538 h -0.4649 c -0.3281,0 -0.5878,0.104 -0.7793,0.314 -0.1868,0.21 -0.2802,0.49 -0.2802,0.841 0,0.547 0.2142,0.82 0.6426,0.82 z" />
  <path
     id="path78"
     fill="#ffffff"
     d="m 57.5332,323.076 c 0,-1.212 0.2188,-2.117 0.6563,-2.714 0.4375,-0.597 1.0504,-0.895 1.8388,-0.895 0.6699,0 1.1872,0.264 1.5518,0.793 l 0.0752,-0.656 h 1.7431 V 327 c 0,0.943 -0.2643,1.663 -0.7929,2.16 -0.5287,0.501 -1.2875,0.752 -2.2764,0.752 -0.4056,0 -0.8317,-0.082 -1.2783,-0.246 -0.4466,-0.159 -0.7793,-0.365 -0.9981,-0.615 l 0.6494,-1.34 c 0.1823,0.191 0.4193,0.346 0.711,0.465 0.2917,0.123 0.5674,0.184 0.8271,0.184 0.433,0 0.7429,-0.104 0.9297,-0.314 0.1914,-0.205 0.2894,-0.538 0.294,-0.998 v -0.636 c -0.3692,0.483 -0.85,0.725 -1.4424,0.725 -0.7884,0 -1.3991,-0.306 -1.832,-0.916 -0.4284,-0.616 -0.6472,-1.481 -0.6563,-2.598 z m 1.9346,0.486 c 0,0.683 0.0888,1.182 0.2666,1.497 0.1777,0.309 0.4603,0.464 0.8476,0.464 0.3965,0 0.6905,-0.143 0.8819,-0.43 v -3.534 c -0.2006,-0.315 -0.4899,-0.472 -0.8682,-0.472 -0.3828,0 -0.6676,0.157 -0.8545,0.472 -0.1823,0.314 -0.2734,0.82 -0.2734,1.517 z" />
  <path
     id="path80"
     fill="#ffffff"
     d="m 67.7939,327.137 c -0.9934,0 -1.7682,-0.297 -2.3242,-0.889 -0.556,-0.592 -0.834,-1.44 -0.834,-2.543 v -0.588 c 0,-1.166 0.2553,-2.067 0.7657,-2.7 0.5104,-0.633 1.2418,-0.95 2.1943,-0.95 0.9297,0 1.6292,0.298 2.0986,0.895 0.4694,0.593 0.7087,1.472 0.7178,2.639 v 0.95 h -3.8486 c 0.0273,0.547 0.1481,0.948 0.3623,1.203 0.2142,0.251 0.5446,0.376 0.9912,0.376 0.6471,0 1.1872,-0.221 1.6201,-0.663 l 0.7588,1.169 c -0.237,0.328 -0.5811,0.595 -1.0322,0.8 -0.4512,0.2 -0.9411,0.301 -1.4698,0.301 z m -1.2168,-4.539 h 1.9346 v -0.178 c -0.0091,-0.442 -0.082,-0.777 -0.2187,-1.005 -0.1368,-0.228 -0.3737,-0.342 -0.711,-0.342 -0.3372,0 -0.5833,0.121 -0.7382,0.363 -0.1504,0.241 -0.2393,0.628 -0.2667,1.162 z" />
  <path
     id="path82"
     fill="#ffffff"
     d="m 74.7803,325.018 c 0,-0.164 -0.0798,-0.315 -0.2393,-0.452 -0.1549,-0.141 -0.5036,-0.33 -1.0459,-0.567 -0.7975,-0.324 -1.3467,-0.659 -1.6474,-1.005 -0.2963,-0.346 -0.4444,-0.777 -0.4444,-1.292 0,-0.647 0.2324,-1.18 0.6973,-1.599 0.4694,-0.424 1.0892,-0.636 1.8594,-0.636 0.8112,0 1.4606,0.209 1.9482,0.629 0.4876,0.419 0.7314,0.982 0.7314,1.688 h -1.9345 c 0,-0.601 -0.2507,-0.902 -0.752,-0.902 -0.2051,0 -0.3737,0.064 -0.5058,0.191 -0.1322,0.128 -0.1983,0.306 -0.1983,0.533 0,0.165 0.0729,0.31 0.2188,0.438 0.1458,0.123 0.4899,0.301 1.0322,0.533 0.7884,0.292 1.3444,0.618 1.668,0.978 0.3281,0.355 0.4922,0.818 0.4922,1.387 0,0.661 -0.2484,1.192 -0.7452,1.593 -0.4967,0.401 -1.1484,0.602 -1.955,0.602 -0.5424,0 -1.0209,-0.105 -1.4356,-0.315 -0.4147,-0.214 -0.7405,-0.51 -0.9775,-0.888 -0.2324,-0.379 -0.3487,-0.787 -0.3487,-1.224 h 1.8389 c 0.0091,0.337 0.0866,0.59 0.2324,0.759 0.1504,0.168 0.3942,0.253 0.7315,0.253 0.5195,0 0.7793,-0.235 0.7793,-0.704 z" />
  <path
     id="path84"
     fill="#504fb6"
     d="m 78.3679,305.368 c 0.4669,0.467 1.2257,0.468 1.6736,-0.017 3.744,-4.055 6.3024,-9.07 7.3821,-14.498 1.1575,-5.82 0.5634,-11.852 -1.7072,-17.334 C 83.4458,268.038 79.6006,263.352 74.6671,260.056 69.7336,256.759 63.9335,255 58,255 c -5.9334,0 -11.7336,1.759 -16.6671,5.056 -4.9335,3.296 -8.7786,7.982 -11.0493,13.463 -2.2706,5.482 -2.8647,11.514 -1.7071,17.334 1.0797,5.428 3.6381,10.443 7.382,14.498 0.4479,0.485 1.2068,0.484 1.6736,0.017 v 0 c 0.4669,-0.467 0.4647,-1.222 0.0185,-1.709 -3.4104,-3.719 -5.7417,-8.309 -6.7292,-13.273 -1.0653,-5.355 -0.5185,-10.907 1.5712,-15.952 2.0896,-5.044 5.6284,-9.356 10.1686,-12.39 4.5403,-3.034 9.8783,-4.653 15.3388,-4.653 5.4606,0 10.7985,1.619 15.3388,4.653 4.5403,3.034 8.079,7.346 10.1687,12.39 2.0896,5.045 2.6364,10.597 1.5711,15.952 -0.9875,4.964 -3.3188,9.554 -6.7292,13.273 -0.4462,0.487 -0.4484,1.242 0.0185,1.709 z" />
  <path
     id="path86"
     fill="#ffffff"
     d="m 54.186,460.793 c 0,1.05 -0.2488,1.864 -0.7465,2.444 -0.4942,0.58 -1.1817,0.87 -2.0625,0.87 -0.8773,0 -1.5666,-0.286 -2.0679,-0.859 -0.5013,-0.576 -0.7556,-1.382 -0.7627,-2.417 v -1.337 c 0,-1.075 0.2488,-1.912 0.7466,-2.514 0.4977,-0.605 1.1888,-0.908 2.0732,-0.908 0.8701,0 1.5558,0.297 2.0571,0.892 0.5013,0.591 0.7556,1.421 0.7627,2.492 z m -1.5844,-1.31 c 0,-0.705 -0.1003,-1.23 -0.3008,-1.574 -0.2005,-0.344 -0.5121,-0.515 -0.9346,-0.515 -0.4189,0 -0.7287,0.166 -0.9292,0.499 -0.2005,0.329 -0.3044,0.833 -0.3115,1.509 v 1.391 c 0,0.684 0.102,1.189 0.3061,1.515 0.2041,0.322 0.5192,0.484 0.9454,0.484 0.4117,0 0.7179,-0.158 0.9184,-0.473 0.2005,-0.319 0.3026,-0.811 0.3062,-1.477 z" />
  <path
     id="path88"
     fill="#ffffff"
     d="m 60.4058,456.18 v 5.414 c -0.0072,0.813 -0.231,1.436 -0.6714,1.869 -0.4405,0.43 -1.0725,0.644 -1.896,0.644 -0.8379,0 -1.4789,-0.218 -1.9229,-0.655 -0.4404,-0.437 -0.6606,-1.069 -0.6606,-1.896 v -5.376 h 1.5898 v 5.382 c 0,0.444 0.0716,0.76 0.2149,0.95 0.1432,0.19 0.4028,0.285 0.7788,0.285 0.376,0 0.6338,-0.093 0.7734,-0.279 0.1397,-0.19 0.2113,-0.5 0.2149,-0.93 v -5.408 z" />
  <path
     id="path90"
     fill="#ffffff"
     d="M 66.6685,457.496 H 64.7349 V 464 h -1.5845 v -6.504 H 61.249 v -1.316 h 5.4195 z" />
  <path
     id="path92"
     fill="#504fb6"
     d="m 42,413 h 31 c 3.3137,0 6,2.686 6,6 v 46 c 0,3.314 -2.6863,6 -6,6 H 42 c -3.3137,0 -6,-2.686 -6,-6 v -46 c 0,-3.314 2.6863,-6 6,-6 z m 0,2 c -2.2091,0 -4,1.791 -4,4 v 46 c 0,2.209 1.7909,4 4,4 h 31 c 2.2091,0 4,-1.791 4,-4 v -46 c 0,-2.209 -1.7909,-4 -4,-4 z"
     clip-rule="evenodd"
     fill-rule="evenodd" />
</svg>
