<?xml version="1.0" encoding="UTF-8" standalone="no"?>
<svg
   xmlns:dc="http://purl.org/dc/elements/1.1/"
   xmlns:cc="http://creativecommons.org/ns#"
   xmlns:rdf="http://www.w3.org/1999/02/22-rdf-syntax-ns#"
   xmlns:svg="http://www.w3.org/2000/svg"
   xmlns="http://www.w3.org/2000/svg"
   xmlns:sodipodi="http://sodipodi.sourceforge.net/DTD/sodipodi-0.dtd"
   xmlns:inkscape="http://www.inkscape.org/namespaces/inkscape"
   inkscape:version="1.0 (4035a4fb49, 2020-05-01)"
   sodipodi:docname="ChowRNN.svg"
   id="svg70"
   version="1.1"
   fill="none"
   viewBox="0 0 115 486"
   height="128.58749mm"
   width="30.427084mm">
  <metadata
     id="metadata76">
    <rdf:RDF>
      <cc:Work
         rdf:about="">
        <dc:format>image/svg+xml</dc:format>
        <dc:type
           rdf:resource="http://purl.org/dc/dcmitype/StillImage" />
        <dc:title></dc:title>
      </cc:Work>
    </rdf:RDF>
  </metadata>
  <defs
     id="defs74" />
  <sodipodi:namedview
     inkscape:current-layer="svg70"
     inkscape:window-maximized="1"
     inkscape:window-y="-9"
     inkscape:window-x="-9"
     inkscape:cy="243"
     inkscape:cx="57.5"
     inkscape:zoom="1.7078189"
     units="mm"
     inkscape:document-units="mm"
     showgrid="false"
     id="namedview72"
     inkscape:window-height="1001"
     inkscape:window-width="1920"
     inkscape:pageshadow="2"
     inkscape:pageopacity="0"
     guidetolerance="10"
     gridtolerance="10"
     objecttolerance="10"
     borderopacity="1"
     bordercolor="#666666"
     pagecolor="#ffffff" />
  <path
     id="path2"
     fill="#16161d"
     d="M 0,0 H 115 V 486 H 0 Z" />
  <path
     id="path4"
     fill="#ffffff"
     d="M 33.0884,395.143 H 32.3042 V 398 h -1.5791 v -7.82 h 2.519 c 0.7914,0 1.4019,0.206 1.8316,0.617 0.4333,0.409 0.6499,0.99 0.6499,1.746 0,1.038 -0.3778,1.765 -1.1333,2.181 l 1.3696,3.201 V 398 h -1.6973 z m -0.7842,-1.316 h 0.897 c 0.3151,0 0.5514,-0.104 0.709,-0.312 0.1575,-0.211 0.2363,-0.492 0.2363,-0.843 0,-0.784 -0.3062,-1.176 -0.9185,-1.176 h -0.9238 z" />
  <path
     id="path6"
     fill="#ffffff"
     d="M 40.5435,396.399 H 38.3896 L 37.9707,398 h -1.6704 l 2.4438,-7.82 h 1.4449 l 2.4599,7.82 h -1.6865 z m -1.8101,-1.316 h 1.4609 l -0.7304,-2.787 z" />
  <path
     id="path8"
     fill="#ffffff"
     d="m 48.8525,398 h -1.5791 l -2.3095,-5.129 V 398 h -1.5791 v -7.82 h 1.5791 l 2.3149,5.134 v -5.134 h 1.5737 z" />
  <path
     id="path10"
     fill="#ffffff"
     d="m 50.1201,398 v -7.82 h 2.0679 c 0.9131,0 1.64,0.29 2.1807,0.87 0.5442,0.58 0.8217,1.375 0.8325,2.385 v 1.267 c 0,1.028 -0.2722,1.835 -0.8164,2.423 C 53.8441,397.708 53.0975,398 52.145,398 Z m 1.5791,-6.504 v 5.193 h 0.4727 c 0.5263,0 0.8969,-0.137 1.1118,-0.413 0.2148,-0.279 0.3276,-0.759 0.3384,-1.44 v -1.358 c 0,-0.731 -0.1021,-1.239 -0.3062,-1.526 -0.2041,-0.29 -0.5514,-0.442 -1.042,-0.456 z" />
  <path
     id="path12"
     fill="#ffffff"
     d="m 61.8452,394.793 c 0,1.05 -0.2488,1.864 -0.7466,2.444 -0.4941,0.58 -1.1816,0.87 -2.0625,0.87 -0.8772,0 -1.5665,-0.286 -2.0678,-0.859 -0.5013,-0.576 -0.7556,-1.382 -0.7627,-2.417 v -1.337 c 0,-1.075 0.2488,-1.912 0.7465,-2.514 0.4978,-0.605 1.1889,-0.908 2.0733,-0.908 0.8701,0 1.5558,0.297 2.0571,0.892 0.5013,0.591 0.7556,1.421 0.7627,2.492 z m -1.5845,-1.31 c 0,-0.705 -0.1002,-1.23 -0.3007,-1.574 -0.2006,-0.344 -0.5121,-0.515 -0.9346,-0.515 -0.419,0 -0.7287,0.166 -0.9292,0.499 -0.2005,0.329 -0.3044,0.833 -0.3115,1.509 v 1.391 c 0,0.684 0.102,1.189 0.3061,1.515 0.2041,0.322 0.5192,0.484 0.9453,0.484 0.4118,0 0.718,-0.158 0.9185,-0.473 0.2005,-0.319 0.3026,-0.811 0.3061,-1.477 z" />
  <path
     id="path14"
     fill="#ffffff"
     d="m 65.041,390.18 1.4771,5.655 1.4716,-5.655 h 2.0625 V 398 h -1.5844 v -2.116 l 0.145,-3.26 -1.563,5.376 h -1.0742 l -1.563,-5.376 0.145,3.26 V 398 h -1.5791 v -7.82 z" />
  <path
     id="path16"
     fill="#ffffff"
     d="M 72.9741,398 H 71.395 v -7.82 h 1.5791 z" />
  <path
     id="path18"
     fill="#ffffff"
     d="m 75.939,396.689 h 3.2226 V 398 h -5.0703 v -0.951 l 3.1904,-5.553 h -3.2226 v -1.316 h 5.0434 v 0.929 z" />
  <path
     id="path20"
     fill="#ffffff"
     d="m 84.1729,394.616 h -2.46 v 2.073 H 84.624 V 398 h -4.4902 v -7.82 h 4.4795 v 1.316 h -2.9004 v 1.847 h 2.46 z" />
  <path
     id="path22"
     fill="#4fa3b6"
     d="m 7,0 h 101 v 47 c 0,2.2091 -1.791,4 -4,4 H 11 C 8.79086,51 7,49.2091 7,47 Z" />
  <path
     id="path24"
     fill="#ffffff"
     d="m 54.186,460.793 c 0,1.05 -0.2488,1.864 -0.7465,2.444 -0.4942,0.58 -1.1817,0.87 -2.0625,0.87 -0.8773,0 -1.5666,-0.286 -2.0679,-0.859 -0.5013,-0.576 -0.7556,-1.382 -0.7627,-2.417 v -1.337 c 0,-1.075 0.2488,-1.912 0.7466,-2.514 0.4977,-0.605 1.1888,-0.908 2.0732,-0.908 0.8701,0 1.5558,0.297 2.0571,0.892 0.5013,0.591 0.7556,1.421 0.7627,2.492 z m -1.5844,-1.31 c 0,-0.705 -0.1003,-1.23 -0.3008,-1.574 -0.2005,-0.344 -0.5121,-0.515 -0.9346,-0.515 -0.4189,0 -0.7287,0.166 -0.9292,0.499 -0.2005,0.329 -0.3044,0.833 -0.3115,1.509 v 1.391 c 0,0.684 0.102,1.189 0.3061,1.515 0.2041,0.322 0.5192,0.484 0.9454,0.484 0.4117,0 0.7179,-0.158 0.9184,-0.473 0.2005,-0.319 0.3026,-0.811 0.3062,-1.477 z" />
  <path
     id="path26"
     fill="#ffffff"
     d="m 60.4058,456.18 v 5.414 c -0.0072,0.813 -0.231,1.436 -0.6714,1.869 -0.4405,0.43 -1.0725,0.644 -1.896,0.644 -0.8379,0 -1.4789,-0.218 -1.9229,-0.655 -0.4404,-0.437 -0.6606,-1.069 -0.6606,-1.896 v -5.376 h 1.5898 v 5.382 c 0,0.444 0.0716,0.76 0.2149,0.95 0.1432,0.19 0.4028,0.285 0.7788,0.285 0.376,0 0.6338,-0.093 0.7734,-0.279 0.1397,-0.19 0.2113,-0.5 0.2149,-0.93 v -5.408 z" />
  <path
     id="path28"
     fill="#ffffff"
     d="M 66.6685,457.496 H 64.7349 V 464 h -1.5845 v -6.504 H 61.249 v -1.316 h 5.4195 z" />
  <path
     id="path30"
     fill="#4fa3b6"
     d="m 42,413 h 31 c 3.3137,0 6,2.686 6,6 v 46 c 0,3.314 -2.6863,6 -6,6 H 42 c -3.3137,0 -6,-2.686 -6,-6 v -46 c 0,-3.314 2.6863,-6 6,-6 z m 0,2 c -2.2091,0 -4,1.791 -4,4 v 46 c 0,2.209 1.7909,4 4,4 h 31 c 2.2091,0 4,-1.791 4,-4 v -46 c 0,-2.209 -1.7909,-4 -4,-4 z"
     clip-rule="evenodd"
     fill-rule="evenodd" />
  <path
     id="path32"
     fill="#ffffff"
     d="m 52.1396,119 h -1.5791 v -7.82 h 1.5791 z" />
  <path
     id="path34"
     fill="#ffffff"
     d="M 58.9341,119 H 57.355 l -2.3096,-5.129 V 119 h -1.5791 v -7.82 h 1.5791 l 2.315,5.134 v -5.134 h 1.5737 z" />
  <path
     id="path36"
     fill="#ffffff"
     d="m 63.4297,119 h -1.5254 v -5.973 l -1.4878,0.575 v -1.268 l 2.8521,-1.165 h 0.1611 z" />
  <path
     id="path38"
     fill="#ffffff"
     d="m 52.1396,183 h -1.5791 v -7.82 h 1.5791 z" />
  <path
     id="path40"
     fill="#ffffff"
     d="M 58.9341,183 H 57.355 l -2.3096,-5.129 V 183 h -1.5791 v -7.82 h 1.5791 l 2.315,5.134 v -5.134 h 1.5737 z" />
  <path
     id="path42"
     fill="#ffffff"
     d="m 64.6919,183 h -4.6084 v -1.074 l 2.1162,-2.691 c 0.2686,-0.373 0.4655,-0.698 0.5908,-0.978 0.1289,-0.283 0.1934,-0.553 0.1934,-0.811 0,-0.347 -0.0609,-0.619 -0.1826,-0.816 -0.1182,-0.197 -0.2901,-0.296 -0.5157,-0.296 -0.247,0 -0.444,0.115 -0.5908,0.344 -0.1432,0.229 -0.2148,0.552 -0.2148,0.967 h -1.5254 c 0,-0.48 0.0985,-0.918 0.2954,-1.316 0.2005,-0.397 0.4798,-0.705 0.8379,-0.924 0.3616,-0.222 0.7698,-0.333 1.2246,-0.333 0.6982,0 1.2389,0.194 1.6221,0.58 0.3867,0.383 0.58,0.93 0.58,1.639 0,0.44 -0.1074,0.888 -0.3222,1.342 -0.2113,0.451 -0.5962,1.008 -1.1548,1.671 l -1.0044,1.434 h 2.6587 z" />
  <path
     id="path44"
     fill="#ffffff"
     d="m 52.1396,247 h -1.5791 v -7.82 h 1.5791 z" />
  <path
     id="path46"
     fill="#ffffff"
     d="M 58.9341,247 H 57.355 l -2.3096,-5.129 V 247 h -1.5791 v -7.82 h 1.5791 l 2.315,5.134 v -5.134 h 1.5737 z" />
  <path
     id="path48"
     fill="#ffffff"
     d="m 61.437,242.397 h 0.7359 c 0.2792,0 0.4833,-0.097 0.6123,-0.29 0.1324,-0.197 0.1987,-0.458 0.1987,-0.784 0,-0.312 -0.068,-0.553 -0.2041,-0.725 -0.1325,-0.176 -0.3115,-0.264 -0.5371,-0.264 -0.2113,0 -0.385,0.083 -0.521,0.248 -0.1325,0.164 -0.1988,0.372 -0.1988,0.623 h -1.52 c 0,-0.409 0.0931,-0.774 0.2793,-1.096 0.1898,-0.326 0.453,-0.58 0.7896,-0.763 0.3401,-0.182 0.7161,-0.274 1.1279,-0.274 0.7197,0 1.2837,0.199 1.6919,0.596 0.4082,0.398 0.6123,0.942 0.6123,1.633 0,0.355 -0.0931,0.684 -0.2793,0.989 -0.1826,0.3 -0.4243,0.531 -0.7251,0.692 0.3688,0.158 0.6428,0.394 0.8218,0.709 0.1826,0.316 0.2739,0.688 0.2739,1.118 0,0.694 -0.222,1.251 -0.666,1.67 -0.4404,0.419 -1.0205,0.628 -1.7402,0.628 -0.6696,0 -1.2139,-0.205 -1.6328,-0.617 -0.4154,-0.416 -0.6231,-0.96 -0.6231,-1.633 h 1.52 c 0,0.279 0.0734,0.514 0.2202,0.704 0.1468,0.189 0.333,0.284 0.5586,0.284 0.2614,0 0.4673,-0.096 0.6177,-0.29 0.154,-0.193 0.231,-0.451 0.231,-0.773 0,-0.77 -0.299,-1.157 -0.897,-1.16 H 61.437 Z" />
  <path
     id="path50"
     fill="#ffffff"
     d="m 52.1396,311 h -1.5791 v -7.82 h 1.5791 z" />
  <path
     id="path52"
     fill="#ffffff"
     d="M 58.9341,311 H 57.355 l -2.3096,-5.129 V 311 h -1.5791 v -7.82 h 1.5791 l 2.315,5.134 v -5.134 h 1.5737 z" />
  <path
     id="path54"
     fill="#ffffff"
     d="m 64.0903,308.046 h 0.666 v 1.262 h -0.666 V 311 h -1.52 v -1.692 h -2.5889 l -0.0698,-0.983 2.6533,-5.145 h 1.5254 z m -2.7016,0 h 1.1816 v -2.616 l -0.0322,0.059 z" />
  <path
     id="path56"
     fill="#ffffff"
     d="m 32.5078,26.2109 c -0.0573,1.2969 -0.4219,2.2787 -1.0937,2.9453 -0.6719,0.6667 -1.6198,1 -2.8438,1 -1.2864,0 -2.2734,-0.4218 -2.9609,-1.2656 -0.6823,-0.8489 -1.0235,-2.0573 -1.0235,-3.625 v -1.914 c 0,-1.5625 0.3542,-2.7657 1.0625,-3.6094 0.7084,-0.849 1.6927,-1.2734 2.9532,-1.2734 1.2395,0 2.1796,0.3463 2.8203,1.039 0.6458,0.6927 1.013,1.6875 1.1015,2.9844 h -2.3046 c -0.0209,-0.8021 -0.1459,-1.3542 -0.375,-1.6563 -0.224,-0.3073 -0.6381,-0.4609 -1.2422,-0.4609 -0.6146,0 -1.0495,0.2161 -1.3047,0.6484 -0.2552,0.4271 -0.3907,1.1328 -0.4063,2.1172 v 2.1485 c 0,1.1302 0.125,1.9062 0.375,2.3281 0.2552,0.4219 0.6901,0.6328 1.3047,0.6328 0.6042,0 1.0208,-0.1458 1.25,-0.4375 0.2292,-0.2969 0.3594,-0.8307 0.3906,-1.6016 z" />
  <path
     id="path58"
     fill="#ffffff"
     d="m 35.9688,22.2891 c 0.4791,-0.599 1.0677,-0.8985 1.7656,-0.8985 0.7708,0 1.3567,0.2709 1.7578,0.8125 0.401,0.5417 0.6042,1.349 0.6094,2.4219 V 30 h -2.2188 v -5.3516 c 0,-0.4948 -0.0781,-0.8515 -0.2344,-1.0703 -0.151,-0.2239 -0.3984,-0.3359 -0.7422,-0.3359 -0.401,0 -0.7135,0.1849 -0.9374,0.5547 V 30 h -2.211 V 18 h 2.211 z" />
  <path
     id="path60"
     fill="#ffffff"
     d="m 41.4297,25.5 c 0,-1.2812 0.3021,-2.2865 0.9062,-3.0156 0.6042,-0.7292 1.4401,-1.0938 2.5079,-1.0938 1.0781,0 1.9192,0.3646 2.5234,1.0938 0.6042,0.7291 0.9062,1.7396 0.9062,3.0312 v 0.5391 c 0,1.2864 -0.2994,2.2917 -0.8984,3.0156 -0.599,0.724 -1.4375,1.0859 -2.5156,1.0859 -1.0834,0 -1.9271,-0.3619 -2.5313,-1.0859 -0.5989,-0.7292 -0.8984,-1.7396 -0.8984,-3.0312 z m 2.2187,0.5547 c 0,1.5104 0.4037,2.2656 1.211,2.2656 0.7448,0 1.1458,-0.6302 1.2031,-1.8906 L 46.0703,25.5 c 0,-0.7708 -0.1068,-1.3411 -0.3203,-1.7109 -0.2135,-0.375 -0.5156,-0.5625 -0.9062,-0.5625 -0.375,0 -0.6693,0.1875 -0.8829,0.5625 -0.2083,0.3698 -0.3125,0.9401 -0.3125,1.7109 z" />
  <path
     id="path62"
     fill="#ffffff"
     d="m 55.8125,26.2891 0.7578,-4.7422 h 2.1172 L 56.9375,30 H 55.1016 L 53.9062,25.1094 52.7109,30 h -1.8437 l -1.75,-8.4531 h 2.125 l 0.75,4.75 1.125,-4.75 h 1.5703 z" />
  <path
     id="path64"
     fill="#ffffff"
     d="M 67.0234,25.8438 H 65.8828 V 30 H 63.5859 V 18.625 H 67.25 c 1.151,0 2.0391,0.2995 2.6641,0.8984 0.6302,0.5938 0.9453,1.4401 0.9453,2.5391 0,1.5104 -0.5495,2.5677 -1.6485,3.1719 l 1.9922,4.6562 V 30 h -2.4687 z m -1.1406,-1.9141 h 1.3047 c 0.4583,0 0.8021,-0.1511 1.0313,-0.4531 0.2291,-0.3073 0.3437,-0.7162 0.3437,-1.2266 0,-1.1406 -0.4453,-1.7109 -1.3359,-1.7109 h -1.3438 z" />
  <path
     id="path66"
     fill="#ffffff"
     d="M 80.3906,30 H 78.0938 L 74.7344,22.5391 V 30 H 72.4375 V 18.625 h 2.2969 l 3.3672,7.4688 V 18.625 h 2.289 z" />
  <path
     id="path68"
     fill="#ffffff"
     d="M 90.1875,30 H 87.8906 L 84.5312,22.5391 V 30 H 82.2344 V 18.625 h 2.2968 l 3.3672,7.4688 V 18.625 h 2.2891 z" />
</svg>
