<?xml version="1.0" encoding="UTF-8" standalone="no"?>
<svg
   xmlns:dc="http://purl.org/dc/elements/1.1/"
   xmlns:cc="http://creativecommons.org/ns#"
   xmlns:rdf="http://www.w3.org/1999/02/22-rdf-syntax-ns#"
   xmlns:svg="http://www.w3.org/2000/svg"
   xmlns="http://www.w3.org/2000/svg"
   xmlns:sodipodi="http://sodipodi.sourceforge.net/DTD/sodipodi-0.dtd"
   xmlns:inkscape="http://www.inkscape.org/namespaces/inkscape"
   inkscape:version="1.0 (4035a4fb49, 2020-05-01)"
   sodipodi:docname="ChowTapeCompression.svg"
   id="svg909"
   version="1.1"
   fill="none"
   viewBox="0 0 115 486"
   height="128.58749mm"
   width="30.427084mm">
  <metadata
     id="metadata915">
    <rdf:RDF>
      <cc:Work
         rdf:about="">
        <dc:format>image/svg+xml</dc:format>
        <dc:type
           rdf:resource="http://purl.org/dc/dcmitype/StillImage" />
        <dc:title />
      </cc:Work>
    </rdf:RDF>
  </metadata>
  <defs
     id="defs913" />
  <sodipodi:namedview
     inkscape:current-layer="svg909"
     inkscape:window-maximized="0"
     inkscape:window-y="0"
     inkscape:window-x="589"
     inkscape:cy="230.56136"
     inkscape:cx="57.250302"
     inkscape:zoom="1"
     units="mm"
     inkscape:document-units="mm"
     showgrid="false"
     id="namedview911"
     inkscape:window-height="991"
     inkscape:window-width="1313"
     inkscape:pageshadow="2"
     inkscape:pageopacity="0"
     guidetolerance="10"
     gridtolerance="10"
     objecttolerance="10"
     borderopacity="1"
     bordercolor="#666666"
     pagecolor="#ffffff"
     inkscape:document-rotation="0" />
  <rect
     y="0"
     x="0"
     id="rect833"
     fill="#16161d"
     height="486"
     width="115" />
  <path
     id="path835"
     fill="#852c2c"
     d="m 7,0 h 101 v 47 c 0,2.2091 -1.791,4 -4,4 H 11 C 8.79086,51 7,49.2091 7,47 Z" />
  <g
     id="g875">
    <path
       d="m 31.7266,16.2109 c -0.0573,1.2969 -0.4219,2.2787 -1.0938,2.9453 -0.6719,0.6667 -1.6198,1 -2.8437,1 -1.2865,0 -2.2735,-0.4218 -2.961,-1.2656 -0.6823,-0.8489 -1.0234,-2.0573 -1.0234,-3.625 v -1.914 c 0,-1.5625 0.3542,-2.7657 1.0625,-3.6094001 0.7083,-0.849 1.6927,-1.2734 2.9531,-1.2734 1.2396,0 2.1797,0.3463 2.8203,1.039 0.6459,0.6927001 1.013,1.6875001 1.1016,2.9844001 h -2.3047 c -0.0208,-0.8021 -0.1458,-1.3542 -0.375,-1.6563 -0.224,-0.3073 -0.638,-0.4609 -1.2422,-0.4609 -0.6146,0 -1.0495,0.2161 -1.3047,0.6484 -0.2552,0.4271 -0.3906,1.1328 -0.4062,2.1172 v 2.1485 c 0,1.1302 0.125,1.9062 0.375,2.3281 0.2552,0.4219 0.6901,0.6328 1.3047,0.6328 0.6041,0 1.0208,-0.1458 1.25,-0.4375 0.2291,-0.2969 0.3593,-0.8307 0.3906,-1.6016 z"
       fill="#ffffff"
       id="path837" />
    <path
       d="m 35.1875,12.2891 c 0.4792,-0.599 1.0677,-0.8985 1.7656,-0.8985 0.7709,0 1.3568,0.2709 1.7578,0.8125 0.4011,0.5417 0.6042,1.349 0.6094,2.4219 V 20 h -2.2187 v -5.3516 c 0,-0.4948 -0.0782,-0.8515 -0.2344,-1.0703 -0.1511,-0.2239 -0.3984,-0.3359 -0.7422,-0.3359 -0.401,0 -0.7135,0.1849 -0.9375,0.5547 V 20 H 32.9766 V 7.9999998 h 2.2109 z"
       fill="#ffffff"
       id="path839" />
    <path
       d="m 40.6484,15.5 c 0,-1.2812 0.3021,-2.2865 0.9063,-3.0156 0.6042,-0.7292 1.4401,-1.0938 2.5078,-1.0938 1.0781,0 1.9193,0.3646 2.5234,1.0938 0.6042,0.7291 0.9063,1.7396 0.9063,3.0312 v 0.5391 c 0,1.2864 -0.2995,2.2917 -0.8984,3.0156 -0.599,0.724 -1.4376,1.0859 -2.5157,1.0859 -1.0833,0 -1.9271,-0.3619 -2.5312,-1.0859 -0.599,-0.7292 -0.8985,-1.7396 -0.8985,-3.0312 z m 2.2188,0.5547 c 0,1.5104 0.4036,2.2656 1.2109,2.2656 0.7448,0 1.1459,-0.6302 1.2031,-1.8906 L 45.2891,15.5 c 0,-0.7708 -0.1068,-1.3411 -0.3203,-1.7109 -0.2136,-0.375 -0.5157,-0.5625 -0.9063,-0.5625 -0.375,0 -0.6693,0.1875 -0.8828,0.5625 -0.2083,0.3698 -0.3125,0.9401 -0.3125,1.7109 z"
       fill="#ffffff"
       id="path841" />
    <path
       d="m 55.0312,16.2891 0.7579,-4.7422 h 2.1171 L 56.1562,20 H 54.3203 L 53.125,15.1094 51.9297,20 h -1.8438 l -1.75,-8.4531 h 2.125 l 0.75,4.75 1.125,-4.75 h 1.5703 z"
       fill="#ffffff"
       id="path843" />
    <path
       d="M 69.6953,10.5391 H 66.8828 V 20 H 64.5781 V 10.5391 H 61.8125 V 8.6249999 h 7.8828 z"
       fill="#ffffff"
       id="path845" />
    <path
       d="m 73.6094,20 c -0.0625,-0.1302 -0.125,-0.349 -0.1875,-0.6562 -0.3959,0.5416 -0.9323,0.8124 -1.6094,0.8124 -0.7083,0 -1.2969,-0.2343 -1.7656,-0.7031 -0.4636,-0.4687 -0.6953,-1.0755 -0.6953,-1.8203 0,-0.8854 0.2812,-1.5703 0.8437,-2.0547 0.5677,-0.4843 1.3828,-0.7317 2.4453,-0.7422 h 0.6719 v -0.6797 c 0,-0.3802 -0.0651,-0.6484 -0.1953,-0.8046 -0.1302,-0.1563 -0.3203,-0.2344 -0.5703,-0.2344 -0.5521,0 -0.8281,0.3229 -0.8281,0.9687 h -2.211 c 0,-0.7812 0.2917,-1.4244 0.875,-1.9297 0.5886,-0.5104 1.3307,-0.7656 2.2266,-0.7656 0.9271,0 1.6432,0.2422 2.1484,0.7266 0.5104,0.4792 0.7656,1.1667 0.7656,2.0625 v 3.9765 c 0.0105,0.7292 0.1146,1.2995 0.3125,1.711 V 20 Z m -1.3047,-1.5781 c 0.2448,0 0.4531,-0.0495 0.625,-0.1485 0.1719,-0.0989 0.2995,-0.2161 0.3828,-0.3515 v -1.7578 h -0.5313 c -0.375,0 -0.6718,0.1198 -0.8906,0.3593 -0.2135,0.2396 -0.3203,0.5599 -0.3203,0.961 0,0.625 0.2448,0.9375 0.7344,0.9375 z"
       fill="#ffffff"
       id="path847" />
    <path
       d="m 83.7109,16.0391 c 0,1.3281 -0.2291,2.3463 -0.6875,3.0547 -0.4531,0.7083 -1.1302,1.0624 -2.0312,1.0624 -0.6875,0 -1.2396,-0.2786 -1.6563,-0.8359 V 23.25 H 77.125 V 11.5469 h 2.0469 l 0.0781,0.7734 c 0.4219,-0.6198 0.9974,-0.9297 1.7266,-0.9297 0.901,0 1.5781,0.3282 2.0312,0.9844 0.4583,0.6562 0.6927,1.6615 0.7031,3.0156 z m -2.2031,-0.5547 c 0,-0.8177 -0.0911,-1.3959 -0.2734,-1.7344 -0.1771,-0.3385 -0.4792,-0.5078 -0.9063,-0.5078 -0.4531,0 -0.7838,0.1901 -0.9922,0.5703 v 3.9609 c 0.198,0.3646 0.5339,0.5469 1.0079,0.5469 0.4374,0 0.7395,-0.1849 0.9062,-0.5547 0.1719,-0.3698 0.2578,-0.9453 0.2578,-1.7265 z"
       fill="#ffffff"
       id="path849" />
    <path
       d="m 88.4609,20.1562 c -1.1354,0 -2.0208,-0.3385 -2.6562,-1.0156 -0.6354,-0.6771 -0.9531,-1.6458 -0.9531,-2.9062 v -0.6719 c 0,-1.3333 0.2916,-2.362 0.875,-3.0859 0.5833,-0.724 1.4192,-1.086 2.5078,-1.086 1.0625,0 1.862,0.3412 2.3984,1.0235 0.5365,0.677 0.8099,1.6823 0.8203,3.0156 v 1.0859 h -4.3984 c 0.0312,0.625 0.1693,1.0834 0.4141,1.375 0.2447,0.2865 0.6223,0.4297 1.1328,0.4297 0.7395,0 1.3567,-0.2526 1.8515,-0.7578 l 0.8672,1.3359 c -0.2708,0.375 -0.6641,0.6797 -1.1797,0.9141 -0.5156,0.2292 -1.0755,0.3437 -1.6797,0.3437 z m -1.3906,-5.1874 h 2.2109 v -0.2032 c -0.0104,-0.5052 -0.0937,-0.888 -0.25,-1.1484 -0.1562,-0.2604 -0.427,-0.3906 -0.8124,-0.3906 -0.3855,0 -0.6667,0.138 -0.8438,0.414 -0.1719,0.2761 -0.2734,0.7188 -0.3047,1.3282 z"
       fill="#ffffff"
       id="path851" />
  </g>
  <path
     id="path853"
     fill="#852c2c"
     d="m 78.3679,121.368 c 0.4668,0.467 1.2257,0.468 1.6736,-0.017 3.7439,-4.055 6.3024,-9.07 7.3821,-14.498 1.1575,-5.82 0.5634,-11.8517 -1.7072,-17.3335 C 83.4458,84.0377 79.6006,79.3524 74.6671,76.0559 69.7336,72.7595 63.9334,71 58,71 c -5.9334,0 -11.7336,1.7595 -16.6671,5.0559 -4.9335,3.2965 -8.7787,7.9818 -11.0493,13.4636 -2.2706,5.4818 -2.8647,11.5135 -1.7072,17.3335 1.0797,5.428 3.6382,10.443 7.3821,14.498 0.4479,0.485 1.2068,0.484 1.6736,0.017 v 0 c 0.4669,-0.467 0.4647,-1.222 0.0185,-1.709 -3.4104,-3.719 -5.7417,-8.309 -6.7292,-13.273 -1.0653,-5.355 -0.5185,-10.9066 1.5712,-15.9515 2.0896,-5.0449 5.6283,-9.3569 10.1686,-12.3906 4.5403,-3.0337 9.8782,-4.653 15.3388,-4.653 5.4606,0 10.7985,1.6193 15.3388,4.653 4.5403,3.0337 8.079,7.3457 10.1686,12.3906 2.0897,5.0449 2.6365,10.5965 1.5712,15.9515 -0.9875,4.964 -3.3188,9.554 -6.7292,13.273 -0.4462,0.487 -0.4484,1.242 0.0185,1.709 z" />
  <path
     id="path855"
     fill="#852c2c"
     d="m 78.3679,213.368 c 0.4668,0.467 1.2257,0.468 1.6736,-0.017 3.7439,-4.055 6.3024,-9.07 7.3821,-14.498 1.1575,-5.82 0.5634,-11.852 -1.7072,-17.333 C 83.4458,176.038 79.6006,171.352 74.6671,168.056 69.7336,164.76 63.9334,163 58,163 c -5.9334,0 -11.7336,1.759 -16.6671,5.056 -4.9335,3.296 -8.7787,7.982 -11.0493,13.464 -2.2706,5.481 -2.8647,11.513 -1.7072,17.333 1.0797,5.428 3.6382,10.443 7.3821,14.498 0.4479,0.485 1.2068,0.484 1.6736,0.017 v 0 c 0.4669,-0.467 0.4647,-1.222 0.0185,-1.709 -3.4104,-3.719 -5.7417,-8.309 -6.7292,-13.273 -1.0653,-5.355 -0.5185,-10.907 1.5712,-15.952 2.0896,-5.044 5.6283,-9.356 10.1686,-12.39 4.5403,-3.034 9.8782,-4.653 15.3388,-4.653 5.4606,0 10.7985,1.619 15.3388,4.653 4.5403,3.034 8.079,7.346 10.1686,12.39 2.0897,5.045 2.6365,10.597 1.5712,15.952 -0.9875,4.964 -3.3188,9.554 -6.7292,13.273 -0.4462,0.487 -0.4484,1.242 0.0185,1.709 z" />
  <path
     id="path895"
     fill="#ffffff"
     d="m 54.9219,403 h -1.5791 v -7.82 h 1.5791 z" />
  <path
     id="path897"
     fill="#ffffff"
     d="m 61.7163,403 h -1.5791 l -2.3096,-5.129 V 403 h -1.5791 v -7.82 h 1.5791 l 2.315,5.134 v -5.134 h 1.5737 z" />
  <path
     id="path899"
     fill="#ffffff"
     d="m 54.186,460.793 c 0,1.05 -0.2488,1.864 -0.7465,2.444 -0.4942,0.58 -1.1817,0.87 -2.0625,0.87 -0.8773,0 -1.5666,-0.286 -2.0679,-0.859 -0.5013,-0.576 -0.7556,-1.382 -0.7627,-2.417 v -1.337 c 0,-1.075 0.2488,-1.912 0.7466,-2.514 0.4977,-0.605 1.1888,-0.908 2.0732,-0.908 0.8701,0 1.5558,0.297 2.0571,0.892 0.5013,0.591 0.7556,1.421 0.7627,2.492 z m -1.5844,-1.31 c 0,-0.705 -0.1003,-1.23 -0.3008,-1.574 -0.2005,-0.344 -0.5121,-0.515 -0.9346,-0.515 -0.4189,0 -0.7287,0.166 -0.9292,0.499 -0.2005,0.329 -0.3044,0.833 -0.3115,1.509 v 1.391 c 0,0.684 0.102,1.189 0.3061,1.515 0.2041,0.322 0.5192,0.484 0.9454,0.484 0.4117,0 0.7179,-0.158 0.9184,-0.473 0.2005,-0.319 0.3026,-0.811 0.3062,-1.477 z" />
  <path
     id="path901"
     fill="#ffffff"
     d="m 60.4058,456.18 v 5.414 c -0.0072,0.813 -0.231,1.436 -0.6714,1.869 -0.4405,0.43 -1.0725,0.644 -1.896,0.644 -0.8379,0 -1.4789,-0.218 -1.9229,-0.655 -0.4404,-0.437 -0.6606,-1.069 -0.6606,-1.896 v -5.376 h 1.5898 v 5.382 c 0,0.444 0.0716,0.76 0.2149,0.95 0.1432,0.19 0.4028,0.285 0.7788,0.285 0.376,0 0.6338,-0.093 0.7734,-0.279 0.1397,-0.19 0.2113,-0.5 0.2149,-0.93 v -5.408 z" />
  <path
     id="path903"
     fill="#ffffff"
     d="M 66.6685,457.496 H 64.7349 V 464 h -1.5845 v -6.504 H 61.249 v -1.316 h 5.4195 z" />
  <path
     id="path905"
     fill="#852c2c"
     d="m 78.3679,305.368 c 0.4668,0.467 1.2257,0.468 1.6736,-0.017 3.7439,-4.055 6.3024,-9.07 7.3821,-14.498 1.1575,-5.82 0.5634,-11.852 -1.7072,-17.334 C 83.4458,268.038 79.6006,263.352 74.6671,260.056 69.7336,256.759 63.9334,255 58,255 c -5.9334,0 -11.7336,1.759 -16.6671,5.056 -4.9335,3.296 -8.7787,7.982 -11.0493,13.463 -2.2706,5.482 -2.8647,11.514 -1.7072,17.334 1.0797,5.428 3.6382,10.443 7.3821,14.498 0.4479,0.485 1.2068,0.484 1.6736,0.017 v 0 c 0.4669,-0.467 0.4647,-1.222 0.0185,-1.709 -3.4104,-3.719 -5.7417,-8.309 -6.7292,-13.273 -1.0653,-5.355 -0.5185,-10.907 1.5712,-15.952 2.0896,-5.044 5.6283,-9.356 10.1686,-12.39 4.5403,-3.034 9.8782,-4.653 15.3388,-4.653 5.4606,0 10.7985,1.619 15.3388,4.653 4.5403,3.034 8.079,7.346 10.1686,12.39 2.0897,5.045 2.6365,10.597 1.5712,15.952 -0.9875,4.964 -3.3188,9.554 -6.7292,13.273 -0.4462,0.487 -0.4484,1.242 0.0185,1.709 z" />
  <path
     id="path907"
     fill="#852c2c"
     d="m 42,413 h 31 c 3.3137,0 6,2.686 6,6 v 46 c 0,3.314 -2.6863,6 -6,6 H 42 c -3.3137,0 -6,-2.686 -6,-6 v -46 c 0,-3.314 2.6863,-6 6,-6 z m 0,2 c -2.2091,0 -4,1.791 -4,4 v 46 c 0,2.209 1.7909,4 4,4 h 31 c 2.2091,0 4,-1.791 4,-4 v -46 c 0,-2.209 -1.7909,-4 -4,-4 z"
     clip-rule="evenodd"
     fill-rule="evenodd" />
  <g
     style="font-style:normal;font-variant:normal;font-weight:bold;font-stretch:normal;font-size:16px;line-height:1.25;font-family:'Roboto Condensed';-inkscape-font-specification:'Roboto Condensed, Bold';font-variant-ligatures:normal;font-variant-caps:normal;font-variant-numeric:normal;font-variant-east-asian:normal;letter-spacing:0px;word-spacing:0px;fill:#ffffff;fill-opacity:1"
     id="text879"
     aria-label="Compression">
    <path
       id="path943"
       d="m 24.086915,32.808083 q -0.08594,1.945312 -1.09375,2.945312 -1.007812,1 -2.84375,1 -0.945312,0 -1.6875,-0.3125 -0.742187,-0.3125 -1.25,-0.929687 Q 16.704103,34.89402 16.430665,33.98777 16.16504,33.073708 16.16504,31.886208 v -1.9375 q 0,-1.1875 0.273438,-2.101563 0.28125,-0.914062 0.804687,-1.53125 0.523438,-0.617187 1.265625,-0.929687 0.742188,-0.320313 1.671875,-0.320313 1.859375,0 2.820313,1.039063 0.96875,1.039062 1.101562,2.984375 h -2.304687 q -0.01563,-0.609375 -0.109375,-1.015625 -0.08594,-0.414063 -0.273438,-0.65625 -0.1875,-0.242188 -0.492187,-0.34375 -0.296875,-0.101563 -0.742188,-0.101563 -0.460937,0 -0.789062,0.15625 -0.320313,0.15625 -0.523438,0.507813 -0.203125,0.34375 -0.304687,0.914062 -0.09375,0.5625 -0.09375,1.382813 v 1.953125 q 0,0.796875 0.07813,1.359375 0.07813,0.5625 0.273437,0.921875 0.195313,0.351562 0.515625,0.515625 0.320313,0.164062 0.8125,0.164062 0.421875,0 0.71875,-0.08594 0.304688,-0.09375 0.5,-0.320313 0.195313,-0.226562 0.296875,-0.625 0.101563,-0.398437 0.125,-1.007812 z" />
    <path
       id="path945"
       d="m 25.13379,32.097145 q 0,-0.992187 0.242188,-1.757812 0.242187,-0.765625 0.6875,-1.289063 0.445312,-0.523437 1.070312,-0.789062 0.632813,-0.273438 1.414063,-0.273438 0.789062,0 1.421875,0.273438 0.632812,0.265625 1.078125,0.789062 0.445312,0.523438 0.6875,1.289063 0.242187,0.765625 0.242187,1.757812 v 0.554688 q 0,1 -0.242187,1.765625 -0.234375,0.757812 -0.679688,1.28125 -0.445312,0.523437 -1.078125,0.789062 -0.632812,0.265625 -1.414062,0.265625 -0.789063,0 -1.421875,-0.265625 -0.632813,-0.265625 -1.078125,-0.789062 -0.445313,-0.523438 -0.6875,-1.28125 -0.242188,-0.765625 -0.242188,-1.765625 z m 2.21875,0.554688 q 0,1.179687 0.320313,1.726562 0.320312,0.539063 0.890625,0.539063 0.601562,0 0.90625,-0.539063 0.304687,-0.546875 0.304687,-1.726562 v -0.554688 q 0,-1.15625 -0.320312,-1.710937 -0.320313,-0.5625 -0.90625,-0.5625 -0.5625,0 -0.882813,0.5625 -0.3125,0.554687 -0.3125,1.710937 z" />
    <path
       id="path947"
       d="m 35.438478,28.14402 0.0625,0.78125 q 0.351562,-0.445312 0.835937,-0.6875 0.492188,-0.25 1.125,-0.25 0.585938,0 1.046875,0.273438 0.46875,0.273437 0.742188,0.867187 0.34375,-0.539062 0.851562,-0.835937 0.515625,-0.304688 1.21875,-0.304688 0.515625,0 0.929688,0.171875 0.421875,0.171875 0.71875,0.554688 0.296875,0.382812 0.460937,1 0.164063,0.617187 0.164063,1.507812 v 5.375 H 41.38379 v -5.382812 q 0,-0.421875 -0.0625,-0.6875 -0.05469,-0.265625 -0.171875,-0.414063 -0.117187,-0.15625 -0.28125,-0.210937 -0.164062,-0.0625 -0.375,-0.0625 -0.328125,0 -0.554687,0.203125 -0.226563,0.203125 -0.367188,0.554687 0.0078,0.08594 0.0078,0.179688 0.0078,0.09375 0.0078,0.1875 v 5.632812 h -2.210937 v -5.367187 q 0,-0.421875 -0.0625,-0.6875 -0.05469,-0.273438 -0.171875,-0.429688 -0.109375,-0.15625 -0.28125,-0.210937 -0.164063,-0.0625 -0.375,-0.0625 -0.304688,0 -0.53125,0.164062 -0.21875,0.164063 -0.375,0.453125 v 6.140625 H 33.368165 V 28.14402 Z" />
    <path
       id="path949"
       d="m 51.82129,32.636208 q 0,1.992187 -0.6875,3.054687 -0.679687,1.0625 -2.03125,1.0625 -0.539062,0 -0.953125,-0.21875 -0.40625,-0.21875 -0.703125,-0.617187 v 3.929687 H 45.235353 V 28.14402 h 2.046875 l 0.07813,0.773438 q 0.304687,-0.445313 0.726562,-0.6875 0.429688,-0.242188 1,-0.242188 1.367188,0 2.046875,1.007813 0.6875,1.007812 0.6875,3.085937 z M 49.618165,32.08152 q 0,-0.601562 -0.0625,-1.023437 -0.0625,-0.429688 -0.203125,-0.695313 -0.140625,-0.273437 -0.367187,-0.398437 -0.21875,-0.125 -0.546875,-0.125 -0.351563,0 -0.601563,0.148437 -0.242187,0.148438 -0.390625,0.421875 v 3.960938 q 0.140625,0.257812 0.382813,0.40625 0.25,0.140625 0.625,0.140625 0.65625,0 0.90625,-0.554688 0.257812,-0.554687 0.257812,-1.726562 z" />
    <path
       id="path951"
       d="m 57.344728,30.276833 q -0.148438,-0.01563 -0.367188,-0.03906 -0.210937,-0.02344 -0.367187,-0.02344 -0.476563,0 -0.773438,0.203125 -0.296875,0.203125 -0.453125,0.59375 v 5.585937 H 53.16504 V 28.14402 h 2.085938 l 0.0625,0.914063 q 0.25,-0.507813 0.609375,-0.789063 0.367187,-0.28125 0.835937,-0.28125 0.148438,0 0.320313,0.03125 0.179687,0.02344 0.289062,0.07031 z" />
    <path
       id="path953"
       d="m 61.743165,36.753395 q -0.867187,0 -1.539062,-0.265625 -0.671875,-0.265625 -1.132813,-0.765625 -0.460937,-0.5 -0.703125,-1.21875 -0.234375,-0.726562 -0.234375,-1.648437 v -0.695313 q 0,-1.03125 0.226563,-1.804687 0.234375,-0.78125 0.664062,-1.304688 0.4375,-0.53125 1.0625,-0.796875 0.632813,-0.265625 1.429688,-0.265625 1.609375,0 2.414062,1.039063 0.804688,1.039062 0.804688,3.078125 v 1.007812 h -4.398438 q 0.02344,0.507813 0.132813,0.851563 0.117187,0.34375 0.3125,0.554687 0.195312,0.210938 0.46875,0.304688 0.28125,0.09375 0.632812,0.09375 0.585938,0 1.039063,-0.195313 0.460937,-0.203125 0.8125,-0.5625 l 0.867187,1.335938 q -0.164062,0.226562 -0.429687,0.453125 -0.265625,0.21875 -0.625,0.398437 -0.359375,0.179688 -0.8125,0.289063 -0.453125,0.117187 -0.992188,0.117187 z m -0.242187,-6.929687 q -0.578125,0 -0.84375,0.414062 -0.257813,0.414063 -0.304688,1.328125 h 2.210938 V 31.36277 q -0.01563,-0.757812 -0.25,-1.148437 -0.234375,-0.390625 -0.8125,-0.390625 z" />
    <path
       id="path955"
       d="m 69.72754,34.33152 q 0,-0.164062 -0.08594,-0.296875 -0.07813,-0.140625 -0.257813,-0.273437 -0.171875,-0.140625 -0.453125,-0.28125 -0.28125,-0.140625 -0.671875,-0.3125 -0.578125,-0.234375 -1.023437,-0.476563 -0.445313,-0.25 -0.75,-0.554687 -0.304688,-0.3125 -0.460938,-0.695313 -0.15625,-0.390625 -0.15625,-0.898437 0,-0.53125 0.195313,-0.992188 0.203125,-0.46875 0.578125,-0.8125 0.375,-0.351562 0.914062,-0.546875 0.546875,-0.203125 1.234375,-0.203125 0.710938,0 1.273438,0.195313 0.570312,0.1875 0.96875,0.539062 0.398437,0.34375 0.609375,0.835938 0.210937,0.484375 0.210937,1.078125 h -2.210937 q 0,-0.484375 -0.195313,-0.757813 -0.195312,-0.273437 -0.664062,-0.273437 -0.351563,0 -0.578125,0.21875 -0.226563,0.21875 -0.226563,0.609375 0,0.164062 0.07031,0.296875 0.07813,0.125 0.242187,0.25 0.171875,0.125 0.445313,0.257812 0.273437,0.132813 0.671875,0.304688 0.632812,0.234375 1.09375,0.492187 0.46875,0.257813 0.773437,0.578125 0.304688,0.3125 0.453125,0.710938 0.148438,0.398437 0.148438,0.921875 0,0.5625 -0.21875,1.023437 -0.21875,0.460938 -0.625,0.789063 -0.398438,0.328125 -0.96875,0.515625 -0.570313,0.179687 -1.273438,0.179687 -0.773437,0 -1.367187,-0.234375 -0.585938,-0.242187 -0.984375,-0.632812 -0.398438,-0.398438 -0.601563,-0.890625 -0.203125,-0.5 -0.203125,-1.015625 h 2.101563 q 0.0078,0.34375 0.09375,0.570312 0.08594,0.21875 0.226562,0.351563 0.148438,0.132812 0.34375,0.1875 0.203125,0.04687 0.4375,0.04687 0.890625,0 0.890625,-0.804688 z" />
    <path
       id="path957"
       d="m 77.00879,34.33152 q 0,-0.164062 -0.08594,-0.296875 -0.07813,-0.140625 -0.257813,-0.273437 -0.171875,-0.140625 -0.453125,-0.28125 -0.28125,-0.140625 -0.671875,-0.3125 -0.578125,-0.234375 -1.023437,-0.476563 -0.445313,-0.25 -0.75,-0.554687 -0.304688,-0.3125 -0.460938,-0.695313 -0.15625,-0.390625 -0.15625,-0.898437 0,-0.53125 0.195313,-0.992188 0.203125,-0.46875 0.578125,-0.8125 0.375,-0.351562 0.914062,-0.546875 0.546875,-0.203125 1.234375,-0.203125 0.710938,0 1.273438,0.195313 0.570312,0.1875 0.96875,0.539062 0.398437,0.34375 0.609375,0.835938 0.210937,0.484375 0.210937,1.078125 h -2.210937 q 0,-0.484375 -0.195313,-0.757813 -0.195312,-0.273437 -0.664062,-0.273437 -0.351563,0 -0.578125,0.21875 -0.226563,0.21875 -0.226563,0.609375 0,0.164062 0.07031,0.296875 0.07813,0.125 0.242187,0.25 0.171875,0.125 0.445313,0.257812 0.273437,0.132813 0.671875,0.304688 0.632812,0.234375 1.09375,0.492187 0.46875,0.257813 0.773437,0.578125 0.304688,0.3125 0.453125,0.710938 0.148438,0.398437 0.148438,0.921875 0,0.5625 -0.21875,1.023437 -0.21875,0.460938 -0.625,0.789063 -0.398438,0.328125 -0.96875,0.515625 -0.570313,0.179687 -1.273438,0.179687 -0.773437,0 -1.367187,-0.234375 -0.585938,-0.242187 -0.984375,-0.632812 -0.398438,-0.398438 -0.601563,-0.890625 -0.203125,-0.5 -0.203125,-1.015625 h 2.101563 q 0.0078,0.34375 0.09375,0.570312 0.08594,0.21875 0.226562,0.351563 0.148438,0.132812 0.34375,0.1875 0.203125,0.04687 0.4375,0.04687 0.890625,0 0.890625,-0.804688 z" />
    <path
       id="path959"
       d="m 82.868165,36.597145 h -2.21875 V 28.14402 h 2.21875 z M 80.547853,25.95652 q 0,-0.257812 0.08594,-0.46875 0.08594,-0.21875 0.242188,-0.375 0.15625,-0.15625 0.375,-0.242187 0.226562,-0.08594 0.5,-0.08594 0.273437,0 0.492187,0.08594 0.226563,0.08594 0.382813,0.242187 0.15625,0.15625 0.242187,0.375 0.08594,0.210938 0.08594,0.46875 0,0.257813 -0.08594,0.476563 -0.08594,0.210937 -0.242187,0.375 -0.15625,0.15625 -0.382813,0.242187 -0.21875,0.08594 -0.492187,0.08594 -0.273438,0 -0.5,-0.08594 -0.21875,-0.08594 -0.375,-0.242187 -0.15625,-0.164063 -0.242188,-0.375 -0.08594,-0.21875 -0.08594,-0.476563 z" />
    <path
       id="path961"
       d="m 84.32129,32.097145 q 0,-0.992187 0.242188,-1.757812 0.242187,-0.765625 0.6875,-1.289063 0.445312,-0.523437 1.070312,-0.789062 0.632813,-0.273438 1.414063,-0.273438 0.789062,0 1.421875,0.273438 0.632812,0.265625 1.078125,0.789062 0.445312,0.523438 0.6875,1.289063 0.242187,0.765625 0.242187,1.757812 v 0.554688 q 0,1 -0.242187,1.765625 -0.234375,0.757812 -0.679688,1.28125 -0.445312,0.523437 -1.078125,0.789062 -0.632812,0.265625 -1.414062,0.265625 -0.789063,0 -1.421875,-0.265625 -0.632813,-0.265625 -1.078125,-0.789062 -0.445313,-0.523438 -0.6875,-1.28125 -0.242188,-0.765625 -0.242188,-1.765625 z m 2.21875,0.554688 q 0,1.179687 0.320313,1.726562 0.320312,0.539063 0.890625,0.539063 0.601562,0 0.90625,-0.539063 0.304687,-0.546875 0.304687,-1.726562 v -0.554688 q 0,-1.15625 -0.320312,-1.710937 -0.320313,-0.5625 -0.90625,-0.5625 -0.5625,0 -0.882813,0.5625 -0.3125,0.554687 -0.3125,1.710937 z" />
    <path
       id="path963"
       d="m 94.57129,28.14402 0.0625,0.835938 q 0.367188,-0.484375 0.859375,-0.734375 0.492188,-0.257813 1.101563,-0.257813 0.492187,0 0.90625,0.171875 0.414062,0.164063 0.710937,0.546875 0.296875,0.382813 0.460938,1 0.164062,0.617188 0.164062,1.515625 v 5.375 h -2.21875 v -5.382812 q 0,-0.40625 -0.0625,-0.671875 -0.0625,-0.265625 -0.1875,-0.421875 -0.117187,-0.15625 -0.296875,-0.21875 -0.179687,-0.0625 -0.421875,-0.0625 -0.3125,0 -0.546875,0.164062 -0.234375,0.164063 -0.390625,0.453125 v 6.140625 h -2.21875 V 28.14402 Z" />
  </g>
  <g
     style="font-style:normal;font-variant:normal;font-weight:bold;font-stretch:normal;font-size:13.3333px;line-height:1.25;font-family:'Roboto Condensed';-inkscape-font-specification:'Roboto Condensed, Bold';font-variant-ligatures:normal;font-variant-caps:normal;font-variant-numeric:normal;font-variant-east-asian:normal;letter-spacing:0px;word-spacing:0px;fill:#ffffff;fill-opacity:1"
     id="text879-5"
     aria-label="Amount">
    <path
       id="path966"
       d="m 42.154243,141.15301 h -2.610671 l -0.507811,1.9401 h -2.024734 l 2.962232,-9.47914 h 1.751297 l 2.981764,9.47914 h -2.044266 z m -2.194005,-1.59505 h 1.770829 l -0.885415,-3.3789 z" />
    <path
       id="path968"
       d="m 46.926366,136.04886 0.05208,0.65104 q 0.292968,-0.3711 0.696613,-0.57292 0.410155,-0.20833 0.937498,-0.20833 0.48828,0 0.872393,0.22786 0.390624,0.22787 0.618488,0.72266 0.286458,-0.44922 0.709634,-0.69662 0.429686,-0.2539 1.015622,-0.2539 0.429687,0 0.774738,0.14323 0.351562,0.14323 0.598957,0.46224 0.247395,0.319 0.384113,0.83333 0.136719,0.51432 0.136719,1.2565 v 4.47916 h -1.842443 v -4.48567 q 0,-0.35156 -0.05208,-0.57291 -0.04557,-0.22136 -0.143228,-0.34505 -0.09766,-0.13021 -0.234375,-0.17578 -0.136718,-0.0521 -0.312499,-0.0521 -0.273437,0 -0.462238,0.16927 -0.188802,0.16927 -0.305989,0.46224 0.0065,0.0716 0.0065,0.14974 0.0065,0.0781 0.0065,0.15625 v 4.694 h -1.842443 v -4.47265 q 0,-0.35156 -0.05208,-0.57291 -0.04557,-0.22787 -0.143229,-0.35807 -0.09114,-0.13021 -0.234374,-0.17578 -0.136719,-0.0521 -0.312499,-0.0521 -0.253906,0 -0.442708,0.13672 -0.182291,0.13672 -0.312499,0.3776 v 5.11718 H 45.20111 v -7.04425 z" />
    <path
       id="path970"
       d="m 54.875564,139.34312 q 0,-0.82682 0.201822,-1.46484 0.201823,-0.63802 0.572916,-1.07422 0.371092,-0.43619 0.891925,-0.65755 0.527342,-0.22786 1.178382,-0.22786 0.65755,0 1.184893,0.22786 0.527342,0.22136 0.898435,0.65755 0.371093,0.4362 0.572915,1.07422 0.201823,0.63802 0.201823,1.46484 v 0.46224 q 0,0.83333 -0.201823,1.47135 -0.195312,0.63151 -0.566405,1.0677 -0.371092,0.4362 -0.898435,0.65755 -0.527342,0.22136 -1.178382,0.22136 -0.657551,0 -1.184893,-0.22136 -0.527343,-0.22135 -0.898435,-0.65755 -0.371093,-0.43619 -0.572916,-1.0677 -0.201822,-0.63802 -0.201822,-1.47135 z m 1.848954,0.46224 q 0,0.98307 0.266926,1.4388 0.266927,0.44921 0.742186,0.44921 0.501301,0 0.755206,-0.44921 0.253906,-0.45573 0.253906,-1.4388 v -0.46224 q 0,-0.96354 -0.266927,-1.42578 -0.266926,-0.46875 -0.755206,-0.46875 -0.468749,0 -0.735675,0.46875 -0.260416,0.46224 -0.260416,1.42578 z" />
    <path
       id="path972"
       d="m 65.194548,142.44858 q -0.273437,0.37109 -0.65755,0.57291 -0.377604,0.20183 -0.878904,0.20183 -0.442708,0 -0.80729,-0.14323 -0.358072,-0.14974 -0.618488,-0.46224 -0.260416,-0.31901 -0.403645,-0.8138 -0.143229,-0.5013 -0.143229,-1.19791 v -4.55728 h 1.842444 v 4.5703 q 0,0.57942 0.188801,0.82682 0.188802,0.24088 0.494791,0.24088 0.33854,0 0.559894,-0.14323 0.221354,-0.14974 0.351562,-0.40364 v -5.09113 h 1.855464 v 7.04425 h -1.731767 z" />
    <path
       id="path974"
       d="m 69.979693,136.04886 0.05208,0.69661 q 0.305989,-0.40365 0.716144,-0.61198 0.410155,-0.21484 0.917966,-0.21484 0.410155,0 0.755207,0.14323 0.345051,0.13672 0.592446,0.45572 0.247395,0.31901 0.384114,0.83334 0.136718,0.51432 0.136718,1.26301 v 4.47916 h -1.848954 v -4.48567 q 0,-0.33854 -0.05208,-0.55989 -0.05208,-0.22135 -0.156249,-0.35156 -0.09766,-0.13021 -0.247396,-0.18229 -0.149739,-0.0521 -0.351561,-0.0521 -0.260416,0 -0.455728,0.13672 -0.195312,0.13672 -0.32552,0.3776 v 5.11718 h -1.848954 v -7.04425 z" />
    <path
       id="path976"
       d="m 76.997902,134.31709 v 1.73177 h 0.944008 v 1.38671 h -0.944008 v 3.49609 q 0,0.22135 0.02604,0.36458 0.03255,0.14323 0.09766,0.22786 0.07161,0.0781 0.175781,0.11068 0.104166,0.026 0.253905,0.026 0.136719,0 0.247396,-0.013 0.117187,-0.013 0.188801,-0.0325 l -0.01302,1.43229 q -0.208332,0.0781 -0.449217,0.12369 -0.240885,0.0521 -0.566405,0.0521 -0.410155,0 -0.742186,-0.11719 -0.33203,-0.11068 -0.572915,-0.35807 -0.234374,-0.25391 -0.364582,-0.65104 -0.123698,-0.39714 -0.123698,-0.95703 v -3.70442 h -0.8138 v -1.38671 h 0.8138 v -1.73177 z" />
  </g>
  <g
     style="font-style:normal;font-variant:normal;font-weight:bold;font-stretch:normal;font-size:13.3333px;line-height:1.25;font-family:'Roboto Condensed';-inkscape-font-specification:'Roboto Condensed, Bold';font-variant-ligatures:normal;font-variant-caps:normal;font-variant-numeric:normal;font-variant-east-asian:normal;letter-spacing:0px;word-spacing:0px;fill:#ffffff;fill-opacity:1"
     id="text879-5-5"
     aria-label="Attack">
    <path
       id="path979"
       d="m 45.281799,233.20214 h -2.610671 l -0.507811,1.9401 h -2.024734 l 2.962232,-9.47914 h 1.751297 l 2.981764,9.47914 H 45.78961 Z m -2.194005,-1.59504 h 1.770829 l -0.885415,-3.3789 z" />
    <path
       id="path981"
       d="m 50.67241,226.36622 v 1.73177 h 0.944008 v 1.38671 H 50.67241 v 3.49609 q 0,0.22135 0.02604,0.36458 0.03255,0.14323 0.09766,0.22787 0.07161,0.0781 0.17578,0.11067 0.104167,0.026 0.253906,0.026 0.136718,0 0.247395,-0.013 0.117187,-0.013 0.188802,-0.0326 l -0.01302,1.43229 q -0.208333,0.0781 -0.449218,0.1237 -0.240884,0.0521 -0.566404,0.0521 -0.410156,0 -0.742186,-0.11719 -0.33203,-0.11067 -0.572915,-0.35807 -0.234375,-0.2539 -0.364583,-0.65104 -0.123697,-0.39713 -0.123697,-0.95703 v -3.70442 h -0.8138 v -1.38671 h 0.8138 v -1.73177 z" />
    <path
       id="path983"
       d="m 54.760941,226.36622 v 1.73177 h 0.944008 v 1.38671 h -0.944008 v 3.49609 q 0,0.22135 0.02604,0.36458 0.03255,0.14323 0.09766,0.22787 0.07161,0.0781 0.17578,0.11067 0.104167,0.026 0.253906,0.026 0.136718,0 0.247395,-0.013 0.117188,-0.013 0.188802,-0.0326 l -0.01302,1.43229 q -0.208333,0.0781 -0.449218,0.1237 -0.240884,0.0521 -0.566404,0.0521 -0.410156,0 -0.742186,-0.11719 -0.33203,-0.11067 -0.572915,-0.35807 -0.234375,-0.2539 -0.364583,-0.65104 -0.123697,-0.39713 -0.123697,-0.95703 v -3.70442 h -0.8138 v -1.38671 h 0.8138 v -1.73177 z" />
    <path
       id="path985"
       d="m 60.053897,235.14224 q -0.05208,-0.11067 -0.09115,-0.24739 -0.03255,-0.14323 -0.0651,-0.29948 -0.208333,0.28646 -0.540363,0.48177 -0.32552,0.19531 -0.800779,0.19531 -0.429687,0 -0.80729,-0.14974 -0.371093,-0.14974 -0.65104,-0.42317 -0.273437,-0.27344 -0.436197,-0.65756 -0.15625,-0.39062 -0.15625,-0.87239 0,-0.53385 0.169271,-0.96354 0.175781,-0.43619 0.520832,-0.73567 0.351562,-0.30599 0.872394,-0.46875 0.527342,-0.16276 1.236976,-0.16276 h 0.5013 v -0.56641 q 0,-0.47526 -0.16276,-0.67057 -0.16276,-0.19531 -0.475259,-0.19531 -0.358072,0 -0.527342,0.21484 -0.16276,0.20834 -0.16276,0.59245 h -1.842444 q 0,-0.46224 0.175781,-0.86588 0.182292,-0.41016 0.520832,-0.71615 0.338541,-0.30599 0.8138,-0.48177 0.47526,-0.18229 1.074216,-0.18229 0.527343,0 0.97005,0.13672 0.442707,0.13021 0.768227,0.41667 0.32552,0.27994 0.507811,0.72265 0.182292,0.4362 0.182292,1.05468 v 3.125 q 0,0.30599 0.01302,0.54687 0.01953,0.23437 0.05208,0.42969 0.03255,0.1888 0.07812,0.34505 0.05208,0.14974 0.117188,0.28646 v 0.11067 z m -1.087237,-1.3151 q 0.305989,0 0.520832,-0.1237 0.214843,-0.12369 0.319009,-0.29296 v -1.46484 h -0.436196 q -0.260416,0 -0.449218,0.0846 -0.188802,0.0846 -0.31901,0.23438 -0.123697,0.14973 -0.188801,0.35156 -0.05859,0.20182 -0.05859,0.42968 0,0.38412 0.15625,0.58594 0.16276,0.19531 0.455728,0.19531 z" />
    <path
       id="path987"
       d="m 65.529143,233.74251 q 0.384114,0 0.592447,-0.23438 0.214843,-0.24088 0.221353,-0.80729 h 1.731767 q -0.0065,0.59896 -0.201823,1.08073 -0.195312,0.47526 -0.533853,0.80729 -0.33203,0.33203 -0.787758,0.50781 -0.455728,0.17578 -0.98307,0.17578 -0.709634,0 -1.236976,-0.22786 -0.527343,-0.22787 -0.878905,-0.65755 -0.345051,-0.4362 -0.520832,-1.06771 -0.16927,-0.63151 -0.16927,-1.4388 v -0.50781 q 0,-0.80729 0.16927,-1.4388 0.175781,-0.63802 0.520832,-1.07421 0.345052,-0.4362 0.872394,-0.66406 0.527343,-0.22787 1.230466,-0.22787 0.566405,0 1.028643,0.18229 0.468749,0.17578 0.794269,0.52735 0.33203,0.34505 0.507811,0.85937 0.182291,0.51432 0.188802,1.1914 h -1.731767 q -0.0065,-0.59245 -0.195312,-0.91145 -0.188801,-0.31901 -0.624998,-0.31901 -0.305989,0 -0.48828,0.12369 -0.175781,0.1237 -0.273437,0.36459 -0.09115,0.23437 -0.123698,0.58593 -0.02604,0.34505 -0.02604,0.80078 v 0.50781 q 0,0.46224 0.02604,0.8138 0.02604,0.34505 0.117188,0.57943 0.09766,0.23437 0.279947,0.35156 0.182291,0.11719 0.49479,0.11719 z" />
    <path
       id="path989"
       d="m 71.466629,232.42741 -0.49479,0.55338 v 2.16145 h -1.842444 v -9.99997 h 1.842444 v 5.40363 l 0.227864,-0.33854 1.276038,-2.10937 h 2.194005 l -2.044266,2.90364 2.239578,4.14061 h -2.10937 z" />
  </g>
  <g
     style="font-style:normal;font-variant:normal;font-weight:bold;font-stretch:normal;font-size:13.3333px;line-height:1.25;font-family:'Roboto Condensed';-inkscape-font-specification:'Roboto Condensed, Bold';font-variant-ligatures:normal;font-variant-caps:normal;font-variant-numeric:normal;font-variant-east-asian:normal;letter-spacing:0px;word-spacing:0px;fill:#ffffff;fill-opacity:1"
     id="text879-5-2"
     aria-label="Release">
    <path
       id="path992"
       d="M 39.817019,323.4454 H 38.8665 v 3.46354 h -1.914057 v -9.47915 h 3.053377 q 0.709634,0 1.263018,0.1888 0.559895,0.1823 0.944008,0.54688 0.390624,0.35807 0.592447,0.89192 0.208332,0.53386 0.208332,1.23698 0,0.51432 -0.09766,0.93099 -0.09114,0.41015 -0.273436,0.73567 -0.175781,0.31901 -0.429687,0.5599 -0.253905,0.24088 -0.572915,0.41666 l 1.660152,3.8802 v 0.0911 H 41.242797 Z M 38.8665,321.85035 h 1.087237 q 0.572915,0 0.859373,-0.3776 0.286458,-0.38411 0.286458,-1.02213 0,-0.32552 -0.0651,-0.58594 -0.05859,-0.26692 -0.195312,-0.44922 -0.130208,-0.1888 -0.338541,-0.28645 -0.208333,-0.10417 -0.494791,-0.10417 H 38.8665 Z" />
    <path
       id="path994"
       d="m 47.095646,327.03914 q -0.722654,0 -1.282549,-0.22135 -0.559894,-0.22135 -0.944008,-0.63802 -0.384113,-0.41666 -0.585936,-1.01562 -0.195312,-0.60547 -0.195312,-1.3737 v -0.57942 q 0,-0.85937 0.188802,-1.5039 0.195312,-0.65104 0.553384,-1.08724 0.364582,-0.44271 0.885414,-0.66406 0.527343,-0.22136 1.191403,-0.22136 1.341143,0 2.011714,0.86589 0.670571,0.86588 0.670571,2.5651 v 0.83984 h -3.665355 q 0.01953,0.42317 0.110677,0.70963 0.09766,0.28646 0.260416,0.46224 0.16276,0.17578 0.390624,0.2539 0.234374,0.0781 0.527342,0.0781 0.48828,0 0.865884,-0.16276 0.384113,-0.16927 0.677081,-0.46875 l 0.722655,1.11328 q -0.136719,0.1888 -0.358072,0.3776 -0.221354,0.18229 -0.520832,0.33203 -0.299479,0.14974 -0.677082,0.24089 -0.377603,0.0976 -0.826821,0.0976 z m -0.201822,-5.77472 q -0.48177,0 -0.703124,0.34505 -0.214843,0.34505 -0.253905,1.10677 h 1.842443 v -0.16927 q -0.01302,-0.63151 -0.208333,-0.95703 -0.195312,-0.32552 -0.677081,-0.32552 z" />
    <path
       id="path996"
       d="m 52.564382,326.90894 h -1.848953 v -9.99998 h 1.848953 z" />
    <path
       id="path998"
       d="m 56.835204,327.03914 q -0.722655,0 -1.282549,-0.22135 -0.559894,-0.22135 -0.944008,-0.63802 -0.384114,-0.41666 -0.585936,-1.01562 -0.195312,-0.60547 -0.195312,-1.3737 v -0.57942 q 0,-0.85937 0.188802,-1.5039 0.195312,-0.65104 0.553384,-1.08724 0.364582,-0.44271 0.885414,-0.66406 0.527342,-0.22136 1.191403,-0.22136 1.341143,0 2.011714,0.86589 0.670571,0.86588 0.670571,2.5651 v 0.83984 h -3.665355 q 0.01953,0.42317 0.110677,0.70963 0.09766,0.28646 0.260416,0.46224 0.16276,0.17578 0.390624,0.2539 0.234374,0.0781 0.527342,0.0781 0.48828,0 0.865883,-0.16276 0.384114,-0.16927 0.677082,-0.46875 l 0.722654,1.11328 q -0.136718,0.1888 -0.358072,0.3776 -0.221353,0.18229 -0.520832,0.33203 -0.299478,0.14974 -0.677081,0.24089 -0.377604,0.0976 -0.826821,0.0976 z m -0.201823,-5.77472 q -0.481769,0 -0.703123,0.34505 -0.214843,0.34505 -0.253905,1.10677 h 1.842443 v -0.16927 q -0.01302,-0.63151 -0.208333,-0.95703 -0.195312,-0.32552 -0.677082,-0.32552 z" />
    <path
       id="path1000"
       d="m 63.716698,326.90894 q -0.05208,-0.11068 -0.09115,-0.2474 -0.03255,-0.14323 -0.0651,-0.29948 -0.208333,0.28646 -0.540363,0.48177 -0.32552,0.19531 -0.80078,0.19531 -0.429686,0 -0.807289,-0.14974 -0.371093,-0.14973 -0.65104,-0.42317 -0.273437,-0.27344 -0.436197,-0.65755 -0.15625,-0.39063 -0.15625,-0.8724 0,-0.53385 0.169271,-0.96353 0.17578,-0.4362 0.520832,-0.73568 0.351561,-0.30599 0.872393,-0.46875 0.527343,-0.16276 1.236976,-0.16276 h 0.501301 v -0.5664 q 0,-0.47526 -0.16276,-0.67058 -0.16276,-0.19531 -0.475259,-0.19531 -0.358072,0 -0.527342,0.21485 -0.162761,0.20833 -0.162761,0.59244 h -1.842443 q 0,-0.46224 0.175781,-0.86588 0.182291,-0.41016 0.520832,-0.71614 0.338541,-0.30599 0.8138,-0.48177 0.475259,-0.1823 1.074216,-0.1823 0.527343,0 0.97005,0.13672 0.442707,0.13021 0.768227,0.41667 0.32552,0.27995 0.507811,0.72265 0.182291,0.4362 0.182291,1.05469 v 3.12499 q 0,0.30599 0.01302,0.54687 0.01953,0.23438 0.05208,0.42969 0.03255,0.1888 0.07813,0.34505 0.05208,0.14974 0.117187,0.28646 v 0.11068 z m -1.087236,-1.31511 q 0.305988,0 0.520832,-0.12369 0.214843,-0.1237 0.319009,-0.29297 v -1.46484 h -0.436197 q -0.260416,0 -0.449217,0.0846 -0.188802,0.0846 -0.31901,0.23438 -0.123698,0.14974 -0.188802,0.35156 -0.05859,0.20182 -0.05859,0.42969 0,0.38411 0.156249,0.58593 0.162761,0.19531 0.455729,0.19531 z" />
    <path
       id="path1002"
       d="m 69.76486,325.02092 q 0,-0.13672 -0.07161,-0.2474 -0.0651,-0.11718 -0.214843,-0.22786 -0.143229,-0.11719 -0.377604,-0.23437 -0.234374,-0.11719 -0.559894,-0.26042 -0.48177,-0.19531 -0.852863,-0.39713 -0.371092,-0.20834 -0.624998,-0.46224 -0.253906,-0.26042 -0.384114,-0.57943 -0.130208,-0.32552 -0.130208,-0.74869 0,-0.44271 0.16276,-0.82683 0.169271,-0.39062 0.48177,-0.67708 0.312499,-0.29297 0.761717,-0.45573 0.455728,-0.16927 1.028643,-0.16927 0.592447,0 1.061195,0.16276 0.47526,0.15625 0.80729,0.44922 0.33203,0.28646 0.507811,0.69661 0.175781,0.40365 0.175781,0.89844 h -1.842443 q 0,-0.40364 -0.16276,-0.63151 -0.16276,-0.22786 -0.553384,-0.22786 -0.292968,0 -0.48177,0.18229 -0.188802,0.18229 -0.188802,0.50781 0,0.13672 0.05859,0.24739 0.0651,0.10417 0.201822,0.20834 0.143229,0.10416 0.371093,0.21484 0.227864,0.11068 0.559895,0.25391 0.527342,0.19531 0.911456,0.41015 0.390624,0.21485 0.644529,0.48177 0.253906,0.26042 0.377604,0.59245 0.123697,0.33203 0.123697,0.76823 0,0.46874 -0.182291,0.85286 -0.182291,0.38411 -0.520832,0.65755 -0.33203,0.27343 -0.80729,0.42968 -0.475259,0.14974 -1.061195,0.14974 -0.64453,0 -1.13932,-0.19531 -0.48828,-0.20182 -0.82031,-0.52734 -0.332031,-0.33203 -0.501301,-0.74219 -0.169271,-0.41666 -0.169271,-0.84635 h 1.751298 q 0.0065,0.28646 0.07813,0.47526 0.07161,0.18229 0.188801,0.29297 0.123698,0.11068 0.286458,0.15625 0.16927,0.0391 0.364582,0.0391 0.742186,0 0.742186,-0.67057 z" />
    <path
       id="path1004"
       d="m 75.559115,327.03914 q -0.722654,0 -1.282549,-0.22135 -0.559894,-0.22135 -0.944008,-0.63802 -0.384113,-0.41666 -0.585936,-1.01562 -0.195312,-0.60547 -0.195312,-1.3737 v -0.57942 q 0,-0.85937 0.188802,-1.5039 0.195312,-0.65104 0.553384,-1.08724 0.364582,-0.44271 0.885414,-0.66406 0.527343,-0.22136 1.191404,-0.22136 1.341142,0 2.011713,0.86589 0.670571,0.86588 0.670571,2.5651 v 0.83984 h -3.665355 q 0.01953,0.42317 0.110677,0.70963 0.09766,0.28646 0.260416,0.46224 0.16276,0.17578 0.390624,0.2539 0.234374,0.0781 0.527342,0.0781 0.48828,0 0.865884,-0.16276 0.384113,-0.16927 0.677081,-0.46875 l 0.722655,1.11328 q -0.136719,0.1888 -0.358072,0.3776 -0.221354,0.18229 -0.520832,0.33203 -0.299479,0.14974 -0.677082,0.24089 -0.377603,0.0976 -0.826821,0.0976 z m -0.201822,-5.77472 q -0.48177,0 -0.703124,0.34505 -0.214843,0.34505 -0.253905,1.10677 h 1.842443 v -0.16927 q -0.01302,-0.63151 -0.208333,-0.95703 -0.195312,-0.32552 -0.677081,-0.32552 z" />
  </g>
</svg>
