<?xml version="1.0" encoding="UTF-8" standalone="no"?>
<svg
   xmlns:dc="http://purl.org/dc/elements/1.1/"
   xmlns:cc="http://creativecommons.org/ns#"
   xmlns:rdf="http://www.w3.org/1999/02/22-rdf-syntax-ns#"
   xmlns:svg="http://www.w3.org/2000/svg"
   xmlns="http://www.w3.org/2000/svg"
   xmlns:sodipodi="http://sodipodi.sourceforge.net/DTD/sodipodi-0.dtd"
   xmlns:inkscape="http://www.inkscape.org/namespaces/inkscape"
   width="30.48mm"
   height="128.5mm"
   viewBox="0 0 30.480002 128.50002"
   version="1.1"
   id="svg8"
   inkscape:version="1.0 (4035a4fb49, 2020-05-01)"
   sodipodi:docname="ChowPhaseMod.svg">
  <defs
     id="defs2" />
  <sodipodi:namedview
     id="base"
     pagecolor="#ffffff"
     bordercolor="#666666"
     borderopacity="1.0"
     inkscape:pageopacity="0.0"
     inkscape:pageshadow="2"
     inkscape:zoom="0.98994949"
     inkscape:cx="86.297056"
     inkscape:cy="346.06676"
     inkscape:document-units="mm"
     inkscape:current-layer="layer2"
     showgrid="false"
     units="mm"
     inkscape:snap-bbox="true"
     inkscape:snap-page="true"
     inkscape:bbox-nodes="false"
     inkscape:snap-bbox-edge-midpoints="false"
     inkscape:window-width="1275"
     inkscape:window-height="991"
     inkscape:window-x="-8"
     inkscape:window-y="0"
     inkscape:window-maximized="0"
     inkscape:snap-bbox-midpoints="true"
     inkscape:snap-nodes="true"
     inkscape:document-rotation="0" />
  <metadata
     id="metadata5">
    <rdf:RDF>
      <cc:Work
         rdf:about="">
        <dc:format>image/svg+xml</dc:format>
        <dc:type
           rdf:resource="http://purl.org/dc/dcmitype/StillImage" />
        <dc:title />
      </cc:Work>
    </rdf:RDF>
  </metadata>
  <g
     inkscape:label="Layer 1"
     inkscape:groupmode="layer"
     id="layer1"
     transform="translate(0,-168.49998)">
    <rect
       style="display:inline;opacity:1;vector-effect:none;fill:#7db8e6;fill-opacity:1;fill-rule:evenodd;stroke:none;stroke-width:0.64935839;stroke-linecap:butt;stroke-linejoin:miter;stroke-miterlimit:4;stroke-dasharray:none;stroke-dashoffset:0;stroke-opacity:1;paint-order:normal"
       id="rect420"
       width="30.48"
       height="128.5"
       x="1.9266736e-07"
       y="168.49997" />
    <g
       aria-label="in"
       transform="matrix(0.33952249,0,0,0.34156126,7.6412477,118.8796)"
       style="font-style:normal;font-variant:normal;font-weight:normal;font-stretch:normal;font-size:16px;line-height:1.25;font-family:'Gotham Rounded';-inkscape-font-specification:'Gotham Rounded, Normal';font-variant-ligatures:normal;font-variant-caps:normal;font-variant-numeric:normal;font-feature-settings:normal;text-align:start;letter-spacing:0px;word-spacing:0px;writing-mode:lr-tb;text-anchor:start;fill:#000000;fill-opacity:1;stroke:none"
       id="flowRoot3818-0">
      <path
         d="m 18.175781,439.57189 h -1.65625 v -1.52343 h 1.65625 z m -0.09375,10.1875 h -1.46875 v -8.72656 h 1.46875 z"
         id="path3970"
         inkscape:connector-curvature="0" />
      <path
         d="m 28.300781,449.75939 h -1.46875 v -4.96875 q 0,-0.60156 -0.07031,-1.125 -0.07031,-0.53125 -0.257813,-0.82812 -0.195312,-0.32813 -0.5625,-0.48438 -0.367187,-0.16406 -0.953125,-0.16406 -0.601562,0 -1.257812,0.29688 -0.65625,0.29687 -1.257813,0.75781 v 6.51562 h -1.46875 v -8.72656 h 1.46875 v 0.96875 q 0.6875,-0.57031 1.421875,-0.89062 0.734375,-0.32032 1.507813,-0.32032 1.414062,0 2.15625,0.85157 0.742187,0.85156 0.742187,2.45312 z"
         id="path3972"
         inkscape:connector-curvature="0" />
    </g>
    <g
       aria-label="Mod"
       style="font-style:normal;font-variant:normal;font-weight:normal;font-stretch:normal;font-size:4.23333px;line-height:1.25;font-family:sans-serif;-inkscape-font-specification:'sans-serif, Normal';font-variant-ligatures:normal;font-variant-caps:normal;font-variant-numeric:normal;font-feature-settings:normal;text-align:center;letter-spacing:0px;word-spacing:0px;writing-mode:lr-tb;text-anchor:middle;fill:#000000;fill-opacity:1;stroke:none;stroke-width:0.264583"
       id="text872-4"
       transform="matrix(1.2523414,0,0,1.2193523,-3.3567119,-40.197342)">
      <path
         d="m 13.605936,214.14581 h -0.409277 v -2.65203 l -0.855762,1.80454 h -0.243913 l -0.84956,-1.80454 v 2.65203 h -0.382406 v -3.07785 h 0.558106 l 0.820621,1.7136 0.79375,-1.7136 h 0.568441 z"
         id="path963" />
      <path
         d="m 16.373726,212.9924 q 0,0.5643 -0.289388,0.8909 -0.289388,0.32659 -0.775147,0.32659 -0.489892,0 -0.77928,-0.32659 -0.287321,-0.3266 -0.287321,-0.8909 0,-0.56431 0.287321,-0.89091 0.289388,-0.32866 0.77928,-0.32866 0.485759,0 0.775147,0.32866 0.289388,0.3266 0.289388,0.89091 z m -0.401009,0 q 0,-0.44856 -0.1757,-0.6656 -0.1757,-0.21911 -0.487826,-0.21911 -0.31626,0 -0.491959,0.21911 -0.173633,0.21704 -0.173633,0.6656 0,0.43408 0.1757,0.65939 0.1757,0.22324 0.489892,0.22324 0.310059,0 0.485759,-0.22118 0.177767,-0.22324 0.177767,-0.66145 z"
         id="path965" />
      <path
         d="m 18.850061,214.14581 h -0.388607 v -0.24184 q -0.167432,0.14469 -0.349333,0.22531 -0.181901,0.0806 -0.394808,0.0806 -0.413411,0 -0.657324,-0.31833 -0.241846,-0.31832 -0.241846,-0.88263 0,-0.29352 0.08268,-0.52296 0.08475,-0.22945 0.227376,-0.39068 0.14056,-0.15709 0.326595,-0.23978 0.188102,-0.0827 0.388607,-0.0827 0.181901,0 0.322461,0.0393 0.140559,0.0372 0.295589,0.11782 v -1.00046 h 0.388607 z m -0.388607,-0.56844 v -1.32498 q -0.157097,-0.0703 -0.28112,-0.0971 -0.124023,-0.0269 -0.270785,-0.0269 -0.326595,0 -0.508496,0.22737 -0.181901,0.22738 -0.181901,0.64492 0,0.41135 0.14056,0.62632 0.14056,0.21291 0.450619,0.21291 0.165364,0 0.334863,-0.0724 0.169499,-0.0744 0.31626,-0.19017 z"
         id="path967" />
    </g>
    <g
       aria-label="Stages"
       style="font-style:normal;font-variant:normal;font-weight:normal;font-stretch:normal;font-size:4.23333px;line-height:1.25;font-family:sans-serif;-inkscape-font-specification:'sans-serif, Normal';font-variant-ligatures:normal;font-variant-caps:normal;font-variant-numeric:normal;font-feature-settings:normal;text-align:center;letter-spacing:0px;word-spacing:0px;writing-mode:lr-tb;text-anchor:middle;fill:#000000;fill-opacity:1;stroke:none;stroke-width:0.264583"
       id="text872-4-2"
       transform="matrix(1.1408212,0,0,1.2475081,-2.1361146,-49.396736)">
      <path
         d="m 10.60049,229.82617 q 0,0.17983 -0.08475,0.35553 -0.08268,0.1757 -0.233578,0.29766 -0.165365,0.13229 -0.3865396,0.2067 -0.2191081,0.0744 -0.5291667,0.0744 -0.3327962,0 -0.5994466,-0.062 -0.2645833,-0.062 -0.5395019,-0.18396 v -0.51263 h 0.028939 q 0.2335775,0.1943 0.5395019,0.29972 0.3059245,0.10542 0.5746419,0.10542 0.3803386,0 0.5911784,-0.14263 0.2129066,-0.14262 0.2129066,-0.38034 0,-0.20463 -0.101286,-0.30179 -0.099218,-0.0971 -0.3038569,-0.15089 -0.1550293,-0.0413 -0.3369304,-0.0682 -0.1798339,-0.0269 -0.3824055,-0.0682 -0.4092774,-0.0868 -0.6077148,-0.29559 -0.1963705,-0.21084 -0.1963705,-0.54777 0,-0.38654 0.3265951,-0.63252 0.326595,-0.24804 0.8288899,-0.24804 0.324528,0 0.5953125,0.062 0.2707846,0.062 0.4795566,0.15296 v 0.48369 h -0.02894 q -0.1757,-0.14883 -0.463021,-0.24598 -0.2852539,-0.0992 -0.5849772,-0.0992 -0.3286621,0 -0.5291666,0.13643 -0.1984375,0.13643 -0.1984375,0.3514 0,0.19224 0.099219,0.30179 0.099219,0.10955 0.3493326,0.16743 0.1322917,0.0289 0.3762044,0.0703 0.2439128,0.0413 0.4134115,0.0848 0.3431308,0.0909 0.5167638,0.27492 0.173633,0.18397 0.173633,0.5147 z"
         id="path970" />
      <path
         d="m 12.425701,230.684 q -0.109554,0.0289 -0.239778,0.0475 -0.128158,0.0186 -0.229444,0.0186 -0.353466,0 -0.537434,-0.19017 -0.183969,-0.19017 -0.183969,-0.60978 v -1.22783 H 10.97256 v -0.3266 h 0.262516 v -0.66352 h 0.388607 v 0.66352 h 0.802018 v 0.3266 h -0.802018 v 1.05213 q 0,0.1819 0.0083,0.28525 0.0083,0.10129 0.05788,0.19017 0.04547,0.0827 0.124023,0.12196 0.08062,0.0372 0.243913,0.0372 0.09509,0 0.198438,-0.0269 0.103353,-0.0289 0.148828,-0.0475 h 0.02067 z"
         id="path972" />
      <path
         d="m 14.691196,230.70467 h -0.38654 v -0.24598 q -0.05168,0.0351 -0.14056,0.0992 -0.08682,0.062 -0.169498,0.0992 -0.09715,0.0476 -0.223243,0.0786 -0.12609,0.0331 -0.295589,0.0331 -0.312125,0 -0.529166,-0.2067 -0.217041,-0.20671 -0.217041,-0.5271 0,-0.26252 0.111621,-0.42375 0.113688,-0.16329 0.322461,-0.25631 0.210839,-0.093 0.506429,-0.12609 0.295589,-0.0331 0.634586,-0.0496 v -0.06 q 0,-0.13229 -0.04754,-0.2191 -0.04547,-0.0868 -0.132292,-0.13643 -0.08268,-0.0475 -0.198437,-0.0641 -0.115755,-0.0165 -0.241846,-0.0165 -0.152962,0 -0.341064,0.0414 -0.188103,0.0393 -0.388607,0.11575 H 12.9342 v -0.39481 q 0.113688,-0.031 0.328662,-0.0682 0.214974,-0.0372 0.423747,-0.0372 0.243913,0 0.423747,0.0413 0.181901,0.0393 0.314193,0.13643 0.130224,0.0951 0.198437,0.24598 0.06821,0.15089 0.06821,0.37414 z m -0.38654,-0.56844 v -0.64286 q -0.177767,0.0103 -0.419612,0.031 -0.239779,0.0207 -0.380339,0.0599 -0.167432,0.0475 -0.270784,0.14883 -0.103353,0.0992 -0.103353,0.27492 0,0.19844 0.119889,0.29972 0.119889,0.0992 0.365869,0.0992 0.204639,0 0.374137,-0.0786 0.169499,-0.0806 0.314193,-0.19223 z"
         id="path974" />
      <path
         d="m 17.316359,230.44215 q 0,0.58704 -0.266651,0.86196 -0.26665,0.27492 -0.820621,0.27492 -0.183968,0 -0.359668,-0.0269 -0.173633,-0.0248 -0.343132,-0.0724 v -0.39687 h 0.02067 q 0.09508,0.0372 0.30179,0.0909 0.206706,0.0558 0.413412,0.0558 0.198437,0 0.328662,-0.0475 0.130224,-0.0476 0.202571,-0.1323 0.07235,-0.0806 0.103353,-0.1943 0.03101,-0.11369 0.03101,-0.25425 v -0.21084 q -0.1757,0.14056 -0.33693,0.21084 -0.159164,0.0682 -0.407211,0.0682 -0.413411,0 -0.657324,-0.29766 -0.241846,-0.29972 -0.241846,-0.84336 0,-0.29766 0.08268,-0.51263 0.08475,-0.21704 0.229443,-0.37414 0.134359,-0.14676 0.326595,-0.22737 0.192236,-0.0827 0.382406,-0.0827 0.200504,0 0.334863,0.0413 0.136426,0.0393 0.287321,0.12195 l 0.0248,-0.0992 h 0.363802 z m -0.388607,-0.37207 v -1.25884 q -0.155029,-0.0703 -0.289388,-0.0992 -0.132292,-0.031 -0.264583,-0.031 -0.320394,0 -0.504362,0.21497 -0.183968,0.21498 -0.183968,0.62425 0,0.38861 0.136425,0.58911 0.136426,0.20051 0.452686,0.20051 0.169499,0 0.338997,-0.0641 0.171566,-0.0661 0.314193,-0.1757 z"
         id="path976" />
      <path
         d="M 20.013868,229.59052 H 18.31268 q 0,0.21291 0.06408,0.37207 0.06408,0.1571 0.1757,0.25838 0.107487,0.0992 0.254248,0.14883 0.148828,0.0496 0.326595,0.0496 0.235644,0 0.473356,-0.093 0.239778,-0.0951 0.341064,-0.18603 h 0.02067 v 0.42375 q -0.196371,0.0827 -0.401009,0.13849 -0.204639,0.0558 -0.429948,0.0558 -0.574642,0 -0.897103,-0.31006 -0.322461,-0.31212 -0.322461,-0.8847 0,-0.56637 0.307992,-0.89917 0.310058,-0.3328 0.81442,-0.3328 0.467155,0 0.719336,0.27286 0.254248,0.27285 0.254248,0.77514 z m -0.378271,-0.29765 q -0.0021,-0.30593 -0.15503,-0.47336 -0.150895,-0.16743 -0.460953,-0.16743 -0.312126,0 -0.498161,0.18397 -0.183968,0.18396 -0.208773,0.45682 z"
         id="path978" />
      <path
         d="m 22.252492,230.03907 q 0,0.31626 -0.262517,0.51884 -0.260449,0.20257 -0.713134,0.20257 -0.256315,0 -0.471289,-0.06 -0.212907,-0.062 -0.357601,-0.13436 v -0.43615 h 0.02067 q 0.183968,0.1385 0.409278,0.22118 0.225309,0.0806 0.432015,0.0806 0.256315,0 0.401009,-0.0827 0.144694,-0.0827 0.144694,-0.26045 0,-0.13642 -0.07855,-0.2067 -0.07855,-0.0703 -0.301791,-0.11989 -0.08268,-0.0186 -0.217041,-0.0434 -0.132291,-0.0248 -0.241845,-0.0537 -0.303858,-0.0806 -0.432015,-0.23565 -0.126091,-0.15709 -0.126091,-0.38447 0,-0.14263 0.05788,-0.26872 0.05994,-0.12609 0.179834,-0.22531 0.115755,-0.0971 0.293522,-0.15296 0.179834,-0.0579 0.401009,-0.0579 0.206706,0 0.417545,0.0517 0.212907,0.0496 0.353467,0.12196 v 0.41547 h -0.02067 q -0.148828,-0.10955 -0.361735,-0.18396 -0.212907,-0.0765 -0.417546,-0.0765 -0.212907,0 -0.359668,0.0827 -0.146761,0.0806 -0.146761,0.24184 0,0.14263 0.08888,0.21498 0.08682,0.0723 0.281119,0.11782 0.107487,0.0248 0.239779,0.0496 0.134359,0.0248 0.223242,0.0455 0.270785,0.062 0.417546,0.21291 0.146761,0.15296 0.146761,0.40514 z"
         id="path980" />
    </g>
    <rect
       style="display:inline;fill:#791413;fill-opacity:1;stroke-width:0.377902"
       id="rect885"
       width="12"
       height="17"
       x="9.25"
       y="275.49997"
       ry="3.6348655" />
  </g>
  <g
     inkscape:groupmode="layer"
     id="layer2"
     inkscape:label="components">
    <g
       aria-label="Skew"
       style="font-style:normal;font-variant:normal;font-weight:normal;font-stretch:normal;font-size:4.23333px;line-height:1.25;font-family:'Gotham Rounded';-inkscape-font-specification:'Gotham Rounded, Normal';font-variant-ligatures:normal;font-variant-caps:normal;font-variant-numeric:normal;font-feature-settings:normal;text-align:center;letter-spacing:0px;word-spacing:0px;writing-mode:lr-tb;text-anchor:middle;fill:#000000;fill-opacity:1;stroke:none;stroke-width:0.264583"
       id="text4574-2"
       transform="matrix(1.1020035,0,0,1.222439,-1.8704381,-1.5909303)">
      <path
         d="m 12.464092,28.998419 q 0,0.179834 -0.08475,0.355534 -0.08268,0.1757 -0.233578,0.297657 -0.165364,0.132291 -0.386539,0.206705 -0.219108,0.07441 -0.529167,0.07441 -0.332796,0 -0.599447,-0.06201 -0.264583,-0.06201 -0.539501,-0.183968 v -0.512631 h 0.02894 q 0.233578,0.194304 0.539502,0.299724 0.305925,0.10542 0.574642,0.10542 0.380339,0 0.591178,-0.142627 0.212907,-0.142627 0.212907,-0.380339 0,-0.204639 -0.101285,-0.30179 -0.09922,-0.09715 -0.303858,-0.150895 -0.155029,-0.04134 -0.33693,-0.06821 -0.179834,-0.02687 -0.382406,-0.06821 -0.409277,-0.08682 -0.607715,-0.295589 -0.19637,-0.21084 -0.19637,-0.547771 0,-0.386539 0.326595,-0.632519 0.326595,-0.248047 0.82889,-0.248047 0.324528,0 0.595312,0.06201 0.270785,0.06201 0.479558,0.152962 v 0.483691 h -0.02894 q -0.1757,-0.148828 -0.463021,-0.245979 -0.285254,-0.09922 -0.584977,-0.09922 -0.328662,0 -0.529167,0.136426 -0.198437,0.136425 -0.198437,0.351399 0,0.192237 0.09922,0.301791 0.09922,0.109554 0.349332,0.167431 0.132292,0.02894 0.376205,0.07028 0.243912,0.04134 0.413411,0.08475 0.343132,0.09095 0.516764,0.274918 0.173633,0.183968 0.173633,0.514697 z"
         id="path4714" />
      <path
         d="m 15.186407,29.876919 h -0.512631 l -0.926041,-1.010791 -0.252181,0.239778 v 0.771013 h -0.388607 v -3.216341 h 0.388607 v 2.062923 l 1.122412,-1.155485 h 0.489892 l -1.072802,1.066601 z"
         id="path4716" />
      <path
         d="m 17.487041,28.762775 h -1.701188 q 0,0.212907 0.06408,0.37207 0.06408,0.157097 0.1757,0.258382 0.107487,0.09922 0.254248,0.148829 0.148828,0.04961 0.326595,0.04961 0.235644,0 0.473356,-0.09302 0.239779,-0.09508 0.341064,-0.186035 h 0.02067 v 0.423747 q -0.19637,0.08268 -0.401009,0.138493 -0.204639,0.05581 -0.429948,0.05581 -0.574642,0 -0.897103,-0.310058 -0.322461,-0.312126 -0.322461,-0.884701 0,-0.566373 0.307992,-0.89917 0.310058,-0.332796 0.81442,-0.332796 0.467155,0 0.719336,0.272852 0.254248,0.272851 0.254248,0.775146 z M 17.10877,28.465119 q -0.0021,-0.305925 -0.155029,-0.473356 -0.150896,-0.167432 -0.460954,-0.167432 -0.312126,0 -0.498161,0.183968 -0.183968,0.183968 -0.208773,0.45682 z"
         id="path4718" />
      <path
         d="m 20.980368,27.568016 -0.601513,2.308903 h -0.359668 l -0.593246,-1.779736 -0.589111,1.779736 h -0.357601 l -0.607715,-2.308903 h 0.405143 l 0.423747,1.788004 0.576709,-1.788004 h 0.320394 l 0.591178,1.788004 0.401009,-1.788004 z"
         id="path4720" />
    </g>
    <g
       aria-label="Chow Phaser Mod"
       style="font-style:normal;font-variant:normal;font-weight:normal;font-stretch:normal;font-size:4.23333px;line-height:1.25;font-family:sans-serif;-inkscape-font-specification:'sans-serif, Normal';font-variant-ligatures:normal;font-variant-caps:normal;font-variant-numeric:normal;font-feature-settings:normal;text-align:center;letter-spacing:0px;word-spacing:0px;writing-mode:lr-tb;text-anchor:middle;fill:#000000;fill-opacity:1;stroke:none;stroke-width:0.264583"
       id="text872"
       transform="matrix(0.95383851,0,0,1.2832349,0.34466169,-0.93205081)">
      <path
         d="m 4.5503637,8.0054709 q -0.1136881,0.049609 -0.2067057,0.093018 -0.09095,0.043408 -0.2397786,0.09095 -0.1260905,0.039274 -0.2749186,0.066146 -0.1467611,0.028939 -0.324528,0.028939 -0.3348633,0 -0.6097819,-0.093018 Q 2.6217994,8.0964214 2.4192278,7.8959168 2.2207903,7.6995464 2.1091692,7.397756 1.9975481,7.0938986 1.9975481,6.6928895 q 0,-0.3803385 0.107487,-0.6800618 0.107487,-0.2997233 0.3100586,-0.506429 0.1963704,-0.2005045 0.4733561,-0.3059244 0.2790527,-0.10542 0.6180501,-0.10542 0.2480468,0 0.4940266,0.059945 0.2480469,0.059945 0.5498372,0.2108398 V 5.8515973 H 4.5193579 Q 4.2651098,5.6386904 4.0149959,5.5415387 3.764882,5.444387 3.4796281,5.444387 q -0.2335774,0 -0.4216797,0.076481 -0.1860351,0.074414 -0.3327962,0.2335775 -0.1426269,0.1550293 -0.2232421,0.3927409 -0.078548,0.2356445 -0.078548,0.545703 0,0.324528 0.086816,0.5581055 0.088883,0.2335774 0.2273763,0.3803385 0.144694,0.1529622 0.3369303,0.2273763 0.1943034,0.072347 0.4092773,0.072347 0.2955892,0 0.5539714,-0.1012858 0.2583821,-0.1012858 0.4836913,-0.3038574 h 0.028939 z"
         id="path936" />
      <path
         d="M 7.0328993,8.228713 H 6.6442926 V 6.9140647 q 0,-0.1591634 -0.018604,-0.2976563 Q 6.6070855,6.4758485 6.5574762,6.3973004 6.5057997,6.310484 6.408648,6.2691428 6.3114964,6.2257346 6.1564671,6.2257346 q -0.1591634,0 -0.3327962,0.078548 Q 5.6500381,6.382831 5.4908747,6.5047873 V 8.228713 H 5.1022679 V 5.0123721 h 0.3886068 v 1.1637532 q 0.181901,-0.1508952 0.3762044,-0.2356446 0.1943033,-0.084749 0.398942,-0.084749 0.3741373,0 0.5705078,0.2253092 0.1963704,0.2253093 0.1963704,0.649056 z"
         id="path938" />
      <path
         d="m 9.7490128,7.0752951 q 0,0.5643066 -0.289388,0.8909017 -0.289388,0.326595 -0.7751465,0.326595 -0.4898925,0 -0.7792805,-0.326595 -0.287321,-0.3265951 -0.287321,-0.8909017 0,-0.5643066 0.287321,-0.8909016 0.289388,-0.3286621 0.7792805,-0.3286621 0.4857585,0 0.7751465,0.3286621 0.289388,0.326595 0.289388,0.8909016 z m -0.4010091,0 q 0,-0.4485514 -0.1756999,-0.6655924 -0.1756998,-0.219108 -0.4878255,-0.219108 -0.3162597,0 -0.4919596,0.219108 -0.1736328,0.217041 -0.1736328,0.6655924 0,0.434082 0.1756999,0.6593913 0.1756998,0.2232421 0.4898925,0.2232421 0.3100586,0 0.4857585,-0.2211751 0.1777669,-0.2232421 0.1777669,-0.6614583 z"
         id="path940" />
      <path
         d="M 13.256808,5.9198102 12.655295,8.228713 H 12.295627 L 11.702381,6.4489768 11.11327,8.228713 H 10.755669 L 10.147954,5.9198102 h 0.405144 l 0.423746,1.7880044 0.576709,-1.7880044 h 0.320394 l 0.591179,1.7880044 0.401009,-1.7880044 z"
         id="path942" />
      <path
         d="m 17.349582,6.0810406 q 0,0.2046387 -0.07235,0.3803385 -0.07028,0.1736328 -0.198438,0.3017904 -0.159163,0.1591634 -0.376204,0.2397786 -0.217041,0.078548 -0.54777,0.078548 H 15.745545 V 8.228713 H 15.336268 V 5.1508649 h 0.835091 q 0.276986,0 0.469222,0.047542 0.192237,0.045475 0.341065,0.144694 0.175699,0.1178223 0.270784,0.2935221 0.09715,0.1756999 0.09715,0.4444173 z m -0.425814,0.010335 q 0,-0.1591634 -0.05581,-0.2769857 -0.05581,-0.1178222 -0.169498,-0.1922363 -0.09922,-0.064079 -0.227376,-0.09095 -0.126091,-0.028939 -0.320394,-0.028939 h -0.405144 v 1.229899 h 0.345199 q 0.248047,0 0.403076,-0.043408 0.155029,-0.045475 0.252181,-0.1426269 0.09715,-0.099219 0.136426,-0.2087728 0.04134,-0.109554 0.04134,-0.2459803 z"
         id="path944" />
      <path
         d="M 19.790777,8.228713 H 19.40217 V 6.9140647 q 0,-0.1591634 -0.0186,-0.2976563 -0.0186,-0.1405599 -0.06821,-0.219108 -0.05168,-0.086816 -0.148829,-0.1281576 -0.09715,-0.043408 -0.252181,-0.043408 -0.159163,0 -0.332796,0.078548 -0.173633,0.078548 -0.332796,0.2005045 V 8.228713 H 17.860145 V 5.0123721 h 0.388607 v 1.1637532 q 0.181901,-0.1508952 0.376204,-0.2356446 0.194304,-0.084749 0.398942,-0.084749 0.374138,0 0.570508,0.2253092 0.196371,0.2253093 0.196371,0.649056 z"
         id="path946" />
      <path
         d="M 22.333256,8.228713 H 21.946717 V 7.9827332 q -0.05168,0.03514 -0.14056,0.099219 -0.08682,0.062012 -0.169499,0.099219 -0.09715,0.047542 -0.223242,0.078548 -0.126091,0.033073 -0.295589,0.033073 -0.312126,0 -0.529167,-0.2067057 -0.217041,-0.2067057 -0.217041,-0.5270996 0,-0.2625163 0.111621,-0.4237467 0.113688,-0.1632975 0.322461,-0.2563151 0.21084,-0.093018 0.506429,-0.1260905 0.295589,-0.033073 0.634587,-0.049609 v -0.059945 q 0,-0.1322917 -0.04754,-0.2191081 Q 21.853699,6.3373557 21.766883,6.2877463 21.6842,6.240204 21.568445,6.2236676 21.45269,6.2071311 21.3266,6.2071311 q -0.152963,0 -0.341065,0.041341 -0.188102,0.039274 -0.388607,0.1157552 h -0.02067 v -0.394808 q 0.113688,-0.031006 0.328662,-0.068213 0.214974,-0.037207 0.423747,-0.037207 0.243912,0 0.423746,0.041341 0.181901,0.039274 0.314193,0.1364257 0.130225,0.095085 0.198437,0.2459798 0.06821,0.1508952 0.06821,0.3741374 z M 21.946717,7.6602723 V 7.0174175 q -0.177767,0.010335 -0.419613,0.031006 -0.239779,0.020671 -0.380338,0.059945 -0.167432,0.047542 -0.270785,0.1488282 -0.103353,0.099219 -0.103353,0.2749186 0,0.1984375 0.11989,0.2997233 0.119889,0.099219 0.365869,0.099219 0.204638,0 0.374137,-0.078548 0.169499,-0.080615 0.314193,-0.1922373 z"
         id="path948" />
      <path
         d="m 24.735178,7.5631206 q 0,0.3162598 -0.262516,0.5188314 -0.260449,0.2025716 -0.713135,0.2025716 -0.256315,0 -0.471289,-0.059945 -0.212907,-0.062012 -0.357601,-0.1343587 V 7.6540711 h 0.02067 q 0.183968,0.1384929 0.409277,0.2211752 0.225309,0.080615 0.432015,0.080615 0.256315,0 0.401009,-0.082682 0.144694,-0.082682 0.144694,-0.2604492 0,-0.1364258 -0.07855,-0.2067057 -0.07855,-0.07028 -0.301791,-0.1198893 Q 23.875281,7.2675311 23.74092,7.2427271 23.608632,7.2179221 23.499078,7.1889833 23.19522,7.108368 23.067063,6.9533388 22.940972,6.7962424 22.940972,6.5688661 q 0,-0.1426269 0.05788,-0.2687174 0.05994,-0.1260905 0.179834,-0.2253092 0.115755,-0.097152 0.293522,-0.1529623 0.179834,-0.057878 0.401009,-0.057878 0.206706,0 0.417546,0.051676 0.212907,0.049609 0.353466,0.1219564 v 0.4154785 h -0.02067 Q 24.474731,6.3435561 24.261824,6.269142 24.048917,6.192661 23.844278,6.192661 q -0.212907,0 -0.359668,0.082682 -0.146761,0.080615 -0.146761,0.2418457 0,0.1426269 0.08888,0.2149739 0.08682,0.072347 0.28112,0.1178223 0.107487,0.024805 0.239778,0.049609 0.134359,0.024805 0.223242,0.045475 0.270785,0.062012 0.417546,0.2129069 0.146761,0.1529622 0.146761,0.4051432 z"
         id="path950" />
      <path
         d="m 27.225982,7.1145692 h -1.701188 q 0,0.2129069 0.06408,0.3720703 0.06408,0.1570964 0.1757,0.2583822 0.107487,0.099219 0.254248,0.1488281 0.148828,0.049609 0.326595,0.049609 0.235645,0 0.473356,-0.093018 0.239779,-0.095085 0.341065,-0.1860352 h 0.02067 v 0.4237467 q -0.19637,0.082682 -0.401009,0.1384929 -0.204638,0.05581 -0.429948,0.05581 -0.574642,0 -0.897102,-0.3100586 -0.322461,-0.3121256 -0.322461,-0.8847004 0,-0.5663737 0.307991,-0.8991699 0.310059,-0.3327962 0.814421,-0.3327962 0.467155,0 0.719336,0.2728515 0.254248,0.2728516 0.254248,0.7751465 z M 26.84771,6.816913 Q 26.84561,6.5109885 26.692681,6.3435569 26.541786,6.1761253 26.231727,6.1761253 q -0.312126,0 -0.498161,0.183968 -0.183968,0.1839681 -0.208772,0.4568197 z"
         id="path952" />
      <path
         d="m 29.255831,6.3435569 h -0.02067 q -0.08682,-0.020671 -0.169499,-0.028939 -0.08061,-0.010335 -0.192236,-0.010335 -0.179834,0 -0.347266,0.080615 -0.167431,0.078548 -0.32246,0.2046387 V 8.228713 H 27.815092 V 5.9198102 h 0.388607 v 0.3410644 q 0.23151,-0.1860351 0.40721,-0.2625163 0.177767,-0.078548 0.361735,-0.078548 0.101286,0 0.146761,0.0062 0.04547,0.00413 0.136426,0.018604 z"
         id="path954" />
      <path
         d="m 14.265532,13.520379 h -0.409277 v -2.652034 l -0.855762,1.804541 H 12.756581 L 11.90702,10.868345 v 2.652034 h -0.382405 v -3.077848 h 0.558105 l 0.820622,1.713591 0.79375,-1.713591 h 0.56844 z"
         id="path956" />
      <path
         d="m 17.033322,12.366962 q 0,0.564306 -0.289388,0.890901 -0.289388,0.326595 -0.775146,0.326595 -0.489893,0 -0.779281,-0.326595 -0.287321,-0.326595 -0.287321,-0.890901 0,-0.564307 0.287321,-0.890902 0.289388,-0.328662 0.779281,-0.328662 0.485758,0 0.775146,0.328662 0.289388,0.326595 0.289388,0.890902 z m -0.401009,0 q 0,-0.448552 -0.1757,-0.665593 -0.1757,-0.219108 -0.487825,-0.219108 -0.31626,0 -0.49196,0.219108 -0.173633,0.217041 -0.173633,0.665593 0,0.434082 0.1757,0.659391 0.1757,0.223242 0.489893,0.223242 0.310058,0 0.485758,-0.221175 0.177767,-0.223242 0.177767,-0.661458 z"
         id="path958" />
      <path
         d="M 19.509657,13.520379 H 19.12105 v -0.241845 q -0.167431,0.144694 -0.349332,0.225309 -0.181901,0.08061 -0.394808,0.08061 -0.413412,0 -0.657325,-0.318327 -0.241845,-0.318326 -0.241845,-0.882633 0,-0.293522 0.08268,-0.522965 0.08475,-0.229444 0.227376,-0.390674 0.14056,-0.157097 0.326595,-0.239779 0.188103,-0.08268 0.388607,-0.08268 0.181901,0 0.322461,0.03927 0.14056,0.03721 0.295589,0.117822 v -1.000456 h 0.388607 z m -0.388607,-0.56844 v -1.324984 q -0.157096,-0.07028 -0.28112,-0.09715 -0.124023,-0.02687 -0.270784,-0.02687 -0.326595,0 -0.508496,0.227376 -0.181901,0.227376 -0.181901,0.644922 0,0.411344 0.14056,0.626318 0.14056,0.212907 0.450618,0.212907 0.165365,0 0.334863,-0.07235 0.169499,-0.07441 0.31626,-0.190169 z"
         id="path960" />
    </g>
    <g
       aria-label="out"
       transform="matrix(0.32009998,0,0,0.34853618,6.1346522,-34.841839)"
       style="font-style:normal;font-variant:normal;font-weight:normal;font-stretch:normal;font-size:16px;line-height:1.25;font-family:'Gotham Rounded';-inkscape-font-specification:'Gotham Rounded, Normal';font-variant-ligatures:normal;font-variant-caps:normal;font-variant-numeric:normal;font-feature-settings:normal;text-align:start;letter-spacing:0px;word-spacing:0px;writing-mode:lr-tb;text-anchor:start;fill:#ffffff;fill-opacity:1;stroke:none"
       id="flowRoot3818">
      <path
         d="m 24.035156,445.40002 q 0,2.13281 -1.09375,3.36719 -1.09375,1.23437 -2.929687,1.23437 -1.851563,0 -2.945313,-1.23437 -1.085937,-1.23438 -1.085937,-3.36719 0,-2.13281 1.085937,-3.36719 1.09375,-1.24219 2.945313,-1.24219 1.835937,0 2.929687,1.24219 1.09375,1.23438 1.09375,3.36719 z m -1.515625,0 q 0,-1.69531 -0.664062,-2.51563 -0.664063,-0.82812 -1.84375,-0.82812 -1.195313,0 -1.859375,0.82812 -0.65625,0.82032 -0.65625,2.51563 0,1.64062 0.664062,2.49219 0.664063,0.84375 1.851563,0.84375 1.171875,0 1.835937,-0.83594 0.671875,-0.84375 0.671875,-2.5 z"
         id="path3975"
         inkscape:connector-curvature="0"
         style="fill:#ffffff;fill-opacity:1" />
      <path
         d="m 33.550781,449.75939 h -1.46875 v -0.96875 q -0.742187,0.58594 -1.421875,0.89844 -0.679687,0.3125 -1.5,0.3125 -1.375,0 -2.140625,-0.83594 -0.765625,-0.84375 -0.765625,-2.46875 v -5.66406 h 1.46875 v 4.96875 q 0,0.66406 0.0625,1.14063 0.0625,0.46875 0.265625,0.80468 0.210938,0.34375 0.546875,0.5 0.335938,0.15625 0.976563,0.15625 0.570312,0 1.242187,-0.29687 0.679688,-0.29688 1.265625,-0.75781 v -6.51563 h 1.46875 z"
         id="path3977"
         inkscape:connector-curvature="0"
         style="fill:#ffffff;fill-opacity:1" />
      <path
         d="m 40.972656,449.68127 q -0.414062,0.10937 -0.90625,0.17969 -0.484375,0.0703 -0.867187,0.0703 -1.335938,0 -2.03125,-0.71875 -0.695313,-0.71875 -0.695313,-2.30469 v -4.64062 h -0.992187 v -1.23438 h 0.992187 v -2.50781 h 1.46875 v 2.50781 h 3.03125 v 1.23438 h -3.03125 v 3.97656 q 0,0.6875 0.03125,1.07812 0.03125,0.38282 0.21875,0.71875 0.171875,0.3125 0.46875,0.46094 0.304688,0.14063 0.921875,0.14063 0.359375,0 0.75,-0.10157 0.390625,-0.10937 0.5625,-0.17968 h 0.07813 z"
         id="path3979"
         inkscape:connector-curvature="0"
         style="fill:#ffffff;fill-opacity:1" />
    </g>
    <g
       aria-label="CV"
       id="text886"
       style="font-style:normal;font-weight:normal;font-size:10.5833px;line-height:1.25;font-family:sans-serif;letter-spacing:0px;word-spacing:0px;fill:#000000;fill-opacity:1;stroke:none;stroke-width:0.264583"
       transform="matrix(0.43146583,0,0,0.50165243,-12.799709,46.63447)">
      <path
         d="m 64.439244,81.760912 q -0.284219,0.124023 -0.516763,0.232543 -0.227375,0.10852 -0.599444,0.227376 -0.315226,0.09819 -0.687295,0.165364 -0.366901,0.07235 -0.811317,0.07235 -0.837156,0 -1.52445,-0.232543 -0.682127,-0.237711 -1.188554,-0.73897 -0.496092,-0.490925 -0.775144,-1.245398 -0.279052,-0.759642 -0.279052,-1.762161 0,-0.950844 0.268717,-1.700149 0.268716,-0.749306 0.775144,-1.266069 0.490924,-0.50126 1.183386,-0.764809 0.69763,-0.263549 1.54512,-0.263549 0.620116,0 1.235063,0.149861 0.620115,0.149862 1.374589,0.527098 v 1.214393 h -0.07751 q -0.635619,-0.532266 -1.260901,-0.775144 -0.625283,-0.242879 -1.338416,-0.242879 -0.583942,0 -1.054196,0.191202 -0.465086,0.186035 -0.831987,0.583942 -0.356567,0.387572 -0.558104,0.981849 -0.19637,0.58911 -0.19637,1.364254 0,0.811317 0.21704,1.395259 0.222208,0.583942 0.568439,0.950843 0.361734,0.382405 0.842323,0.568439 0.485757,0.180867 1.023191,0.180867 0.73897,0 1.384924,-0.253213 0.645953,-0.253214 1.209224,-0.759642 h 0.07235 z"
         style="stroke-width:0.264583"
         id="path892" />
      <path
         d="m 71.963309,74.624419 -2.800854,7.694597 h -1.364254 l -2.800853,-7.694597 h 1.095537 l 2.413281,6.769591 2.413282,-6.769591 z"
         style="stroke-width:0.264583"
         id="path894" />
    </g>
  </g>
</svg>
