<?xml version="1.0" encoding="UTF-8" standalone="no"?>
<svg
   xmlns:dc="http://purl.org/dc/elements/1.1/"
   xmlns:cc="http://creativecommons.org/ns#"
   xmlns:rdf="http://www.w3.org/1999/02/22-rdf-syntax-ns#"
   xmlns:svg="http://www.w3.org/2000/svg"
   xmlns="http://www.w3.org/2000/svg"
   xmlns:sodipodi="http://sodipodi.sourceforge.net/DTD/sodipodi-0.dtd"
   xmlns:inkscape="http://www.inkscape.org/namespaces/inkscape"
   width="40.639999mm"
   height="128.5mm"
   viewBox="0 0 40.64 128.5"
   version="1.1"
   id="svg8"
   inkscape:version="1.0 (4035a4fb49, 2020-05-01)"
   sodipodi:docname="ChowFDN.svg">
  <defs
     id="defs2" />
  <sodipodi:namedview
     units="mm"
     id="base"
     pagecolor="#ffffff"
     bordercolor="#666666"
     borderopacity="1.0"
     inkscape:pageopacity="0.0"
     inkscape:pageshadow="2"
     inkscape:zoom="0.98994949"
     inkscape:cx="36.22451"
     inkscape:cy="211.06173"
     inkscape:document-units="mm"
     inkscape:current-layer="svg8"
     inkscape:document-rotation="0"
     showgrid="false"
     inkscape:window-width="1291"
     inkscape:window-height="991"
     inkscape:window-x="611"
     inkscape:window-y="0"
     inkscape:window-maximized="0" />
  <metadata
     id="metadata5">
    <rdf:RDF>
      <cc:Work
         rdf:about="">
        <dc:format>image/svg+xml</dc:format>
        <dc:type
           rdf:resource="http://purl.org/dc/dcmitype/StillImage" />
        <dc:title></dc:title>
      </cc:Work>
    </rdf:RDF>
  </metadata>
  <g
     inkscape:label="Layer 1"
     inkscape:groupmode="layer"
     id="layer1" />
  <g
     id="g842"
     inkscape:label="Components"
     inkscape:groupmode="layer" />
  <g
     style="fill:#7db8e6;fill-opacity:1"
     transform="scale(2.0239044,1)"
     id="g857"
     inkscape:label="CHOW FDN">
    <g
       style="fill:#7db8e6;fill-opacity:1"
       id="panel"
       inkscape:label="Panel"
       inkscape:groupmode="layer">
      <rect
         id="rect854"
         style="fill:#7db8e6;fill-opacity:1;stroke:none;stroke-width:0mm"
         ry="0"
         rx="0"
         height="128.5"
         width="20.08"
         y="0"
         x="0" />
    </g>
  </g>
  <g
     id="g859"
     inkscape:label="Components"
     inkscape:groupmode="layer" />
  <g
     transform="matrix(1.1691144,0,0,1.8290341,-16.830467,-17.447906)"
     style="font-style:normal;font-variant:normal;font-weight:normal;font-stretch:normal;font-size:4.23333px;line-height:1.25;font-family:sans-serif;-inkscape-font-specification:'sans-serif, Normal';font-variant-ligatures:normal;font-variant-caps:normal;font-variant-numeric:normal;font-variant-east-asian:normal;letter-spacing:0px;word-spacing:0px;fill:#000000;fill-opacity:1;stroke:none;stroke-width:0.264583"
     id="text3253"
     aria-label="Chow FDN">
    <path
       id="path3255"
       style="font-style:normal;font-variant:normal;font-weight:normal;font-stretch:normal;font-size:4.23333px;font-family:sans-serif;-inkscape-font-specification:'sans-serif, Normal';font-variant-ligatures:normal;font-variant-caps:normal;font-variant-numeric:normal;font-variant-east-asian:normal;stroke-width:0.264583"
       d="m 23.63755,15.812929 q -0.113688,0.04961 -0.206706,0.09302 -0.09095,0.04341 -0.239778,0.09095 -0.126091,0.03927 -0.274919,0.06615 -0.146761,0.02894 -0.324528,0.02894 -0.334863,0 -0.609782,-0.09302 -0.272851,-0.09509 -0.475423,-0.295589 -0.198437,-0.196371 -0.310058,-0.498161 -0.111621,-0.303857 -0.111621,-0.704867 0,-0.380338 0.107487,-0.680061 0.107487,-0.299724 0.310058,-0.506429 0.196371,-0.200505 0.473356,-0.305925 0.279053,-0.10542 0.61805,-0.10542 0.248047,0 0.494027,0.05995 0.248047,0.05994 0.549837,0.21084 v 0.485758 h -0.03101 q -0.254248,-0.212907 -0.504362,-0.310058 -0.250114,-0.09715 -0.535367,-0.09715 -0.233578,0 -0.42168,0.07648 -0.186035,0.07441 -0.332796,0.233578 -0.142627,0.155029 -0.223242,0.39274 -0.07855,0.235645 -0.07855,0.545703 0,0.324528 0.08682,0.558106 0.08888,0.233577 0.227376,0.380338 0.144694,0.152963 0.33693,0.227377 0.194304,0.07235 0.409278,0.07235 0.295589,0 0.553971,-0.101286 0.258382,-0.101286 0.483691,-0.303857 h 0.02894 z" />
    <path
       id="path3257"
       style="font-style:normal;font-variant:normal;font-weight:normal;font-stretch:normal;font-size:4.23333px;font-family:sans-serif;-inkscape-font-specification:'sans-serif, Normal';font-variant-ligatures:normal;font-variant-caps:normal;font-variant-numeric:normal;font-variant-east-asian:normal;stroke-width:0.264583"
       d="m 26.120086,16.036171 h -0.388607 v -1.314648 q 0,-0.159164 -0.0186,-0.297657 -0.0186,-0.14056 -0.06821,-0.219108 -0.05168,-0.08682 -0.148828,-0.128157 -0.09715,-0.04341 -0.252181,-0.04341 -0.159164,0 -0.332797,0.07855 -0.173632,0.07855 -0.332796,0.200504 v 1.723926 H 24.189454 V 12.81983 h 0.388607 v 1.163753 q 0.181901,-0.150895 0.376205,-0.235644 0.194303,-0.08475 0.398942,-0.08475 0.374137,0 0.570507,0.22531 0.196371,0.225309 0.196371,0.649056 z" />
    <path
       id="path3259"
       style="font-style:normal;font-variant:normal;font-weight:normal;font-stretch:normal;font-size:4.23333px;font-family:sans-serif;-inkscape-font-specification:'sans-serif, Normal';font-variant-ligatures:normal;font-variant-caps:normal;font-variant-numeric:normal;font-variant-east-asian:normal;stroke-width:0.264583"
       d="m 28.836199,14.882753 q 0,0.564307 -0.289388,0.890902 -0.289388,0.326595 -0.775146,0.326595 -0.489893,0 -0.779281,-0.326595 -0.287321,-0.326595 -0.287321,-0.890902 0,-0.564307 0.287321,-0.890902 0.289388,-0.328662 0.779281,-0.328662 0.485758,0 0.775146,0.328662 0.289388,0.326595 0.289388,0.890902 z m -0.401009,0 q 0,-0.448551 -0.1757,-0.665592 -0.1757,-0.219108 -0.487825,-0.219108 -0.31626,0 -0.49196,0.219108 -0.173633,0.217041 -0.173633,0.665592 0,0.434082 0.1757,0.659391 0.1757,0.223242 0.489893,0.223242 0.310058,0 0.485758,-0.221175 0.177767,-0.223242 0.177767,-0.661458 z" />
    <path
       id="path3261"
       style="font-style:normal;font-variant:normal;font-weight:normal;font-stretch:normal;font-size:4.23333px;font-family:sans-serif;-inkscape-font-specification:'sans-serif, Normal';font-variant-ligatures:normal;font-variant-caps:normal;font-variant-numeric:normal;font-variant-east-asian:normal;stroke-width:0.264583"
       d="m 32.343995,13.727268 -0.601514,2.308903 h -0.359668 l -0.593245,-1.779736 -0.589111,1.779736 h -0.357601 l -0.607715,-2.308903 h 0.405143 l 0.423747,1.788005 0.576709,-1.788005 h 0.320394 l 0.591178,1.788005 0.401009,-1.788005 z" />
    <path
       id="path3263"
       style="font-style:normal;font-variant:normal;font-weight:normal;font-stretch:normal;font-size:4.23333px;font-family:sans-serif;-inkscape-font-specification:'sans-serif, Normal';font-variant-ligatures:normal;font-variant-caps:normal;font-variant-numeric:normal;font-variant-east-asian:normal;stroke-width:0.264583"
       d="m 36.389226,13.322125 h -1.556494 v 0.868164 h 1.337386 v 0.363802 h -1.337386 v 1.48208 h -0.409277 v -3.077848 h 1.965771 z" />
    <path
       id="path3265"
       style="font-style:normal;font-variant:normal;font-weight:normal;font-stretch:normal;font-size:4.23333px;font-family:sans-serif;-inkscape-font-specification:'sans-serif, Normal';font-variant-ligatures:normal;font-variant-caps:normal;font-variant-numeric:normal;font-variant-east-asian:normal;stroke-width:0.264583"
       d="m 39.454672,14.500347 q 0,0.419613 -0.183968,0.760678 -0.181901,0.341064 -0.485758,0.529166 -0.21084,0.130225 -0.471289,0.188102 -0.258383,0.05788 -0.682129,0.05788 h -0.777214 v -3.077848 h 0.768945 q 0.450619,0 0.715202,0.06615 0.266651,0.06408 0.450619,0.177767 0.314192,0.19637 0.489892,0.522965 0.1757,0.326595 0.1757,0.775146 z m -0.427881,-0.0062 q 0,-0.361735 -0.12609,-0.609782 -0.126091,-0.248046 -0.376205,-0.390673 -0.181901,-0.103353 -0.386539,-0.142627 -0.204639,-0.04134 -0.489893,-0.04134 h -0.384473 v 2.375048 h 0.384473 q 0.295589,0 0.514697,-0.04341 0.221175,-0.04341 0.405144,-0.16123 0.229443,-0.146761 0.343131,-0.38654 0.115755,-0.239779 0.115755,-0.599446 z" />
    <path
       id="path3267"
       style="font-style:normal;font-variant:normal;font-weight:normal;font-stretch:normal;font-size:4.23333px;font-family:sans-serif;-inkscape-font-specification:'sans-serif, Normal';font-variant-ligatures:normal;font-variant-caps:normal;font-variant-numeric:normal;font-variant-east-asian:normal;stroke-width:0.264583"
       d="m 42.468442,16.036171 h -0.506429 l -1.459342,-2.75332 v 2.75332 h -0.382406 v -3.077848 h 0.634587 l 1.331185,2.513541 v -2.513541 h 0.382405 z" />
  </g>
  <rect
     style="display:inline;fill:#791413;fill-opacity:1;stroke-width:0.377902"
     id="rect885"
     width="12"
     height="17"
     x="24.48"
     y="107"
     ry="3.6348655" />
  <g
     aria-label="out"
     transform="matrix(0.32009998,0,0,0.34853618,21.364652,-34.841832)"
     style="font-style:normal;font-variant:normal;font-weight:normal;font-stretch:normal;font-size:16px;line-height:1.25;font-family:'Gotham Rounded';-inkscape-font-specification:'Gotham Rounded, Normal';font-variant-ligatures:normal;font-variant-caps:normal;font-variant-numeric:normal;font-feature-settings:normal;text-align:start;letter-spacing:0px;word-spacing:0px;writing-mode:lr-tb;text-anchor:start;fill:#ffffff;fill-opacity:1;stroke:none"
     id="flowRoot3818">
    <path
       d="m 24.035156,445.40002 q 0,2.13281 -1.09375,3.36719 -1.09375,1.23437 -2.929687,1.23437 -1.851563,0 -2.945313,-1.23437 -1.085937,-1.23438 -1.085937,-3.36719 0,-2.13281 1.085937,-3.36719 1.09375,-1.24219 2.945313,-1.24219 1.835937,0 2.929687,1.24219 1.09375,1.23438 1.09375,3.36719 z m -1.515625,0 q 0,-1.69531 -0.664062,-2.51563 -0.664063,-0.82812 -1.84375,-0.82812 -1.195313,0 -1.859375,0.82812 -0.65625,0.82032 -0.65625,2.51563 0,1.64062 0.664062,2.49219 0.664063,0.84375 1.851563,0.84375 1.171875,0 1.835937,-0.83594 0.671875,-0.84375 0.671875,-2.5 z"
       id="path3975"
       inkscape:connector-curvature="0"
       style="fill:#ffffff;fill-opacity:1" />
    <path
       d="m 33.550781,449.75939 h -1.46875 v -0.96875 q -0.742187,0.58594 -1.421875,0.89844 -0.679687,0.3125 -1.5,0.3125 -1.375,0 -2.140625,-0.83594 -0.765625,-0.84375 -0.765625,-2.46875 v -5.66406 h 1.46875 v 4.96875 q 0,0.66406 0.0625,1.14063 0.0625,0.46875 0.265625,0.80468 0.210938,0.34375 0.546875,0.5 0.335938,0.15625 0.976563,0.15625 0.570312,0 1.242187,-0.29687 0.679688,-0.29688 1.265625,-0.75781 v -6.51563 h 1.46875 z"
       id="path3977"
       inkscape:connector-curvature="0"
       style="fill:#ffffff;fill-opacity:1" />
    <path
       d="m 40.972656,449.68127 q -0.414062,0.10937 -0.90625,0.17969 -0.484375,0.0703 -0.867187,0.0703 -1.335938,0 -2.03125,-0.71875 -0.695313,-0.71875 -0.695313,-2.30469 v -4.64062 h -0.992187 v -1.23438 h 0.992187 v -2.50781 h 1.46875 v 2.50781 h 3.03125 v 1.23438 h -3.03125 v 3.97656 q 0,0.6875 0.03125,1.07812 0.03125,0.38282 0.21875,0.71875 0.171875,0.3125 0.46875,0.46094 0.304688,0.14063 0.921875,0.14063 0.359375,0 0.75,-0.10157 0.390625,-0.10937 0.5625,-0.17968 h 0.07813 z"
       id="path3979"
       inkscape:connector-curvature="0"
       style="fill:#ffffff;fill-opacity:1" />
  </g>
  <g
     aria-label="in"
     transform="matrix(0.33952249,0,0,0.34156126,2.5512477,-31.620384)"
     style="font-style:normal;font-variant:normal;font-weight:normal;font-stretch:normal;font-size:16px;line-height:1.25;font-family:'Gotham Rounded';-inkscape-font-specification:'Gotham Rounded, Normal';font-variant-ligatures:normal;font-variant-caps:normal;font-variant-numeric:normal;font-feature-settings:normal;text-align:start;letter-spacing:0px;word-spacing:0px;writing-mode:lr-tb;text-anchor:start;fill:#000000;fill-opacity:1;stroke:none"
     id="flowRoot3818-0">
    <path
       d="m 18.175781,439.57189 h -1.65625 v -1.52343 h 1.65625 z m -0.09375,10.1875 h -1.46875 v -8.72656 h 1.46875 z"
       id="path3970"
       inkscape:connector-curvature="0" />
    <path
       d="m 28.300781,449.75939 h -1.46875 v -4.96875 q 0,-0.60156 -0.07031,-1.125 -0.07031,-0.53125 -0.257813,-0.82812 -0.195312,-0.32813 -0.5625,-0.48438 -0.367187,-0.16406 -0.953125,-0.16406 -0.601562,0 -1.257812,0.29688 -0.65625,0.29687 -1.257813,0.75781 v 6.51562 h -1.46875 v -8.72656 h 1.46875 v 0.96875 q 0.6875,-0.57031 1.421875,-0.89062 0.734375,-0.32032 1.507813,-0.32032 1.414062,0 2.15625,0.85157 0.742187,0.85156 0.742187,2.45312 z"
       id="path3972"
       inkscape:connector-curvature="0" />
  </g>
  <g
     transform="matrix(0.76202417,0,0,1.053527,-4.0955147,-1.8068567)"
     style="font-style:normal;font-variant:normal;font-weight:normal;font-stretch:normal;font-size:4.93889px;line-height:1.25;font-family:sans-serif;-inkscape-font-specification:'sans-serif, Normal';font-variant-ligatures:normal;font-variant-caps:normal;font-variant-numeric:normal;font-variant-east-asian:normal;letter-spacing:0px;word-spacing:0px;fill:#000000;fill-opacity:1;stroke:none;stroke-width:0.264583"
     id="text3332"
     aria-label="Pre-Delay">
    <path
       id="path3357"
       style="font-style:normal;font-variant:normal;font-weight:normal;font-stretch:normal;font-size:4.93889px;font-family:sans-serif;-inkscape-font-specification:'sans-serif, Normal';font-variant-ligatures:normal;font-variant-caps:normal;font-variant-numeric:normal;font-variant-east-asian:normal;stroke-width:0.264583"
       d="m 9.2456483,31.437612 q 0,0.238745 -0.084405,0.443728 -0.081993,0.202572 -0.2315105,0.352089 -0.1856906,0.18569 -0.4389051,0.279741 -0.2532146,0.09164 -0.6390653,0.09164 h -0.47749 v 1.33842 H 6.8967821 v -3.590823 h 0.9742731 q 0.3231499,0 0.5474257,0.05547 0.2242757,0.05305 0.3979085,0.168809 0.2049832,0.13746 0.3159153,0.342443 0.1133436,0.204983 0.1133436,0.518487 z m -0.4967828,0.01206 q 0,-0.18569 -0.065112,-0.323149 Q 8.6186409,30.98906 8.4860047,30.902244 8.3702495,30.827485 8.2207324,30.796135 8.0736268,30.762373 7.8469395,30.762373 H 7.3742724 v 1.434882 h 0.4027317 q 0.289388,0 0.4702555,-0.05064 0.1808675,-0.05305 0.2942112,-0.166398 0.1133436,-0.115755 0.1591634,-0.243568 0.048231,-0.127813 0.048231,-0.286977 z" />
    <path
       id="path3359"
       style="font-style:normal;font-variant:normal;font-weight:normal;font-stretch:normal;font-size:4.93889px;font-family:sans-serif;-inkscape-font-specification:'sans-serif, Normal';font-variant-ligatures:normal;font-variant-caps:normal;font-variant-numeric:normal;font-variant-east-asian:normal;stroke-width:0.264583"
       d="m 11.522167,31.743881 h -0.02412 q -0.101286,-0.02412 -0.197749,-0.03376 -0.09405,-0.01206 -0.224275,-0.01206 -0.209807,0 -0.405144,0.09405 -0.195337,0.09164 -0.376204,0.238745 V 33.94323 H 9.8413053 V 31.249509 H 10.29468 v 0.397909 q 0.270095,-0.217041 0.475079,-0.306269 0.207394,-0.09164 0.422024,-0.09164 0.118167,0 0.171221,0.0072 0.05306,0.0048 0.159163,0.0217 z" />
    <path
       id="path3361"
       style="font-style:normal;font-variant:normal;font-weight:normal;font-stretch:normal;font-size:4.93889px;font-family:sans-serif;-inkscape-font-specification:'sans-serif, Normal';font-variant-ligatures:normal;font-variant-caps:normal;font-variant-numeric:normal;font-variant-east-asian:normal;stroke-width:0.264583"
       d="m 14.208653,32.643395 h -1.98472 q 0,0.248392 0.07476,0.434082 0.07476,0.183279 0.204983,0.301446 0.125402,0.115755 0.296623,0.173633 0.173633,0.05788 0.381027,0.05788 0.274919,0 0.552249,-0.10852 0.279742,-0.110932 0.397909,-0.217041 h 0.02412 v 0.494371 q -0.229099,0.09646 -0.467844,0.161575 -0.238746,0.06511 -0.501606,0.06511 -0.670416,0 -1.04662,-0.361735 -0.376205,-0.364146 -0.376205,-1.03215 0,-0.66077 0.359324,-1.049032 0.361735,-0.388262 0.950157,-0.388262 0.545014,0 0.839225,0.318327 0.296623,0.318327 0.296623,0.904337 z m -0.441317,-0.347266 q -0.0024,-0.356911 -0.180867,-0.552248 -0.176045,-0.195337 -0.53778,-0.195337 -0.364146,0 -0.581187,0.214629 -0.21463,0.21463 -0.243569,0.532956 z" />
    <path
       id="path3363"
       style="font-style:normal;font-variant:normal;font-weight:normal;font-stretch:normal;font-size:4.93889px;font-family:sans-serif;-inkscape-font-specification:'sans-serif, Normal';font-variant-ligatures:normal;font-variant-caps:normal;font-variant-numeric:normal;font-variant-east-asian:normal;stroke-width:0.264583"
       d="M 16.323598,32.590341 H 14.81878 v -0.436494 h 1.504818 z" />
    <path
       id="path3365"
       style="font-style:normal;font-variant:normal;font-weight:normal;font-stretch:normal;font-size:4.93889px;font-family:sans-serif;-inkscape-font-specification:'sans-serif, Normal';font-variant-ligatures:normal;font-variant-caps:normal;font-variant-numeric:normal;font-variant-east-asian:normal;stroke-width:0.264583"
       d="m 20.213454,32.151435 q 0,0.489549 -0.214629,0.887457 -0.212218,0.397909 -0.566719,0.617361 -0.245979,0.151929 -0.549837,0.219453 -0.301446,0.06752 -0.795817,0.06752 h -0.906749 v -3.590823 h 0.897103 q 0.525721,0 0.834402,0.07717 0.311092,0.07476 0.525722,0.207394 0.366558,0.229099 0.571541,0.610127 0.204983,0.381027 0.204983,0.904337 z m -0.499194,-0.0072 q 0,-0.422024 -0.147106,-0.711412 -0.147105,-0.289389 -0.438905,-0.455787 -0.212218,-0.120578 -0.450963,-0.166398 -0.238745,-0.04823 -0.571541,-0.04823 h -0.448552 v 2.77089 h 0.448552 q 0.344854,0 0.60048,-0.05064 0.258037,-0.05064 0.472667,-0.188102 0.267684,-0.171221 0.40032,-0.450963 0.135048,-0.279742 0.135048,-0.699354 z" />
    <path
       id="path3367"
       style="font-style:normal;font-variant:normal;font-weight:normal;font-stretch:normal;font-size:4.93889px;font-family:sans-serif;-inkscape-font-specification:'sans-serif, Normal';font-variant-ligatures:normal;font-variant-caps:normal;font-variant-numeric:normal;font-variant-east-asian:normal;stroke-width:0.264583"
       d="m 23.208621,32.643395 h -1.98472 q 0,0.248392 0.07476,0.434082 0.07476,0.183279 0.204983,0.301446 0.125401,0.115755 0.296622,0.173633 0.173633,0.05788 0.381028,0.05788 0.274919,0 0.552249,-0.10852 0.279742,-0.110932 0.397908,-0.217041 h 0.02412 v 0.494371 q -0.229099,0.09646 -0.467844,0.161575 -0.238745,0.06511 -0.501606,0.06511 -0.670415,0 -1.04662,-0.361735 -0.376204,-0.364146 -0.376204,-1.03215 0,-0.66077 0.359323,-1.049032 0.361735,-0.388262 0.950158,-0.388262 0.545014,0 0.839225,0.318327 0.296623,0.318327 0.296623,0.904337 z m -0.441317,-0.347266 q -0.0024,-0.356911 -0.180868,-0.552248 -0.176044,-0.195337 -0.537779,-0.195337 -0.364147,0 -0.581188,0.214629 -0.214629,0.21463 -0.243568,0.532956 z" />
    <path
       id="path3369"
       style="font-style:normal;font-variant:normal;font-weight:normal;font-stretch:normal;font-size:4.93889px;font-family:sans-serif;-inkscape-font-specification:'sans-serif, Normal';font-variant-ligatures:normal;font-variant-caps:normal;font-variant-numeric:normal;font-variant-east-asian:normal;stroke-width:0.264583"
       d="m 24.354115,33.94323 h -0.453374 v -3.752398 h 0.453374 z" />
    <path
       id="path3371"
       style="font-style:normal;font-variant:normal;font-weight:normal;font-stretch:normal;font-size:4.93889px;font-family:sans-serif;-inkscape-font-specification:'sans-serif, Normal';font-variant-ligatures:normal;font-variant-caps:normal;font-variant-numeric:normal;font-variant-east-asian:normal;stroke-width:0.264583"
       d="m 27.349282,33.94323 h -0.450963 v -0.286977 q -0.06029,0.041 -0.163986,0.115755 -0.101286,0.07235 -0.197749,0.115756 -0.113344,0.05547 -0.260449,0.09164 -0.147106,0.03859 -0.344854,0.03859 -0.364147,0 -0.617361,-0.241156 -0.253215,-0.241157 -0.253215,-0.61495 0,-0.306269 0.130225,-0.494371 0.132636,-0.190514 0.376204,-0.299035 0.24598,-0.10852 0.590834,-0.147105 0.344854,-0.03858 0.740351,-0.05788 v -0.06994 q 0,-0.15434 -0.05547,-0.255626 -0.05305,-0.101286 -0.15434,-0.159164 -0.09646,-0.05547 -0.231511,-0.07476 -0.135047,-0.01929 -0.282153,-0.01929 -0.178456,0 -0.397908,0.04823 -0.219453,0.04582 -0.453375,0.135047 h -0.02412 v -0.460609 q 0.132636,-0.03617 0.383439,-0.07958 0.250803,-0.04341 0.494372,-0.04341 0.284565,0 0.494371,0.04823 0.212218,0.04582 0.366558,0.159164 0.151929,0.110932 0.23151,0.286976 0.07958,0.176045 0.07958,0.436494 z m -0.450963,-0.663181 v -0.749998 q -0.207395,0.01206 -0.489548,0.03617 -0.279742,0.02412 -0.443728,0.06993 -0.195337,0.05547 -0.315916,0.173633 -0.120578,0.115755 -0.120578,0.320739 0,0.23151 0.139871,0.349677 0.139871,0.115755 0.426847,0.115755 0.238745,0 0.436494,-0.09164 0.197748,-0.09405 0.366558,-0.224275 z" />
    <path
       id="path3373"
       style="font-style:normal;font-variant:normal;font-weight:normal;font-stretch:normal;font-size:4.93889px;font-family:sans-serif;-inkscape-font-specification:'sans-serif, Normal';font-variant-ligatures:normal;font-variant-caps:normal;font-variant-numeric:normal;font-variant-east-asian:normal;stroke-width:0.264583"
       d="m 30.51808,31.249509 -1.572341,3.687286 h -0.484725 l 0.501606,-1.12379 -1.073148,-2.563496 h 0.49196 l 0.827167,1.996778 0.834403,-1.996778 z" />
  </g>
  <g
     transform="matrix(0.48209364,0,0,0.50165244,14.709404,6.3102682)"
     style="font-style:normal;font-weight:normal;font-size:10.5833px;line-height:1.25;font-family:sans-serif;letter-spacing:0px;word-spacing:0px;fill:#000000;fill-opacity:1;stroke:none;stroke-width:0.264583"
     id="text3378"
     aria-label="Size">
    <path
       id="path3380"
       style="stroke-width:0.264583"
       d="m 28.27373,52.861277 q 0,0.449583 -0.211873,0.888831 -0.206705,0.439249 -0.583942,0.744139 -0.41341,0.330728 -0.966346,0.516762 -0.547768,0.186035 -1.322912,0.186035 -0.831988,0 -1.498612,-0.155029 -0.661456,-0.155029 -1.348751,-0.459919 v -1.281571 h 0.07235 q 0.583942,0.485757 1.348751,0.749306 0.764808,0.263549 1.4366,0.263549 0.950843,0 1.477941,-0.356566 0.532266,-0.356567 0.532266,-0.950844 0,-0.511595 -0.253214,-0.754473 -0.248046,-0.242879 -0.759641,-0.377237 -0.387572,-0.103353 -0.842323,-0.170532 -0.449584,-0.06718 -0.956011,-0.170531 -1.02319,-0.217041 -1.519283,-0.738971 -0.490924,-0.527098 -0.490924,-1.369421 0,-0.966346 0.816485,-1.581294 0.816485,-0.620115 2.072218,-0.620115 0.811318,0 1.488277,0.155029 0.676959,0.155028 1.198889,0.382404 v 1.209225 h -0.07235 q -0.439248,-0.372069 -1.157548,-0.614948 -0.713132,-0.248046 -1.462438,-0.248046 -0.821653,0 -1.322913,0.341063 -0.496092,0.341064 -0.496092,0.878497 0,0.480589 0.248046,0.754473 0.248046,0.273885 0.873329,0.418578 0.330728,0.07235 0.940508,0.175699 0.60978,0.103353 1.033526,0.211873 0.857826,0.227376 1.291906,0.687295 0.434081,0.459918 0.434081,1.286739 z" />
    <path
       id="path3382"
       style="stroke-width:0.264583"
       d="m 30.883381,48.318933 h -1.095537 v -1.007688 h 1.095537 z m -0.06201,6.738585 h -0.971514 v -5.772239 h 0.971514 z" />
    <path
       id="path3384"
       style="stroke-width:0.264583"
       d="m 36.93984,55.057518 h -4.6612 v -0.7183 l 3.364125,-4.242622 h -3.291778 v -0.811317 h 4.501003 v 0.692462 l -3.379628,4.258124 h 3.467478 z" />
    <path
       id="path3386"
       style="stroke-width:0.264583"
       d="m 43.084148,52.272167 h -4.252957 q 0,0.532266 0.160196,0.930173 0.160197,0.39274 0.439249,0.645953 0.268716,0.248046 0.635618,0.372069 0.372069,0.124024 0.816485,0.124024 0.589109,0 1.183386,-0.232544 0.599445,-0.237711 0.852659,-0.465086 h 0.05168 v 1.059363 q -0.490925,0.206705 -1.00252,0.346231 -0.511595,0.139526 -1.074866,0.139526 -1.4366,0 -2.24275,-0.775144 -0.80615,-0.780311 -0.80615,-2.211744 0,-1.41593 0.769977,-2.247918 0.775144,-0.831988 2.036045,-0.831988 1.167883,0 1.798334,0.682127 0.635618,0.682127 0.635618,1.93786 z m -0.945676,-0.744138 q -0.0052,-0.764809 -0.387572,-1.183387 -0.377237,-0.418577 -1.152381,-0.418577 -0.780311,0 -1.245398,0.459918 -0.459919,0.459919 -0.52193,1.142046 z" />
  </g>
  <g
     transform="matrix(0.33886135,0,0,0.49938694,1.3920576,34.022516)"
     style="font-style:normal;font-weight:normal;font-size:10.5833px;line-height:1.25;font-family:sans-serif;letter-spacing:0px;word-spacing:0px;fill:#000000;fill-opacity:1;stroke:none;stroke-width:0.264583"
     id="text3391"
     aria-label="T60 Low">
    <path
       id="path3393"
       style="stroke-width:0.264583"
       d="M 10.263318,53.08328 H 7.5141409 v 6.785094 H 6.4909508 V 53.08328 H 3.7417734 v -0.909502 h 6.5215446 z" />
    <path
       id="path3395"
       style="stroke-width:0.264583"
       d="m 16.428297,57.37241 q 0,1.173051 -0.775144,1.91719 -0.769976,0.73897 -1.891351,0.73897 -0.568439,0 -1.033526,-0.175699 -0.465086,-0.175699 -0.821652,-0.52193 -0.444416,-0.428913 -0.687295,-1.136878 -0.23771,-0.707965 -0.23771,-1.705317 0,-1.02319 0.21704,-1.813837 0.222208,-0.790647 0.702797,-1.405595 0.454751,-0.583941 1.173051,-0.909502 0.718301,-0.330728 1.674312,-0.330728 0.30489,0 0.511595,0.02584 0.206705,0.02584 0.418577,0.09302 v 0.987017 h -0.05168 q -0.144693,-0.07751 -0.439248,-0.144693 -0.289387,-0.07235 -0.594277,-0.07235 -1.11104,0 -1.772496,0.697629 -0.661456,0.692462 -0.769977,1.875849 0.434081,-0.263549 0.852659,-0.397907 0.423745,-0.139526 0.976681,-0.139526 0.490925,0 0.862994,0.09302 0.377237,0.08785 0.769976,0.361734 0.454751,0.315225 0.682127,0.795814 0.232543,0.48059 0.232543,1.167884 z m -1.049028,0.04134 q 0,-0.480589 -0.144694,-0.795814 -0.139525,-0.315226 -0.465086,-0.547769 -0.237711,-0.165364 -0.527098,-0.21704 -0.289387,-0.05168 -0.604612,-0.05168 -0.439248,0 -0.816485,0.103352 -0.377237,0.103353 -0.775144,0.320393 -0.01034,0.113688 -0.0155,0.222208 -0.0052,0.103352 -0.0052,0.263549 0,0.816485 0.165364,1.291907 0.170532,0.470254 0.465087,0.744138 0.237711,0.227375 0.511595,0.335896 0.279052,0.103352 0.604612,0.103352 0.749306,0 1.178219,-0.454751 0.428913,-0.459919 0.428913,-1.317745 z" />
    <path
       id="path3397"
       style="stroke-width:0.264583"
       d="m 23.04286,56.018492 q 0,2.072218 -0.651121,3.043732 -0.645954,0.966346 -2.010207,0.966346 -1.384924,0 -2.02571,-0.981849 -0.635618,-0.981849 -0.635618,-3.017894 0,-2.051548 0.645953,-3.028229 0.645954,-0.981849 2.015375,-0.981849 1.384924,0 2.020542,0.997352 0.640786,0.992184 0.640786,3.002391 z m -1.359086,2.346102 q 0.180867,-0.418577 0.242878,-0.981849 0.06718,-0.568439 0.06718,-1.364253 0,-0.785479 -0.06718,-1.364254 -0.06201,-0.578774 -0.248046,-0.981849 -0.180867,-0.397907 -0.496092,-0.599444 -0.310058,-0.201538 -0.800982,-0.201538 -0.485757,0 -0.80615,0.201538 -0.315225,0.201537 -0.50126,0.60978 -0.175699,0.382404 -0.242878,0.997352 -0.06201,0.614947 -0.06201,1.34875 0,0.80615 0.05684,1.348751 0.05684,0.542601 0.242879,0.971514 0.170531,0.403074 0.480589,0.614947 0.315225,0.211873 0.831988,0.211873 0.485757,0 0.80615,-0.201538 0.320393,-0.201537 0.496092,-0.60978 z" />
    <path
       id="path3399"
       style="stroke-width:0.264583"
       d="m 33.372945,59.868374 h -4.867904 v -7.694596 h 1.02319 v 6.785094 h 3.844714 z" />
    <path
       id="path3401"
       style="stroke-width:0.264583"
       d="m 39.238203,56.984838 q 0,1.410762 -0.723468,2.227247 -0.723467,0.816485 -1.93786,0.816485 -1.224727,0 -1.948195,-0.816485 -0.7183,-0.816485 -0.7183,-2.227247 0,-1.410762 0.7183,-2.227247 0.723468,-0.821653 1.948195,-0.821653 1.214393,0 1.93786,0.821653 0.723468,0.816485 0.723468,2.227247 z m -1.002519,0 q 0,-1.121375 -0.439249,-1.663976 -0.439248,-0.547768 -1.21956,-0.547768 -0.790647,0 -1.229895,0.547768 -0.43408,0.542601 -0.43408,1.663976 0,1.085202 0.439248,1.648473 0.439248,0.558104 1.224727,0.558104 0.775144,0 1.214393,-0.552936 0.444416,-0.558104 0.444416,-1.653641 z" />
    <path
       id="path3403"
       style="stroke-width:0.264583"
       d="m 48.007666,54.096135 -1.503779,5.772239 h -0.899168 l -1.483108,-4.449327 -1.472774,4.449327 h -0.893999 l -1.519283,-5.772239 h 1.012855 l 1.059364,4.469997 1.441767,-4.469997 h 0.800983 l 1.477941,4.469997 1.002519,-4.469997 z" />
  </g>
  <g
     transform="matrix(0.38315078,0,0,0.48891469,11.956379,30.08723)"
     style="font-style:normal;font-weight:normal;font-size:10.5833px;line-height:1.25;font-family:sans-serif;letter-spacing:0px;word-spacing:0px;fill:#000000;fill-opacity:1;stroke:none;stroke-width:0.264583"
     id="text3408"
     aria-label="T60 High">
    <path
       id="path3410"
       style="stroke-width:0.264583"
       d="m 31.377611,62.437715 h -2.749178 v 6.785094 h -1.02319 v -6.785094 h -2.749177 v -0.909502 h 6.521545 z" />
    <path
       id="path3412"
       style="stroke-width:0.264583"
       d="m 37.54259,66.726845 q 0,1.173051 -0.775144,1.91719 -0.769977,0.73897 -1.891352,0.73897 -0.568439,0 -1.033525,-0.175699 -0.465087,-0.175699 -0.821653,-0.52193 -0.444416,-0.428913 -0.687294,-1.136878 -0.237711,-0.707965 -0.237711,-1.705317 0,-1.02319 0.21704,-1.813837 0.222208,-0.790647 0.702798,-1.405595 0.454751,-0.583941 1.173051,-0.909502 0.7183,-0.330728 1.674311,-0.330728 0.30489,0 0.511595,0.02584 0.206705,0.02584 0.418578,0.09302 v 0.987017 h -0.05168 q -0.144693,-0.07751 -0.439248,-0.144693 -0.289387,-0.07235 -0.594277,-0.07235 -1.11104,0 -1.772496,0.697629 -0.661456,0.692462 -0.769976,1.875849 0.43408,-0.263549 0.852658,-0.397907 0.423746,-0.139526 0.976682,-0.139526 0.490924,0 0.862993,0.09302 0.377237,0.08785 0.769977,0.361734 0.454751,0.315225 0.682126,0.795814 0.232544,0.48059 0.232544,1.167884 z m -1.049029,0.04134 q 0,-0.480589 -0.144693,-0.795814 -0.139526,-0.315226 -0.465087,-0.547769 -0.23771,-0.165364 -0.527098,-0.21704 -0.289387,-0.05168 -0.604612,-0.05168 -0.439248,0 -0.816485,0.103352 -0.377237,0.103353 -0.775144,0.320393 -0.01034,0.113688 -0.0155,0.222208 -0.0052,0.103352 -0.0052,0.263549 0,0.816485 0.165364,1.291907 0.170531,0.470254 0.465086,0.744138 0.237711,0.227375 0.511595,0.335896 0.279052,0.103352 0.604612,0.103352 0.749306,0 1.178219,-0.454751 0.428913,-0.459919 0.428913,-1.317745 z" />
    <path
       id="path3414"
       style="stroke-width:0.264583"
       d="m 44.157152,65.372927 q 0,2.072218 -0.651121,3.043732 -0.645953,0.966346 -2.010207,0.966346 -1.384924,0 -2.025709,-0.981849 -0.635619,-0.981849 -0.635619,-3.017894 0,-2.051548 0.645954,-3.028229 0.645953,-0.981849 2.015374,-0.981849 1.384924,0 2.020542,0.997352 0.640786,0.992184 0.640786,3.002391 z m -1.359086,2.346102 q 0.180867,-0.418577 0.242879,-0.981849 0.06718,-0.568439 0.06718,-1.364253 0,-0.785479 -0.06718,-1.364254 -0.06201,-0.578774 -0.248046,-0.981849 -0.180867,-0.397907 -0.496093,-0.599444 -0.310057,-0.201538 -0.800982,-0.201538 -0.485757,0 -0.80615,0.201538 -0.315225,0.201537 -0.501259,0.60978 -0.1757,0.382404 -0.242879,0.997352 -0.06201,0.614947 -0.06201,1.34875 0,0.80615 0.05684,1.348751 0.05684,0.542601 0.242878,0.971514 0.170532,0.403074 0.480589,0.614947 0.315226,0.211873 0.831988,0.211873 0.485757,0 0.80615,-0.201538 0.320393,-0.201537 0.496092,-0.60978 z" />
    <path
       id="path3416"
       style="stroke-width:0.264583"
       d="m 55.50526,69.222809 h -1.02319 v -3.7672 h -3.839547 v 3.7672 h -1.02319 v -7.694596 h 1.02319 v 3.017894 h 3.839547 v -3.017894 h 1.02319 z" />
    <path
       id="path3418"
       style="stroke-width:0.264583"
       d="m 58.543825,62.484224 h -1.095537 v -1.007688 h 1.095537 z m -0.06201,6.738585 H 57.510299 V 63.45057 h 0.971514 z" />
    <path
       id="path3420"
       style="stroke-width:0.264583"
       d="m 65.096375,68.56652 q 0,1.467606 -0.666624,2.154901 -0.666624,0.687294 -2.051548,0.687294 -0.459918,0 -0.899167,-0.06718 -0.43408,-0.06201 -0.857826,-0.180867 v -0.992184 h 0.05168 q 0.237711,0.09302 0.754474,0.227375 0.516763,0.139526 1.033525,0.139526 0.496093,0 0.821653,-0.118855 0.32556,-0.118856 0.506427,-0.330728 0.180867,-0.201538 0.258382,-0.485757 0.07751,-0.28422 0.07751,-0.635619 V 68.43733 q -0.439248,0.351398 -0.842323,0.527097 -0.397907,0.170532 -1.018022,0.170532 -1.033526,0 -1.643306,-0.744138 -0.604612,-0.749306 -0.604612,-2.108392 0,-0.744138 0.206705,-1.281571 0.211873,-0.542601 0.573607,-0.935341 0.335895,-0.366901 0.816485,-0.568439 0.480589,-0.206705 0.956011,-0.206705 0.501259,0 0.837155,0.103353 0.341063,0.09819 0.7183,0.30489 l 0.06201,-0.248046 h 0.909502 z m -0.971514,-0.930173 v -3.147084 q -0.387572,-0.1757 -0.723468,-0.248046 -0.330728,-0.07752 -0.661456,-0.07752 -0.800982,0 -1.260901,0.537433 -0.459919,0.537434 -0.459919,1.560624 0,0.971514 0.341064,1.472773 0.341063,0.50126 1.13171,0.50126 0.423745,0 0.847491,-0.160196 0.428913,-0.165364 0.785479,-0.439249 z" />
    <path
       id="path3422"
       style="stroke-width:0.264583"
       d="m 71.83496,69.222809 h -0.971514 v -3.286611 q 0,-0.397907 -0.04651,-0.744138 -0.04651,-0.351399 -0.170531,-0.547768 -0.129191,-0.217041 -0.37207,-0.320393 -0.242878,-0.108521 -0.63045,-0.108521 -0.397907,0 -0.831988,0.19637 -0.434081,0.19637 -0.831988,0.50126 v 4.309801 h -0.971514 v -8.040827 h 0.971514 v 2.909373 q 0.454751,-0.377236 0.940508,-0.589109 0.485757,-0.211873 0.997352,-0.211873 0.935341,0 1.426265,0.563272 0.490925,0.563271 0.490925,1.622634 z" />
  </g>
  <g
     transform="matrix(0.34494195,0,0,0.49164745,-0.67679028,49.802053)"
     style="font-style:normal;font-weight:normal;font-size:10.5833px;line-height:1.25;font-family:sans-serif;letter-spacing:0px;word-spacing:0px;fill:#000000;fill-opacity:1;stroke:none;stroke-width:0.264583"
     id="text3427"
     aria-label="# Delays">
    <path
       id="path3433"
       style="stroke-width:0.264583"
       d="m 14.869532,84.986331 h -1.720819 l -0.475422,1.943027 h 1.591629 v 0.69763 h -1.772496 l -0.537433,2.175571 H 11.288367 L 11.8258,87.626988 H 10.430541 L 9.8931078,89.802559 H 9.2264839 L 9.7639171,87.626988 H 8.2239643 v -0.69763 H 9.9447841 L 10.420206,84.986331 H 8.8285767 v -0.69763 h 1.7724963 l 0.5426,-2.180738 h 0.666624 l -0.5426,2.180738 h 1.395259 l 0.542601,-2.180738 h 0.666623 l -0.5426,2.180738 h 1.539952 z m -2.37194,-0.01034 h -1.41593 l -0.485757,1.963699 h 1.41593 z" />
    <path
       id="path3435"
       style="stroke-width:0.264583"
       d="m 27.132311,85.963012 q 0,1.049028 -0.459919,1.901687 -0.454751,0.852658 -1.214392,1.322912 -0.527098,0.325561 -1.178219,0.470254 -0.645954,0.144694 -1.705317,0.144694 h -1.943028 v -7.694596 h 1.922357 q 1.126543,0 1.787999,0.165364 0.666624,0.160196 1.126543,0.444416 0.785479,0.490924 1.224727,1.307409 0.439249,0.816485 0.439249,1.93786 z m -1.069699,-0.0155 q 0,-0.904334 -0.315225,-1.52445 Q 25.432162,83.802947 24.806879,83.446381 24.352128,83.188 23.840532,83.089815 23.328937,82.986462 22.615805,82.986462 h -0.961179 v 5.937603 h 0.961179 q 0.738971,0 1.286739,-0.10852 0.552936,-0.10852 1.012855,-0.403075 0.573606,-0.366901 0.857826,-0.966346 0.289387,-0.599445 0.289387,-1.498612 z" />
    <path
       id="path3437"
       style="stroke-width:0.264583"
       d="m 33.550503,87.017208 h -4.252957 q 0,0.532266 0.160197,0.930173 0.160196,0.39274 0.439248,0.645953 0.268717,0.248046 0.635618,0.372069 0.372069,0.124023 0.816485,0.124023 0.58911,0 1.183387,-0.232543 0.599444,-0.237711 0.852658,-0.465086 h 0.05168 v 1.059363 q -0.490924,0.206705 -1.002519,0.346231 -0.511595,0.139526 -1.074867,0.139526 -1.4366,0 -2.24275,-0.775144 -0.806149,-0.780311 -0.806149,-2.211744 0,-1.41593 0.769976,-2.247918 0.775144,-0.831988 2.036045,-0.831988 1.167884,0 1.798334,0.682127 0.635618,0.682127 0.635618,1.93786 z M 32.604827,86.27307 q -0.0052,-0.764809 -0.387572,-1.183387 -0.377236,-0.418577 -1.15238,-0.418577 -0.780312,0 -1.245398,0.459918 -0.459919,0.459919 -0.521931,1.142046 z" />
    <path
       id="path3439"
       style="stroke-width:0.264583"
       d="m 36.005126,89.802559 h -0.971514 v -8.040827 h 0.971514 z" />
    <path
       id="path3441"
       style="stroke-width:0.264583"
       d="m 42.423318,89.802559 h -0.966346 v -0.614948 q -0.129191,0.08785 -0.351399,0.248046 -0.21704,0.155029 -0.423745,0.248046 -0.242879,0.118856 -0.558104,0.19637 -0.315225,0.08268 -0.738971,0.08268 -0.780311,0 -1.322912,-0.516762 -0.542601,-0.516763 -0.542601,-1.317745 0,-0.656289 0.279052,-1.059364 0.284219,-0.408242 0.80615,-0.640785 0.527097,-0.232544 1.266068,-0.315226 0.738971,-0.08268 1.586462,-0.124023 v -0.149861 q 0,-0.330728 -0.118856,-0.547768 -0.113688,-0.217041 -0.330728,-0.341064 -0.206705,-0.118855 -0.496092,-0.160196 -0.289387,-0.04134 -0.604612,-0.04134 -0.382405,0 -0.852659,0.103352 -0.470254,0.09819 -0.971514,0.289388 h -0.05168 v -0.987017 q 0.284219,-0.07751 0.821653,-0.170532 0.537433,-0.09302 1.059363,-0.09302 0.60978,0 1.059364,0.103352 0.454751,0.09819 0.785479,0.341064 0.32556,0.237711 0.496092,0.614947 0.170532,0.377237 0.170532,0.935341 z M 41.456972,88.381462 V 86.77433 q -0.444416,0.02584 -1.049029,0.07751 -0.599444,0.05168 -0.950843,0.149861 -0.418578,0.118856 -0.676959,0.372069 -0.258381,0.248046 -0.258381,0.687295 0,0.496092 0.299722,0.749306 0.299722,0.248046 0.91467,0.248046 0.511595,0 0.93534,-0.19637 0.423746,-0.201538 0.78548,-0.480589 z" />
    <path
       id="path3443"
       style="stroke-width:0.264583"
       d="m 49.213578,84.03032 -3.369293,7.901301 h -1.038693 l 1.074866,-2.408114 -2.299593,-5.493187 h 1.054195 l 1.772496,4.278795 1.787999,-4.278795 z" />
    <path
       id="path3445"
       style="stroke-width:0.264583"
       d="m 54.608581,88.138583 q 0,0.790647 -0.656289,1.297074 -0.651121,0.506428 -1.782831,0.506428 -0.640786,0 -1.178219,-0.149861 -0.532265,-0.155029 -0.893999,-0.335896 v -1.090369 h 0.05168 q 0.459919,0.346231 1.02319,0.552936 0.563271,0.201537 1.080034,0.201537 0.640786,0 1.00252,-0.206705 0.361734,-0.206705 0.361734,-0.651121 0,-0.341063 -0.19637,-0.516763 -0.19637,-0.175699 -0.754474,-0.299722 -0.206705,-0.04651 -0.542601,-0.10852 -0.330728,-0.06201 -0.604612,-0.134358 -0.759641,-0.201538 -1.080034,-0.58911 -0.315225,-0.392739 -0.315225,-0.961178 0,-0.356567 0.144693,-0.671792 0.149862,-0.315225 0.449584,-0.563271 0.289387,-0.242879 0.733803,-0.382405 0.449584,-0.144693 1.00252,-0.144693 0.516762,0 1.04386,0.129191 0.532266,0.124023 0.883664,0.30489 v 1.038692 h -0.05168 q -0.372069,-0.273884 -0.904335,-0.459918 -0.532265,-0.191202 -1.04386,-0.191202 -0.532266,0 -0.899167,0.206705 -0.366902,0.201537 -0.366902,0.604612 0,0.356566 0.222208,0.537433 0.217041,0.180867 0.702797,0.294555 0.268717,0.06201 0.599445,0.124023 0.335896,0.06201 0.558104,0.113688 0.676959,0.155028 1.04386,0.532265 0.366902,0.382405 0.366902,1.012855 z" />
  </g>
  <g
     transform="matrix(0.37263146,0,0,0.4916474,-1.4090798,65.04473)"
     style="font-style:normal;font-weight:normal;font-size:10.5833px;line-height:1.25;font-family:sans-serif;letter-spacing:0px;word-spacing:0px;fill:#000000;fill-opacity:1;stroke:none;stroke-width:0.264583"
     id="text3431"
     aria-label="Dry/Wet">
    <path
       id="path3448"
       style="stroke-width:0.264583"
       d="m 70.610007,54.959751 q 0,1.049028 -0.459919,1.901686 -0.454751,0.852659 -1.214392,1.322913 -0.527098,0.32556 -1.178219,0.470254 -0.645953,0.144693 -1.705317,0.144693 h -1.943027 v -7.694596 h 1.922357 q 1.126542,0 1.787999,0.165364 0.666624,0.160197 1.126542,0.444416 0.78548,0.490925 1.224728,1.30741 0.439248,0.816485 0.439248,1.93786 z m -1.069699,-0.0155 q 0,-0.904335 -0.315225,-1.52445 -0.315225,-0.620115 -0.940508,-0.976682 -0.454751,-0.258381 -0.966346,-0.356566 -0.511595,-0.103352 -1.224728,-0.103352 h -0.961178 v 5.937603 h 0.961178 q 0.738971,0 1.286739,-0.10852 0.552936,-0.108521 1.012855,-0.403075 0.573607,-0.366902 0.857826,-0.966346 0.289387,-0.599445 0.289387,-1.498612 z" />
    <path
       id="path3450"
       style="stroke-width:0.264583"
       d="m 75.798304,54.086422 h -0.05168 q -0.21704,-0.05168 -0.423745,-0.07235 -0.201538,-0.02584 -0.48059,-0.02584 -0.449583,0 -0.868161,0.201537 -0.418578,0.19637 -0.80615,0.511595 v 4.097928 h -0.971514 v -5.772239 h 0.971514 v 0.852659 q 0.578775,-0.465087 1.018023,-0.656289 0.444416,-0.19637 0.904334,-0.19637 0.253214,0 0.366902,0.0155 0.113688,0.01033 0.341063,0.04651 z" />
    <path
       id="path3452"
       style="stroke-width:0.264583"
       d="m 81.715237,53.027058 -3.369293,7.901302 h -1.038693 l 1.074867,-2.408115 -2.299594,-5.493187 h 1.054196 l 1.772496,4.278795 1.787999,-4.278795 z" />
    <path
       id="path3454"
       style="stroke-width:0.264583"
       d="m 86.474621,50.75847 -3.705188,9.611786 h -0.894 l 3.689686,-9.611786 z" />
    <path
       id="path3456"
       style="stroke-width:0.264583"
       d="m 96.835714,51.104701 -1.999872,7.694596 H 93.683461 L 92.065994,52.412111 90.4847,58.799297 h -1.126542 l -2.036045,-7.694596 h 1.049028 l 1.617467,6.397522 1.591629,-6.397522 h 1.038693 l 1.607132,6.459534 1.607132,-6.459534 z" />
    <path
       id="path3458"
       style="stroke-width:0.264583"
       d="m 102.57695,56.013947 h -4.252961 q 0,0.532265 0.160196,0.930172 0.160197,0.39274 0.439249,0.645954 0.268716,0.248046 0.635618,0.372069 0.372069,0.124023 0.816488,0.124023 0.58911,0 1.18338,-0.232543 0.59945,-0.237711 0.85266,-0.465087 h 0.0517 v 1.059364 q -0.49093,0.206705 -1.00252,0.346231 -0.5116,0.139526 -1.07487,0.139526 -1.436598,0 -2.242748,-0.775144 -0.80615,-0.780312 -0.80615,-2.211745 0,-1.415929 0.769976,-2.247917 0.775144,-0.831988 2.036042,-0.831988 1.16789,0 1.79834,0.682127 0.63562,0.682126 0.63562,1.93786 z m -0.94568,-0.744139 q -0.005,-0.764809 -0.38757,-1.183386 -0.37724,-0.418578 -1.15238,-0.418578 -0.780314,0 -1.245401,0.459919 -0.459919,0.459919 -0.52193,1.142045 z" />
    <path
       id="path3460"
       style="stroke-width:0.264583"
       d="m 107.04694,58.747621 q -0.27388,0.07235 -0.59944,0.118855 -0.3204,0.04651 -0.57361,0.04651 -0.88366,0 -1.34358,-0.475422 -0.45992,-0.475421 -0.45992,-1.524449 v -3.069571 h -0.65629 v -0.816485 h 0.65629 V 51.36825 h 0.97151 v 1.658808 h 2.00504 v 0.816485 h -2.00504 v 2.630322 q 0,0.454751 0.0207,0.713133 0.0207,0.253213 0.1447,0.475421 0.11369,0.206706 0.31005,0.30489 0.20154,0.09302 0.60978,0.09302 0.23772,0 0.4961,-0.06718 0.25838,-0.07235 0.37207,-0.118856 h 0.0517 z" />
  </g>
</svg>
