<?xml version="1.0" encoding="UTF-8" standalone="no"?>
<svg
   xmlns:dc="http://purl.org/dc/elements/1.1/"
   xmlns:cc="http://creativecommons.org/ns#"
   xmlns:rdf="http://www.w3.org/1999/02/22-rdf-syntax-ns#"
   xmlns:svg="http://www.w3.org/2000/svg"
   xmlns="http://www.w3.org/2000/svg"
   xmlns:sodipodi="http://sodipodi.sourceforge.net/DTD/sodipodi-0.dtd"
   xmlns:inkscape="http://www.inkscape.org/namespaces/inkscape"
   inkscape:version="1.0 (4035a4fb49, 2020-05-01)"
   sodipodi:docname="ChowModal.svg"
   id="svg78"
   version="1.1"
   fill="none"
   viewBox="0 0 154 486"
   height="128.58749mm"
   width="40.745834mm">
  <metadata
     id="metadata84">
    <rdf:RDF>
      <cc:Work
         rdf:about="">
        <dc:format>image/svg+xml</dc:format>
        <dc:type
           rdf:resource="http://purl.org/dc/dcmitype/StillImage" />
        <dc:title></dc:title>
      </cc:Work>
    </rdf:RDF>
  </metadata>
  <defs
     id="defs82" />
  <sodipodi:namedview
     inkscape:current-layer="svg78"
     inkscape:window-maximized="1"
     inkscape:window-y="-9"
     inkscape:window-x="-9"
     inkscape:cy="243"
     inkscape:cx="77"
     inkscape:zoom="1.7078189"
     units="mm"
     inkscape:document-units="mm"
     showgrid="false"
     id="namedview80"
     inkscape:window-height="1001"
     inkscape:window-width="1920"
     inkscape:pageshadow="2"
     inkscape:pageopacity="0"
     guidetolerance="10"
     gridtolerance="10"
     objecttolerance="10"
     borderopacity="1"
     bordercolor="#666666"
     pagecolor="#ffffff" />
  <path
     id="path2"
     fill="#16161d"
     d="M 0,0 H 154 V 486 H 0 Z" />
  <path
     id="path4"
     fill="#ffffff"
     d="M 34.48,115.81 H 32.0254 V 119 h -1.5791 v -7.82 h 4.3291 v 1.316 h -2.75 v 2.003 H 34.48 Z" />
  <path
     id="path6"
     fill="#ffffff"
     d="M 38.0464,116.143 H 37.2622 V 119 h -1.5791 v -7.82 h 2.519 c 0.7914,0 1.4019,0.206 1.8316,0.617 0.4333,0.409 0.6499,0.99 0.6499,1.746 0,1.038 -0.3778,1.765 -1.1333,2.181 l 1.3696,3.201 V 119 h -1.6972 z m -0.7842,-1.316 h 0.897 c 0.3151,0 0.5514,-0.104 0.709,-0.312 0.1575,-0.211 0.2363,-0.492 0.2363,-0.843 0,-0.784 -0.3062,-1.176 -0.9185,-1.176 h -0.9238 z" />
  <path
     id="path8"
     fill="#ffffff"
     d="m 45.8076,115.616 h -2.4599 v 2.073 h 2.9111 V 119 h -4.4902 v -7.82 h 4.4794 v 1.316 h -2.9003 v 1.847 h 2.4599 z" />
  <path
     id="path10"
     fill="#ffffff"
     d="m 52.6719,115.697 c 0,1.292 -0.3491,2.232 -1.0474,2.82 l 1.0796,0.966 -0.9937,0.913 -1.4394,-1.315 -0.4136,0.026 c -0.8844,0 -1.5773,-0.299 -2.0786,-0.897 -0.4977,-0.601 -0.7484,-1.432 -0.7519,-2.492 v -1.224 c 0,-1.075 0.2488,-1.912 0.7465,-2.514 0.4978,-0.605 1.1888,-0.908 2.0733,-0.908 0.8629,0 1.5451,0.29 2.0464,0.87 0.5013,0.58 0.7609,1.395 0.7788,2.444 z m -1.5845,-1.214 c 0,-0.713 -0.102,-1.239 -0.3062,-1.579 -0.2041,-0.34 -0.5156,-0.51 -0.9345,-0.51 -0.419,0 -0.7287,0.166 -0.9292,0.499 -0.2005,0.329 -0.3044,0.833 -0.3115,1.509 v 1.295 c 0,0.716 0.102,1.244 0.3061,1.584 0.2077,0.34 0.5228,0.511 0.9453,0.511 0.4118,0 0.718,-0.169 0.9185,-0.505 0.2041,-0.341 0.3079,-0.858 0.3115,-1.553 z" />
  <path
     id="path12"
     fill="#ffffff"
     d="m 27.3096,191 v -7.82 h 2.0678 c 0.9131,0 1.64,0.29 2.1807,0.87 0.5443,0.58 0.8218,1.375 0.8325,2.385 v 1.267 c 0,1.028 -0.2721,1.835 -0.8164,2.423 -0.5407,0.583 -1.2873,0.875 -2.2397,0.875 z m 1.5791,-6.504 v 5.193 h 0.4726 c 0.5264,0 0.897,-0.137 1.1118,-0.413 0.2149,-0.279 0.3277,-0.759 0.3384,-1.44 v -1.358 c 0,-0.731 -0.102,-1.239 -0.3061,-1.526 -0.2041,-0.29 -0.5515,-0.442 -1.042,-0.456 z" />
  <path
     id="path14"
     fill="#ffffff"
     d="m 37.5684,187.616 h -2.46 v 2.073 h 2.9111 V 191 h -4.4902 v -7.82 h 4.4795 v 1.316 h -2.9004 v 1.847 h 2.46 z" />
  <path
     id="path16"
     fill="#ffffff"
     d="m 44.2339,188.395 c -0.0394,0.892 -0.2901,1.567 -0.752,2.025 -0.4619,0.458 -1.1136,0.687 -1.955,0.687 -0.8845,0 -1.563,-0.29 -2.0357,-0.87 -0.4691,-0.583 -0.7036,-1.414 -0.7036,-2.492 v -1.316 c 0,-1.074 0.2435,-1.901 0.7305,-2.481 0.4869,-0.584 1.1637,-0.876 2.0302,-0.876 0.8523,0 1.4986,0.238 1.939,0.715 0.444,0.476 0.6965,1.16 0.7573,2.051 h -1.5844 c -0.0144,-0.551 -0.1003,-0.931 -0.2579,-1.138 -0.1539,-0.212 -0.4386,-0.317 -0.854,-0.317 -0.4225,0 -0.7215,0.148 -0.8969,0.446 -0.1755,0.293 -0.2686,0.778 -0.2793,1.455 v 1.477 c 0,0.777 0.0859,1.311 0.2578,1.601 0.1754,0.29 0.4744,0.435 0.897,0.435 0.4153,0 0.7018,-0.1 0.8593,-0.301 0.1576,-0.204 0.2471,-0.571 0.2686,-1.101 z" />
  <path
     id="path18"
     fill="#ffffff"
     d="M 48.939,189.399 H 46.7852 L 46.3662,191 h -1.6704 l 2.4438,-7.82 h 1.4449 l 2.4599,7.82 h -1.6865 z m -1.8101,-1.316 h 1.4609 l -0.7304,-2.787 z" />
  <path
     id="path20"
     fill="#ffffff"
     d="m 53.3325,186.692 1.1763,-3.512 h 1.7187 l -2.0947,4.984 V 191 h -1.6006 v -2.836 l -2.1001,-4.984 h 1.7188 z" />
  <path
     id="path22"
     fill="#ffffff"
     d="M 35.2695,261.399 H 33.1157 L 32.6968,263 h -1.6704 l 2.4438,-7.82 h 1.4448 l 2.46,7.82 h -1.6865 z m -1.81,-1.316 h 1.4609 l -0.7305,-2.787 z" />
  <path
     id="path24"
     fill="#ffffff"
     d="m 40.1733,255.18 1.4771,5.655 1.4717,-5.655 h 2.0625 V 263 h -1.5845 v -2.116 l 0.145,-3.26 -1.563,5.376 h -1.0742 l -1.563,-5.376 0.145,3.26 V 263 h -1.5791 v -7.82 z" />
  <path
     id="path26"
     fill="#ffffff"
     d="M 48.0366,260.25 V 263 h -1.5791 v -7.82 h 2.6641 c 0.7734,0 1.3893,0.24 1.8476,0.719 0.462,0.48 0.6929,1.103 0.6929,1.87 0,0.766 -0.2274,1.371 -0.6821,1.815 -0.4548,0.444 -1.085,0.666 -1.8906,0.666 z m 0,-1.316 h 1.085 c 0.3008,0 0.5335,-0.098 0.6982,-0.295 0.1647,-0.197 0.2471,-0.484 0.2471,-0.86 0,-0.39 -0.0842,-0.7 -0.2524,-0.929 -0.1683,-0.233 -0.3939,-0.351 -0.6768,-0.354 h -1.1011 z" />
  <path
     id="path28"
     fill="#ffffff"
     d="M 28.1904,332.25 V 335 h -1.5791 v -7.82 h 2.6641 c 0.7734,0 1.3893,0.24 1.8476,0.719 0.462,0.48 0.6929,1.103 0.6929,1.87 0,0.766 -0.2274,1.371 -0.6821,1.815 -0.4548,0.444 -1.085,0.666 -1.8906,0.666 z m 0,-1.316 h 1.085 c 0.3008,0 0.5335,-0.098 0.6982,-0.295 0.1647,-0.197 0.2471,-0.484 0.2471,-0.86 0,-0.39 -0.0841,-0.7 -0.2524,-0.929 -0.1683,-0.233 -0.3939,-0.351 -0.6768,-0.354 h -1.1011 z" />
  <path
     id="path30"
     fill="#ffffff"
     d="m 38.3579,335 h -1.5737 v -3.346 H 34.4531 V 335 H 32.874 v -7.82 h 1.5791 v 3.163 h 2.3311 v -3.163 h 1.5737 z" />
  <path
     id="path32"
     fill="#ffffff"
     d="M 43.4604,333.399 H 41.3066 L 40.8877,335 h -1.6704 l 2.4438,-7.82 h 1.4449 l 2.4599,7.82 h -1.6865 z m -1.81,-1.316 h 1.4609 l -0.7304,-2.787 z" />
  <path
     id="path34"
     fill="#ffffff"
     d="m 49.605,332.948 c 0,-0.318 -0.0824,-0.558 -0.2471,-0.719 -0.1611,-0.165 -0.4565,-0.335 -0.8862,-0.511 -0.7842,-0.297 -1.3482,-0.644 -1.6919,-1.042 -0.3438,-0.401 -0.5156,-0.873 -0.5156,-1.418 0,-0.659 0.2327,-1.187 0.6982,-1.584 0.4691,-0.401 1.0635,-0.602 1.7832,-0.602 0.4798,0 0.9077,0.102 1.2837,0.306 0.376,0.201 0.6642,0.486 0.8647,0.854 0.2041,0.369 0.3062,0.788 0.3062,1.257 h -1.5737 c 0,-0.365 -0.0788,-0.642 -0.2364,-0.832 -0.1539,-0.194 -0.3777,-0.29 -0.6713,-0.29 -0.2758,0 -0.4906,0.082 -0.6446,0.247 -0.154,0.161 -0.2309,0.379 -0.2309,0.655 0,0.215 0.0859,0.41 0.2578,0.585 0.1718,0.172 0.4762,0.351 0.9131,0.538 0.7627,0.275 1.3159,0.614 1.6596,1.015 0.3474,0.401 0.521,0.911 0.521,1.531 0,0.68 -0.2166,1.212 -0.6499,1.595 -0.4332,0.383 -1.0223,0.574 -1.7671,0.574 -0.5049,0 -0.965,-0.103 -1.3803,-0.311 -0.4154,-0.208 -0.7413,-0.505 -0.9776,-0.892 -0.2327,-0.386 -0.3491,-0.843 -0.3491,-1.369 h 1.5845 c 0,0.451 0.0877,0.778 0.2632,0.983 0.1754,0.204 0.4619,0.306 0.8593,0.306 0.5515,0 0.8272,-0.292 0.8272,-0.876 z" />
  <path
     id="path36"
     fill="#ffffff"
     d="m 56.2812,331.616 h -2.4599 v 2.073 h 2.9111 V 335 h -4.4902 v -7.82 h 4.4795 v 1.316 h -2.9004 v 1.847 h 2.4599 z" />
  <path
     id="path38"
     fill="#a268ec"
     d="m 133.368,121.368 c 0.467,0.467 1.226,0.468 1.674,-0.017 3.743,-4.055 6.302,-9.07 7.382,-14.498 1.157,-5.82 0.563,-11.8517 -1.708,-17.3335 -2.27,-5.4818 -6.115,-10.1671 -11.049,-13.4636 C 124.734,72.7595 118.933,71 113,71 c -5.933,0 -11.734,1.7595 -16.6671,5.0559 -4.9335,3.2965 -8.7786,7.9818 -11.0493,13.4636 -2.2706,5.4818 -2.8647,11.5135 -1.7071,17.3335 1.0797,5.428 3.6381,10.443 7.382,14.498 0.4479,0.485 1.2068,0.484 1.6736,0.017 v 0 c 0.4669,-0.467 0.4647,-1.222 0.0185,-1.709 -3.4104,-3.719 -5.7417,-8.309 -6.7292,-13.273 -1.0653,-5.355 -0.5185,-10.9066 1.5712,-15.9515 2.0896,-5.0449 5.6284,-9.3569 10.1686,-12.3906 4.5408,-3.0337 9.8778,-4.653 15.3388,-4.653 5.461,0 10.799,1.6193 15.339,4.653 4.54,3.0337 8.079,7.3457 10.168,12.3906 2.09,5.0449 2.637,10.5965 1.572,15.9515 -0.988,4.964 -3.319,9.554 -6.73,13.273 -0.446,0.487 -0.448,1.242 0.019,1.709 z" />
  <path
     id="path40"
     fill="#a268ec"
     d="m 133.368,193.368 c 0.467,0.467 1.226,0.468 1.674,-0.017 3.743,-4.055 6.302,-9.07 7.382,-14.498 1.157,-5.82 0.563,-11.852 -1.708,-17.334 -2.27,-5.481 -6.115,-10.167 -11.049,-13.463 C 124.734,144.759 118.933,143 113,143 c -5.933,0 -11.734,1.759 -16.6671,5.056 -4.9335,3.296 -8.7786,7.982 -11.0493,13.463 -2.2706,5.482 -2.8647,11.514 -1.7071,17.334 1.0797,5.428 3.6381,10.443 7.382,14.498 0.4479,0.485 1.2068,0.484 1.6736,0.017 v 0 c 0.4669,-0.467 0.4647,-1.222 0.0185,-1.709 -3.4104,-3.719 -5.7417,-8.309 -6.7292,-13.273 -1.0653,-5.355 -0.5185,-10.907 1.5712,-15.952 2.0896,-5.044 5.6284,-9.356 10.1686,-12.39 4.5408,-3.034 9.8778,-4.653 15.3388,-4.653 5.461,0 10.799,1.619 15.339,4.653 4.54,3.034 8.079,7.346 10.168,12.39 2.09,5.045 2.637,10.597 1.572,15.952 -0.988,4.964 -3.319,9.554 -6.73,13.273 -0.446,0.487 -0.448,1.242 0.019,1.709 z" />
  <path
     id="path42"
     fill="#a268ec"
     d="m 133.368,265.368 c 0.467,0.467 1.226,0.468 1.674,-0.017 3.743,-4.055 6.302,-9.07 7.382,-14.498 1.157,-5.82 0.563,-11.852 -1.708,-17.334 -2.27,-5.481 -6.115,-10.167 -11.049,-13.463 C 124.734,216.759 118.933,215 113,215 c -5.933,0 -11.734,1.759 -16.6671,5.056 -4.9335,3.296 -8.7786,7.982 -11.0493,13.463 -2.2706,5.482 -2.8647,11.514 -1.7071,17.334 1.0797,5.428 3.6381,10.443 7.382,14.498 0.4479,0.485 1.2068,0.484 1.6736,0.017 v 0 c 0.4669,-0.467 0.4647,-1.222 0.0185,-1.709 -3.4104,-3.719 -5.7417,-8.309 -6.7292,-13.273 -1.0653,-5.355 -0.5185,-10.907 1.5712,-15.952 2.0896,-5.044 5.6284,-9.356 10.1686,-12.39 4.5408,-3.034 9.8778,-4.653 15.3388,-4.653 5.461,0 10.799,1.619 15.339,4.653 4.54,3.034 8.079,7.346 10.168,12.39 2.09,5.045 2.637,10.597 1.572,15.952 -0.988,4.964 -3.319,9.554 -6.73,13.273 -0.446,0.487 -0.448,1.242 0.019,1.709 z" />
  <path
     id="path44"
     fill="#a268ec"
     d="m 133.368,337.368 c 0.467,0.467 1.226,0.468 1.674,-0.017 3.743,-4.055 6.302,-9.07 7.382,-14.498 1.157,-5.82 0.563,-11.852 -1.708,-17.334 -2.27,-5.481 -6.115,-10.167 -11.049,-13.463 C 124.734,288.759 118.933,287 113,287 c -5.933,0 -11.734,1.759 -16.6671,5.056 -4.9335,3.296 -8.7786,7.982 -11.0493,13.463 -2.2706,5.482 -2.8647,11.514 -1.7071,17.334 1.0797,5.428 3.6381,10.443 7.382,14.498 0.4479,0.485 1.2068,0.484 1.6736,0.017 v 0 c 0.4669,-0.467 0.4647,-1.222 0.0185,-1.709 -3.4104,-3.719 -5.7417,-8.309 -6.7292,-13.273 -1.0653,-5.355 -0.5185,-10.907 1.5712,-15.952 2.0896,-5.044 5.6284,-9.356 10.1686,-12.39 4.5408,-3.034 9.8778,-4.653 15.3388,-4.653 5.461,0 10.799,1.619 15.339,4.653 4.54,3.034 8.079,7.346 10.168,12.39 2.09,5.045 2.637,10.597 1.572,15.952 -0.988,4.964 -3.319,9.554 -6.73,13.273 -0.446,0.487 -0.448,1.242 0.019,1.709 z" />
  <path
     id="path46"
     fill="#a268ec"
     d="m 8,0 h 138 v 47 c 0,2.2091 -1.791,4 -4,4 H 12 C 9.79086,51 8,49.2091 8,47 Z" />
  <path
     id="path48"
     fill="#ffffff"
     d="m 46.9297,26.2109 c -0.0573,1.2969 -0.4219,2.2787 -1.0938,2.9453 -0.6718,0.6667 -1.6198,1 -2.8437,1 -1.2865,0 -2.2734,-0.4218 -2.961,-1.2656 -0.6822,-0.8489 -1.0234,-2.0573 -1.0234,-3.625 v -1.914 c 0,-1.5625 0.3542,-2.7657 1.0625,-3.6094 0.7083,-0.849 1.6927,-1.2734 2.9531,-1.2734 1.2396,0 2.1797,0.3463 2.8204,1.039 0.6458,0.6927 1.013,1.6875 1.1015,2.9844 h -2.3047 c -0.0208,-0.8021 -0.1458,-1.3542 -0.375,-1.6563 -0.2239,-0.3073 -0.638,-0.4609 -1.2422,-0.4609 -0.6145,0 -1.0494,0.2161 -1.3046,0.6484 -0.2553,0.4271 -0.3907,1.1328 -0.4063,2.1172 v 2.1485 c 0,1.1302 0.125,1.9062 0.375,2.3281 0.2552,0.4219 0.6901,0.6328 1.3047,0.6328 0.6042,0 1.0208,-0.1458 1.25,-0.4375 0.2292,-0.2969 0.3594,-0.8307 0.3906,-1.6016 z" />
  <path
     id="path50"
     fill="#ffffff"
     d="m 50.3906,22.2891 c 0.4792,-0.599 1.0677,-0.8985 1.7656,-0.8985 0.7709,0 1.3568,0.2709 1.7579,0.8125 0.401,0.5417 0.6041,1.349 0.6093,2.4219 V 30 h -2.2187 v -5.3516 c 0,-0.4948 -0.0781,-0.8515 -0.2344,-1.0703 -0.151,-0.2239 -0.3984,-0.3359 -0.7422,-0.3359 -0.401,0 -0.7135,0.1849 -0.9375,0.5547 V 30 H 48.1797 V 18 h 2.2109 z" />
  <path
     id="path52"
     fill="#ffffff"
     d="m 55.8516,25.5 c 0,-1.2812 0.302,-2.2865 0.9062,-3.0156 0.6042,-0.7292 1.4401,-1.0938 2.5078,-1.0938 1.0782,0 1.9193,0.3646 2.5235,1.0938 0.6041,0.7291 0.9062,1.7396 0.9062,3.0312 v 0.5391 c 0,1.2864 -0.2995,2.2917 -0.8984,3.0156 -0.599,0.724 -1.4375,1.0859 -2.5157,1.0859 -1.0833,0 -1.927,-0.3619 -2.5312,-1.0859 -0.599,-0.7292 -0.8984,-1.7396 -0.8984,-3.0312 z m 2.2187,0.5547 c 0,1.5104 0.4037,2.2656 1.2109,2.2656 0.7448,0 1.1459,-0.6302 1.2032,-1.8906 L 60.4922,25.5 c 0,-0.7708 -0.1068,-1.3411 -0.3203,-1.7109 -0.2136,-0.375 -0.5157,-0.5625 -0.9063,-0.5625 -0.375,0 -0.6692,0.1875 -0.8828,0.5625 -0.2083,0.3698 -0.3125,0.9401 -0.3125,1.7109 z" />
  <path
     id="path54"
     fill="#ffffff"
     d="m 70.2344,26.2891 0.7578,-4.7422 h 2.1172 L 71.3594,30 h -1.836 L 68.3281,25.1094 67.1328,30 h -1.8437 l -1.75,-8.4531 h 2.125 l 0.75,4.75 1.125,-4.75 h 1.5703 z" />
  <path
     id="path56"
     fill="#ffffff"
     d="m 81,18.625 2.1484,8.2266 2.1407,-8.2266 h 3 V 30 H 85.9844 V 26.9219 L 86.1953,22.1797 83.9219,30 h -1.5625 l -2.2735,-7.8203 0.211,4.7422 V 30 H 78 V 18.625 Z" />
  <path
     id="path58"
     fill="#ffffff"
     d="m 89.7734,25.5 c 0,-1.2812 0.3021,-2.2865 0.9063,-3.0156 0.6042,-0.7292 1.4401,-1.0938 2.5078,-1.0938 1.0781,0 1.9193,0.3646 2.5234,1.0938 0.6042,0.7291 0.9063,1.7396 0.9063,3.0312 v 0.5391 c 0,1.2864 -0.2995,2.2917 -0.8984,3.0156 -0.599,0.724 -1.4376,1.0859 -2.5157,1.0859 -1.0833,0 -1.9271,-0.3619 -2.5312,-1.0859 -0.599,-0.7292 -0.8985,-1.7396 -0.8985,-3.0312 z m 2.2188,0.5547 c 0,1.5104 0.4036,2.2656 1.2109,2.2656 0.7448,0 1.1459,-0.6302 1.2031,-1.8906 L 94.4141,25.5 c 0,-0.7708 -0.1068,-1.3411 -0.3203,-1.7109 -0.2136,-0.375 -0.5157,-0.5625 -0.9063,-0.5625 -0.375,0 -0.6693,0.1875 -0.8828,0.5625 -0.2083,0.3698 -0.3125,0.9401 -0.3125,1.7109 z" />
  <path
     id="path60"
     fill="#ffffff"
     d="m 97.7031,25.5156 c 0,-1.3854 0.2344,-2.4192 0.7031,-3.1015 0.4688,-0.6823 1.1511,-1.0235 2.0468,-1.0235 0.651,0 1.193,0.2813 1.625,0.8438 V 18 h 2.227 v 12 h -2.008 l -0.102,-0.8594 c -0.453,0.6771 -1.036,1.0156 -1.75,1.0156 -0.8851,0 -1.5622,-0.3385 -2.0309,-1.0156 -0.4636,-0.6771 -0.7006,-1.6718 -0.711,-2.9844 z m 2.2188,0.5547 c 0,0.8333 0.0881,1.4167 0.2661,1.75 0.177,0.3281 0.476,0.4922 0.898,0.4922 0.437,0 0.768,-0.1953 0.992,-0.5859 v -3.8594 c -0.219,-0.4167 -0.547,-0.625 -0.984,-0.625 -0.406,0 -0.703,0.164 -0.891,0.4922 -0.187,0.3281 -0.2811,0.9114 -0.2811,1.75 z" />
  <path
     id="path62"
     fill="#ffffff"
     d="m 109.953,30 c -0.062,-0.1302 -0.125,-0.349 -0.187,-0.6562 -0.396,0.5416 -0.933,0.8124 -1.61,0.8124 -0.708,0 -1.297,-0.2343 -1.765,-0.7031 -0.464,-0.4687 -0.696,-1.0755 -0.696,-1.8203 0,-0.8854 0.282,-1.5703 0.844,-2.0547 0.568,-0.4843 1.383,-0.7317 2.445,-0.7422 h 0.672 v -0.6797 c 0,-0.3802 -0.065,-0.6484 -0.195,-0.8046 -0.13,-0.1563 -0.32,-0.2344 -0.57,-0.2344 -0.552,0 -0.829,0.3229 -0.829,0.9687 h -2.21 c 0,-0.7812 0.291,-1.4244 0.875,-1.9297 0.588,-0.5104 1.33,-0.7656 2.226,-0.7656 0.927,0 1.643,0.2422 2.149,0.7266 0.51,0.4792 0.765,1.1667 0.765,2.0625 v 3.9765 c 0.011,0.7292 0.115,1.2995 0.313,1.711 V 30 Z m -1.305,-1.5781 c 0.245,0 0.454,-0.0495 0.625,-0.1485 0.172,-0.0989 0.3,-0.2161 0.383,-0.3515 v -1.7578 h -0.531 c -0.375,0 -0.672,0.1198 -0.891,0.3593 -0.213,0.2396 -0.32,0.5599 -0.32,0.961 0,0.625 0.245,0.9375 0.734,0.9375 z" />
  <path
     id="path64"
     fill="#ffffff"
     d="M 115.789,30 H 113.57 V 18 h 2.219 z" />
  <path
     id="path66"
     fill="#ffffff"
     d="m 74.9219,398 h -1.5791 v -7.82 h 1.5791 z" />
  <path
     id="path68"
     fill="#ffffff"
     d="m 81.7163,398 h -1.5791 l -2.3096,-5.129 V 398 h -1.5791 v -7.82 h 1.5791 l 2.315,5.134 v -5.134 h 1.5737 z" />
  <path
     id="path70"
     fill="#ffffff"
     d="m 74.186,460.793 c 0,1.05 -0.2488,1.864 -0.7465,2.444 -0.4942,0.58 -1.1817,0.87 -2.0625,0.87 -0.8773,0 -1.5666,-0.286 -2.0679,-0.859 -0.5013,-0.576 -0.7556,-1.382 -0.7627,-2.417 v -1.337 c 0,-1.075 0.2488,-1.912 0.7466,-2.514 0.4977,-0.605 1.1888,-0.908 2.0732,-0.908 0.8701,0 1.5558,0.297 2.0571,0.892 0.5013,0.591 0.7556,1.421 0.7627,2.492 z m -1.5844,-1.31 c 0,-0.705 -0.1003,-1.23 -0.3008,-1.574 -0.2005,-0.344 -0.5121,-0.515 -0.9346,-0.515 -0.4189,0 -0.7287,0.166 -0.9292,0.499 -0.2005,0.329 -0.3044,0.833 -0.3115,1.509 v 1.391 c 0,0.684 0.102,1.189 0.3061,1.515 0.2041,0.322 0.5192,0.484 0.9454,0.484 0.4117,0 0.7179,-0.158 0.9184,-0.473 0.2005,-0.319 0.3026,-0.811 0.3062,-1.477 z" />
  <path
     id="path72"
     fill="#ffffff"
     d="m 80.4058,456.18 v 5.414 c -0.0072,0.813 -0.231,1.436 -0.6714,1.869 -0.4405,0.43 -1.0725,0.644 -1.896,0.644 -0.8379,0 -1.4789,-0.218 -1.9229,-0.655 -0.4404,-0.437 -0.6606,-1.069 -0.6606,-1.896 v -5.376 h 1.5898 v 5.382 c 0,0.444 0.0716,0.76 0.2149,0.95 0.1432,0.19 0.4028,0.285 0.7788,0.285 0.376,0 0.6338,-0.093 0.7734,-0.279 0.1397,-0.19 0.2113,-0.5 0.2149,-0.93 v -5.408 z" />
  <path
     id="path74"
     fill="#ffffff"
     d="M 86.6685,457.496 H 84.7349 V 464 h -1.5845 v -6.504 H 81.249 v -1.316 h 5.4195 z" />
  <path
     id="path76"
     fill="#a268ec"
     d="m 62,413 h 31 c 3.3137,0 6,2.686 6,6 v 46 c 0,3.314 -2.6863,6 -6,6 H 62 c -3.3137,0 -6,-2.686 -6,-6 v -46 c 0,-3.314 2.6863,-6 6,-6 z m 0,2 c -2.2091,0 -4,1.791 -4,4 v 46 c 0,2.209 1.7909,4 4,4 h 31 c 2.2091,0 4,-1.791 4,-4 v -46 c 0,-2.209 -1.7909,-4 -4,-4 z"
     clip-rule="evenodd"
     fill-rule="evenodd" />
</svg>
