<?xml version="1.0" encoding="UTF-8" standalone="no"?>
<svg
   xmlns:dc="http://purl.org/dc/elements/1.1/"
   xmlns:cc="http://creativecommons.org/ns#"
   xmlns:rdf="http://www.w3.org/1999/02/22-rdf-syntax-ns#"
   xmlns:svg="http://www.w3.org/2000/svg"
   xmlns="http://www.w3.org/2000/svg"
   xmlns:sodipodi="http://sodipodi.sourceforge.net/DTD/sodipodi-0.dtd"
   xmlns:inkscape="http://www.inkscape.org/namespaces/inkscape"
   width="30.48mm"
   height="128.5mm"
   viewBox="0 0 30.480002 128.50002"
   version="1.1"
   id="svg8"
   inkscape:version="1.0 (4035a4fb49, 2020-05-01)"
   sodipodi:docname="ChowRNN.svg">
  <defs
     id="defs2" />
  <sodipodi:namedview
     id="base"
     pagecolor="#ffffff"
     bordercolor="#666666"
     borderopacity="1.0"
     inkscape:pageopacity="0.0"
     inkscape:pageshadow="2"
     inkscape:zoom="0.98994949"
     inkscape:cx="168.45613"
     inkscape:cy="191.1767"
     inkscape:document-units="mm"
     inkscape:current-layer="layer1"
     showgrid="false"
     units="mm"
     inkscape:snap-bbox="true"
     inkscape:snap-page="true"
     inkscape:bbox-nodes="false"
     inkscape:snap-bbox-edge-midpoints="false"
     inkscape:window-width="1920"
     inkscape:window-height="1001"
     inkscape:window-x="-9"
     inkscape:window-y="-9"
     inkscape:window-maximized="1"
     inkscape:snap-bbox-midpoints="true"
     inkscape:snap-nodes="false"
     inkscape:document-rotation="0" />
  <metadata
     id="metadata5">
    <rdf:RDF>
      <cc:Work
         rdf:about="">
        <dc:format>image/svg+xml</dc:format>
        <dc:type
           rdf:resource="http://purl.org/dc/dcmitype/StillImage" />
        <dc:title></dc:title>
      </cc:Work>
    </rdf:RDF>
  </metadata>
  <g
     inkscape:label="Layer 1"
     inkscape:groupmode="layer"
     id="layer1"
     transform="translate(0,-168.49998)"
     style="display:inline">
    <rect
       style="display:inline;opacity:1;vector-effect:none;fill:#7db8e6;fill-opacity:1;fill-rule:evenodd;stroke:none;stroke-width:0.649358;stroke-linecap:butt;stroke-linejoin:miter;stroke-miterlimit:4;stroke-dasharray:none;stroke-dashoffset:0;stroke-opacity:1;paint-order:normal"
       id="rect420"
       width="30.48"
       height="128.5"
       x="5.9211732e-17"
       y="168.49997" />
    <g
       aria-label="CHOW Tape "
       transform="matrix(0.26970081,0,0,0.33126294,-1.0342395,169.2499)"
       style="font-style:normal;font-variant:normal;font-weight:normal;font-stretch:normal;font-size:16px;line-height:1.25;font-family:sans-serif;-inkscape-font-specification:'sans-serif, Normal';font-variant-ligatures:normal;font-variant-caps:normal;font-variant-numeric:normal;font-feature-settings:normal;text-align:start;letter-spacing:0px;word-spacing:0px;writing-mode:lr-tb;text-anchor:start;fill:#000000;fill-opacity:1;stroke:none"
       id="flowRoot3789">
      <path
         d="m 23.679687,27.681269 q -0.429687,0.1875 -0.78125,0.351563 -0.34375,0.164062 -0.90625,0.34375 -0.476562,0.148437 -1.039062,0.25 -0.554688,0.109375 -1.226563,0.109375 -1.265625,0 -2.304687,-0.351563 -1.03125,-0.359375 -1.796875,-1.117187 -0.75,-0.742188 -1.171875,-1.882813 -0.421875,-1.148437 -0.421875,-2.664062 0,-1.4375 0.40625,-2.570313 0.40625,-1.132812 1.171875,-1.914062 0.742187,-0.757813 1.789062,-1.15625 1.054688,-0.398438 2.335938,-0.398438 0.9375,0 1.867187,0.226563 0.9375,0.226562 2.078125,0.796875 v 1.835937 H 23.5625 q -0.960938,-0.804687 -1.90625,-1.171875 -0.945313,-0.367187 -2.023438,-0.367187 -0.882812,0 -1.59375,0.289062 -0.703125,0.28125 -1.257812,0.882813 -0.539063,0.585937 -0.84375,1.484375 -0.296875,0.890625 -0.296875,2.0625 0,1.226562 0.328125,2.109375 0.335937,0.882812 0.859375,1.4375 0.546875,0.578125 1.273437,0.859375 0.734375,0.273437 1.546875,0.273437 1.117188,0 2.09375,-0.382812 0.976563,-0.382813 1.828125,-1.148438 h 0.109375 z"
         style="font-style:normal;font-variant:normal;font-weight:normal;font-stretch:normal;font-size:16px;font-family:sans-serif;-inkscape-font-specification:'sans-serif, Normal';font-variant-ligatures:normal;font-variant-caps:normal;font-variant-numeric:normal;font-feature-settings:normal;text-align:start;writing-mode:lr-tb;text-anchor:start"
         id="path3801"
         inkscape:connector-curvature="0" />
      <path
         d="m 34.78125,28.525019 h -1.546875 v -5.695312 h -5.804688 v 5.695312 H 25.882812 V 16.892207 h 1.546875 v 4.5625 h 5.804688 v -4.5625 h 1.546875 z"
         style="font-style:normal;font-variant:normal;font-weight:normal;font-stretch:normal;font-size:16px;font-family:sans-serif;-inkscape-font-specification:'sans-serif, Normal';font-variant-ligatures:normal;font-variant-caps:normal;font-variant-numeric:normal;font-feature-settings:normal;text-align:start;writing-mode:lr-tb;text-anchor:start"
         id="path3803"
         inkscape:connector-curvature="0" />
      <path
         d="m 46.585937,18.228144 q 0.710938,0.78125 1.085938,1.914063 0.382812,1.132812 0.382812,2.570312 0,1.4375 -0.390625,2.578125 -0.382812,1.132813 -1.078125,1.890625 -0.71875,0.789063 -1.703125,1.1875 -0.976562,0.398438 -2.234375,0.398438 -1.226562,0 -2.234375,-0.40625 -1,-0.40625 -1.703125,-1.179688 -0.703125,-0.773437 -1.085937,-1.898437 -0.375,-1.125 -0.375,-2.570313 0,-1.421875 0.375,-2.546875 0.375,-1.132812 1.09375,-1.9375 0.6875,-0.765625 1.703125,-1.171875 1.023437,-0.40625 2.226562,-0.40625 1.25,0 2.242188,0.414063 1,0.40625 1.695312,1.164062 z m -0.140625,4.484375 q 0,-2.265625 -1.015625,-3.492187 -1.015625,-1.234375 -2.773437,-1.234375 -1.773438,0 -2.789063,1.234375 -1.007812,1.226562 -1.007812,3.492187 0,2.289063 1.03125,3.507813 1.03125,1.210937 2.765625,1.210937 1.734375,0 2.757812,-1.210937 1.03125,-1.21875 1.03125,-3.507813 z"
         style="font-style:normal;font-variant:normal;font-weight:normal;font-stretch:normal;font-size:16px;font-family:sans-serif;-inkscape-font-specification:'sans-serif, Normal';font-variant-ligatures:normal;font-variant-caps:normal;font-variant-numeric:normal;font-feature-settings:normal;text-align:start;writing-mode:lr-tb;text-anchor:start"
         id="path3805"
         inkscape:connector-curvature="0" />
      <path
         d="M 64.046875,16.892207 61.023437,28.525019 H 59.28125 l -2.445313,-9.65625 -2.390625,9.65625 H 52.742187 L 49.664062,16.892207 H 51.25 l 2.445312,9.671875 2.40625,-9.671875 h 1.570313 l 2.429687,9.765625 2.429688,-9.765625 z"
         style="font-style:normal;font-variant:normal;font-weight:normal;font-stretch:normal;font-size:16px;font-family:sans-serif;-inkscape-font-specification:'sans-serif, Normal';font-variant-ligatures:normal;font-variant-caps:normal;font-variant-numeric:normal;font-feature-settings:normal;text-align:start;writing-mode:lr-tb;text-anchor:start"
         id="path3807"
         inkscape:connector-curvature="0" />
      <path
         d="m 80.242187,18.267207 h -4.15625 V 28.525019 H 74.539062 V 18.267207 h -4.15625 v -1.375 h 9.859375 z"
         style="font-style:normal;font-variant:normal;font-weight:normal;font-stretch:normal;font-size:16px;font-family:sans-serif;-inkscape-font-specification:'sans-serif, Normal';font-variant-ligatures:normal;font-variant-caps:normal;font-variant-numeric:normal;font-feature-settings:normal;text-align:start;writing-mode:lr-tb;text-anchor:start"
         id="path3809"
         inkscape:connector-curvature="0" />
      <path
         d="m 86.609375,28.525019 h -1.460938 v -0.929687 q -0.195312,0.132812 -0.53125,0.375 -0.328125,0.234375 -0.640625,0.375 -0.367187,0.179687 -0.84375,0.296875 -0.476562,0.125 -1.117187,0.125 -1.179688,0 -2,-0.78125 -0.820313,-0.78125 -0.820313,-1.992188 0,-0.992187 0.421875,-1.601562 0.429688,-0.617188 1.21875,-0.96875 0.796875,-0.351563 1.914063,-0.476563 1.117187,-0.125 2.398437,-0.1875 v -0.226562 q 0,-0.5 -0.179687,-0.828125 -0.171875,-0.328125 -0.5,-0.515625 -0.3125,-0.179688 -0.75,-0.242188 -0.4375,-0.0625 -0.914063,-0.0625 -0.578125,0 -1.289062,0.15625 -0.710938,0.148438 -1.46875,0.4375 h -0.07813 v -1.492187 q 0.429687,-0.117188 1.242187,-0.257813 0.8125,-0.140625 1.601563,-0.140625 0.921875,0 1.601562,0.15625 0.6875,0.148438 1.1875,0.515625 0.492188,0.359375 0.75,0.929688 0.257813,0.570312 0.257813,1.414062 z m -1.460938,-2.148437 v -2.429688 q -0.671875,0.03906 -1.585937,0.117188 -0.90625,0.07813 -1.4375,0.226562 -0.632813,0.179688 -1.023438,0.5625 -0.390625,0.375 -0.390625,1.039063 0,0.75 0.453125,1.132812 0.453125,0.375 1.382813,0.375 0.773437,0 1.414062,-0.296875 0.640625,-0.304687 1.1875,-0.726562 z"
         style="font-style:normal;font-variant:normal;font-weight:normal;font-stretch:normal;font-size:16px;font-family:sans-serif;-inkscape-font-specification:'sans-serif, Normal';font-variant-ligatures:normal;font-variant-caps:normal;font-variant-numeric:normal;font-feature-settings:normal;text-align:start;writing-mode:lr-tb;text-anchor:start"
         id="path3811"
         inkscape:connector-curvature="0" />
      <path
         d="m 97.132812,24.056269 q 0,1.0625 -0.304687,1.945313 -0.304688,0.875 -0.859375,1.484375 -0.515625,0.578125 -1.21875,0.898437 -0.695313,0.3125 -1.476563,0.3125 -0.679687,0 -1.234375,-0.148437 -0.546875,-0.148438 -1.117187,-0.460938 v 3.65625 h -1.46875 V 19.798457 h 1.46875 v 0.914062 q 0.585937,-0.492187 1.3125,-0.820312 0.734375,-0.335938 1.5625,-0.335938 1.578125,0 2.453125,1.195313 0.882812,1.1875 0.882812,3.304687 z m -1.515625,0.03906 q 0,-1.578125 -0.539062,-2.359375 -0.539063,-0.78125 -1.65625,-0.78125 -0.632813,0 -1.273438,0.273437 -0.640625,0.273438 -1.226562,0.71875 v 4.945313 q 0.625,0.28125 1.070312,0.382812 0.453125,0.101563 1.023438,0.101563 1.226562,0 1.914062,-0.828125 0.6875,-0.828125 0.6875,-2.453125 z"
         style="font-style:normal;font-variant:normal;font-weight:normal;font-stretch:normal;font-size:16px;font-family:sans-serif;-inkscape-font-specification:'sans-serif, Normal';font-variant-ligatures:normal;font-variant-caps:normal;font-variant-numeric:normal;font-feature-settings:normal;text-align:start;writing-mode:lr-tb;text-anchor:start"
         id="path3813"
         inkscape:connector-curvature="0" />
      <path
         d="m 106.72656,24.314082 h -6.42968 q 0,0.804687 0.24218,1.40625 0.24219,0.59375 0.66407,0.976562 0.40625,0.375 0.96093,0.5625 0.5625,0.1875 1.23438,0.1875 0.89062,0 1.78906,-0.351562 0.90625,-0.359375 1.28906,-0.703125 h 0.0781 v 1.601562 q -0.74219,0.3125 -1.51563,0.523438 -0.77343,0.210937 -1.625,0.210937 -2.17187,0 -3.39062,-1.171875 -1.218753,-1.179687 -1.218753,-3.34375 0,-2.140625 1.164063,-3.398437 1.17188,-1.257813 3.07813,-1.257813 1.76562,0 2.71875,1.03125 0.96093,1.03125 0.96093,2.929688 z m -1.42968,-1.125 q -0.008,-1.15625 -0.58594,-1.789063 -0.57031,-0.632812 -1.74219,-0.632812 -1.17969,0 -1.88281,0.695312 -0.69531,0.695313 -0.78906,1.726563 z"
         style="font-style:normal;font-variant:normal;font-weight:normal;font-stretch:normal;font-size:16px;font-family:sans-serif;-inkscape-font-specification:'sans-serif, Normal';font-variant-ligatures:normal;font-variant-caps:normal;font-variant-numeric:normal;font-feature-settings:normal;text-align:start;writing-mode:lr-tb;text-anchor:start"
         id="path3815"
         inkscape:connector-curvature="0" />
    </g>
  </g>
  <g
     inkscape:groupmode="layer"
     id="layer2"
     inkscape:label="components" />
</svg>
