<?xml version="1.0" encoding="UTF-8" standalone="no"?>
<!-- Created with Inkscape (http://www.inkscape.org/) -->

<svg
   xmlns:dc="http://purl.org/dc/elements/1.1/"
   xmlns:cc="http://creativecommons.org/ns#"
   xmlns:rdf="http://www.w3.org/1999/02/22-rdf-syntax-ns#"
   xmlns:svg="http://www.w3.org/2000/svg"
   xmlns="http://www.w3.org/2000/svg"
   xmlns:sodipodi="http://sodipodi.sourceforge.net/DTD/sodipodi-0.dtd"
   xmlns:inkscape="http://www.inkscape.org/namespaces/inkscape"
   width="30.48mm"
   height="128.5mm"
   viewBox="0 0 30.480002 128.50002"
   version="1.1"
   id="svg8"
   inkscape:version="0.92.4 (5da689c313, 2019-01-14)"
   sodipodi:docname="ChowTape.svg">
  <defs
     id="defs2" />
  <sodipodi:namedview
     id="base"
     pagecolor="#ffffff"
     bordercolor="#666666"
     borderopacity="1.0"
     inkscape:pageopacity="0.0"
     inkscape:pageshadow="2"
     inkscape:zoom="0.98994949"
     inkscape:cx="168.45613"
     inkscape:cy="191.1767"
     inkscape:document-units="mm"
     inkscape:current-layer="layer1"
     showgrid="false"
     units="mm"
     inkscape:snap-bbox="true"
     inkscape:snap-page="true"
     inkscape:bbox-nodes="false"
     inkscape:snap-bbox-edge-midpoints="false"
     inkscape:window-width="1920"
     inkscape:window-height="1001"
     inkscape:window-x="-9"
     inkscape:window-y="-9"
     inkscape:window-maximized="1"
     inkscape:snap-bbox-midpoints="true"
     inkscape:snap-nodes="false" />
  <metadata
     id="metadata5">
    <rdf:RDF>
      <cc:Work
         rdf:about="">
        <dc:format>image/svg+xml</dc:format>
        <dc:type
           rdf:resource="http://purl.org/dc/dcmitype/StillImage" />
        <dc:title></dc:title>
      </cc:Work>
    </rdf:RDF>
  </metadata>
  <g
     inkscape:label="Layer 1"
     inkscape:groupmode="layer"
     id="layer1"
     transform="translate(0,-168.49998)">
    <rect
       style="display:inline;opacity:1;vector-effect:none;fill:#e6e6e6;fill-opacity:1;fill-rule:evenodd;stroke:none;stroke-width:0.64935839;stroke-linecap:butt;stroke-linejoin:miter;stroke-miterlimit:4;stroke-dasharray:none;stroke-dashoffset:0;stroke-opacity:1;paint-order:normal"
       id="rect420"
       width="30.48"
       height="128.5"
       x="5.9211732e-17"
       y="168.49997" />
    <g
       aria-label="CHOW Tape
"
       transform="matrix(0.26458333,0,0,0.26458333,-1.0690777,169.30178)"
       style="font-style:normal;font-variant:normal;font-weight:normal;font-stretch:normal;font-size:16px;line-height:1.25;font-family:sans-serif;-inkscape-font-specification:'sans-serif, Normal';font-variant-ligatures:normal;font-variant-caps:normal;font-variant-numeric:normal;font-feature-settings:normal;text-align:start;letter-spacing:0px;word-spacing:0px;writing-mode:lr-tb;text-anchor:start;fill:#000000;fill-opacity:1;stroke:none"
       id="flowRoot3789">
      <path
         d="m 23.679687,27.681269 q -0.429687,0.1875 -0.78125,0.351563 -0.34375,0.164062 -0.90625,0.34375 -0.476562,0.148437 -1.039062,0.25 -0.554688,0.109375 -1.226563,0.109375 -1.265625,0 -2.304687,-0.351563 -1.03125,-0.359375 -1.796875,-1.117187 -0.75,-0.742188 -1.171875,-1.882813 -0.421875,-1.148437 -0.421875,-2.664062 0,-1.4375 0.40625,-2.570313 0.40625,-1.132812 1.171875,-1.914062 0.742187,-0.757813 1.789062,-1.15625 1.054688,-0.398438 2.335938,-0.398438 0.9375,0 1.867187,0.226563 0.9375,0.226562 2.078125,0.796875 v 1.835937 H 23.5625 q -0.960938,-0.804687 -1.90625,-1.171875 -0.945313,-0.367187 -2.023438,-0.367187 -0.882812,0 -1.59375,0.289062 -0.703125,0.28125 -1.257812,0.882813 -0.539063,0.585937 -0.84375,1.484375 -0.296875,0.890625 -0.296875,2.0625 0,1.226562 0.328125,2.109375 0.335937,0.882812 0.859375,1.4375 0.546875,0.578125 1.273437,0.859375 0.734375,0.273437 1.546875,0.273437 1.117188,0 2.09375,-0.382812 0.976563,-0.382813 1.828125,-1.148438 h 0.109375 z"
         style="font-style:normal;font-variant:normal;font-weight:normal;font-stretch:normal;font-size:16px;font-family:sans-serif;-inkscape-font-specification:'sans-serif, Normal';font-variant-ligatures:normal;font-variant-caps:normal;font-variant-numeric:normal;font-feature-settings:normal;text-align:start;writing-mode:lr-tb;text-anchor:start"
         id="path3801"
         inkscape:connector-curvature="0" />
      <path
         d="m 34.78125,28.525019 h -1.546875 v -5.695312 h -5.804688 v 5.695312 H 25.882812 V 16.892207 h 1.546875 v 4.5625 h 5.804688 v -4.5625 h 1.546875 z"
         style="font-style:normal;font-variant:normal;font-weight:normal;font-stretch:normal;font-size:16px;font-family:sans-serif;-inkscape-font-specification:'sans-serif, Normal';font-variant-ligatures:normal;font-variant-caps:normal;font-variant-numeric:normal;font-feature-settings:normal;text-align:start;writing-mode:lr-tb;text-anchor:start"
         id="path3803"
         inkscape:connector-curvature="0" />
      <path
         d="m 46.585937,18.228144 q 0.710938,0.78125 1.085938,1.914063 0.382812,1.132812 0.382812,2.570312 0,1.4375 -0.390625,2.578125 -0.382812,1.132813 -1.078125,1.890625 -0.71875,0.789063 -1.703125,1.1875 -0.976562,0.398438 -2.234375,0.398438 -1.226562,0 -2.234375,-0.40625 -1,-0.40625 -1.703125,-1.179688 -0.703125,-0.773437 -1.085937,-1.898437 -0.375,-1.125 -0.375,-2.570313 0,-1.421875 0.375,-2.546875 0.375,-1.132812 1.09375,-1.9375 0.6875,-0.765625 1.703125,-1.171875 1.023437,-0.40625 2.226562,-0.40625 1.25,0 2.242188,0.414063 1,0.40625 1.695312,1.164062 z m -0.140625,4.484375 q 0,-2.265625 -1.015625,-3.492187 -1.015625,-1.234375 -2.773437,-1.234375 -1.773438,0 -2.789063,1.234375 -1.007812,1.226562 -1.007812,3.492187 0,2.289063 1.03125,3.507813 1.03125,1.210937 2.765625,1.210937 1.734375,0 2.757812,-1.210937 1.03125,-1.21875 1.03125,-3.507813 z"
         style="font-style:normal;font-variant:normal;font-weight:normal;font-stretch:normal;font-size:16px;font-family:sans-serif;-inkscape-font-specification:'sans-serif, Normal';font-variant-ligatures:normal;font-variant-caps:normal;font-variant-numeric:normal;font-feature-settings:normal;text-align:start;writing-mode:lr-tb;text-anchor:start"
         id="path3805"
         inkscape:connector-curvature="0" />
      <path
         d="M 64.046875,16.892207 61.023437,28.525019 H 59.28125 l -2.445313,-9.65625 -2.390625,9.65625 H 52.742187 L 49.664062,16.892207 H 51.25 l 2.445312,9.671875 2.40625,-9.671875 h 1.570313 l 2.429687,9.765625 2.429688,-9.765625 z"
         style="font-style:normal;font-variant:normal;font-weight:normal;font-stretch:normal;font-size:16px;font-family:sans-serif;-inkscape-font-specification:'sans-serif, Normal';font-variant-ligatures:normal;font-variant-caps:normal;font-variant-numeric:normal;font-feature-settings:normal;text-align:start;writing-mode:lr-tb;text-anchor:start"
         id="path3807"
         inkscape:connector-curvature="0" />
      <path
         d="m 80.242187,18.267207 h -4.15625 V 28.525019 H 74.539062 V 18.267207 h -4.15625 v -1.375 h 9.859375 z"
         style="font-style:normal;font-variant:normal;font-weight:normal;font-stretch:normal;font-size:16px;font-family:sans-serif;-inkscape-font-specification:'sans-serif, Normal';font-variant-ligatures:normal;font-variant-caps:normal;font-variant-numeric:normal;font-feature-settings:normal;text-align:start;writing-mode:lr-tb;text-anchor:start"
         id="path3809"
         inkscape:connector-curvature="0" />
      <path
         d="m 86.609375,28.525019 h -1.460938 v -0.929687 q -0.195312,0.132812 -0.53125,0.375 -0.328125,0.234375 -0.640625,0.375 -0.367187,0.179687 -0.84375,0.296875 -0.476562,0.125 -1.117187,0.125 -1.179688,0 -2,-0.78125 -0.820313,-0.78125 -0.820313,-1.992188 0,-0.992187 0.421875,-1.601562 0.429688,-0.617188 1.21875,-0.96875 0.796875,-0.351563 1.914063,-0.476563 1.117187,-0.125 2.398437,-0.1875 v -0.226562 q 0,-0.5 -0.179687,-0.828125 -0.171875,-0.328125 -0.5,-0.515625 -0.3125,-0.179688 -0.75,-0.242188 -0.4375,-0.0625 -0.914063,-0.0625 -0.578125,0 -1.289062,0.15625 -0.710938,0.148438 -1.46875,0.4375 h -0.07813 v -1.492187 q 0.429687,-0.117188 1.242187,-0.257813 0.8125,-0.140625 1.601563,-0.140625 0.921875,0 1.601562,0.15625 0.6875,0.148438 1.1875,0.515625 0.492188,0.359375 0.75,0.929688 0.257813,0.570312 0.257813,1.414062 z m -1.460938,-2.148437 v -2.429688 q -0.671875,0.03906 -1.585937,0.117188 -0.90625,0.07813 -1.4375,0.226562 -0.632813,0.179688 -1.023438,0.5625 -0.390625,0.375 -0.390625,1.039063 0,0.75 0.453125,1.132812 0.453125,0.375 1.382813,0.375 0.773437,0 1.414062,-0.296875 0.640625,-0.304687 1.1875,-0.726562 z"
         style="font-style:normal;font-variant:normal;font-weight:normal;font-stretch:normal;font-size:16px;font-family:sans-serif;-inkscape-font-specification:'sans-serif, Normal';font-variant-ligatures:normal;font-variant-caps:normal;font-variant-numeric:normal;font-feature-settings:normal;text-align:start;writing-mode:lr-tb;text-anchor:start"
         id="path3811"
         inkscape:connector-curvature="0" />
      <path
         d="m 97.132812,24.056269 q 0,1.0625 -0.304687,1.945313 -0.304688,0.875 -0.859375,1.484375 -0.515625,0.578125 -1.21875,0.898437 -0.695313,0.3125 -1.476563,0.3125 -0.679687,0 -1.234375,-0.148437 -0.546875,-0.148438 -1.117187,-0.460938 v 3.65625 h -1.46875 V 19.798457 h 1.46875 v 0.914062 q 0.585937,-0.492187 1.3125,-0.820312 0.734375,-0.335938 1.5625,-0.335938 1.578125,0 2.453125,1.195313 0.882812,1.1875 0.882812,3.304687 z m -1.515625,0.03906 q 0,-1.578125 -0.539062,-2.359375 -0.539063,-0.78125 -1.65625,-0.78125 -0.632813,0 -1.273438,0.273437 -0.640625,0.273438 -1.226562,0.71875 v 4.945313 q 0.625,0.28125 1.070312,0.382812 0.453125,0.101563 1.023438,0.101563 1.226562,0 1.914062,-0.828125 0.6875,-0.828125 0.6875,-2.453125 z"
         style="font-style:normal;font-variant:normal;font-weight:normal;font-stretch:normal;font-size:16px;font-family:sans-serif;-inkscape-font-specification:'sans-serif, Normal';font-variant-ligatures:normal;font-variant-caps:normal;font-variant-numeric:normal;font-feature-settings:normal;text-align:start;writing-mode:lr-tb;text-anchor:start"
         id="path3813"
         inkscape:connector-curvature="0" />
      <path
         d="m 106.72656,24.314082 h -6.42968 q 0,0.804687 0.24218,1.40625 0.24219,0.59375 0.66407,0.976562 0.40625,0.375 0.96093,0.5625 0.5625,0.1875 1.23438,0.1875 0.89062,0 1.78906,-0.351562 0.90625,-0.359375 1.28906,-0.703125 h 0.0781 v 1.601562 q -0.74219,0.3125 -1.51563,0.523438 -0.77343,0.210937 -1.625,0.210937 -2.17187,0 -3.39062,-1.171875 -1.218753,-1.179687 -1.218753,-3.34375 0,-2.140625 1.164063,-3.398437 1.17188,-1.257813 3.07813,-1.257813 1.76562,0 2.71875,1.03125 0.96093,1.03125 0.96093,2.929688 z m -1.42968,-1.125 q -0.008,-1.15625 -0.58594,-1.789063 -0.57031,-0.632812 -1.74219,-0.632812 -1.17969,0 -1.88281,0.695312 -0.69531,0.695313 -0.78906,1.726563 z"
         style="font-style:normal;font-variant:normal;font-weight:normal;font-stretch:normal;font-size:16px;font-family:sans-serif;-inkscape-font-specification:'sans-serif, Normal';font-variant-ligatures:normal;font-variant-caps:normal;font-variant-numeric:normal;font-feature-settings:normal;text-align:start;writing-mode:lr-tb;text-anchor:start"
         id="path3815"
         inkscape:connector-curvature="0" />
    </g>
    <g
       aria-label="out"
       transform="matrix(0.26458333,0,0,0.26458333,7.2162773,172.50902)"
       style="font-style:normal;font-variant:normal;font-weight:normal;font-stretch:normal;font-size:16px;line-height:1.25;font-family:'Gotham Rounded';-inkscape-font-specification:'Gotham Rounded, Normal';font-variant-ligatures:normal;font-variant-caps:normal;font-variant-numeric:normal;font-feature-settings:normal;text-align:start;letter-spacing:0px;word-spacing:0px;writing-mode:lr-tb;text-anchor:start;fill:#000000;fill-opacity:1;stroke:none"
       id="flowRoot3818">
      <path
         d="m 24.035156,445.40002 q 0,2.13281 -1.09375,3.36719 -1.09375,1.23437 -2.929687,1.23437 -1.851563,0 -2.945313,-1.23437 -1.085937,-1.23438 -1.085937,-3.36719 0,-2.13281 1.085937,-3.36719 1.09375,-1.24219 2.945313,-1.24219 1.835937,0 2.929687,1.24219 1.09375,1.23438 1.09375,3.36719 z m -1.515625,0 q 0,-1.69531 -0.664062,-2.51563 -0.664063,-0.82812 -1.84375,-0.82812 -1.195313,0 -1.859375,0.82812 -0.65625,0.82032 -0.65625,2.51563 0,1.64062 0.664062,2.49219 0.664063,0.84375 1.851563,0.84375 1.171875,0 1.835937,-0.83594 0.671875,-0.84375 0.671875,-2.5 z"
         id="path3975"
         inkscape:connector-curvature="0" />
      <path
         d="m 33.550781,449.75939 h -1.46875 v -0.96875 q -0.742187,0.58594 -1.421875,0.89844 -0.679687,0.3125 -1.5,0.3125 -1.375,0 -2.140625,-0.83594 -0.765625,-0.84375 -0.765625,-2.46875 v -5.66406 h 1.46875 v 4.96875 q 0,0.66406 0.0625,1.14063 0.0625,0.46875 0.265625,0.80468 0.210938,0.34375 0.546875,0.5 0.335938,0.15625 0.976563,0.15625 0.570312,0 1.242187,-0.29687 0.679688,-0.29688 1.265625,-0.75781 v -6.51563 h 1.46875 z"
         id="path3977"
         inkscape:connector-curvature="0" />
      <path
         d="m 40.972656,449.68127 q -0.414062,0.10937 -0.90625,0.17969 -0.484375,0.0703 -0.867187,0.0703 -1.335938,0 -2.03125,-0.71875 -0.695313,-0.71875 -0.695313,-2.30469 v -4.64062 h -0.992187 v -1.23438 h 0.992187 v -2.50781 h 1.46875 v 2.50781 h 3.03125 v 1.23438 h -3.03125 v 3.97656 q 0,0.6875 0.03125,1.07812 0.03125,0.38282 0.21875,0.71875 0.171875,0.3125 0.46875,0.46094 0.304688,0.14063 0.921875,0.14063 0.359375,0 0.75,-0.10157 0.390625,-0.10937 0.5625,-0.17968 h 0.07813 z"
         id="path3979"
         inkscape:connector-curvature="0" />
    </g>
    <g
       aria-label="in"
       transform="matrix(0.26458333,0,0,0.26458333,9.3035566,150.32294)"
       style="font-style:normal;font-variant:normal;font-weight:normal;font-stretch:normal;font-size:16px;line-height:1.25;font-family:'Gotham Rounded';-inkscape-font-specification:'Gotham Rounded, Normal';font-variant-ligatures:normal;font-variant-caps:normal;font-variant-numeric:normal;font-feature-settings:normal;text-align:start;letter-spacing:0px;word-spacing:0px;writing-mode:lr-tb;text-anchor:start;fill:#000000;fill-opacity:1;stroke:none"
       id="flowRoot3818-0">
      <path
         d="m 18.175781,439.57189 h -1.65625 v -1.52343 h 1.65625 z m -0.09375,10.1875 h -1.46875 v -8.72656 h 1.46875 z"
         id="path3970"
         inkscape:connector-curvature="0" />
      <path
         d="m 28.300781,449.75939 h -1.46875 v -4.96875 q 0,-0.60156 -0.07031,-1.125 -0.07031,-0.53125 -0.257813,-0.82812 -0.195312,-0.32813 -0.5625,-0.48438 -0.367187,-0.16406 -0.953125,-0.16406 -0.601562,0 -1.257812,0.29688 -0.65625,0.29687 -1.257813,0.75781 v 6.51562 h -1.46875 v -8.72656 h 1.46875 v 0.96875 q 0.6875,-0.57031 1.421875,-0.89062 0.734375,-0.32032 1.507813,-0.32032 1.414062,0 2.15625,0.85157 0.742187,0.85156 0.742187,2.45312 z"
         id="path3972"
         inkscape:connector-curvature="0" />
    </g>
    <g
       aria-label="drive"
       transform="matrix(0.26458333,0,0,0.26458333,6.0963226,126.26868)"
       style="font-style:normal;font-variant:normal;font-weight:normal;font-stretch:normal;font-size:16px;line-height:1.25;font-family:'Gotham Rounded';-inkscape-font-specification:'Gotham Rounded, Normal';font-variant-ligatures:normal;font-variant-caps:normal;font-variant-numeric:normal;font-feature-settings:normal;text-align:start;letter-spacing:0px;word-spacing:0px;writing-mode:lr-tb;text-anchor:start;fill:#000000;fill-opacity:1;stroke:none"
       id="flowRoot3818-9">
      <path
         d="m 23.675781,449.75939 h -1.46875 v -0.91406 q -0.632812,0.54688 -1.320312,0.85156 -0.6875,0.30469 -1.492188,0.30469 -1.5625,0 -2.484375,-1.20312 -0.914062,-1.20313 -0.914062,-3.33594 0,-1.10938 0.3125,-1.97656 0.320312,-0.86719 0.859375,-1.47657 0.53125,-0.59375 1.234375,-0.90625 0.710937,-0.3125 1.46875,-0.3125 0.6875,0 1.21875,0.14844 0.53125,0.14063 1.117187,0.44531 v -3.78125 h 1.46875 z m -1.46875,-2.14843 v -5.00782 q -0.59375,-0.26562 -1.0625,-0.36718 -0.46875,-0.10157 -1.023437,-0.10157 -1.234375,0 -1.921875,0.85938 -0.6875,0.85937 -0.6875,2.4375 0,1.55469 0.53125,2.36719 0.53125,0.80468 1.703125,0.80468 0.625,0 1.265625,-0.27343 0.640625,-0.28125 1.195312,-0.71875 z"
         id="path3959"
         inkscape:connector-curvature="0" />
      <path
         d="m 32.011719,442.63439 h -0.07813 q -0.328125,-0.0781 -0.640625,-0.10937 -0.304688,-0.0391 -0.726563,-0.0391 -0.679687,0 -1.3125,0.30468 -0.632812,0.29688 -1.21875,0.77344 v 6.19531 h -1.46875 v -8.72656 h 1.46875 v 1.28906 q 0.875,-0.70312 1.539063,-0.99218 0.671875,-0.29688 1.367187,-0.29688 0.382813,0 0.554688,0.0234 0.171875,0.0156 0.515625,0.0703 z"
         id="path3961"
         inkscape:connector-curvature="0" />
      <path
         d="m 34.988281,439.57189 h -1.65625 v -1.52343 h 1.65625 z m -0.09375,10.1875 h -1.46875 v -8.72656 h 1.46875 z"
         id="path3963"
         inkscape:connector-curvature="0" />
      <path
         d="m 45.363281,441.03283 -3.53125,8.72656 h -1.476562 l -3.507813,-8.72656 h 1.59375 l 2.703125,6.94531 2.679688,-6.94531 z"
         id="path3965"
         inkscape:connector-curvature="0" />
      <path
         d="m 54.464844,445.54846 h -6.429688 q 0,0.80468 0.242188,1.40625 0.242187,0.59375 0.664062,0.97656 0.40625,0.375 0.960938,0.5625 0.5625,0.1875 1.234375,0.1875 0.890625,0 1.789062,-0.35156 0.90625,-0.35938 1.289063,-0.70313 h 0.07813 v 1.60156 q -0.742188,0.3125 -1.515625,0.52344 -0.773438,0.21094 -1.625,0.21094 -2.171875,0 -3.390625,-1.17188 -1.21875,-1.17968 -1.21875,-3.34375 0,-2.14062 1.164062,-3.39843 1.171875,-1.25782 3.078125,-1.25782 1.765625,0 2.71875,1.03125 0.960938,1.03125 0.960938,2.92969 z m -1.429688,-1.125 q -0.0078,-1.15625 -0.585937,-1.78907 -0.570313,-0.63281 -1.742188,-0.63281 -1.179687,0 -1.882812,0.69531 -0.695313,0.69532 -0.789063,1.72657 z"
         id="path3967"
         inkscape:connector-curvature="0" />
    </g>
  </g>
  <g
     inkscape:groupmode="layer"
     id="layer2"
     inkscape:label="components">
    <circle
       style="display:inline;opacity:1;vector-effect:none;fill:#ff0000;fill-opacity:1;fill-rule:evenodd;stroke:none;stroke-width:1;stroke-linecap:butt;stroke-linejoin:miter;stroke-miterlimit:4;stroke-dasharray:none;stroke-dashoffset:0;stroke-opacity:1;paint-order:normal"
       id="path4954"
       cx="15.24"
       cy="64.249992"
       r="4"
       inkscape:label="pitch" />
    <circle
       r="4"
       cy="91.10862"
       cx="15.507269"
       id="circle4956"
       style="display:inline;opacity:1;vector-effect:none;fill:#00ff00;fill-opacity:1;fill-rule:evenodd;stroke:none;stroke-width:1;stroke-linecap:butt;stroke-linejoin:miter;stroke-miterlimit:4;stroke-dasharray:none;stroke-dashoffset:0;stroke-opacity:1;paint-order:normal"
       inkscape:label="pitch" />
    <circle
       style="display:inline;opacity:1;vector-effect:none;fill:#0000ff;fill-opacity:1;fill-rule:evenodd;stroke:none;stroke-width:1;stroke-linecap:butt;stroke-linejoin:miter;stroke-miterlimit:4;stroke-dasharray:none;stroke-dashoffset:0;stroke-opacity:1;paint-order:normal"
       id="circle4958"
       cx="15.24"
       cy="111.38529"
       r="4"
       inkscape:label="sine" />
    <g
       aria-label="saturation"
       transform="matrix(0.26458333,0,0,0.26458333,-0.05087695,-67.889174)"
       style="font-style:normal;font-variant:normal;font-weight:normal;font-stretch:normal;font-size:16px;line-height:1.25;font-family:'Gotham Rounded';-inkscape-font-specification:'Gotham Rounded, Normal';font-variant-ligatures:normal;font-variant-caps:normal;font-variant-numeric:normal;font-feature-settings:normal;text-align:start;letter-spacing:0px;word-spacing:0px;writing-mode:lr-tb;text-anchor:start;fill:#000000;fill-opacity:1;stroke:none"
       id="flowRoot3818-3">
      <path
         d="m 22.832031,447.24377 q 0,1.19531 -0.992187,1.96094 -0.984375,0.76562 -2.695313,0.76562 -0.96875,0 -1.78125,-0.22656 -0.804687,-0.23438 -1.351562,-0.50781 v -1.64844 h 0.07813 q 0.695312,0.52344 1.546875,0.83594 0.851562,0.30468 1.632812,0.30468 0.96875,0 1.515625,-0.3125 0.546875,-0.3125 0.546875,-0.98437 0,-0.51563 -0.296875,-0.78125 -0.296875,-0.26563 -1.140625,-0.45313 -0.3125,-0.0703 -0.820312,-0.16406 -0.5,-0.0937 -0.914063,-0.20312 -1.148437,-0.30469 -1.632812,-0.89063 -0.476563,-0.59375 -0.476563,-1.45312 0,-0.53907 0.21875,-1.01563 0.226563,-0.47656 0.679688,-0.85156 0.4375,-0.36719 1.109375,-0.57813 0.679687,-0.21875 1.515625,-0.21875 0.78125,0 1.578125,0.19532 0.804687,0.1875 1.335937,0.46093 v 1.57032 h -0.07813 q -0.5625,-0.41407 -1.367187,-0.69532 -0.804688,-0.28906 -1.578125,-0.28906 -0.804688,0 -1.359375,0.3125 -0.554688,0.30469 -0.554688,0.91406 0,0.53907 0.335938,0.8125 0.328125,0.27344 1.0625,0.44532 0.40625,0.0937 0.90625,0.1875 0.507812,0.0937 0.84375,0.17187 1.023437,0.23438 1.578125,0.80469 0.554687,0.57812 0.554687,1.53125 z"
         id="path3938"
         inkscape:connector-curvature="0" />
      <path
         d="m 31.722656,449.75939 h -1.460937 v -0.92968 q -0.195313,0.13281 -0.53125,0.375 -0.328125,0.23437 -0.640625,0.375 -0.367188,0.17968 -0.84375,0.29687 -0.476563,0.125 -1.117188,0.125 -1.179687,0 -2,-0.78125 -0.820312,-0.78125 -0.820312,-1.99219 0,-0.99218 0.421875,-1.60156 0.429687,-0.61719 1.21875,-0.96875 0.796875,-0.35156 1.914062,-0.47656 1.117188,-0.125 2.398438,-0.1875 v -0.22656 q 0,-0.5 -0.179688,-0.82813 -0.171875,-0.32812 -0.5,-0.51562 -0.3125,-0.17969 -0.75,-0.24219 -0.4375,-0.0625 -0.914062,-0.0625 -0.578125,0 -1.289063,0.15625 -0.710937,0.14844 -1.46875,0.4375 h -0.07813 v -1.49219 q 0.429688,-0.11719 1.242188,-0.25781 0.8125,-0.14063 1.601562,-0.14063 0.921875,0 1.601563,0.15625 0.6875,0.14844 1.1875,0.51563 0.492187,0.35937 0.75,0.92969 0.257812,0.57031 0.257812,1.41406 z m -1.460937,-2.14843 v -2.42969 q -0.671875,0.0391 -1.585938,0.11719 -0.90625,0.0781 -1.4375,0.22656 -0.632812,0.17969 -1.023437,0.5625 -0.390625,0.375 -0.390625,1.03906 0,0.75 0.453125,1.13281 0.453125,0.375 1.382812,0.375 0.773438,0 1.414063,-0.29687 0.640625,-0.30469 1.1875,-0.72656 z"
         id="path3940"
         inkscape:connector-curvature="0" />
      <path
         d="m 39.097656,449.68127 q -0.414062,0.10937 -0.90625,0.17969 -0.484375,0.0703 -0.867187,0.0703 -1.335938,0 -2.03125,-0.71875 -0.695313,-0.71875 -0.695313,-2.30469 v -4.64062 h -0.992187 v -1.23438 h 0.992187 v -2.50781 h 1.46875 v 2.50781 h 3.03125 v 1.23438 h -3.03125 v 3.97656 q 0,0.6875 0.03125,1.07812 0.03125,0.38282 0.21875,0.71875 0.171875,0.3125 0.46875,0.46094 0.304688,0.14063 0.921875,0.14063 0.359375,0 0.75,-0.10157 0.390625,-0.10937 0.5625,-0.17968 h 0.07813 z"
         id="path3942"
         inkscape:connector-curvature="0" />
      <path
         d="m 48.113281,449.75939 h -1.46875 v -0.96875 q -0.742187,0.58594 -1.421875,0.89844 -0.679687,0.3125 -1.5,0.3125 -1.375,0 -2.140625,-0.83594 -0.765625,-0.84375 -0.765625,-2.46875 v -5.66406 h 1.46875 v 4.96875 q 0,0.66406 0.0625,1.14063 0.0625,0.46875 0.265625,0.80468 0.210938,0.34375 0.546875,0.5 0.335938,0.15625 0.976563,0.15625 0.570312,0 1.242187,-0.29687 0.679688,-0.29688 1.265625,-0.75781 v -6.51563 h 1.46875 z"
         id="path3944"
         inkscape:connector-curvature="0" />
      <path
         d="m 56.449219,442.63439 h -0.07813 q -0.328125,-0.0781 -0.640625,-0.10937 -0.304688,-0.0391 -0.726563,-0.0391 -0.679687,0 -1.3125,0.30468 -0.632812,0.29688 -1.21875,0.77344 v 6.19531 h -1.46875 v -8.72656 h 1.46875 v 1.28906 q 0.875,-0.70312 1.539063,-0.99218 0.671875,-0.29688 1.367187,-0.29688 0.382813,0 0.554688,0.0234 0.171875,0.0156 0.515625,0.0703 z"
         id="path3946"
         inkscape:connector-curvature="0" />
      <path
         d="m 64.347656,449.75939 h -1.460937 v -0.92968 q -0.195313,0.13281 -0.53125,0.375 -0.328125,0.23437 -0.640625,0.375 -0.367188,0.17968 -0.84375,0.29687 -0.476563,0.125 -1.117188,0.125 -1.179687,0 -2,-0.78125 -0.820312,-0.78125 -0.820312,-1.99219 0,-0.99218 0.421875,-1.60156 0.429687,-0.61719 1.21875,-0.96875 0.796875,-0.35156 1.914062,-0.47656 1.117188,-0.125 2.398438,-0.1875 v -0.22656 q 0,-0.5 -0.179688,-0.82813 -0.171875,-0.32812 -0.5,-0.51562 -0.3125,-0.17969 -0.75,-0.24219 -0.4375,-0.0625 -0.914062,-0.0625 -0.578125,0 -1.289063,0.15625 -0.710937,0.14844 -1.46875,0.4375 h -0.07813 v -1.49219 q 0.429688,-0.11719 1.242188,-0.25781 0.8125,-0.14063 1.601562,-0.14063 0.921875,0 1.601563,0.15625 0.6875,0.14844 1.1875,0.51563 0.492187,0.35937 0.75,0.92969 0.257812,0.57031 0.257812,1.41406 z m -1.460937,-2.14843 v -2.42969 q -0.671875,0.0391 -1.585938,0.11719 -0.90625,0.0781 -1.4375,0.22656 -0.632812,0.17969 -1.023437,0.5625 -0.390625,0.375 -0.390625,1.03906 0,0.75 0.453125,1.13281 0.453125,0.375 1.382812,0.375 0.773438,0 1.414063,-0.29687 0.640625,-0.30469 1.1875,-0.72656 z"
         id="path3948"
         inkscape:connector-curvature="0" />
      <path
         d="m 71.722656,449.68127 q -0.414062,0.10937 -0.90625,0.17969 -0.484375,0.0703 -0.867187,0.0703 -1.335938,0 -2.03125,-0.71875 -0.695313,-0.71875 -0.695313,-2.30469 v -4.64062 h -0.992187 v -1.23438 h 0.992187 v -2.50781 h 1.46875 v 2.50781 h 3.03125 v 1.23438 h -3.03125 v 3.97656 q 0,0.6875 0.03125,1.07812 0.03125,0.38282 0.21875,0.71875 0.171875,0.3125 0.46875,0.46094 0.304688,0.14063 0.921875,0.14063 0.359375,0 0.75,-0.10157 0.390625,-0.10937 0.5625,-0.17968 h 0.07813 z"
         id="path3950"
         inkscape:connector-curvature="0" />
      <path
         d="m 75.082031,439.57189 h -1.65625 v -1.52343 h 1.65625 z m -0.09375,10.1875 h -1.46875 v -8.72656 h 1.46875 z"
         id="path3952"
         inkscape:connector-curvature="0" />
      <path
         d="m 85.347656,445.40002 q 0,2.13281 -1.09375,3.36719 -1.09375,1.23437 -2.929687,1.23437 -1.851563,0 -2.945313,-1.23437 -1.085937,-1.23438 -1.085937,-3.36719 0,-2.13281 1.085937,-3.36719 1.09375,-1.24219 2.945313,-1.24219 1.835937,0 2.929687,1.24219 1.09375,1.23438 1.09375,3.36719 z m -1.515625,0 q 0,-1.69531 -0.664062,-2.51563 -0.664063,-0.82812 -1.84375,-0.82812 -1.195313,0 -1.859375,0.82812 -0.65625,0.82032 -0.65625,2.51563 0,1.64062 0.664062,2.49219 0.664063,0.84375 1.851563,0.84375 1.171875,0 1.835937,-0.83594 0.671875,-0.84375 0.671875,-2.5 z"
         id="path3954"
         inkscape:connector-curvature="0" />
      <path
         d="m 94.925781,449.75939 h -1.46875 v -4.96875 q 0,-0.60156 -0.07031,-1.125 -0.07031,-0.53125 -0.257813,-0.82812 -0.195312,-0.32813 -0.5625,-0.48438 -0.367187,-0.16406 -0.953125,-0.16406 -0.601562,0 -1.257812,0.29688 -0.65625,0.29687 -1.257813,0.75781 v 6.51562 h -1.46875 v -8.72656 h 1.46875 v 0.96875 q 0.6875,-0.57031 1.421875,-0.89062 0.734375,-0.32032 1.507813,-0.32032 1.414062,0 2.15625,0.85157 0.742187,0.85156 0.742187,2.45312 z"
         id="path3956"
         inkscape:connector-curvature="0" />
    </g>
    <g
       aria-label="bias"
       transform="matrix(0.26458333,0,0,0.26458333,7.4326702,-89.270736)"
       style="font-style:normal;font-variant:normal;font-weight:normal;font-stretch:normal;font-size:16px;line-height:1.25;font-family:'Gotham Rounded';-inkscape-font-specification:'Gotham Rounded, Normal';font-variant-ligatures:normal;font-variant-caps:normal;font-variant-numeric:normal;font-feature-settings:normal;text-align:start;letter-spacing:0px;word-spacing:0px;writing-mode:lr-tb;text-anchor:start;fill:#000000;fill-opacity:1;stroke:none"
       id="flowRoot3818-36">
      <path
         d="m 24.277344,445.32971 q 0,1.09375 -0.3125,1.96875 -0.304688,0.875 -0.828125,1.46875 -0.554688,0.61718 -1.21875,0.92968 -0.664063,0.30469 -1.460938,0.30469 -0.742187,0 -1.296875,-0.17969 -0.554687,-0.17187 -1.09375,-0.46875 l -0.09375,0.40625 h -1.375 v -12.15625 h 1.46875 v 4.34375 q 0.617188,-0.50781 1.3125,-0.82812 0.695313,-0.32813 1.5625,-0.32813 1.546875,0 2.4375,1.1875 0.898438,1.1875 0.898438,3.35157 z m -1.515625,0.0391 q 0,-1.5625 -0.515625,-2.36719 -0.515625,-0.8125 -1.664063,-0.8125 -0.640625,0 -1.296875,0.28125 -0.65625,0.27344 -1.21875,0.71094 v 5 q 0.625,0.28125 1.070313,0.39062 0.453125,0.10938 1.023437,0.10938 1.21875,0 1.90625,-0.79688 0.695313,-0.80468 0.695313,-2.51562 z"
         id="path3929"
         inkscape:connector-curvature="0" />
      <path
         d="m 28.144531,439.57189 h -1.65625 v -1.52343 h 1.65625 z m -0.09375,10.1875 h -1.46875 v -8.72656 h 1.46875 z"
         id="path3931"
         inkscape:connector-curvature="0" />
      <path
         d="m 37.753906,449.75939 h -1.460937 v -0.92968 q -0.195313,0.13281 -0.53125,0.375 -0.328125,0.23437 -0.640625,0.375 -0.367188,0.17968 -0.84375,0.29687 -0.476563,0.125 -1.117188,0.125 -1.179687,0 -2,-0.78125 -0.820312,-0.78125 -0.820312,-1.99219 0,-0.99218 0.421875,-1.60156 0.429687,-0.61719 1.21875,-0.96875 0.796875,-0.35156 1.914062,-0.47656 1.117188,-0.125 2.398438,-0.1875 v -0.22656 q 0,-0.5 -0.179688,-0.82813 -0.171875,-0.32812 -0.5,-0.51562 -0.3125,-0.17969 -0.75,-0.24219 -0.4375,-0.0625 -0.914062,-0.0625 -0.578125,0 -1.289063,0.15625 -0.710937,0.14844 -1.46875,0.4375 h -0.07813 v -1.49219 q 0.429688,-0.11719 1.242188,-0.25781 0.8125,-0.14063 1.601562,-0.14063 0.921875,0 1.601563,0.15625 0.6875,0.14844 1.1875,0.51563 0.492187,0.35937 0.75,0.92969 0.257812,0.57031 0.257812,1.41406 z m -1.460937,-2.14843 v -2.42969 q -0.671875,0.0391 -1.585938,0.11719 -0.90625,0.0781 -1.4375,0.22656 -0.632812,0.17969 -1.023437,0.5625 -0.390625,0.375 -0.390625,1.03906 0,0.75 0.453125,1.13281 0.453125,0.375 1.382812,0.375 0.773438,0 1.414063,-0.29687 0.640625,-0.30469 1.1875,-0.72656 z"
         id="path3933"
         inkscape:connector-curvature="0" />
      <path
         d="m 46.832031,447.24377 q 0,1.19531 -0.992187,1.96094 -0.984375,0.76562 -2.695313,0.76562 -0.96875,0 -1.78125,-0.22656 -0.804687,-0.23438 -1.351562,-0.50781 v -1.64844 h 0.07813 q 0.695312,0.52344 1.546875,0.83594 0.851562,0.30468 1.632812,0.30468 0.96875,0 1.515625,-0.3125 0.546875,-0.3125 0.546875,-0.98437 0,-0.51563 -0.296875,-0.78125 -0.296875,-0.26563 -1.140625,-0.45313 -0.3125,-0.0703 -0.820312,-0.16406 -0.5,-0.0937 -0.914063,-0.20312 -1.148437,-0.30469 -1.632812,-0.89063 -0.476563,-0.59375 -0.476563,-1.45312 0,-0.53907 0.21875,-1.01563 0.226563,-0.47656 0.679688,-0.85156 0.4375,-0.36719 1.109375,-0.57813 0.679687,-0.21875 1.515625,-0.21875 0.78125,0 1.578125,0.19532 0.804687,0.1875 1.335937,0.46093 v 1.57032 h -0.07813 q -0.5625,-0.41407 -1.367187,-0.69532 -0.804688,-0.28906 -1.578125,-0.28906 -0.804688,0 -1.359375,0.3125 -0.554688,0.30469 -0.554688,0.91406 0,0.53907 0.335938,0.8125 0.328125,0.27344 1.0625,0.44532 0.40625,0.0937 0.90625,0.1875 0.507812,0.0937 0.84375,0.17187 1.023437,0.23438 1.578125,0.80469 0.554687,0.57812 0.554687,1.53125 z"
         id="path3935"
         inkscape:connector-curvature="0" />
    </g>
    <circle
       style="display:inline;opacity:1;vector-effect:none;fill:#ff0000;fill-opacity:1;fill-rule:evenodd;stroke:none;stroke-width:1;stroke-linecap:butt;stroke-linejoin:miter;stroke-miterlimit:4;stroke-dasharray:none;stroke-dashoffset:0;stroke-opacity:1;paint-order:normal"
       id="path4954-6"
       cx="15.501635"
       cy="41.370129"
       r="4"
       inkscape:label="pitch" />
    <circle
       style="display:inline;opacity:1;vector-effect:none;fill:#ff0000;fill-opacity:1;fill-rule:evenodd;stroke:none;stroke-width:1;stroke-linecap:butt;stroke-linejoin:miter;stroke-miterlimit:4;stroke-dasharray:none;stroke-dashoffset:0;stroke-opacity:1;paint-order:normal"
       id="path4954-3"
       cx="15.234365"
       cy="19.721304"
       r="4"
       inkscape:label="pitch" />
  </g>
</svg>
