<?xml version="1.0" encoding="UTF-8" standalone="no"?>
<svg
   xmlns:dc="http://purl.org/dc/elements/1.1/"
   xmlns:cc="http://creativecommons.org/ns#"
   xmlns:rdf="http://www.w3.org/1999/02/22-rdf-syntax-ns#"
   xmlns:svg="http://www.w3.org/2000/svg"
   xmlns="http://www.w3.org/2000/svg"
   xmlns:sodipodi="http://sodipodi.sourceforge.net/DTD/sodipodi-0.dtd"
   xmlns:inkscape="http://www.inkscape.org/namespaces/inkscape"
   width="15.24mm"
   height="128.58749mm"
   viewBox="0 0 57.599998 486"
   fill="none"
   version="1.1"
   id="svg909"
   sodipodi:docname="Credit.svg"
   inkscape:version="1.0 (4035a4fb49, 2020-05-01)">
  <metadata
     id="metadata915">
    <rdf:RDF>
      <cc:Work
         rdf:about="">
        <dc:format>image/svg+xml</dc:format>
        <dc:type
           rdf:resource="http://purl.org/dc/dcmitype/StillImage" />
        <dc:title></dc:title>
      </cc:Work>
    </rdf:RDF>
  </metadata>
  <defs
     id="defs913" />
  <sodipodi:namedview
     inkscape:document-rotation="0"
     pagecolor="#ffffff"
     bordercolor="#666666"
     borderopacity="1"
     objecttolerance="10"
     gridtolerance="10"
     guidetolerance="10"
     inkscape:pageopacity="0"
     inkscape:pageshadow="2"
     inkscape:window-width="1920"
     inkscape:window-height="1001"
     id="namedview911"
     showgrid="false"
     inkscape:document-units="mm"
     units="mm"
     inkscape:zoom="3.2962962"
     inkscape:cx="-4.2153513"
     inkscape:cy="98.347756"
     inkscape:window-x="-9"
     inkscape:window-y="-9"
     inkscape:window-maximized="1"
     inkscape:current-layer="svg909" />
  <rect
     style="stroke-width:0.707721"
     width="57.600002"
     height="486"
     fill="#16161d"
     id="rect833"
     x="0"
     y="0" />
  <path
     style="stroke-width:0.703886"
     d="M 3.7795277,0 H 53.820474 v 47 c 0,2.2091 -0.887359,4 -1.981821,4 H 5.7613474 C 4.6668181,51 3.7795277,49.2091 3.7795277,47 Z"
     fill="#B7410E"
     id="path835" />
  <g
     transform="translate(1.5235929)"
     id="g2908">
    <path
       id="path837"
       fill="#ffffff"
       d="m 16.767441,27.727754 c -0.0573,1.2969 -0.4219,2.2787 -1.0938,2.9453 -0.6719,0.6667 -1.6198,1 -2.8437,1 -1.2865,0 -2.2735,-0.4218 -2.9609998,-1.2656 -0.6823,-0.8489 -1.0234,-2.0573 -1.0234,-3.625 v -1.914 c 0,-1.5625 0.3542,-2.7657 1.0625,-3.6094 0.7082998,-0.849 1.6926998,-1.2734 2.9530998,-1.2734 1.2396,0 2.1797,0.3463 2.8203,1.039 0.6459,0.6927 1.013,1.6875 1.1016,2.9844 h -2.3047 c -0.0208,-0.8021 -0.1458,-1.3542 -0.375,-1.6563 -0.224,-0.3073 -0.638,-0.4609 -1.2422,-0.4609 -0.6146,0 -1.0495,0.2161 -1.3047,0.6484 -0.2552,0.4271 -0.3906,1.1328 -0.4062,2.1172 v 2.1485 c 0,1.1302 0.125,1.9062 0.375,2.3281 0.2552,0.4219 0.6901,0.6328 1.3047,0.6328 0.6041,0 1.0208,-0.1458 1.25,-0.4375 0.2291,-0.2969 0.3593,-0.8307 0.3906,-1.6016 z" />
    <path
       id="path851"
       fill="#ffffff"
       d="m 26.411854,31.825762 c -1.1354,0 -2.0208,-0.3385 -2.6562,-1.0156 -0.6354,-0.6771 -0.9531,-1.6458 -0.9531,-2.9062 v -0.6719 c 0,-1.3333 0.2916,-2.362 0.875,-3.0859 0.5833,-0.724 1.4192,-1.086 2.5078,-1.086 1.0625,0 1.862,0.3412 2.3984,1.0235 0.5365,0.677 0.8099,1.6823 0.8203,3.0156 v 1.0859 h -4.3984 c 0.0312,0.625 0.1693,1.0834 0.4141,1.375 0.2447,0.2865 0.6223,0.4297 1.1328,0.4297 0.7395,0 1.3567,-0.2526 1.8515,-0.7578 l 0.8672,1.3359 c -0.2708,0.375 -0.6641,0.6797 -1.1797,0.9141 -0.5156,0.2292 -1.0755,0.3437 -1.6797,0.3437 z m -1.3906,-5.1874 h 2.2109 v -0.2032 c -0.0104,-0.5052 -0.0937,-0.888 -0.25,-1.1484 -0.1562,-0.2604 -0.427,-0.3906 -0.8124,-0.3906 -0.3855,0 -0.6667,0.138 -0.8438,0.414 -0.1719,0.2761 -0.2734,0.7188 -0.3047,1.3282 z" />
    <path
       id="path1059"
       fill="#ffffff"
       d="m 22.310007,25.349262 -0.7344,-0.0625 c -0.6042,0 -1.013,0.2656 -1.2265,0.7969 v 5.5859 h -2.2188 v -8.4531 h 2.0859 l 0.0625,0.914 c 0.349,-0.7135 0.8308,-1.0703 1.4454,-1.0703 0.25,0 0.4531,0.0339 0.6093,0.1016 z" />
    <path
       d="m 30.070038,27.41503 c 0,-1.3854 0.2344,-2.4192 0.7031,-3.1015 0.4688,-0.6823 1.1511,-1.0235 2.0469,-1.0235 0.651,0 1.1927,0.2813 1.625,0.8438 v -4.2344 h 2.2265 v 12 h -2.0078 l -0.1015,-0.8594 c -0.4531,0.6771 -1.0365,1.0156 -1.75,1.0156 -0.8854,0 -1.5625,-0.3385 -2.0313,-1.0156 -0.4635,-0.6771 -0.7005,-1.6718 -0.7109,-2.9844 z m 2.2187,0.5547 c 0,0.8333 0.0886,1.4167 0.2657,1.75 0.177,0.3281 0.4765,0.4922 0.8984,0.4922 0.4375,0 0.7682,-0.1953 0.9922,-0.5859 v -3.8594 c -0.2188,-0.4167 -0.5469,-0.625 -0.9844,-0.625 -0.4062,0 -0.7031,0.164 -0.8906,0.4922 -0.1875,0.3281 -0.2813,0.9114 -0.2813,1.75 z"
       fill="#ffffff"
       id="path1067" />
    <path
       d="m 40.359574,31.999464 h -1.9414 v -7.395999 h 1.9414 z m -2.0303,-9.311 c 0,-0.299999 0.0957,-0.545999 0.2871,-0.738 0.1914,-0.191 0.4466,-0.287 0.7657,-0.287 0.319,0 0.5742,0.096 0.7656,0.287 0.1914,0.192001 0.2871,0.438001 0.2871,0.738 0,0.297 -0.0957,0.543 -0.2871,0.739001 -0.1869,0.196 -0.4421,0.294 -0.7656,0.294 -0.3236,0 -0.5811,-0.098 -0.7725,-0.294 -0.1869,-0.196001 -0.2803,-0.442001 -0.2803,-0.739001 z"
       fill="#ffffff"
       id="path859" />
    <path
       d="m 44.579517,19.977262 v 2.425939 h 1.0763 v 1.941819 h -1.0763 v 4.894554 c 0,0.38943 0.0424,0.657496 0.12598,0.802866 0.0891,0.145368 0.25741,0.21872 0.50503,0.21872 0.20309,0 0.36926,-0.02135 0.49742,-0.06402 l -0.0141,2.005834 c -0.35732,0.164042 -0.74287,0.246729 -1.15884,0.246729 -1.3565,0 -2.04181,-0.954905 -2.05593,-2.863381 v -5.241307 h -0.92859 v -1.941818 h 0.92859 v -2.425935 z"
       fill="#ffffff"
       id="path90"
       style="stroke-width:1.20352" />
  </g>
</svg>
