<?xml version="1.0" encoding="UTF-8" standalone="no"?>
<svg
   xmlns:dc="http://purl.org/dc/elements/1.1/"
   xmlns:cc="http://creativecommons.org/ns#"
   xmlns:rdf="http://www.w3.org/1999/02/22-rdf-syntax-ns#"
   xmlns:svg="http://www.w3.org/2000/svg"
   xmlns="http://www.w3.org/2000/svg"
   xmlns:sodipodi="http://sodipodi.sourceforge.net/DTD/sodipodi-0.dtd"
   xmlns:inkscape="http://www.inkscape.org/namespaces/inkscape"
   inkscape:version="1.0 (4035a4fb49, 2020-05-01)"
   sodipodi:docname="Warp.svg"
   id="svg122"
   version="1.1"
   fill="none"
   viewBox="0 0 154 486"
   height="128.58749mm"
   width="40.745834mm">
  <metadata
     id="metadata128">
    <rdf:RDF>
      <cc:Work
         rdf:about="">
        <dc:format>image/svg+xml</dc:format>
        <dc:type
           rdf:resource="http://purl.org/dc/dcmitype/StillImage" />
        <dc:title />
      </cc:Work>
    </rdf:RDF>
  </metadata>
  <defs
     id="defs126">
    <filter
       id="filter0_d"
       x="0.773438"
       y="0.40625"
       width="93.957"
       height="33.5938"
       filterUnits="userSpaceOnUse"
       color-interpolation-filters="sRGB">
      <feFlood
         flood-opacity="0"
         result="BackgroundImageFix"
         id="feFlood888" />
      <feColorMatrix
         in="SourceAlpha"
         type="matrix"
         values="0 0 0 0 0 0 0 0 0 0 0 0 0 0 0 0 0 0 127 0"
         id="feColorMatrix890" />
      <feOffset
         dy="4"
         id="feOffset892" />
      <feGaussianBlur
         stdDeviation="2"
         id="feGaussianBlur894" />
      <feColorMatrix
         type="matrix"
         values="0 0 0 0 0 0 0 0 0 0 0 0 0 0 0 0 0 0 0.25 0"
         id="feColorMatrix896" />
      <feBlend
         mode="normal"
         in2="BackgroundImageFix"
         result="effect1_dropShadow"
         id="feBlend898" />
      <feBlend
         mode="normal"
         in="SourceGraphic"
         in2="effect1_dropShadow"
         result="shape"
         id="feBlend900" />
    </filter>
  </defs>
  <sodipodi:namedview
     inkscape:current-layer="svg122"
     inkscape:window-maximized="0"
     inkscape:window-y="0"
     inkscape:window-x="743"
     inkscape:cy="242.6385"
     inkscape:cx="94.760263"
     inkscape:zoom="1.7078189"
     units="mm"
     inkscape:document-units="mm"
     showgrid="false"
     id="namedview124"
     inkscape:window-height="1001"
     inkscape:window-width="1159"
     inkscape:pageshadow="2"
     inkscape:pageopacity="0"
     guidetolerance="10"
     gridtolerance="10"
     objecttolerance="10"
     borderopacity="1"
     bordercolor="#666666"
     pagecolor="#ffffff"
     inkscape:document-rotation="0" />
  <path
     style="stroke-width:1"
     id="path2"
     fill="#16161d"
     d="M 0,-0.14638555 H 154 V 485.85361 H 0 Z" />
  <path
     id="path22"
     fill="#a713e2"
     d="m 61.3679,121.368 c 0.4669,0.467 1.2257,0.468 1.6736,-0.017 3.744,-4.055 6.3024,-9.07 7.3821,-14.498 1.1575,-5.82 0.5634,-11.8517 -1.7072,-17.3335 C 66.4458,84.0377 62.6006,79.3524 57.6671,76.0559 52.7336,72.7595 46.9335,71 41,71 c -5.9334,0 -11.7336,1.7595 -16.6671,5.0559 -4.9335,3.2965 -8.7786,7.9818 -11.0493,13.4636 -2.2706,5.4818 -2.8647,11.5135 -1.7071,17.3335 1.0797,5.428 3.6381,10.443 7.382,14.498 0.4479,0.485 1.2068,0.484 1.6736,0.017 v 0 c 0.4669,-0.467 0.4647,-1.222 0.0185,-1.709 -3.4104,-3.719 -5.7417,-8.309 -6.7292,-13.273 -1.0653,-5.355 -0.5185,-10.9066 1.5712,-15.9515 2.0896,-5.0449 5.6284,-9.3569 10.1686,-12.3906 4.5403,-3.0337 9.8783,-4.653 15.3388,-4.653 5.4606,0 10.7985,1.6193 15.3388,4.653 4.5403,3.0337 8.079,7.3457 10.1687,12.3906 2.0896,5.0449 2.6364,10.5965 1.5711,15.9515 -0.9875,4.964 -3.3188,9.554 -6.7292,13.273 -0.4462,0.487 -0.4484,1.242 0.0185,1.709 z" />
  <path
     id="path36"
     fill="#a713e2"
     d="m 61.3679,213.368 c 0.4669,0.467 1.2257,0.468 1.6736,-0.017 3.744,-4.055 6.3024,-9.07 7.3821,-14.498 1.1575,-5.82 0.5634,-11.852 -1.7072,-17.334 C 66.4458,176.038 62.6006,171.352 57.6671,168.056 52.7336,164.759 46.9335,163 41,163 c -5.9334,0 -11.7336,1.759 -16.6671,5.056 -4.9335,3.296 -8.7786,7.982 -11.0493,13.463 -2.2706,5.482 -2.8647,11.514 -1.7071,17.334 1.0797,5.428 3.6381,10.443 7.382,14.498 0.4479,0.485 1.2068,0.484 1.6736,0.017 v 0 c 0.4669,-0.467 0.4647,-1.222 0.0185,-1.709 -3.4104,-3.719 -5.7417,-8.309 -6.7292,-13.273 -1.0653,-5.355 -0.5185,-10.907 1.5712,-15.952 2.0896,-5.044 5.6284,-9.356 10.1686,-12.39 4.5403,-3.034 9.8783,-4.653 15.3388,-4.653 5.4606,0 10.7985,1.619 15.3388,4.653 4.5403,3.034 8.079,7.346 10.1687,12.39 2.0896,5.045 2.6364,10.597 1.5711,15.952 -0.9875,4.964 -3.3188,9.554 -6.7292,13.273 -0.4462,0.487 -0.4484,1.242 0.0185,1.709 z" />
  <path
     id="path60"
     fill="#a713e2"
     d="m 133.368,121.368 c 0.467,0.467 1.226,0.468 1.674,-0.017 3.743,-4.055 6.302,-9.07 7.382,-14.498 1.157,-5.82 0.563,-11.8517 -1.708,-17.3335 -2.27,-5.4818 -6.115,-10.1671 -11.049,-13.4636 C 124.734,72.7595 118.933,71 113,71 c -5.933,0 -11.734,1.7595 -16.6671,5.0559 -4.9335,3.2965 -8.7786,7.9818 -11.0493,13.4636 -2.2706,5.4818 -2.8647,11.5135 -1.7071,17.3335 1.0797,5.428 3.6381,10.443 7.382,14.498 0.4479,0.485 1.2068,0.484 1.6736,0.017 v 0 c 0.4669,-0.467 0.4647,-1.222 0.0185,-1.709 -3.4104,-3.719 -5.7417,-8.309 -6.7292,-13.273 -1.0653,-5.355 -0.5185,-10.9066 1.5712,-15.9515 2.0896,-5.0449 5.6284,-9.3569 10.1686,-12.3906 4.5408,-3.0337 9.8778,-4.653 15.3388,-4.653 5.461,0 10.799,1.6193 15.339,4.653 4.54,3.0337 8.079,7.3457 10.168,12.3906 2.09,5.0449 2.637,10.5965 1.572,15.9515 -0.988,4.964 -3.319,9.554 -6.73,13.273 -0.446,0.487 -0.448,1.242 0.019,1.709 z" />
  <path
     id="path76"
     fill="#a713e2"
     d="m 133.368,213.368 c 0.467,0.467 1.226,0.468 1.674,-0.017 3.743,-4.055 6.302,-9.07 7.382,-14.498 1.157,-5.82 0.563,-11.852 -1.708,-17.334 -2.27,-5.481 -6.115,-10.167 -11.049,-13.463 C 124.734,164.759 118.933,163 113,163 c -5.933,0 -11.734,1.759 -16.6671,5.056 -4.9335,3.296 -8.7786,7.982 -11.0493,13.463 -2.2706,5.482 -2.8647,11.514 -1.7071,17.334 1.0797,5.428 3.6381,10.443 7.382,14.498 0.4479,0.485 1.2068,0.484 1.6736,0.017 v 0 c 0.4669,-0.467 0.4647,-1.222 0.0185,-1.709 -3.4104,-3.719 -5.7417,-8.309 -6.7292,-13.273 -1.0653,-5.355 -0.5185,-10.907 1.5712,-15.952 2.0896,-5.044 5.6284,-9.356 10.1686,-12.39 4.5408,-3.034 9.8778,-4.653 15.3388,-4.653 5.461,0 10.799,1.619 15.339,4.653 4.54,3.034 8.079,7.346 10.168,12.39 2.09,5.045 2.637,10.597 1.572,15.952 -0.988,4.964 -3.319,9.554 -6.73,13.273 -0.446,0.487 -0.448,1.242 0.019,1.709 z" />
  <path
     id="path94"
     fill="#a713e2"
     d="m 8,0 h 138 v 47 c 0,2.2091 -1.791,4 -4,4 H 12 C 9.79086,51 8,49.2091 8,47 Z" />
  <path
     id="path110"
     fill="#ffffff"
     d="m 74.9219,398 h -1.5791 v -7.82 h 1.5791 z" />
  <path
     id="path112"
     fill="#ffffff"
     d="m 81.7163,398 h -1.5791 l -2.3096,-5.129 V 398 h -1.5791 v -7.82 h 1.5791 l 2.315,5.134 v -5.134 h 1.5737 z" />
  <path
     id="path114"
     fill="#ffffff"
     d="m 74.186,460.793 c 0,1.05 -0.2488,1.864 -0.7465,2.444 -0.4942,0.58 -1.1817,0.87 -2.0625,0.87 -0.8773,0 -1.5666,-0.286 -2.0679,-0.859 -0.5013,-0.576 -0.7556,-1.382 -0.7627,-2.417 v -1.337 c 0,-1.075 0.2488,-1.912 0.7466,-2.514 0.4977,-0.605 1.1888,-0.908 2.0732,-0.908 0.8701,0 1.5558,0.297 2.0571,0.892 0.5013,0.591 0.7556,1.421 0.7627,2.492 z m -1.5844,-1.31 c 0,-0.705 -0.1003,-1.23 -0.3008,-1.574 -0.2005,-0.344 -0.5121,-0.515 -0.9346,-0.515 -0.4189,0 -0.7287,0.166 -0.9292,0.499 -0.2005,0.329 -0.3044,0.833 -0.3115,1.509 v 1.391 c 0,0.684 0.102,1.189 0.3061,1.515 0.2041,0.322 0.5192,0.484 0.9454,0.484 0.4117,0 0.7179,-0.158 0.9184,-0.473 0.2005,-0.319 0.3026,-0.811 0.3062,-1.477 z" />
  <path
     id="path116"
     fill="#ffffff"
     d="m 80.4058,456.18 v 5.414 c -0.0072,0.813 -0.231,1.436 -0.6714,1.869 -0.4405,0.43 -1.0725,0.644 -1.896,0.644 -0.8379,0 -1.4789,-0.218 -1.9229,-0.655 -0.4404,-0.437 -0.6606,-1.069 -0.6606,-1.896 v -5.376 h 1.5898 v 5.382 c 0,0.444 0.0716,0.76 0.2149,0.95 0.1432,0.19 0.4028,0.285 0.7788,0.285 0.376,0 0.6338,-0.093 0.7734,-0.279 0.1397,-0.19 0.2113,-0.5 0.2149,-0.93 v -5.408 z" />
  <path
     id="path118"
     fill="#ffffff"
     d="M 86.6685,457.496 H 84.7349 V 464 h -1.5845 v -6.504 H 81.249 v -1.316 h 5.4195 z" />
  <path
     id="path120"
     fill="#a713e2"
     d="m 62,413 h 31 c 3.3137,0 6,2.686 6,6 v 46 c 0,3.314 -2.6863,6 -6,6 H 62 c -3.3137,0 -6,-2.686 -6,-6 v -46 c 0,-3.314 2.6863,-6 6,-6 z m 0,2 c -2.2091,0 -4,1.791 -4,4 v 46 c 0,2.209 1.7909,4 4,4 h 31 c 2.2091,0 4,-1.791 4,-4 v -46 c 0,-2.209 -1.7909,-4 -4,-4 z"
     clip-rule="evenodd"
     fill-rule="evenodd" />
  <g
     style="fill:none"
     id="g2334"
     transform="matrix(0.38494478,0,0,0.38176027,21.047132,132.48106)">
    <path
       id="path2323"
       fill="#ffffff"
       d="m 18.4062,19.4746 c -0.1289,2.918 -0.9492,5.127 -2.4609,6.627 -1.5117,1.5 -3.6445,2.25 -6.39842,2.25 -2.89454,0 -5.11524,-0.9493 -6.66211,-2.8477 C 1.34961,23.5938 0.582031,20.875 0.582031,17.3477 V 13.041 c 0,-3.51561 0.796879,-6.22264 2.390629,-8.12108 1.59375,-1.91015 3.80859,-2.86523 6.64453,-2.86523 2.78901,0 4.90431,0.77929 6.34571,2.33789 1.4531,1.55859 2.2793,3.79687 2.4785,6.71482 H 13.2559 C 13.209,9.30273 12.9277,8.06055 12.4121,7.38086 11.9082,6.68945 10.9766,6.34375 9.61719,6.34375 8.23438,6.34375 7.25586,6.83008 6.68164,7.80273 6.10742,8.76367 5.80273,10.3516 5.76758,12.5664 v 4.834 c 0,2.543 0.28125,4.2891 0.84375,5.2383 0.57422,0.9492 1.55273,1.4238 2.93555,1.4238 1.35932,0 2.29692,-0.3281 2.81252,-0.9844 0.5156,-0.6679 0.8086,-1.8691 0.8789,-3.6035 z m 12.2872,6.7852 c -1.0313,1.3945 -2.4141,2.0918 -4.1485,2.0918 -1.7461,0 -3.0703,-0.5977 -3.9726,-1.793 -0.9024,-1.207 -1.3535,-2.959 -1.3535,-5.2559 V 8.98047 h 4.9746 V 21.4258 c 0.0234,1.8515 0.6386,2.7773 1.8457,2.7773 1.1367,0 1.957,-0.4922 2.4609,-1.4765 V 8.98047 h 5.0098 V 28 H 30.834 Z M 44.8438,4.30469 v 4.67578 h 2.5488 v 3.74413 h -2.5488 v 9.4395 c 0,0.75 0.0996,1.2656 0.2988,1.5468 0.2109,0.2813 0.6094,0.4219 1.1953,0.4219 0.4805,0 0.873,-0.041 1.1777,-0.123 l -0.0351,3.8672 c -0.8438,0.3164 -1.7578,0.4746 -2.7422,0.4746 -3.211,0 -4.834,-1.8399 -4.8692,-5.5196 V 12.7246 H 37.6719 V 8.98047 h 2.1972 V 4.30469 Z M 49.0273,17.875 c 0,-2.8828 0.6797,-5.1445 2.0391,-6.7852 1.3594,-1.64058 3.2402,-2.46089 5.6426,-2.46089 2.4258,0 4.3183,0.82031 5.6777,2.46089 1.3594,1.6407 2.0391,3.9141 2.0391,6.8204 v 1.2128 c 0,2.8946 -0.6738,5.1563 -2.0215,6.7852 -1.3477,1.6289 -3.2344,2.4434 -5.6602,2.4434 -2.4375,0 -4.3359,-0.8145 -5.6953,-2.4434 -1.3476,-1.6406 -2.0215,-3.9141 -2.0215,-6.8203 z m 4.9922,1.248 c 0,3.3985 0.9082,5.0977 2.7246,5.0977 1.6758,0 2.5782,-1.418 2.7071,-4.2539 l 0.0176,-2.0918 c 0,-1.7344 -0.2403,-3.0176 -0.7208,-3.8496 -0.4804,-0.8438 -1.1601,-1.2656 -2.039,-1.2656 -0.8438,0 -1.5059,0.4218 -1.9863,1.2656 -0.4688,0.832 -0.7032,2.1152 -0.7032,3.8496 z M 68.6797,28 V 12.7246 H 66.377 V 8.98047 h 2.3027 V 7.27539 c 0.0117,-2.09766 0.5625,-3.72656 1.6523,-4.88672 1.1016,-1.17187 2.6192,-1.757811 4.5528,-1.757811 0.5859,0 1.3359,0.117188 2.25,0.351563 L 77.0996,4.95508 c -0.3398,-0.10547 -0.7441,-0.1582 -1.2129,-0.1582 -1.4765,0 -2.2148,0.8789 -2.2148,2.63671 v 1.54688 h 2.9707 V 12.7246 H 73.6719 V 28 Z m 11.8125,0 V 12.7246 H 78.1895 V 8.98047 h 2.3027 V 7.27539 c 0.0117,-2.09766 0.5625,-3.72656 1.6523,-4.88672 1.1016,-1.17187 2.6192,-1.757811 4.5528,-1.757811 0.5859,0 1.3359,0.117188 2.25,0.351563 L 88.9121,4.95508 c -0.3398,-0.10547 -0.7441,-0.1582 -1.2129,-0.1582 -1.4765,0 -2.2148,0.8789 -2.2148,2.63671 v 1.54688 h 2.9707 V 12.7246 H 85.4844 V 28 Z" />
  </g>
  <g
     style="fill:none"
     id="g2357"
     transform="matrix(0.42436796,0,0,0.38691256,95.664222,132.72189)">
    <path
       id="path2346"
       fill="#ffffff"
       d="M 18.6855,17.4902 21.1113,1.40625 h 5.1153 L 21.6738,27 H 16.4883 L 13.5,11.918 10.5469,27 H 5.34375 L 0.773438,1.40625 H 5.92383 L 8.33203,17.4727 11.3379,1.40625 h 4.3418 z M 33.9961,27 H 29.0039 V 7.98047 h 4.9922 z M 28.7754,3.05859 c 0,-0.77343 0.2461,-1.40625 0.7383,-1.89843 0.4922,-0.492191 1.1484,-0.738285 1.9687,-0.738285 0.8203,0 1.4766,0.246094 1.9688,0.738285 0.4922,0.49218 0.7383,1.125 0.7383,1.89843 0,0.76172 -0.2461,1.39453 -0.7383,1.89844 -0.4805,0.50391 -1.1367,0.75586 -1.9688,0.75586 -0.832,0 -1.4941,-0.25195 -1.9863,-0.75586 C 29.0156,4.45312 28.7754,3.82031 28.7754,3.05859 Z m 8.4023,13.85161 c 0,-3.1172 0.5274,-5.4434 1.5821,-6.97856 1.0547,-1.53516 2.5898,-2.30273 4.6054,-2.30273 1.4649,0 2.6836,0.63281 3.6563,1.89843 V 0 h 5.0097 v 27 h -4.5175 l -0.2285,-1.9336 c -1.0196,1.5234 -2.3321,2.2852 -3.9375,2.2852 -1.9922,0 -3.5157,-0.7618 -4.5704,-2.2852 -1.0429,-1.5234 -1.5761,-3.7617 -1.5996,-6.7148 z m 4.9922,1.248 c 0,1.875 0.1992,3.1875 0.5977,3.9375 0.3984,0.7383 1.0722,1.1074 2.0215,1.1074 0.9843,0 1.7285,-0.4394 2.2324,-1.3183 v -8.6836 c -0.4922,-0.9375 -1.2305,-1.4063 -2.2149,-1.4063 -0.914,0 -1.582,0.3692 -2.0039,1.1074 -0.4218,0.7383 -0.6328,2.0508 -0.6328,3.9375 z M 61.4883,3.30469 v 4.67578 h 2.5488 v 3.74413 h -2.5488 v 9.4395 c 0,0.75 0.0996,1.2656 0.2988,1.5468 0.2109,0.2813 0.6094,0.4219 1.1953,0.4219 0.4805,0 0.8731,-0.041 1.1778,-0.123 L 64.125,26.877 c -0.8438,0.3164 -1.7578,0.4746 -2.7422,0.4746 -3.2109,0 -4.834,-1.8399 -4.8691,-5.5196 V 11.7246 H 54.3164 V 7.98047 h 2.1973 V 3.30469 Z m 10.1426,6.3457 c 1.0781,-1.34766 2.4023,-2.02148 3.9726,-2.02148 1.7344,0 3.0527,0.60937 3.9551,1.82812 0.9023,1.21877 1.3594,3.03517 1.3711,5.44917 V 27 H 75.9375 V 14.959 c 0,-1.1133 -0.1758,-1.916 -0.5273,-2.4082 -0.3399,-0.5039 -0.8965,-0.7559 -1.67,-0.7559 -0.9023,0 -1.6054,0.416 -2.1093,1.2481 V 27 H 66.6562 V 0 h 4.9747 z" />
  </g>
  <g
     style="fill:none"
     id="g2403"
     transform="matrix(0.41021844,0,0,0.4078834,27.744955,224.71619)">
    <path
       id="path2392"
       fill="#ffffff"
       d="M 18.0039,26 H 12.8535 V 15.0488 H 5.22461 V 26 H 0.0566406 V 0.40625 H 5.22461 V 10.7598 H 12.8535 V 0.40625 h 5.1504 z m 11.6016,0.3516 c -2.5547,0 -4.5469,-0.7618 -5.9766,-2.2852 -1.4297,-1.5234 -2.1445,-3.7031 -2.1445,-6.5391 v -1.5117 c 0,-3 0.6562,-5.3144 1.9687,-6.94333 1.3125,-1.62891 3.1934,-2.44336 5.6426,-2.44336 2.3906,0 4.1895,0.76757 5.3965,2.30273 1.207,1.52346 1.8223,3.78516 1.8457,6.78516 v 2.4434 h -9.8965 c 0.0703,1.4062 0.3809,2.4375 0.9316,3.0937 0.5508,0.6445 1.4004,0.9668 2.5489,0.9668 1.664,0 3.0527,-0.5684 4.166,-1.7051 l 1.9512,3.0059 c -0.6094,0.8437 -1.4942,1.5293 -2.6543,2.0566 -1.1602,0.5157 -2.42,0.7735 -3.7793,0.7735 z M 26.4766,14.6797 h 4.9746 v -0.457 c -0.0235,-1.1368 -0.211,-1.9981 -0.5625,-2.584 -0.3516,-0.586 -0.961,-0.8789 -1.8282,-0.8789 -0.8671,0 -1.5,0.3105 -1.8984,0.9316 -0.3867,0.6211 -0.6152,1.6172 -0.6855,2.9883 z M 48.1855,26 c -0.1406,-0.293 -0.2812,-0.7852 -0.4218,-1.4766 -0.8907,1.2188 -2.0977,1.8282 -3.6211,1.8282 -1.5938,0 -2.918,-0.5274 -3.9727,-1.5821 -1.0429,-1.0547 -1.5644,-2.4199 -1.5644,-4.0957 0,-1.9922 0.6328,-3.5332 1.8984,-4.623 1.2773,-1.0899 3.1113,-1.6465 5.502,-1.6699 h 1.5117 v -1.5293 c 0,-0.8555 -0.1465,-1.459 -0.4395,-1.8106 -0.2929,-0.3515 -0.7207,-0.5273 -1.2832,-0.5273 -1.2422,0 -1.8633,0.7265 -1.8633,2.1797 H 38.957 c 0,-1.7579 0.6563,-3.20512 1.9688,-4.34184 1.3242,-1.14843 2.9941,-1.72265 5.0097,-1.72265 2.086,0 3.6973,0.54492 4.834,1.63476 1.1485,1.07813 1.7227,2.62503 1.7227,4.64063 v 8.9473 c 0.0234,1.6406 0.2578,2.9238 0.7031,3.8496 V 26 Z M 45.25,22.4492 c 0.5508,0 1.0195,-0.1113 1.4062,-0.334 0.3868,-0.2226 0.6739,-0.4863 0.8614,-0.791 v -3.9551 h -1.1953 c -0.8438,0 -1.5118,0.2696 -2.0039,0.8086 -0.4805,0.5391 -0.7207,1.2598 -0.7207,2.1621 0,1.4063 0.5507,2.1094 1.6523,2.1094 z M 61.8789,2.30469 v 4.67578 h 2.5488 v 3.74413 h -2.5488 v 9.4395 c 0,0.75 0.0996,1.2656 0.2988,1.5468 0.211,0.2813 0.6094,0.4219 1.1953,0.4219 0.4805,0 0.8731,-0.041 1.1778,-0.123 l -0.0352,3.8672 c -0.8437,0.3164 -1.7578,0.4746 -2.7422,0.4746 -3.2109,0 -4.8339,-1.8399 -4.8691,-5.5196 V 10.7246 H 54.707 V 6.98047 h 2.1973 V 2.30469 Z" />
  </g>
  <g
     style="fill:none"
     id="g2426"
     transform="matrix(0.42304598,0,0,0.39297384,97.858246,224.71611)">
    <path
       id="path2415"
       fill="#ffffff"
       d="M 0.0566406,27 V 1.40625 H 6.82422 c 2.98828,0 5.36718,0.94922 7.13668,2.84766 1.7813,1.89843 2.6895,4.5 2.7246,7.80469 v 4.1484 c 0,3.3633 -0.8906,6.0059 -2.6718,7.9278 C 12.2441,26.0449 9.80078,27 6.68359,27 Z M 5.22461,5.71289 V 22.7109 h 1.54687 c 1.72266,0 2.93555,-0.4511 3.63872,-1.3535 0.7031,-0.914 1.0722,-2.4844 1.1074,-4.7109 v -4.4473 c 0,-2.39061 -0.334,-4.05467 -1.002,-4.99217 C 9.84766,6.25781 8.71094,5.75977 7.10547,5.71289 Z M 29.5527,12.7793 27.9004,12.6387 c -1.3594,0 -2.2793,0.5976 -2.7598,1.7929 V 27 H 20.1484 V 7.98047 h 4.6934 l 0.1406,2.05663 c 0.7852,-1.60546 1.8692,-2.40819 3.252,-2.40819 0.5625,0 1.0195,0.07617 1.3711,0.22851 z M 37.3398,27 H 32.3477 V 7.98047 h 4.9921 z M 32.1191,3.05859 c 0,-0.77343 0.2461,-1.40625 0.7383,-1.89843 0.4922,-0.492191 1.1485,-0.738285 1.9688,-0.738285 0.8203,0 1.4765,0.246094 1.9687,0.738285 0.4922,0.49218 0.7383,1.125 0.7383,1.89843 0,0.76172 -0.2461,1.39453 -0.7383,1.89844 -0.4804,0.50391 -1.1367,0.75586 -1.9687,0.75586 -0.8321,0 -1.4942,-0.25195 -1.9864,-0.75586 C 32.3594,4.45312 32.1191,3.82031 32.1191,3.05859 Z M 47.4297,19.9688 49.8379,7.98047 h 5.1855 L 49.8027,27 H 45.0566 L 39.8184,7.98047 h 5.2031 z m 17.3672,7.3828 c -2.5547,0 -4.5469,-0.7618 -5.9766,-2.2852 -1.4297,-1.5234 -2.1445,-3.7031 -2.1445,-6.5391 v -1.5117 c 0,-3 0.6562,-5.3144 1.9687,-6.9433 1.3125,-1.62894 3.1934,-2.44339 5.6426,-2.44339 2.3906,0 4.1895,0.76757 5.3965,2.30273 1.207,1.52346 1.8223,3.78516 1.8457,6.78516 v 2.4434 h -9.8965 c 0.0703,1.4062 0.3809,2.4375 0.9317,3.0937 0.5507,0.6445 1.4003,0.9668 2.5488,0.9668 1.664,0 3.0527,-0.5684 4.166,-1.7051 l 1.9512,3.0059 c -0.6094,0.8437 -1.4942,1.5293 -2.6543,2.0566 -1.1602,0.5157 -2.42,0.7735 -3.7793,0.7735 z M 61.668,15.6797 h 4.9746 v -0.457 c -0.0235,-1.1368 -0.211,-1.9981 -0.5625,-2.584 -0.3516,-0.586 -0.961,-0.8789 -1.8281,-0.8789 -0.8672,0 -1.5,0.3105 -1.8985,0.9316 -0.3867,0.6211 -0.6152,1.6172 -0.6855,2.9883 z" />
  </g>
  <g
     transform="matrix(1,0,-0.26794919,1,33.885267,8.9998639)"
     id="g921"
     style="fill:none">
    <path
       style="filter:url(#filter0_d)"
       id="path884"
       fill="#ffffff"
       d="M 22.6855,16.4902 25.1113,0.40625 h 5.1153 L 25.6738,26 H 20.4883 L 17.5,10.918 14.5469,26 H 9.34375 L 4.77344,0.40625 H 9.92383 L 12.332,16.4727 15.3379,0.40625 h 4.3418 z m 21.7793,4.2715 H 37.416 L 36.0449,26 H 30.5781 L 38.5762,0.40625 h 4.7285 L 51.3555,26 H 45.8359 Z M 38.541,16.4551 h 4.7813 L 40.9316,7.33203 Z m 22.9746,0.1933 H 58.9492 V 26 h -5.168 V 0.40625 h 8.2442 c 2.5898,0 4.5879,0.67383 5.9941,2.02148 1.418,1.33594 2.127,3.24024 2.127,5.71289 0,3.39848 -1.2363,5.77738 -3.709,7.13668 l 4.4824,10.4766 V 26 h -5.5547 z m -2.5664,-4.3066 h 2.9356 c 1.0312,0 1.8047,-0.3398 2.3203,-1.0195 0.5156,-0.6914 0.7734,-1.61136 0.7734,-2.7598 0,-2.56641 -1.0019,-3.84961 -3.0058,-3.84961 H 58.9492 Z M 78.8652,17 v 9 H 73.6973 V 0.40625 h 8.7187 c 2.5313,0 4.5469,0.78516 6.0469,2.35547 1.5117,1.57031 2.2676,3.60937 2.2676,6.11719 0,2.50779 -0.7442,4.48829 -2.2325,5.94139 C 87.0098,16.2734 84.9473,17 82.3105,17 Z m 0,-4.3066 h 3.5508 c 0.9844,0 1.7461,-0.3223 2.2852,-0.9668 0.539,-0.6446 0.8086,-1.5821 0.8086,-2.81254 0,-1.27734 -0.2754,-2.29101 -0.8262,-3.04101 C 84.1328,5.11133 83.3945,4.72461 82.4688,4.71289 h -3.6036 z" />
  </g>
  <path
     style="stroke-width:1.37901"
     d="m 105.08699,315.60804 c 0.64399,0.64401 1.69065,0.64539 2.30844,-0.0234 5.1616,-5.59196 8.69045,-12.50778 10.17977,-19.99313 1.5955,-8.02593 0.77638,-16.34421 -2.35533,-23.90403 -3.13032,-7.55844 -8.43258,-14.02056 -15.236559,-18.56583 -6.8026,-4.54664 -14.802168,-6.97235 -22.983766,-6.97235 -8.181598,0 -16.181168,2.42571 -22.983906,6.97235 -6.803289,4.54527 -12.105677,11.00739 -15.236969,18.56583 -3.131154,7.55982 -3.950417,15.8781 -2.354088,23.90403 1.488904,7.48535 5.016934,14.40117 10.179766,19.99313 0.617655,0.66883 1.664177,0.66745 2.307893,0.0234 v 0 c 0.643855,-0.644 0.640821,-1.68517 0.02551,-2.35675 -4.702938,-5.12861 -7.917797,-11.45834 -9.279558,-18.30383 -1.469047,-7.38468 -0.715011,-15.04103 2.166682,-21.99821 2.881555,-6.95581 7.761557,-12.90217 14.022485,-17.08613 6.261758,-4.18397 13.621472,-6.41661 21.152183,-6.41661 7.53071,0 14.891808,2.23264 21.152458,6.41661 6.260659,4.18396 11.140939,10.13032 14.021659,17.08613 2.88211,6.95718 3.63642,14.61353 2.16779,21.99821 -1.36245,6.84549 -4.5769,13.17522 -9.28066,18.30383 -0.61504,0.67158 -0.6178,1.71275 0.0262,2.35675 z"
     fill="#a713e2"
     id="path76-7" />
</svg>
