<?xml version="1.0" encoding="UTF-8" standalone="no"?>
<svg
   xmlns:dc="http://purl.org/dc/elements/1.1/"
   xmlns:cc="http://creativecommons.org/ns#"
   xmlns:rdf="http://www.w3.org/1999/02/22-rdf-syntax-ns#"
   xmlns:svg="http://www.w3.org/2000/svg"
   xmlns="http://www.w3.org/2000/svg"
   xmlns:sodipodi="http://sodipodi.sourceforge.net/DTD/sodipodi-0.dtd"
   xmlns:inkscape="http://www.inkscape.org/namespaces/inkscape"
   width="50.799999mm"
   height="128.5mm"
   viewBox="0 0 192 485.66931"
   fill="none"
   version="1.1"
   id="svg78"
   sodipodi:docname="WernerFilter.svg"
   inkscape:version="1.0 (4035a4fb49, 2020-05-01)">
  <metadata
     id="metadata84">
    <rdf:RDF>
      <cc:Work
         rdf:about="">
        <dc:format>image/svg+xml</dc:format>
        <dc:type
           rdf:resource="http://purl.org/dc/dcmitype/StillImage" />
        <dc:title />
      </cc:Work>
    </rdf:RDF>
  </metadata>
  <defs
     id="defs82" />
  <sodipodi:namedview
     inkscape:document-rotation="0"
     pagecolor="#ffffff"
     bordercolor="#666666"
     borderopacity="1"
     objecttolerance="10"
     gridtolerance="10"
     guidetolerance="10"
     inkscape:pageopacity="0"
     inkscape:pageshadow="2"
     inkscape:window-width="1424"
     inkscape:window-height="1030"
     id="namedview80"
     showgrid="false"
     inkscape:document-units="mm"
     units="mm"
     inkscape:zoom="2.4152207"
     inkscape:cx="145.40555"
     inkscape:cy="273.32259"
     inkscape:window-x="207"
     inkscape:window-y="253"
     inkscape:window-maximized="0"
     inkscape:current-layer="svg78" />
  <path
     style="stroke-width:1.1125"
     d="m 0,0 h 190.72976 l 1.27025,485.66931 H 1.2702203 Z"
     fill="#16161d"
     id="path2" />
  <path
     d="M 34.48,115.81 H 32.0254 V 119 h -1.5791 v -7.82 h 4.3291 v 1.316 h -2.75 v 2.003 H 34.48 Z"
     fill="#ffffff"
     id="path4" />
  <path
     d="M 38.0464,116.143 H 37.2622 V 119 h -1.5791 v -7.82 h 2.519 c 0.7914,0 1.4019,0.206 1.8316,0.617 0.4333,0.409 0.6499,0.99 0.6499,1.746 0,1.038 -0.3778,1.765 -1.1333,2.181 l 1.3696,3.201 V 119 h -1.6972 z m -0.7842,-1.316 h 0.897 c 0.3151,0 0.5514,-0.104 0.709,-0.312 0.1575,-0.211 0.2363,-0.492 0.2363,-0.843 0,-0.784 -0.3062,-1.176 -0.9185,-1.176 h -0.9238 z"
     fill="#ffffff"
     id="path6" />
  <path
     d="m 45.8076,115.616 h -2.4599 v 2.073 h 2.9111 V 119 h -4.4902 v -7.82 h 4.4794 v 1.316 h -2.9003 v 1.847 h 2.4599 z"
     fill="#ffffff"
     id="path8" />
  <path
     d="m 52.6719,115.697 c 0,1.292 -0.3491,2.232 -1.0474,2.82 l 1.0796,0.966 -0.9937,0.913 -1.4394,-1.315 -0.4136,0.026 c -0.8844,0 -1.5773,-0.299 -2.0786,-0.897 -0.4977,-0.601 -0.7484,-1.432 -0.7519,-2.492 v -1.224 c 0,-1.075 0.2488,-1.912 0.7465,-2.514 0.4978,-0.605 1.1888,-0.908 2.0733,-0.908 0.8629,0 1.5451,0.29 2.0464,0.87 0.5013,0.58 0.7609,1.395 0.7788,2.444 z m -1.5845,-1.214 c 0,-0.713 -0.102,-1.239 -0.3062,-1.579 -0.2041,-0.34 -0.5156,-0.51 -0.9345,-0.51 -0.419,0 -0.7287,0.166 -0.9292,0.499 -0.2005,0.329 -0.3044,0.833 -0.3115,1.509 v 1.295 c 0,0.716 0.102,1.244 0.3061,1.584 0.2077,0.34 0.5228,0.511 0.9453,0.511 0.4118,0 0.718,-0.169 0.9185,-0.505 0.2041,-0.341 0.3079,-0.858 0.3115,-1.553 z"
     fill="#ffffff"
     id="path10" />
  <path
     d="m 169.368,121.368 c 0.467,0.467 1.226,0.468 1.674,-0.017 3.743,-4.055 6.302,-9.07 7.382,-14.498 1.157,-5.82 0.563,-11.8517 -1.708,-17.3335 -2.27,-5.4818 -6.115,-10.1671 -11.049,-13.4636 C 160.734,72.7595 154.933,71 149,71 c -5.933,0 -11.734,1.7595 -16.6671,5.0559 -4.9335,3.2965 -8.7786,7.9818 -11.0493,13.4636 -2.2706,5.4818 -2.8647,11.5135 -1.7071,17.3335 1.0797,5.428 3.6381,10.443 7.382,14.498 0.4479,0.485 1.2068,0.484 1.6736,0.017 v 0 c 0.4669,-0.467 0.4647,-1.222 0.0185,-1.709 -3.4104,-3.719 -5.7417,-8.309 -6.7292,-13.273 -1.0653,-5.355 -0.5185,-10.9066 1.5712,-15.9515 2.0896,-5.0449 5.6284,-9.3569 10.1686,-12.3906 4.5408,-3.0337 9.8778,-4.653 15.3388,-4.653 5.461,0 10.799,1.6193 15.339,4.653 4.54,3.0337 8.079,7.3457 10.168,12.3906 2.09,5.0449 2.637,10.5965 1.572,15.9515 -0.988,4.964 -3.319,9.554 -6.73,13.273 -0.446,0.487 -0.448,1.242 0.019,1.709 z"
     fill="#18429c"
     id="path38" />
  <path
     d="m 169.368,193.368 c 0.467,0.467 1.226,0.468 1.674,-0.017 3.743,-4.055 6.302,-9.07 7.382,-14.498 1.157,-5.82 0.563,-11.852 -1.708,-17.334 -2.27,-5.481 -6.115,-10.167 -11.049,-13.463 C 160.734,144.759 154.933,143 149,143 c -5.933,0 -11.734,1.759 -16.6671,5.056 -4.9335,3.296 -8.7786,7.982 -11.0493,13.463 -2.2706,5.482 -2.8647,11.514 -1.7071,17.334 1.0797,5.428 3.6381,10.443 7.382,14.498 0.4479,0.485 1.2068,0.484 1.6736,0.017 v 0 c 0.4669,-0.467 0.4647,-1.222 0.0185,-1.709 -3.4104,-3.719 -5.7417,-8.309 -6.7292,-13.273 -1.0653,-5.355 -0.5185,-10.907 1.5712,-15.952 2.0896,-5.044 5.6284,-9.356 10.1686,-12.39 4.5408,-3.034 9.8778,-4.653 15.3388,-4.653 5.461,0 10.799,1.619 15.339,4.653 4.54,3.034 8.079,7.346 10.168,12.39 2.09,5.045 2.637,10.597 1.572,15.952 -0.988,4.964 -3.319,9.554 -6.73,13.273 -0.446,0.487 -0.448,1.242 0.019,1.709 z"
     fill="#18429c"
     id="path40" />
  <path
     d="m 169.368,265.368 c 0.467,0.467 1.226,0.468 1.674,-0.017 3.743,-4.055 6.302,-9.07 7.382,-14.498 1.157,-5.82 0.563,-11.852 -1.708,-17.334 -2.27,-5.481 -6.115,-10.167 -11.049,-13.463 C 160.734,216.759 154.933,215 149,215 c -5.933,0 -11.734,1.759 -16.6671,5.056 -4.9335,3.296 -8.7786,7.982 -11.0493,13.463 -2.2706,5.482 -2.8647,11.514 -1.7071,17.334 1.0797,5.428 3.6381,10.443 7.382,14.498 0.4479,0.485 1.2068,0.484 1.6736,0.017 v 0 c 0.4669,-0.467 0.4647,-1.222 0.0185,-1.709 -3.4104,-3.719 -5.7417,-8.309 -6.7292,-13.273 -1.0653,-5.355 -0.5185,-10.907 1.5712,-15.952 2.0896,-5.044 5.6284,-9.356 10.1686,-12.39 4.5408,-3.034 9.8778,-4.653 15.3388,-4.653 5.461,0 10.799,1.619 15.339,4.653 4.54,3.034 8.079,7.346 10.168,12.39 2.09,5.045 2.637,10.597 1.572,15.952 -0.988,4.964 -3.319,9.554 -6.73,13.273 -0.446,0.487 -0.448,1.242 0.019,1.709 z"
     fill="#18429c"
     id="path42" />
  <path
     d="m 169.368,337.368 c 0.467,0.467 1.226,0.468 1.674,-0.017 3.743,-4.055 6.302,-9.07 7.382,-14.498 1.157,-5.82 0.563,-11.852 -1.708,-17.334 -2.27,-5.481 -6.115,-10.167 -11.049,-13.463 C 160.734,288.759 154.933,287 149,287 c -5.933,0 -11.734,1.759 -16.6671,5.056 -4.9335,3.296 -8.7786,7.982 -11.0493,13.463 -2.2706,5.482 -2.8647,11.514 -1.7071,17.334 1.0797,5.428 3.6381,10.443 7.382,14.498 0.4479,0.485 1.2068,0.484 1.6736,0.017 v 0 c 0.4669,-0.467 0.4647,-1.222 0.0185,-1.709 -3.4104,-3.719 -5.7417,-8.309 -6.7292,-13.273 -1.0653,-5.355 -0.5185,-10.907 1.5712,-15.952 2.0896,-5.044 5.6284,-9.356 10.1686,-12.39 4.5408,-3.034 9.8778,-4.653 15.3388,-4.653 5.461,0 10.799,1.619 15.339,4.653 4.54,3.034 8.079,7.346 10.168,12.39 2.09,5.045 2.637,10.597 1.572,15.952 -0.988,4.964 -3.319,9.554 -6.73,13.273 -0.446,0.487 -0.448,1.242 0.019,1.709 z"
     fill="#18429c"
     id="path44" />
  <path
     d="m 8,0 h 174.30362 v 47 c 0,2.2091 -2.26216,4 -5.05228,4 H 13.052279 C 10.261981,51 8,49.2091 8,47 Z"
     fill="#18429c"
     id="path46"
     style="stroke-width:1.12386" />
  <g
     id="g900"
     transform="translate(18.470455)">
    <path
       id="path66"
       fill="#ffffff"
       d="m 74.9219,398 h -1.5791 v -7.82 h 1.5791 z" />
    <path
       id="path68"
       fill="#ffffff"
       d="m 81.7163,398 h -1.5791 l -2.3096,-5.129 V 398 h -1.5791 v -7.82 h 1.5791 l 2.315,5.134 v -5.134 h 1.5737 z" />
  </g>
  <g
     id="g910"
     transform="translate(18.392555)">
    <g
       id="g904">
      <path
         d="m 74.186,460.793 c 0,1.05 -0.2488,1.864 -0.7465,2.444 -0.4942,0.58 -1.1817,0.87 -2.0625,0.87 -0.8773,0 -1.5666,-0.286 -2.0679,-0.859 -0.5013,-0.576 -0.7556,-1.382 -0.7627,-2.417 v -1.337 c 0,-1.075 0.2488,-1.912 0.7466,-2.514 0.4977,-0.605 1.1888,-0.908 2.0732,-0.908 0.8701,0 1.5558,0.297 2.0571,0.892 0.5013,0.591 0.7556,1.421 0.7627,2.492 z m -1.5844,-1.31 c 0,-0.705 -0.1003,-1.23 -0.3008,-1.574 -0.2005,-0.344 -0.5121,-0.515 -0.9346,-0.515 -0.4189,0 -0.7287,0.166 -0.9292,0.499 -0.2005,0.329 -0.3044,0.833 -0.3115,1.509 v 1.391 c 0,0.684 0.102,1.189 0.3061,1.515 0.2041,0.322 0.5192,0.484 0.9454,0.484 0.4117,0 0.7179,-0.158 0.9184,-0.473 0.2005,-0.319 0.3026,-0.811 0.3062,-1.477 z"
         fill="#ffffff"
         id="path70" />
      <path
         d="m 80.4058,456.18 v 5.414 c -0.0072,0.813 -0.231,1.436 -0.6714,1.869 -0.4405,0.43 -1.0725,0.644 -1.896,0.644 -0.8379,0 -1.4789,-0.218 -1.9229,-0.655 -0.4404,-0.437 -0.6606,-1.069 -0.6606,-1.896 v -5.376 h 1.5898 v 5.382 c 0,0.444 0.0716,0.76 0.2149,0.95 0.1432,0.19 0.4028,0.285 0.7788,0.285 0.376,0 0.6338,-0.093 0.7734,-0.279 0.1397,-0.19 0.2113,-0.5 0.2149,-0.93 v -5.408 z"
         fill="#ffffff"
         id="path72" />
    </g>
    <path
       id="path74"
       fill="#ffffff"
       d="M 86.6685,457.496 H 84.7349 V 464 h -1.5845 v -6.504 H 81.249 v -1.316 h 5.4195 z" />
  </g>
  <path
     fill-rule="evenodd"
     clip-rule="evenodd"
     d="M 80.500005,413 H 111.5 c 3.3137,0 6,2.686 6,6 v 46 c 0,3.314 -2.6863,6 -6,6 H 80.500005 c -3.3137,0 -6,-2.686 -6,-6 v -46 c 0,-3.314 2.6863,-6 6,-6 z m 0,2 c -2.2091,0 -4,1.791 -4,4 v 46 c 0,2.209 1.7909,4 4,4 H 111.5 c 2.2091,0 4,-1.791 4,-4 v -46 c 0,-2.209 -1.7909,-4 -4,-4 z"
     fill="#18429c"
     id="path76" />
  <g
     id="g896"
     transform="translate(18.198009)">
    <path
       id="path64"
       fill="#ffffff"
       d="m 101.65922,30.93159 h -2.219004 v -12 h 2.219004 z" />
    <path
       d="m 93.165349,26.149588 h -3.5703 v 4.6406 h -2.2969 v -11.375 h 6.2969 v 1.9141 h -4 v 2.914 h 3.5703 z"
       fill="#ffffff"
       id="path1061" />
    <path
       d="m 40.722802,29.845552 -2.148401,-8.2266 -2.1407,8.2266 h -2.999999 v -11.375 h 2.304699 v 3.0781 l -0.2109,4.7422 2.2734,-7.8203 h 1.562501 l 2.2735,7.8203 -0.211,-4.7422 v -3.0781 h 2.2969 v 11.375 z"
       fill="#ffffff"
       id="path56-7" />
    <path
       d="m 49.000768,30.298465 c -1.1354,0 -2.0208,-0.3385 -2.6562,-1.0156 -0.6354,-0.6771 -0.9531,-1.6458 -0.9531,-2.9062 v -0.6719 c 0,-1.3333 0.2916,-2.362 0.875,-3.0859 0.5833,-0.724 1.4192,-1.086 2.5078,-1.086 1.0625,0 1.862,0.3412 2.3984,1.0235 0.5365,0.677 0.8099,1.6823 0.8203,3.0156 v 1.0859 h -4.3984 c 0.0312,0.625 0.1693,1.0834 0.4141,1.375 0.2447,0.2865 0.6223,0.4297 1.1328,0.4297 0.7395,0 1.3567,-0.2526 1.8515,-0.7578 l 0.8672,1.3359 c -0.2708,0.375 -0.6641,0.6797 -1.1797,0.9141 -0.5156,0.2292 -1.0755,0.3437 -1.6797,0.3437 z m -1.3906,-5.1874 h 2.2109 v -0.2032 c -0.0104,-0.5052 -0.0937,-0.888 -0.25,-1.1484 -0.1562,-0.2604 -0.427,-0.3906 -0.8124,-0.3906 -0.3855,0 -0.6667,0.138 -0.8438,0.414 -0.1719,0.2761 -0.2734,0.7188 -0.3047,1.3282 z"
       fill="#ffffff"
       id="path851" />
    <path
       d="m 57.796874,23.756817 -0.7344,-0.0625 c -0.6042,0 -1.013,0.2656 -1.2265,0.7969 v 5.5859 h -2.2188 v -8.4531 h 2.0859 l 0.0625,0.914 c 0.349,-0.7135 0.8308,-1.0703 1.4454,-1.0703 0.25,0 0.4531,0.0339 0.6093,0.1016 z"
       fill="#ffffff"
       id="path1059" />
    <path
       d="m 61.14271,21.701403 0.05587,0.843558 c 0.446839,-0.668153 1.030947,-1.001653 1.752426,-1.001653 1.298643,0 1.966603,1.028194 2.003781,3.084582 v 5.608332 h -1.982843 v -5.443313 c 0,-0.483517 -0.06516,-0.833172 -0.195486,-1.048966 -0.125626,-0.220409 -0.349097,-0.331191 -0.670208,-0.331191 -0.35839,0 -0.637728,0.207716 -0.837811,0.623148 v 6.200322 h -1.982944 v -8.534819 z"
       fill="#ffffff"
       id="path883"
       style="stroke-width:1.08564" />
    <path
       id="path1059-0"
       fill="#ffffff"
       d="m 78.481213,23.832408 -0.7344,-0.0625 c -0.6042,0 -1.013,0.2656 -1.2265,0.7969 v 5.585901 h -2.2188 v -8.453101 h 2.0859 l 0.0625,0.914 c 0.349,-0.7135 0.8308,-1.0703 1.4454,-1.0703 0.25,0 0.4531,0.0339 0.6093,0.1016 z" />
    <path
       id="path851-3"
       fill="#ffffff"
       d="m 70.217636,30.297569 c -1.1354,0 -2.0208,-0.3385 -2.6562,-1.0156 -0.6354,-0.6771 -0.9531,-1.6458 -0.9531,-2.9062 v -0.6719 c 0,-1.3333 0.2916,-2.362 0.875,-3.0859 0.5833,-0.724 1.4192,-1.086 2.5078,-1.086 1.0625,0 1.862,0.3412 2.3984,1.0235 0.5365,0.677 0.8099,1.6823 0.8203,3.0156 v 1.0859 h -4.3984 c 0.0312,0.625 0.1693,1.0834 0.4141,1.375 0.2447,0.2865 0.6223,0.4297 1.1328,0.4297 0.7395,0 1.3567,-0.2526 1.8515,-0.7578 l 0.8672,1.3359 c -0.2708,0.375 -0.6641,0.6797 -1.1797,0.9141 -0.5156,0.2292 -1.0755,0.3437 -1.6797,0.3437 z m -1.3906,-5.1874 h 2.2109 v -0.2032 c -0.0104,-0.5052 -0.0937,-0.888 -0.25,-1.1484 -0.1562,-0.2604 -0.427,-0.3906 -0.8124,-0.3906 -0.3855,0 -0.6667,0.138 -0.8438,0.414 -0.1719,0.2761 -0.2734,0.7188 -0.3047,1.3282 z" />
    <path
       d="m 97.382306,30.805229 h -1.9414 V 23.40923 h 1.9414 z m -2.0303,-9.311 c 0,-0.299999 0.0957,-0.545999 0.2871,-0.738 0.1914,-0.191 0.4466,-0.287 0.7657,-0.287 0.319,0 0.5742,0.096 0.7656,0.287 0.1914,0.192001 0.2871,0.438001 0.2871,0.738 0,0.297 -0.0957,0.543 -0.2871,0.739001 -0.1869,0.196 -0.4421,0.294 -0.7656,0.294 -0.3236,0 -0.5811,-0.098 -0.7725,-0.294 -0.1869,-0.196001 -0.2803,-0.442001 -0.2803,-0.739001 z"
       fill="#ffffff"
       id="path859" />
    <path
       d="m 106.21467,18.716768 v 2.425938 h 1.0763 v 1.941819 h -1.0763 v 4.894554 c 0,0.38943 0.0424,0.657496 0.12598,0.802867 0.0891,0.145368 0.25741,0.21872 0.50503,0.21872 0.20309,0 0.36926,-0.02135 0.49742,-0.06402 l -0.0141,2.005834 c -0.35732,0.164042 -0.74287,0.246729 -1.15884,0.246729 -1.3565,0 -2.04181,-0.954905 -2.05593,-2.863382 V 23.08452 h -0.92859 v -1.941818 h 0.92859 v -2.425934 z"
       fill="#ffffff"
       id="path90"
       style="stroke-width:1.20352" />
    <path
       d="m 112.06253,31.298745 c -1.1354,0 -2.0208,-0.3385 -2.6562,-1.0156 -0.6354,-0.6771 -0.9531,-1.6458 -0.9531,-2.9062 v -0.6719 c 0,-1.3333 0.2916,-2.362 0.875,-3.0859 0.5833,-0.724 1.4192,-1.086 2.5078,-1.086 1.0625,0 1.862,0.3412 2.3984,1.0235 0.5365,0.677 0.8099,1.6823 0.8203,3.0156 v 1.0859 h -4.3984 c 0.0312,0.625 0.1693,1.0834 0.4141,1.375 0.2447,0.2865 0.6223,0.4297 1.1328,0.4297 0.7395,0 1.3567,-0.2526 1.8515,-0.7578 l 0.8672,1.3359 c -0.2708,0.375 -0.6641,0.6797 -1.1797,0.9141 -0.5156,0.2292 -1.0755,0.3437 -1.6797,0.3437 z m -1.3906,-5.1874 h 2.2109 v -0.2032 c -0.0104,-0.5052 -0.0937,-0.888 -0.25,-1.1484 -0.1562,-0.2604 -0.427,-0.3906 -0.8124,-0.3906 -0.3855,0 -0.6667,0.138 -0.8438,0.414 -0.1719,0.2761 -0.2734,0.7188 -0.3047,1.3282 z"
       fill="#ffffff"
       id="path851-3-0" />
    <path
       d="m 120.4505,24.925745 -0.7344,-0.0625 c -0.6042,0 -1.013,0.2656 -1.2265,0.7969 v 5.585902 h -2.2188 v -8.453102 h 2.0859 l 0.0625,0.914 c 0.349,-0.7135 0.8308,-1.0703 1.4454,-1.0703 0.25,0 0.4531,0.0339 0.6093,0.1016 z"
       fill="#ffffff"
       id="path1059-0-2" />
  </g>
  <g
     transform="translate(2.4398317)"
     id="g8357">
    <path
       id="path22"
       fill="#ffffff"
       d="M 35.2695,261.399 H 33.1157 L 32.6968,263 h -1.6704 l 2.4438,-7.82 h 1.4448 l 2.46,7.82 h -1.6865 z m -1.81,-1.316 h 1.4609 l -0.7305,-2.787 z" />
    <path
       id="path24"
       fill="#ffffff"
       d="m 40.1733,255.18 1.4771,5.655 1.4717,-5.655 h 2.0625 V 263 h -1.5845 v -2.116 l 0.145,-3.26 -1.563,5.376 h -1.0742 l -1.563,-5.376 0.145,3.26 V 263 h -1.5791 v -7.82 z" />
    <path
       id="path26"
       fill="#ffffff"
       d="M 48.0366,260.25 V 263 h -1.5791 v -7.82 h 2.6641 c 0.7734,0 1.3893,0.24 1.8476,0.719 0.462,0.48 0.6929,1.103 0.6929,1.87 0,0.766 -0.2274,1.371 -0.6821,1.815 -0.4548,0.444 -1.085,0.666 -1.8906,0.666 z m 0,-1.316 h 1.085 c 0.3008,0 0.5335,-0.098 0.6982,-0.295 0.1647,-0.197 0.2471,-0.484 0.2471,-0.86 0,-0.39 -0.0842,-0.7 -0.2524,-0.929 -0.1683,-0.233 -0.3939,-0.351 -0.6768,-0.354 h -1.1011 z" />
    <path
       d="m 25.47387,262.89256 v -7.82 h 2.0678 c 0.9131,0 1.64,0.29 2.1807,0.87 0.5443,0.58 0.8218,1.375 0.8325,2.385 v 1.267 c 0,1.028 -0.2721,1.835 -0.8164,2.423 -0.5407,0.583 -1.2873,0.875 -2.2397,0.875 z m 1.5791,-6.504 v 5.193 h 0.4726 c 0.5264,0 0.897,-0.137 1.1118,-0.413 0.2149,-0.279 0.3277,-0.759 0.3384,-1.44 v -1.358 c 0,-0.731 -0.102,-1.239 -0.3061,-1.526 -0.2041,-0.29 -0.5515,-0.442 -1.042,-0.456 z"
       fill="#ffffff"
       id="path12-4" />
  </g>
  <g
     transform="translate(-2.0542419)"
     id="g8364">
    <path
       id="path36"
       fill="#ffffff"
       d="m 55.98843,331.69208 h -2.4599 v 2.073 h 2.9111 v 1.311 h -4.4902 v -7.82 h 4.4795 v 1.316 h -2.9004 v 1.847 h 2.4599 z" />
    <path
       d="m 47.885705,332.13008 0.9366,-4.662 h 2.0166 l -2.0303,7.396 h -1.8457 l -2.0371,-7.396 h 2.0234 z"
       fill="#ffffff"
       id="path891" />
    <path
       d="m 43.779596,335.07608 h -1.5791 v -7.82 h 1.5791 z"
       fill="#ffffff"
       id="path110" />
    <path
       id="path12-4-3"
       fill="#ffffff"
       d="m 29.684479,335.07608 v -7.82 h 2.0678 c 0.9131,0 1.64,0.29 2.1807,0.87 0.5443,0.58 0.8218,1.375 0.8325,2.385 v 1.267 c 0,1.028 -0.2721,1.835 -0.8164,2.423 -0.5407,0.583 -1.2873,0.875 -2.2397,0.875 z m 1.5791,-6.504 v 5.193 h 0.4726 c 0.5264,0 0.897,-0.137 1.1118,-0.413 0.2149,-0.279 0.3277,-0.759 0.3384,-1.44 v -1.358 c 0,-0.731 -0.102,-1.239 -0.3061,-1.526 -0.2041,-0.29 -0.5515,-0.442 -1.042,-0.456 z" />
    <path
       d="m 38.250699,332.21908 h -0.7842 v 2.857 h -1.5791 v -7.82 h 2.519 c 0.7914,0 1.4019,0.206 1.8316,0.617 0.4333,0.409 0.6499,0.99 0.6499,1.746 0,1.038 -0.3778,1.765 -1.1333,2.181 l 1.3696,3.201 v 0.075 h -1.6972 z m -0.7842,-1.316 h 0.897 c 0.3151,0 0.5514,-0.104 0.709,-0.312 0.1575,-0.211 0.2363,-0.492 0.2363,-0.843 0,-0.784 -0.3062,-1.176 -0.9185,-1.176 h -0.9238 z"
       fill="#ffffff"
       id="path6-7" />
  </g>
  <rect
     ry="0.027447289"
     y="184.81175"
     x="67.886299"
     height="0.054894578"
     width="0.43915662"
     id="rect7640"
     style="fill:#fffff0;fill-opacity:1" />
  <g
     transform="translate(-7.8055767)"
     id="g8351">
    <path
       d="m 31.26605,187.52134 h -2.454601 v 3.19 h -1.5791 v -7.82 h 4.329101 v 1.316 h -2.750001 v 2.003 h 2.454601 z"
       fill="#ffffff"
       id="path4-8" />
    <path
       d="m 36.573332,187.32863 h -2.4599 v 2.073 h 2.9111 v 1.311 h -4.4902 v -7.82 h 4.4794 v 1.316 h -2.9003 v 1.847 h 2.4599 z"
       fill="#ffffff"
       id="path8-5" />
    <path
       d="m 41.955863,187.32734 h -2.4599 v 2.073 h 2.9111 v 1.311 h -4.4902 v -7.82 h 4.4794 v 1.316 h -2.9003 v 1.847 h 2.4599 z"
       fill="#ffffff"
       id="path8-1" />
    <path
       id="path12-4-0"
       fill="#ffffff"
       d="m 43.625056,190.71134 v -7.82 h 2.0678 c 0.9131,0 1.64,0.29 2.1807,0.87 0.5443,0.58 0.8218,1.375 0.8325,2.385 v 1.267 c 0,1.028 -0.2721,1.835 -0.8164,2.423 -0.5407,0.583 -1.2873,0.875 -2.2397,0.875 z m 1.5791,-6.504 v 5.193 h 0.4726 c 0.5264,0 0.897,-0.137 1.1118,-0.413 0.2149,-0.279 0.3277,-0.759 0.3384,-1.44 v -1.358 c 0,-0.731 -0.102,-1.239 -0.3061,-1.526 -0.2041,-0.29 -0.5515,-0.442 -1.042,-0.456 z" />
    <path
       d="m 49.487499,190.63937 v -7.74803 h 2.089674 c 0.705796,0 1.24136,0.1806 1.606689,0.54259 0.368387,0.35809 0.552614,0.88511 0.552614,1.58028 0,0.3939 -0.07588,0.73253 -0.227567,1.01667 -0.151689,0.28414 -0.35908,0.49121 -0.622242,0.62277 0.303377,0.0989 0.537125,0.2997 0.701177,0.60097 0.16412,0.29815 0.246112,0.66714 0.246112,1.10697 0,0.752 -0.181102,1.32027 -0.543307,1.70328 -0.35908,0.383 -0.880717,0.5745 -1.564912,0.5745 z m 1.365265,-3.3684 v 2.06993 h 0.872973 c 0.24455,0 0.430339,-0.0872 0.557232,-0.26079 0.126963,-0.17359 0.19041,-0.42037 0.19041,-0.73954 0,-0.69516 -0.219823,-1.0517 -0.6594,-1.0696 z m 0,-1.13889 h 0.710484 c 0.535563,0 0.803344,-0.31762 0.803344,-0.95284 0,-0.35109 -0.06195,-0.60253 -0.185789,-0.75511 -0.123837,-0.15258 -0.325047,-0.22887 -0.60363,-0.22887 h -0.724409 z"
       fill="#ffffff"
       id="path857"
       style="stroke-width:0.727195" />
    <path
       d="m 58.206437,189.11034 h -2.1538 l -0.4189,1.601 h -1.6704 l 2.4438,-7.82 h 1.4448 l 2.46,7.82 h -1.6865 z m -1.81,-1.316 h 1.4609 l -0.7305,-2.787 z"
       fill="#ffffff"
       id="path22-2" />
    <path
       d="m 64.856027,188.2309 c -0.03138,0.85976 -0.231027,1.51064 -0.598949,1.95255 -0.367923,0.44198 -0.886978,0.66294 -1.557168,0.66294 -0.704468,0 -1.244935,-0.27963 -1.621399,-0.83901 -0.373618,-0.56277 -0.560399,-1.36387 -0.560399,-2.40316 v -1.26886 c 0,-1.03584 0.193955,-1.83349 0.581809,-2.39281 0.387855,-0.56284 0.926898,-0.84419 1.617074,-0.84419 0.678786,0 1.193571,0.22958 1.544354,0.68879 0.353685,0.45922 0.554704,1.11871 0.60322,1.97848 h -1.26202 c -0.01139,-0.53175 -0.07984,-0.89775 -0.205344,-1.09803 -0.122659,-0.20372 -0.349359,-0.30555 -0.68021,-0.30555 -0.336546,0 -0.574691,0.14327 -0.714435,0.42985 -0.139743,0.28314 -0.213886,0.75098 -0.222429,1.40358 v 1.42432 c 0,0.74926 0.06845,1.2637 0.205345,1.54339 0.139744,0.27969 0.377888,0.41951 0.714434,0.41951 0.330796,0 0.558975,-0.0967 0.684482,-0.29004 0.125451,-0.19682 0.196747,-0.5507 0.213886,-1.06176 z"
       fill="#ffffff"
       id="path837"
       style="stroke-width:0.602508" />
    <g
       id="g8335"
       transform="translate(0.41404086,-0.20702043)">
      <g
         transform="translate(0,-0.80512036)"
         id="g8310">
        <path
           d="m 66.902988,188.47232 -0.375003,0.42872 v 1.67505 h -1.396158 v -7.74803 h 1.396158 v 4.18689 l 0.172706,-0.2627 0.966954,-1.63372 h 1.662687 l -1.549161,2.24914 1.697113,3.20842 h -1.598455 z"
           fill="#ffffff"
           id="path1035"
           style="stroke-width:0.729767" />
        <rect
           style="fill:#ffffff;fill-opacity:1;stroke-width:0.837033"
           id="rect7638"
           width="1.7103791"
           height="1.3522006"
           x="187.94791"
           y="219.57935"
           ry="0.068942949"
           rx="0"
           transform="matrix(1,0,-0.54485835,0.8385281,0,0)" />
        <rect
           style="fill:#16161d;fill-opacity:1;stroke-width:1.17063"
           id="rect8305"
           width="1.8395599"
           height="1.5628343"
           x="64.875656"
           y="182.59018"
           ry="0.14903428" />
      </g>
      <rect
         ry="0.16557695"
         y="189.4416"
         x="65.131828"
         height="1.3902601"
         width="1.3984252"
         id="rect8312"
         style="fill:#ffffff;fill-opacity:1;stroke-width:1.13654" />
      <rect
         transform="matrix(1,0,0.39970305,0.91664468,0,0)"
         style="fill:#ffffff;fill-opacity:1;stroke-width:1.35271"
         id="rect8312-6"
         width="1.5903139"
         height="1.7317524"
         x="-14.882767"
         y="206.5685"
         ry="0.20624794" />
    </g>
  </g>
  <path
     id="path912"
     fill="#18429c"
     d="m 102.48721,177.51432 c 0.23539,0.23538 0.61797,0.23591 0.84377,-0.008 1.88672,-2.04399 3.17661,-4.57185 3.72102,-7.30791 0.58317,-2.93363 0.28378,-5.97415 -0.8609,-8.73742 -1.14423,-2.76277 -3.08235,-5.12482 -5.56939,-6.7862 -2.486591,-1.66216 -5.410642,-2.5488 -8.401249,-2.5488 -2.9906,0 -5.914676,0.88664 -8.401265,2.54856 -2.486796,1.66136 -4.424966,4.02342 -5.569537,6.78622 -1.144527,2.76325 -1.443991,5.80372 -0.860492,8.73741 0.544246,2.73604 1.83384,5.26391 3.720996,7.30785 0.225769,0.24452 0.608299,0.24398 0.8436,0.008 v 0 c 0.235352,-0.23541 0.234232,-0.61599 0.009,-0.86146 -1.719053,-1.87461 -2.894176,-4.18826 -3.391935,-6.69042 -0.536984,-2.69925 -0.261353,-5.49783 0.791982,-8.04082 1.053292,-2.54249 2.837068,-4.716 5.125608,-6.24532 2.28885,-1.52933 4.979033,-2.3454 7.73172,-2.3454 2.75269,0 5.443411,0.81607 7.731871,2.3454 2.288461,1.52932 4.072311,3.70283 5.125311,6.24532 1.05344,2.54299 1.3292,5.34157 0.79236,8.04082 -0.49798,2.50216 -1.67301,4.81581 -3.39231,6.69042 -0.22481,0.24547 -0.22585,0.62605 0.008,0.86146 z"
     style="stroke-width:0.50406" />
  <path
     style="stroke-width:0.50406"
     d="m 102.48721,105.69951 c 0.23539,0.23538 0.61797,0.23591 0.84377,-0.008 1.88672,-2.04399 3.17661,-4.57185 3.72102,-7.307908 0.58317,-2.933629 0.28378,-5.974149 -0.8609,-8.737419 -1.14423,-2.76277 -3.08235,-5.12482 -5.56939,-6.7862 -2.486592,-1.66216 -5.410642,-2.5488 -8.401249,-2.5488 -2.9906,0 -5.914676,0.88664 -8.401265,2.54856 -2.486796,1.66136 -4.424966,4.02342 -5.569537,6.78622 -1.144527,2.76325 -1.443991,5.80372 -0.860492,8.737409 0.544246,2.736038 1.83384,5.263908 3.720996,7.307848 0.225769,0.24452 0.608299,0.24398 0.8436,0.008 v 0 c 0.235352,-0.23541 0.234232,-0.61599 0.009,-0.86146 -1.719053,-1.87461 -2.894176,-4.18826 -3.391935,-6.690418 -0.536984,-2.699249 -0.261353,-5.497829 0.791982,-8.040819 1.053292,-2.54249 2.837068,-4.716 5.125608,-6.24532 2.28885,-1.52933 4.979033,-2.3454 7.73172,-2.3454 2.75269,0 5.44341,0.81607 7.73187,2.3454 2.288462,1.52932 4.072312,3.70283 5.125312,6.24532 1.05344,2.54299 1.3292,5.34157 0.79236,8.040819 -0.49798,2.502158 -1.67301,4.815808 -3.39231,6.690418 -0.22481,0.24547 -0.22585,0.62605 0.008,0.86146 z"
     fill="#18429c"
     id="path914" />
  <path
     id="path916"
     fill="#18429c"
     d="m 102.48721,249.32534 c 0.23539,0.23538 0.61797,0.23591 0.84377,-0.008 1.88672,-2.04399 3.17661,-4.57185 3.72102,-7.30791 0.58317,-2.93363 0.28378,-5.97415 -0.8609,-8.73742 -1.14423,-2.76277 -3.08235,-5.12482 -5.56939,-6.7862 -2.48659,-1.66216 -5.410642,-2.5488 -8.401249,-2.5488 -2.9906,0 -5.914676,0.88664 -8.401265,2.54856 -2.486796,1.66136 -4.424966,4.02342 -5.569537,6.78622 -1.144527,2.76325 -1.443991,5.80372 -0.860492,8.73741 0.544246,2.73604 1.83384,5.26391 3.720996,7.30785 0.225769,0.24452 0.608299,0.24398 0.8436,0.008 v 0 c 0.235352,-0.23541 0.234232,-0.61599 0.009,-0.86146 -1.719053,-1.87461 -2.894176,-4.18826 -3.391935,-6.69042 -0.536984,-2.69925 -0.261353,-5.49783 0.791982,-8.04082 1.053292,-2.54249 2.837068,-4.716 5.125608,-6.24532 2.28885,-1.52933 4.979033,-2.3454 7.73172,-2.3454 2.75269,0 5.443412,0.81607 7.731872,2.3454 2.28846,1.52932 4.07231,3.70283 5.12531,6.24532 1.05344,2.54299 1.3292,5.34157 0.79236,8.04082 -0.49798,2.50216 -1.67301,4.81581 -3.39231,6.69042 -0.22481,0.24547 -0.22585,0.62605 0.008,0.86146 z"
     style="stroke-width:0.50406" />
  <path
     style="stroke-width:0.50406"
     d="m 102.48721,322.08125 c 0.23539,0.23538 0.61797,0.23591 0.84377,-0.008 1.88672,-2.04399 3.17661,-4.57185 3.72102,-7.30791 0.58317,-2.93363 0.28378,-5.97415 -0.8609,-8.73742 -1.14423,-2.76277 -3.08235,-5.12482 -5.56939,-6.7862 -2.486592,-1.66216 -5.410642,-2.5488 -8.401249,-2.5488 -2.9906,0 -5.914676,0.88664 -8.401265,2.54856 -2.486796,1.66136 -4.424966,4.02342 -5.569537,6.78622 -1.144527,2.76325 -1.443991,5.80372 -0.860492,8.73741 0.544246,2.73604 1.83384,5.26391 3.720996,7.30785 0.225769,0.24452 0.608299,0.24398 0.8436,0.008 v 0 c 0.235352,-0.23541 0.234232,-0.61599 0.009,-0.86146 -1.719053,-1.87461 -2.894176,-4.18826 -3.391935,-6.69042 -0.536984,-2.69925 -0.261353,-5.49783 0.791982,-8.04082 1.053292,-2.54249 2.837068,-4.716 5.125608,-6.24532 2.28885,-1.52933 4.979033,-2.3454 7.73172,-2.3454 2.75269,0 5.44341,0.81607 7.73187,2.3454 2.288462,1.52932 4.072312,3.70283 5.125312,6.24532 1.05344,2.54299 1.3292,5.34157 0.79236,8.04082 -0.49798,2.50216 -1.67301,4.81581 -3.39231,6.69042 -0.22481,0.24547 -0.22585,0.62605 0.008,0.86146 z"
     fill="#18429c"
     id="path918" />
</svg>
