<?xml version="1.0" encoding="UTF-8" standalone="no"?>
<svg
   xmlns:dc="http://purl.org/dc/elements/1.1/"
   xmlns:cc="http://creativecommons.org/ns#"
   xmlns:rdf="http://www.w3.org/1999/02/22-rdf-syntax-ns#"
   xmlns:svg="http://www.w3.org/2000/svg"
   xmlns="http://www.w3.org/2000/svg"
   xmlns:sodipodi="http://sodipodi.sourceforge.net/DTD/sodipodi-0.dtd"
   xmlns:inkscape="http://www.inkscape.org/namespaces/inkscape"
   inkscape:version="1.0 (4035a4fb49, 2020-05-01)"
   sodipodi:docname="Knob.svg"
   id="svg853"
   version="1.1"
   fill="none"
   viewBox="0 0 44 44"
   height="11.641666mm"
   width="11.641666mm">
  <metadata
     id="metadata859">
    <rdf:RDF>
      <cc:Work
         rdf:about="">
        <dc:format>image/svg+xml</dc:format>
        <dc:type
           rdf:resource="http://purl.org/dc/dcmitype/StillImage" />
        <dc:title></dc:title>
      </cc:Work>
    </rdf:RDF>
  </metadata>
  <defs
     id="defs857" />
  <sodipodi:namedview
     inkscape:current-layer="svg853"
     inkscape:window-maximized="0"
     inkscape:window-y="0"
     inkscape:window-x="224"
     inkscape:cy="22"
     inkscape:cx="22"
     inkscape:zoom="18.204545"
     units="mm"
     inkscape:document-units="mm"
     showgrid="false"
     id="namedview855"
     inkscape:window-height="1030"
     inkscape:window-width="1424"
     inkscape:pageshadow="2"
     inkscape:pageopacity="0"
     guidetolerance="10"
     gridtolerance="10"
     objecttolerance="10"
     borderopacity="1"
     bordercolor="#666666"
     pagecolor="#ffffff" />
  <path
     id="path847"
     fill="#ffffff"
     d="m 34.2451,39.635 c -1.2719,0.0811 -2.651,-0.0357 -3.8062,0.5027 -0.5161,0.2405 -1.0442,0.4597 -1.5832,0.6563 -1.1964,0.4366 -2.0885,1.4932 -3.0447,2.3345 C 25.1946,43.671 24.3857,44 23.5,44 h -3 C 19.6143,44 18.8055,43.671 18.189,43.1285 17.2328,42.2872 16.3407,41.2306 15.1443,40.794 14.6053,40.5974 14.0772,40.3782 13.5611,40.1377 12.4059,39.5993 11.0268,39.7161 9.75491,39.635 8.93534,39.5827 8.13066,39.2433 7.50431,38.617 L 5.38299,36.4957 C 4.75664,35.8693 4.41731,35.0646 4.36501,34.2451 4.28384,32.9731 4.4007,31.5941 3.8623,30.4389 3.62176,29.9228 3.40259,29.3946 3.20595,28.8557 2.76938,27.6592 1.71275,26.7672 0.871421,25.811 0.328985,25.1945 -1.05618e-8,24.3857 0,23.5 l 3.57741e-8,-3 C 4.63359e-8,19.6143 0.328984,18.8054 0.871421,18.1889 1.71275,17.2328 2.76938,16.3407 3.20595,15.1442 3.40259,14.6053 3.62176,14.0772 3.8623,13.5611 4.4007,12.4058 4.28384,11.0268 4.36501,9.75488 4.41732,8.93531 4.75664,8.13063 5.38299,7.50428 L 7.50431,5.38296 C 8.13066,4.75662 8.93534,4.41729 9.75491,4.36499 11.0268,4.28381 12.4059,4.40068 13.5611,3.86228 14.0772,3.62173 14.6053,3.40256 15.1443,3.20592 16.3407,2.76935 17.2328,1.71272 18.189,0.87139 18.8054,0.328954 19.6143,-3.05176e-5 20.5,-3.05176e-5 h 3 c 0.8857,0 1.6945,0.3289845176 2.311,0.8714195176 0.9562,0.841331 1.8483,1.897961 3.0447,2.334521 0.539,0.19665 1.0671,0.41582 1.5832,0.65636 1.1552,0.5384 2.5343,0.42154 3.8062,0.50271 0.8196,0.0523 1.6242,0.39163 2.2506,1.01798 l 2.1213,2.12132 c 0.6264,0.62635 0.9657,1.43103 1.018,2.2506 0.0812,1.27192 -0.0357,2.65092 0.5027,3.80622 0.2405,0.5161 0.4597,1.0442 0.6564,1.5831 0.4365,1.1965 1.4932,2.0886 2.3345,3.0447 C 43.671,18.8054 44,19.6143 44,20.5 v 3 c 0,0.8857 -0.329,1.6945 -0.8714,2.311 -0.8413,0.9562 -1.898,1.8482 -2.3345,3.0447 -0.1967,0.539 -0.4159,1.0671 -0.6564,1.5832 -0.5384,1.1552 -0.4215,2.5342 -0.5027,3.8062 -0.0523,0.8195 -0.3916,1.6242 -1.018,2.2506 l -2.1213,2.1213 c -0.6264,0.6263 -1.431,0.9657 -2.2506,1.018 z" />
  <path
     id="path849"
     fill="#cfcfd9"
     d="m 34.2451,39.635 c -1.2719,0.0811 -2.651,-0.0357 -3.8062,0.5027 -0.5161,0.2405 -1.0442,0.4597 -1.5832,0.6563 -1.1964,0.4366 -2.0885,1.4932 -3.0447,2.3345 C 25.1946,43.671 24.3857,44 23.5,44 h -3 C 19.6143,44 18.8055,43.671 18.189,43.1285 17.2328,42.2872 16.3407,41.2306 15.1443,40.794 14.6053,40.5974 14.0772,40.3782 13.5611,40.1377 12.4059,39.5993 11.0268,39.7161 9.75491,39.635 8.93534,39.5827 8.13066,39.2433 7.50431,38.617 L 5.38299,36.4957 C 4.75664,35.8693 4.41731,35.0646 4.36501,34.2451 4.28384,32.9731 4.4007,31.5941 3.8623,30.4389 3.62176,29.9228 3.40259,29.3946 3.20595,28.8557 2.76938,27.6592 1.71275,26.7672 0.871421,25.811 0.328985,25.1945 -1.05618e-8,24.3857 0,23.5 l 3.57741e-8,-3 C 4.63359e-8,19.6143 0.328984,18.8054 0.871421,18.1889 1.71275,17.2328 2.76938,16.3407 3.20595,15.1442 3.40259,14.6053 3.62176,14.0772 3.8623,13.5611 4.4007,12.4058 4.28384,11.0268 4.36501,9.75488 4.41732,8.93531 4.75664,8.13063 5.38299,7.50428 L 7.50431,5.38296 C 8.13066,4.75662 8.93534,4.41729 9.75491,4.36499 11.0268,4.28381 12.4059,4.40068 13.5611,3.86228 14.0772,3.62173 14.6053,3.40256 15.1443,3.20592 16.3407,2.76935 17.2328,1.71272 18.189,0.87139 18.8054,0.328954 19.6143,-3.05176e-5 20.5,-3.05176e-5 h 3 c 0.8857,0 1.6945,0.3289845176 2.311,0.8714195176 0.9562,0.841331 1.8483,1.897961 3.0447,2.334521 0.539,0.19665 1.0671,0.41582 1.5832,0.65636 1.1552,0.5384 2.5343,0.42154 3.8062,0.50271 0.8196,0.0523 1.6242,0.39163 2.2506,1.01798 l 2.1213,2.12132 c 0.6264,0.62635 0.9657,1.43103 1.018,2.2506 0.0812,1.27192 -0.0357,2.65092 0.5027,3.80622 0.2405,0.5161 0.4597,1.0442 0.6564,1.5831 0.4365,1.1965 1.4932,2.0886 2.3345,3.0447 C 43.671,18.8054 44,19.6143 44,20.5 v 3 c 0,0.8857 -0.329,1.6945 -0.8714,2.311 -0.8413,0.9562 -1.898,1.8482 -2.3345,3.0447 -0.1967,0.539 -0.4159,1.0671 -0.6564,1.5832 -0.5384,1.1552 -0.4215,2.5342 -0.5027,3.8062 -0.0523,0.8195 -0.3916,1.6242 -1.018,2.2506 l -2.1213,2.1213 c -0.6264,0.6263 -1.431,0.9657 -2.2506,1.018 z" />
  <path
     id="path851"
     fill="#595c6b"
     d="m 21,-2.86102e-5 h 2 V 21 c 0,0.5523 -0.4477,1 -1,1 -0.5523,0 -1,-0.4477 -1,-1 z" />
</svg>
