<?xml version="1.0" encoding="UTF-8" standalone="no"?>
<svg
   xmlns:dc="http://purl.org/dc/elements/1.1/"
   xmlns:cc="http://creativecommons.org/ns#"
   xmlns:rdf="http://www.w3.org/1999/02/22-rdf-syntax-ns#"
   xmlns:svg="http://www.w3.org/2000/svg"
   xmlns="http://www.w3.org/2000/svg"
   xmlns:sodipodi="http://sodipodi.sourceforge.net/DTD/sodipodi-0.dtd"
   xmlns:inkscape="http://www.inkscape.org/namespaces/inkscape"
   inkscape:version="1.0 (4035a4fb49, 2020-05-01)"
   sodipodi:docname="KnobLarge.svg"
   id="svg853"
   version="1.1"
   fill="none"
   viewBox="0 0 60.472442 60.472442"
   height="16mm"
   width="16mm">
  <metadata
     id="metadata859">
    <rdf:RDF>
      <cc:Work
         rdf:about="">
        <dc:format>image/svg+xml</dc:format>
        <dc:type
           rdf:resource="http://purl.org/dc/dcmitype/StillImage" />
        <dc:title></dc:title>
      </cc:Work>
    </rdf:RDF>
  </metadata>
  <defs
     id="defs857" />
  <sodipodi:namedview
     inkscape:current-layer="svg853"
     inkscape:window-maximized="0"
     inkscape:window-y="1"
     inkscape:window-x="723"
     inkscape:cy="20.967294"
     inkscape:cx="31.433263"
     inkscape:zoom="9.1022725"
     units="mm"
     inkscape:document-units="mm"
     showgrid="false"
     id="namedview855"
     inkscape:window-height="1030"
     inkscape:window-width="1407"
     inkscape:pageshadow="2"
     inkscape:pageopacity="0"
     guidetolerance="10"
     gridtolerance="10"
     objecttolerance="10"
     borderopacity="1"
     bordercolor="#666666"
     pagecolor="#ffffff"
     inkscape:document-rotation="0" />
  <path
     id="path849"
     fill="#cfcfd9"
     d="m 47.065563,54.473273 c -1.748066,0.111462 -3.643465,-0.04906 -5.231141,0.690897 -0.709314,0.330537 -1.435121,0.631799 -2.175908,0.902001 -1.644301,0.600051 -2.87038,2.052213 -4.184556,3.208473 -0.847164,0.745597 -1.958895,1.197766 -3.176177,1.197766 H 28.17466 c -1.217283,0 -2.328876,-0.452169 -3.176178,-1.197766 -1.314176,-1.15626 -2.540255,-2.608422 -4.184555,-3.208473 -0.740788,-0.270202 -1.466594,-0.571464 -2.175909,-0.902001 -1.587676,-0.739962 -3.483075,-0.579435 -5.231127,-0.690897 -1.126395,-0.07188 -2.232326,-0.538342 -3.093165,-1.399111 L 7.3982396,50.158705 C 6.5374006,49.297798 6.0710344,48.19184 5.9991547,47.065542 5.8875968,45.31734 6.0482061,43.42208 5.3082433,41.834404 4.9776515,41.125091 4.67643,40.399147 4.4061732,39.658497 3.8061629,38.014061 2.3539585,36.78812 1.1976581,35.473945 0.45214831,34.626644 -1.4515859e-8,33.515052 0,32.29777 L 4.916698e-8,28.174652 C 6.368284e-8,26.95737 0.45214694,25.84564 1.1976581,24.998339 2.3539585,23.684301 3.8061629,22.458223 4.4061732,20.813786 4.67643,20.073137 4.9776515,19.347331 5.3082433,18.638017 6.0482061,17.050204 5.8875968,15.154944 5.9991547,13.406852 6.0710482,12.280457 6.5374006,11.174527 7.3982396,10.313689 L 10.313726,7.3982046 c 0.860839,-0.8608245 1.96677,-1.3271904 3.093165,-1.3990701 1.748052,-0.1115716 3.643451,0.049051 5.231127,-0.6909109 C 19.347333,4.9776182 20.073139,4.676397 20.813927,4.4061403 22.458227,3.8061304 23.684306,2.353927 24.998482,1.197626 25.845646,0.45211682 26.957377,-3.05176e-5 28.17466,-3.05176e-5 h 4.123121 c 1.217282,0 2.328876,0.4521473376 3.176177,1.1976552176 1.314176,1.1563023 2.540255,2.6085057 4.184556,3.2085019 0.740787,0.2702704 1.466594,0.5714916 2.175908,0.9020832 1.587676,0.7399623 3.483075,0.5793531 5.231141,0.6909109 1.126437,0.07188 2.232258,0.5382456 3.093165,1.3990839 l 2.915459,2.9154844 c 0.860908,0.860838 1.327233,1.966768 1.399112,3.093163 0.1116,1.748092 -0.04906,3.643352 0.690898,5.231165 0.330537,0.709314 0.6318,1.43512 0.902139,2.175769 0.599914,1.644437 2.052215,2.870515 3.208475,4.184553 0.74546,0.847301 1.197629,1.959031 1.197629,3.176313 v 4.123118 c 0,1.217282 -0.452169,2.328874 -1.197629,3.176175 -1.15626,1.314175 -2.608561,2.540116 -3.208475,4.184552 -0.270339,0.740787 -0.571602,1.466594 -0.902139,2.175907 -0.739963,1.587676 -0.579298,3.482936 -0.690898,5.231138 -0.07188,1.126298 -0.538204,2.232256 -1.399112,3.093163 l -2.915459,2.915457 c -0.860907,0.860769 -1.966728,1.327231 -3.093165,1.399111 z"
     style="stroke-width:1.37438" />
  <path
     id="path851"
     fill="#595c6b"
     d="m 28.869921,-2.86102e-5 h 2.732598 V 28.86182 c 0,0.759066 -0.611692,1.374372 -1.366299,1.374372 -0.754607,0 -1.366299,-0.615306 -1.366299,-1.374372 z"
     style="stroke-width:1.37034" />
</svg>
