<?xml version="1.0" encoding="UTF-8" standalone="no"?>
<svg
   xmlns:dc="http://purl.org/dc/elements/1.1/"
   xmlns:cc="http://creativecommons.org/ns#"
   xmlns:rdf="http://www.w3.org/1999/02/22-rdf-syntax-ns#"
   xmlns:svg="http://www.w3.org/2000/svg"
   xmlns="http://www.w3.org/2000/svg"
   xmlns:sodipodi="http://sodipodi.sourceforge.net/DTD/sodipodi-0.dtd"
   xmlns:inkscape="http://www.inkscape.org/namespaces/inkscape"
   inkscape:version="1.0 (4035a4fb49, 2020-05-01)"
   sodipodi:docname="PinwheelTeal.svg"
   id="svg6"
   version="1.1"
   fill="none"
   viewBox="0 0 31 31"
   height="8.2020836mm"
   width="8.2020836mm">
  <metadata
     id="metadata12">
    <rdf:RDF>
      <cc:Work
         rdf:about="">
        <dc:format>image/svg+xml</dc:format>
        <dc:type
           rdf:resource="http://purl.org/dc/dcmitype/StillImage" />
        <dc:title></dc:title>
      </cc:Work>
    </rdf:RDF>
  </metadata>
  <defs
     id="defs10" />
  <sodipodi:namedview
     inkscape:current-layer="svg6"
     inkscape:window-maximized="1"
     inkscape:window-y="-9"
     inkscape:window-x="-9"
     inkscape:cy="15.5"
     inkscape:cx="15.5"
     inkscape:zoom="26.774194"
     units="mm"
     inkscape:document-units="mm"
     showgrid="false"
     id="namedview8"
     inkscape:window-height="1001"
     inkscape:window-width="1920"
     inkscape:pageshadow="2"
     inkscape:pageopacity="0"
     guidetolerance="10"
     gridtolerance="10"
     objecttolerance="10"
     borderopacity="1"
     bordercolor="#666666"
     pagecolor="#ffffff" />
  <path
     id="path2"
     fill="#16161d"
     d="M 31,15.5 C 31,24.0604 24.0604,31 15.5,31 6.93959,31 0,24.0604 0,15.5 0,6.93959 6.93959,0 15.5,0 24.0604,0 31,6.93959 31,15.5 Z" />
  <path
     id="path4"
     fill="#B7410E"
     d="m 16.1354,1.29319 4.4501,4.68046 c 0.1187,0.13826 0.0211,0.35099 -0.1583,0.35099 h -2.1365 c -0.124,0 -0.24,-0.05318 -0.3192,-0.14625 L 16.5021,4.95998 v 6.15022 c 0.8757,0.2046 1.6525,0.6717 2.2454,1.3152 L 24.0019,9.34972 22.2264,8.66871 C 22.106,8.64345 22.0026,8.56813 21.9419,8.4616 L 20.8736,6.58568 c -0.02,-0.03542 -0.0297,-0.07592 -0.0278,-0.11667 0.0018,-0.04074 0.0152,-0.08003 0.0385,-0.11316 0.0232,-0.03314 0.0554,-0.05873 0.0926,-0.07373 0.0373,-0.01501 0.078,-0.01879 0.1174,-0.0109 l 6.2217,1.56471 c 0.1182,0.02347 0.2302,0.07246 0.3283,0.14367 0.0982,0.0712 0.1802,0.16296 0.2406,0.26904 0.0605,0.10608 0.0978,0.22401 0.1095,0.3458 0.0118,0.12179 -0.0023,0.2446 -0.0414,0.36009 L 26.18,15.202 c -0.0587,0.1734 -0.2892,0.194 -0.3789,0.0365 l -1.0683,-1.8759 c -0.062,-0.1088 -0.0746,-0.2373 -0.0346,-0.3533 l 0.306,-1.8995 -5.2533,3.0751 c 0.1251,0.416 0.1924,0.8576 0.1924,1.3151 0,0.4573 -0.0673,0.8988 -0.1922,1.3147 l 5.2533,3.075 -0.306,-1.8994 c -0.0386,-0.1183 -0.026,-0.2468 0.0347,-0.3533 l 1.0682,-1.876 c 0.0202,-0.0353 0.05,-0.0641 0.0857,-0.0828 0.0358,-0.0187 0.076,-0.0266 0.1159,-0.0228 0.04,0.0039 0.0779,0.0193 0.1094,0.0445 0.0314,0.0252 0.055,0.0591 0.068,0.0977 l 1.7743,6.2451 c 0.039,0.1155 0.0531,0.2383 0.0414,0.3601 -0.0117,0.1218 -0.0491,0.2398 -0.1095,0.3458 -0.0604,0.1061 -0.1425,0.1979 -0.2406,0.2691 -0.0982,0.0712 -0.2102,0.1202 -0.3283,0.1436 l -6.223,1.5671 c -0.1775,0.035 -0.3104,-0.157 -0.2207,-0.3145 l 1.0682,-1.8759 c 0.062,-0.1089 0.1655,-0.1842 0.2845,-0.2071 l 1.7755,-0.681 -5.2543,-3.0756 c -0.5928,0.6435 -1.3695,1.1107 -2.2453,1.3154 V 26.04 l 1.4695,-1.2184 c 0.0818,-0.0931 0.1978,-0.1462 0.3192,-0.1462 h 2.1365 c 0.0403,0 0.0797,0.0118 0.1136,0.0338 0.0338,0.022 0.0607,0.0534 0.0774,0.0904 0.0167,0.037 0.0224,0.078 0.0166,0.1182 -0.0058,0.0402 -0.0229,0.0779 -0.0494,0.1086 l -4.4474,4.6804 c -0.0791,0.092 -0.1769,0.1659 -0.2868,0.2164 C 15.7418,29.9738 15.6224,30 15.5015,30 15.3807,30 15.2613,29.9738 15.1514,29.9232 15.0415,29.8727 14.9437,29.7988 14.8645,29.7068 l -4.45,-4.6804 c -0.1187,-0.1383 -0.0211,-0.351 0.1583,-0.351 h 2.1365 c 0.124,0 0.24,0.0531 0.3192,0.1462 l 1.4694,1.2184 v -6.1502 c -0.8757,-0.2046 -1.6525,-0.6717 -2.2454,-1.3152 l -5.25438,3.0757 1.77548,0.681 c 0.12038,0.0253 0.22383,0.1006 0.2845,0.2071 l 1.0683,1.8759 c 0.02,0.0354 0.0297,0.0759 0.0278,0.1167 -0.0018,0.0407 -0.0152,0.08 -0.0385,0.1132 -0.0232,0.0331 -0.0554,0.0587 -0.0926,0.0737 -0.03726,0.015 -0.07801,0.0188 -0.11742,0.0109 L 3.684,23.1641 C 3.56582,23.1406 3.45385,23.0916 3.35569,23.0204 3.25753,22.9492 3.17546,22.8574 3.11505,22.7514 3.05465,22.6453 3.01731,22.5274 3.00556,22.4056 2.99382,22.2838 3.00795,22.161 3.047,22.0455 L 4.81997,15.798 c 0.05876,-0.1734 0.28926,-0.194 0.37894,-0.0365 l 1.06826,1.8759 c 0.06198,0.1088 0.07459,0.2373 0.03466,0.3533 l -0.30603,1.8995 5.2533,-3.075 C 11.124,16.3991 11.0567,15.9575 11.0567,15.5 c 0,-0.4573 0.0672,-0.8988 0.1922,-1.3147 l -5.25333,-3.075 0.30602,1.8994 C 6.3402,13.128 6.3276,13.2565 6.26693,13.363 L 5.19867,15.239 C 5.17846,15.2743 5.14871,15.3031 5.11297,15.3218 5.07722,15.3405 5.03698,15.3484 4.99705,15.3446 4.95712,15.3407 4.91918,15.3253 4.88774,15.3001 4.8563,15.2749 4.8327,15.241 4.81973,15.2024 L 3.04544,8.95726 C 3.0064,8.84177 2.99227,8.71896 3.00401,8.59717 3.01575,8.47538 3.05309,8.35745 3.1135,8.25137 3.17391,8.14528 3.25597,8.05353 3.35414,7.98233 3.4523,7.91112 3.56426,7.86213 3.68244,7.83866 l 6.223,-1.56702 C 10.0829,6.23655 10.2158,6.42861 10.1261,6.58609 L 9.05787,8.46201 C 8.99588,8.57086 8.89242,8.64617 8.77336,8.66912 L 6.99788,9.35013 12.2522,12.4257 c 0.5928,-0.6435 1.3695,-1.1107 2.2452,-1.3154 V 4.95998 L 13.028,6.17839 C 12.9462,6.27146 12.8302,6.32464 12.7088,6.32464 H 10.5723 C 10.532,6.32457 10.4926,6.31282 10.4587,6.29079 10.4248,6.26877 10.398,6.23739 10.3813,6.20041 10.3646,6.16342 10.3588,6.12238 10.3646,6.08218 10.3705,6.04198 10.3876,6.0043 10.414,5.97365 L 14.8614,1.29319 C 14.9406,1.20116 15.0384,1.12735 15.1483,1.07677 15.2582,1.02618 15.3776,1 15.4984,1 c 0.1209,0 0.2403,0.02618 0.3502,0.07677 0.1099,0.05058 0.2077,0.12439 0.2868,0.21642 z M 15.5,18.3155 c 1.5337,0 2.777,-1.2605 2.777,-2.8155 0,-1.555 -1.2433,-2.8155 -2.777,-2.8155 -1.5337,0 -2.7771,1.2605 -2.7771,2.8155 0,1.555 1.2434,2.8155 2.7771,2.8155 z"
     clip-rule="evenodd"
     fill-rule="evenodd" />
</svg>
