<?xml version="1.0" encoding="UTF-8" standalone="no"?>
<svg
   xmlns:dc="http://purl.org/dc/elements/1.1/"
   xmlns:cc="http://creativecommons.org/ns#"
   xmlns:rdf="http://www.w3.org/1999/02/22-rdf-syntax-ns#"
   xmlns:svg="http://www.w3.org/2000/svg"
   xmlns="http://www.w3.org/2000/svg"
   xmlns:sodipodi="http://sodipodi.sourceforge.net/DTD/sodipodi-0.dtd"
   xmlns:inkscape="http://www.inkscape.org/namespaces/inkscape"
   width="8.2020836mm"
   height="8.2020836mm"
   viewBox="0 0 31 31"
   fill="none"
   version="1.1"
   id="svg6"
   sodipodi:docname="PinwheelTeal_1.svg"
   inkscape:version="1.0 (4035a4fb49, 2020-05-01)">
  <metadata
     id="metadata12">
    <rdf:RDF>
      <cc:Work
         rdf:about="">
        <dc:format>image/svg+xml</dc:format>
        <dc:type
           rdf:resource="http://purl.org/dc/dcmitype/StillImage" />
        <dc:title />
      </cc:Work>
    </rdf:RDF>
  </metadata>
  <defs
     id="defs10" />
  <sodipodi:namedview
     inkscape:document-rotation="0"
     pagecolor="#ffffff"
     bordercolor="#666666"
     borderopacity="1"
     objecttolerance="10"
     gridtolerance="10"
     guidetolerance="10"
     inkscape:pageopacity="0"
     inkscape:pageshadow="2"
     inkscape:window-width="1407"
     inkscape:window-height="1030"
     id="namedview8"
     showgrid="false"
     inkscape:document-units="mm"
     units="mm"
     inkscape:zoom="26.774194"
     inkscape:cx="15.5"
     inkscape:cy="15.5"
     inkscape:window-x="623"
     inkscape:window-y="0"
     inkscape:window-maximized="0"
     inkscape:current-layer="svg6" />
  <path
     d="M 31,15.5 C 31,24.0604 24.0604,31 15.5,31 6.93959,31 0,24.0604 0,15.5 0,6.93959 6.93959,0 15.5,0 24.0604,0 31,6.93959 31,15.5 Z"
     fill="#16161d"
     id="path2" />
  <path
     fill-rule="evenodd"
     clip-rule="evenodd"
     d="m 19.790742,1.9417299 3.087074,5.6727478 c 0.07887,0.1642707 -0.07046,0.3444914 -0.243748,0.2980592 L 20.570367,7.35957 C 20.450592,7.3274765 20.352309,7.2460855 20.299896,7.1356884 L 19.195912,5.578486 17.604118,11.519142 c 0.792907,0.424277 1.422344,1.076511 1.828491,1.851538 l 5.871405,-1.61094 -1.538743,-1.117338 c -0.109759,-0.05556 -0.190142,-0.155077 -0.221202,-0.273687 L 22.997695,8.280219 c -0.01015,-0.039389 -0.009,-0.08102 0.0033,-0.1198897 0.01228,-0.038886 0.0354,-0.073369 0.06648,-0.09934 0.03099,-0.026006 0.06871,-0.04239 0.108528,-0.047251 0.03991,-0.00484 0.0802,0.00204 0.116221,0.019857 l 5.604724,3.1216886 c 0.108098,0.05326 0.203602,0.129571 0.279929,0.223744 0.07643,0.09419 0.131882,0.204047 0.162769,0.322145 0.03098,0.118124 0.03649,0.24169 0.01627,0.362358 -0.02012,0.120694 -0.06553,0.23567 -0.133188,0.337105 l -3.32955,5.575706 c -0.101579,0.152299 -0.329557,0.11254 -0.375436,-0.06281 L 24.9714,15.825056 c -0.03173,-0.12114 -0.01064,-0.248523 0.05802,-0.350217 l 0.7872,-1.755578 -5.870192,1.610665 c 0.01317,0.434203 -0.03612,0.878175 -0.154529,1.320086 -0.118358,0.441717 -0.297633,0.850755 -0.52592,1.220157 l 4.278429,4.329876 0.196028,-1.913878 c -0.0067,-0.124259 0.03876,-0.24512 0.124958,-0.33228 L 25.38274,18.41828 c 0.02865,-0.02887 0.06489,-0.04897 0.10421,-0.0578 0.03942,-0.0088 0.08029,-0.006 0.117852,0.008 0.03763,0.01412 0.07025,0.0388 0.09416,0.0713 0.02381,0.03247 0.03783,0.07132 0.0404,0.11197 l 0.09749,6.491527 c 0.0078,0.121658 -0.01039,0.243923 -0.05321,0.358545 -0.04283,0.114621 -0.109492,0.218921 -0.195269,0.305676 -0.0858,0.08685 -0.188864,0.154275 -0.30205,0.197659 -0.113281,0.04336 -0.234147,0.0617 -0.354279,0.05374 l -6.416552,-0.09693 c -0.180511,-0.01213 -0.259189,-0.231988 -0.131781,-0.360905 l 1.51732,-1.53551 c 0.08807,-0.08914 0.207535,-0.135089 0.328408,-0.126409 l 1.891257,-0.198262 -4.279241,-4.330715 c -0.73915,0.468146 -1.610305,0.718401 -2.509243,0.689453 l -1.591815,5.940733 1.734773,-0.796549 c 0.103109,-0.06876 0.228899,-0.09002 0.346163,-0.0586 l 2.0637,0.552967 c 0.03893,0.01043 0.07393,0.03203 0.100981,0.06205 0.02696,0.03 0.04481,0.06729 0.05137,0.107353 0.0066,0.04006 0.0014,0.08114 -0.01456,0.118469 -0.01601,0.03733 -0.04228,0.06932 -0.07582,0.09211 l -5.507235,3.369848 c -0.100216,0.06839 -0.21381,0.114462 -0.333036,0.134797 -0.119251,0.02043 -0.241364,0.01484 -0.358144,-0.01646 -0.116684,-0.03127 -0.225235,-0.08748 -0.318294,-0.164796 -0.09309,-0.07722 -0.168425,-0.173918 -0.221115,-0.283282 L 8.1221703,23.385572 c -0.078861,-0.164309 0.070464,-0.344501 0.2437516,-0.298068 l 2.0637001,0.552966 c 0.119775,0.03209 0.218079,0.113408 0.270485,0.223834 l 1.103986,1.557193 1.591789,-5.940637 c -0.792907,-0.424277 -1.422344,-1.076511 -1.828491,-1.851538 l -5.8713914,1.610964 1.5387263,1.117324 c 0.10973,0.05559 0.1901659,0.155103 0.2212044,0.273677 l 0.5463799,2.088476 c 0.010156,0.03937 0.00904,0.081 -0.00335,0.119919 -0.012273,0.03885 -0.035388,0.07334 -0.066486,0.09938 -0.030976,0.02597 -0.068705,0.04236 -0.1085197,0.04722 -0.039873,0.0048 -0.080218,-0.002 -0.1162401,-0.01986 L 2.1030053,19.844747 C 1.9949344,19.791461 1.8994618,19.71515 1.8230745,19.620971 1.7466871,19.526791 1.6911732,19.416878 1.6602564,19.298855 1.6293752,19.180737 1.6238223,19.05719 1.6439968,18.936499 1.664181,18.815811 1.7096125,18.700852 1.7772255,18.599395 L 5.106755,13.023652 c 0.101637,-0.152284 0.3296146,-0.112524 0.3754748,0.06282 l 0.5463413,2.088467 c 0.031709,0.121134 0.010631,0.248519 -0.057962,0.350232 l -0.787229,1.75557 5.8701667,-1.610568 c -0.01314,-0.4343 0.03614,-0.878272 0.154555,-1.320183 0.118358,-0.441718 0.297536,-0.850781 0.52592,-1.220157 L 7.4555634,8.7999488 7.2595552,10.713832 c 0.00668,0.124262 -0.038753,0.245123 -0.1249198,0.332291 L 5.617231,12.581714 c -0.028658,0.02887 -0.064848,0.04899 -0.1042101,0.0578 -0.039372,0.0088 -0.080285,0.006 -0.1178712,-0.008 -0.03756,-0.0141 -0.070221,-0.0388 -0.094068,-0.07128 -0.023847,-0.03248 -0.037868,-0.07133 -0.040406,-0.111973 L 5.1632044,5.9567221 C 5.1553857,5.835063 5.1735227,5.7127805 5.2163843,5.598179 5.2592458,5.4835774 5.325836,5.3793301 5.4116431,5.2924999 5.4974528,5.2056601 5.6004633,5.1382751 5.7137162,5.0949094 5.826962,5.0515315 5.9477866,5.0331882 6.0680142,5.0411052 l 6.4165308,0.097006 c 0.180495,0.012036 0.259158,0.2319484 0.131756,0.3608464 l -1.517355,1.5355213 c -0.08805,0.089097 -0.207477,0.1350633 -0.32842,0.1264163 L 8.8792861,7.3591721 13.158553,11.689863 c 0.739151,-0.468146 1.610306,-0.718401 2.509148,-0.689479 l 1.59182,-5.9407526 -1.73468,0.796585 c -0.103101,0.068727 -0.228912,0.090072 -0.346175,0.058652 L 13.114965,5.3619011 c -0.03891,-0.010498 -0.07392,-0.032045 -0.100968,-0.062098 -0.02705,-0.030044 -0.04481,-0.067291 -0.05137,-0.107333 -0.0066,-0.040052 -0.0015,-0.081195 0.01447,-0.1185237 0.0161,-0.037303 0.04237,-0.069273 0.07581,-0.092046 l 5.507251,-3.3699054 c 0.10032,-0.068396 0.213891,-0.1143782 0.333137,-0.1347905 0.119249,-0.020422 0.241357,-0.014807 0.358041,0.016458 0.11678,0.031291 0.225336,0.087482 0.318397,0.1647926 0.09306,0.077301 0.168429,0.1739082 0.221014,0.283275 z M 14.771295,18.219565 c 1.48144,0.396951 3.008617,-0.498809 3.411081,-2.000824 0.402464,-1.502014 -0.472231,-3.041353 -1.953671,-3.438304 -1.481441,-0.396951 -3.008714,0.498783 -3.411178,2.000798 -0.402463,1.502014 0.472327,3.041379 1.953768,3.43833 z"
     fill="#4fa3b6"
     id="path4" />
</svg>
