<?xml version="1.0" encoding="UTF-8" standalone="no"?>
<svg
   xmlns:dc="http://purl.org/dc/elements/1.1/"
   xmlns:cc="http://creativecommons.org/ns#"
   xmlns:rdf="http://www.w3.org/1999/02/22-rdf-syntax-ns#"
   xmlns:svg="http://www.w3.org/2000/svg"
   xmlns="http://www.w3.org/2000/svg"
   xmlns:sodipodi="http://sodipodi.sourceforge.net/DTD/sodipodi-0.dtd"
   xmlns:inkscape="http://www.inkscape.org/namespaces/inkscape"
   inkscape:version="1.0 (4035a4fb49, 2020-05-01)"
   sodipodi:docname="Port.svg"
   id="svg877"
   version="1.1"
   fill="none"
   viewBox="0 0 29 29"
   height="7.6729169mm"
   width="7.6729169mm">
  <metadata
     id="metadata883">
    <rdf:RDF>
      <cc:Work
         rdf:about="">
        <dc:format>image/svg+xml</dc:format>
        <dc:type
           rdf:resource="http://purl.org/dc/dcmitype/StillImage" />
        <dc:title></dc:title>
      </cc:Work>
    </rdf:RDF>
  </metadata>
  <defs
     id="defs881" />
  <sodipodi:namedview
     inkscape:current-layer="svg877"
     inkscape:window-maximized="1"
     inkscape:window-y="-9"
     inkscape:window-x="-9"
     inkscape:cy="14.5"
     inkscape:cx="14.5"
     inkscape:zoom="28.62069"
     units="mm"
     inkscape:document-units="mm"
     showgrid="false"
     id="namedview879"
     inkscape:window-height="1001"
     inkscape:window-width="1920"
     inkscape:pageshadow="2"
     inkscape:pageopacity="0"
     guidetolerance="10"
     gridtolerance="10"
     objecttolerance="10"
     borderopacity="1"
     bordercolor="#666666"
     pagecolor="#ffffff" />
  <path
     id="path873"
     fill="#cfcfd9"
     d="M 13.4259,0.580263 C 13.4259,0.259793 13.6857,0 14.0062,0 h 0.9876 c 0.3205,0 0.5803,0.259793 0.5803,0.580263 0,0.302714 0.2329,0.553197 0.5335,0.589057 0.0975,0.01164 0.1946,0.02431 0.2915,0.03803 0.2991,0.04235 0.588,-0.13921 0.6662,-0.431012 0.0829,-0.309426 0.4009,-0.493052 0.7104,-0.410142 l 0.9554,0.255996 c 0.3089,0.082767 0.4922,0.400268 0.4094,0.709158 -0.0781,0.29155 0.0814,0.59292 0.3614,0.70543 0.0917,0.03682 0.1829,0.07463 0.2735,0.1134 0.2777,0.11877 0.6039,0.01848 0.7549,-0.24307 0.1599,-0.27698 0.5141,-0.37188 0.791,-0.21197 l 0.8561,0.49426 c 0.2777,0.16031 0.3728,0.51536 0.2125,0.79302 -0.1512,0.2619 -0.0752,0.59494 0.1666,0.77658 0.0782,0.05871 0.1556,0.11825 0.2325,0.17861 0.238,0.18709 0.5799,0.17456 0.794,-0.03955 0.2268,-0.22677 0.5944,-0.22677 0.8212,0 l 0.6978,0.69777 c 0.2267,0.22677 0.2267,0.59443 0,0.8212 -0.2141,0.21411 -0.2267,0.55598 -0.0396,0.79405 0.0604,0.07679 0.1199,0.15426 0.1786,0.23239 0.1816,0.24179 0.5147,0.31783 0.7766,0.16662 0.2776,-0.16031 0.6327,-0.06517 0.793,0.21249 l 0.4943,0.85608 c 0.1599,0.27698 0.065,0.63115 -0.212,0.79106 -0.2616,0.15101 -0.3619,0.47717 -0.2431,0.75486 0.0388,0.09065 0.0766,0.18181 0.1134,0.27347 0.1125,0.28008 0.4139,0.43957 0.7054,0.36145 0.3089,-0.08277 0.6264,0.10054 0.7092,0.4094 l 0.256,0.9554 c 0.0829,0.3095 -0.1007,0.6275 -0.4101,0.7104 -0.2918,0.0782 -0.4734,0.3671 -0.431,0.6662 0.0137,0.0969 0.0263,0.194 0.038,0.2915 0.0358,0.3006 0.2863,0.5335 0.589,0.5335 0.3205,0 0.5803,0.2598 0.5803,0.5803 v 0.9876 c 0,0.3205 -0.2598,0.5803 -0.5803,0.5803 -0.3027,0 -0.5532,0.2329 -0.589,0.5335 -0.0117,0.0975 -0.0243,0.1946 -0.038,0.2915 -0.0424,0.2991 0.1392,0.588 0.431,0.6662 0.3094,0.0829 0.493,0.4009 0.4101,0.7104 l -0.256,0.9554 c -0.0828,0.3089 -0.4003,0.4922 -0.7092,0.4094 -0.2915,-0.0781 -0.5929,0.0814 -0.7054,0.3614 -0.0368,0.0917 -0.0746,0.1829 -0.1134,0.2735 -0.1187,0.2777 -0.0185,0.6039 0.2431,0.7549 0.277,0.1599 0.3719,0.5141 0.212,0.791 l -0.4943,0.8561 c -0.1603,0.2777 -0.5154,0.3728 -0.793,0.2125 -0.2619,-0.1512 -0.595,-0.0752 -0.7766,0.1666 -0.0587,0.0782 -0.1182,0.1556 -0.1786,0.2324 -0.1871,0.2381 -0.1746,0.58 0.0395,0.7941 0.2268,0.2267 0.2268,0.5944 0,0.8212 l -0.6977,0.6977 c -0.2268,0.2268 -0.5945,0.2268 -0.8212,0 -0.2141,-0.2141 -0.556,-0.2266 -0.7941,-0.0395 -0.0768,0.0604 -0.1542,0.1199 -0.2324,0.1786 -0.2418,0.1816 -0.3178,0.5147 -0.1666,0.7766 0.1603,0.2776 0.0652,0.6327 -0.2125,0.793 l -0.8561,0.4943 c -0.2769,0.1599 -0.6311,0.065 -0.791,-0.212 -0.151,-0.2616 -0.4772,-0.3619 -0.7549,-0.2431 -0.0906,0.0388 -0.1818,0.0766 -0.2735,0.1134 -0.2801,0.1125 -0.4396,0.4139 -0.3614,0.7055 0.0827,0.3088 -0.1006,0.6263 -0.4095,0.7091 l -0.9554,0.256 c -0.3094,0.0829 -0.6274,-0.1007 -0.7103,-0.4101 -0.0782,-0.2918 -0.3671,-0.4734 -0.6663,-0.431 -0.0968,0.0137 -0.1939,0.0263 -0.2914,0.038 -0.3006,0.0358 -0.5335,0.2863 -0.5335,0.589 0,0.3205 -0.2598,0.5803 -0.5803,0.5803 h -0.9876 c -0.3205,0 -0.5803,-0.2598 -0.5803,-0.5803 0,-0.3027 -0.2329,-0.5532 -0.5335,-0.589 -0.0975,-0.0117 -0.1946,-0.0243 -0.2915,-0.038 -0.2991,-0.0424 -0.588,0.1392 -0.6662,0.431 -0.0829,0.3094 -0.4009,0.493 -0.7103,0.4101 l -0.9555,-0.256 C 9.96005,28.295 9.77675,27.9775 9.85951,27.6686 9.93763,27.3771 9.77814,27.0757 9.49808,26.9632 9.4064,26.9264 9.31523,26.8886 9.22457,26.8498 8.94689,26.731 8.62073,26.8313 8.46972,27.0929 8.30981,27.3699 7.95564,27.4648 7.67866,27.3049 L 6.82258,26.8106 C 6.54491,26.6503 6.44978,26.2952 6.61009,26.0176 6.7613,25.7557 6.68526,25.4226 6.44347,25.241 6.36534,25.1823 6.28786,25.1228 6.21106,25.0624 5.973,24.8753 5.63115,24.8879 5.41705,25.102 5.1903,25.3287 4.82265,25.3287 4.59589,25.1019 L 3.89808,24.4041 c -0.22676,-0.2267 -0.22676,-0.5944 0,-0.8211 C 4.11217,23.3689 4.12471,23.027 3.93763,22.789 3.87726,22.7122 3.81771,22.6347 3.759,22.5565 3.57736,22.3147 3.24433,22.2387 2.98243,22.3899 2.70476,22.5502 2.34972,22.4551 2.18941,22.1774 L 1.69515,21.3213 C 1.53523,21.0444 1.63013,20.6902 1.90711,20.5303 2.16866,20.3793 2.26895,20.0531 2.15018,19.7754 2.11141,19.6848 2.0736,19.5936 2.03677,19.5019 1.92427,19.2219 1.6229,19.0624 1.33136,19.1405 1.02248,19.2232 0.704982,19.0399 0.622216,18.7311 L 0.366214,17.7756 C 0.283305,17.4662 0.466929,17.1482 0.776348,17.0653 1.06814,16.9871 1.24969,16.6982 1.20735,16.3991 1.19363,16.3022 1.18096,16.2051 1.16932,16.1076 1.13346,15.807 0.882977,15.5741 0.580263,15.5741 0.259793,15.5741 0,15.3143 0,14.9938 v -0.9876 c 0,-0.3205 0.259793,-0.5803 0.580263,-0.5803 0.302714,0 0.553197,-0.2329 0.589057,-0.5335 C 1.18096,12.7949 1.19364,12.6978 1.20735,12.6009 1.24969,12.3018 1.06814,12.0129 0.776347,11.9347 0.466928,11.8518 0.283305,11.5338 0.366214,11.2244 L 0.622215,10.2689 C 0.704981,9.96006 1.02248,9.77675 1.33136,9.85952 1.6229,9.93763 1.92427,9.77814 2.03677,9.49808 2.0736,9.4064 2.11141,9.31523 2.15018,9.22457 2.26895,8.94689 2.16867,8.62073 1.90711,8.46972 1.63013,8.30981 1.53523,7.95564 1.69515,7.67866 L 2.1894,6.82258 C 2.34971,6.54491 2.70476,6.44978 2.98243,6.61009 3.24433,6.7613 3.57736,6.68526 3.75901,6.44347 3.81771,6.36533 3.87725,6.28785 3.93761,6.21105 4.12469,5.97298 4.11216,5.63112 3.89806,5.41703 3.6713,5.19026 3.6713,4.82261 3.89806,4.59585 L 4.59585,3.89806 c 0.22676,-0.22677 0.59442,-0.22677 0.82118,0 C 5.63113,4.11215 5.97298,4.12469 6.21105,3.9376 6.28786,3.87725 6.36533,3.81771 6.44348,3.759 6.68526,3.57736 6.7613,3.24433 6.61009,2.98243 6.44978,2.70476 6.54492,2.34972 6.82258,2.18941 L 7.67866,1.69515 C 7.95564,1.53523 8.30981,1.63013 8.46972,1.90711 8.62073,2.16866 8.94689,2.26895 9.22458,2.15018 9.31522,2.11141 9.40638,2.07361 9.49804,2.03679 9.77811,1.92428 9.9376,1.62291 9.85948,1.33137 9.77672,1.02248 9.96003,0.704981 10.2689,0.622215 l 0.9554,-0.256 c 0.3094,-0.082909 0.6275,0.100715 0.7104,0.410135 0.0782,0.2918 0.3671,0.47335 0.6662,0.431 0.0968,-0.01371 0.194,-0.02639 0.2915,-0.03803 0.3006,-0.03586 0.5335,-0.286343 0.5335,-0.589057 z"
     clip-rule="evenodd"
     fill-rule="evenodd" />
  <circle
     id="circle875"
     stroke-width="1.5"
     stroke="#ffffff"
     fill="#31323a"
     r="7.75"
     cy="14.5"
     cx="14.5" />
</svg>
