<?xml version="1.0" encoding="UTF-8" standalone="no"?>
<svg
   xmlns:dc="http://purl.org/dc/elements/1.1/"
   xmlns:cc="http://creativecommons.org/ns#"
   xmlns:rdf="http://www.w3.org/1999/02/22-rdf-syntax-ns#"
   xmlns:svg="http://www.w3.org/2000/svg"
   xmlns="http://www.w3.org/2000/svg"
   xmlns:sodipodi="http://sodipodi.sourceforge.net/DTD/sodipodi-0.dtd"
   xmlns:inkscape="http://www.inkscape.org/namespaces/inkscape"
   width="5.3210001mm"
   height="5.3210039mm"
   viewBox="0 0 20.110867 20.110881"
   fill="none"
   version="1.1"
   id="svg853"
   sodipodi:docname="SmallKnob.svg"
   inkscape:version="1.0 (4035a4fb49, 2020-05-01)">
  <metadata
     id="metadata859">
    <rdf:RDF>
      <cc:Work
         rdf:about="">
        <dc:format>image/svg+xml</dc:format>
        <dc:type
           rdf:resource="http://purl.org/dc/dcmitype/StillImage" />
        <dc:title />
      </cc:Work>
    </rdf:RDF>
  </metadata>
  <defs
     id="defs857" />
  <sodipodi:namedview
     fit-margin-bottom="0"
     fit-margin-right="0"
     fit-margin-left="0"
     fit-margin-top="0"
     inkscape:document-rotation="0"
     pagecolor="#ffffff"
     bordercolor="#666666"
     borderopacity="1"
     objecttolerance="10"
     gridtolerance="10"
     guidetolerance="10"
     inkscape:pageopacity="0"
     inkscape:pageshadow="2"
     inkscape:window-width="1902"
     inkscape:window-height="1033"
     id="namedview855"
     showgrid="false"
     inkscape:document-units="mm"
     units="mm"
     inkscape:zoom="18.204545"
     inkscape:cx="22"
     inkscape:cy="19.143601"
     inkscape:window-x="0"
     inkscape:window-y="0"
     inkscape:window-maximized="0"
     inkscape:current-layer="svg853" />
  <path
     style="stroke-width:0.457065"
     d="m 15.652241,18.115791 c -0.581341,0.03707 -1.211679,-0.01632 -1.739681,0.229767 -0.235891,0.109924 -0.477267,0.210113 -0.723625,0.299972 -0.546833,0.199554 -0.954581,0.682489 -1.391627,1.067018 -0.281735,0.247958 -0.651455,0.398333 -1.056277,0.398333 H 9.3698354 c -0.4048226,0 -0.7744969,-0.150375 -1.0562776,-0.398333 C 7.8765121,19.328019 7.4687643,18.845084 6.9219316,18.64553 6.6755735,18.555671 6.4341974,18.455482 6.1983061,18.345558 5.6703044,18.099474 5.0399659,18.152859 4.4586293,18.115791 4.0840324,18.091887 3.7162412,17.936759 3.4299585,17.650499 L 2.4603771,16.680927 C 2.1740943,16.394621 2.0189984,16.026821 1.9950939,15.652256 1.9579939,15.070869 2.0114066,14.440576 1.7653227,13.912575 1.6553802,13.676683 1.5552053,13.435261 1.465328,13.188949 1.2657871,12.642071 0.78283832,12.234368 0.39829616,11.797323 0.15036757,11.515542 0,11.145868 0,10.741045 L 1.6351094e-8,9.3698493 C 2.1178524e-8,8.9650267 0.15036712,8.5953067 0.39829616,8.313526 0.78283832,7.8765261 1.2657871,7.4687783 1.465328,6.9218998 1.5552053,6.6755874 1.6553802,6.4342113 1.7653227,6.19832 2.0114066,5.6702726 1.9579939,5.0399798 1.9950939,4.4586295 2.019003,4.0840326 2.1740943,3.7162415 2.4603771,3.4299587 L 3.4299585,2.4603773 C 3.7162412,2.1740991 4.0840324,2.0190032 4.4586293,1.9950987 5.0399659,1.9579941 5.6703044,2.0114113 6.1983061,1.7653275 6.4341974,1.6553805 6.6755735,1.5552055 6.9219316,1.4653282 7.4687643,1.2657873 7.8765121,0.78283856 8.3135578,0.39829594 8.5952928,0.15036736 8.9650128,0 9.3698354,0 h 1.3711956 c 0.404822,0 0.774497,0.15036736 1.056277,0.39829549 0.437046,0.38454307 0.844794,0.86749181 1.391627,1.06702811 0.246358,0.089882 0.487734,0.1900569 0.723625,0.2999993 0.528002,0.2460839 1.15834,0.1926712 1.739681,0.2297712 0.374611,0.023904 0.742366,0.1790004 1.028671,0.4652832 l 0.969572,0.9695814 c 0.286306,0.2862828 0.441388,0.6540739 0.465293,1.0286708 0.03711,0.5813503 -0.01632,1.2116431 0.229766,1.7396905 0.109925,0.2358913 0.210113,0.4772674 0.300018,0.7235798 0.199509,0.5468785 0.68249,0.9546263 1.067019,1.3916262 0.247912,0.2817807 0.398286,0.6515007 0.398286,1.0563233 v 1.3711957 c 0,0.404823 -0.150374,0.774497 -0.398286,1.056278 -0.384529,0.437045 -0.86751,0.844748 -1.067019,1.391626 -0.08991,0.246358 -0.190093,0.487734 -0.300018,0.723626 -0.246083,0.528001 -0.192653,1.158294 -0.229766,1.739681 -0.02391,0.374565 -0.178987,0.742365 -0.465293,1.028671 l -0.969572,0.969572 c -0.286305,0.28626 -0.65406,0.441388 -1.028671,0.465292 z"
     fill="#cfcfd9"
     id="path849" />
  <path
     style="stroke-width:0.65717"
     d="M 9.1105511,8.71806e-7 H 11.000315 V 9.5983819 c 0,0.252437 -0.423024,0.4570661 -0.944882,0.4570661 -0.5218579,0 -0.9448819,-0.2046291 -0.9448819,-0.4570661 z"
     fill="#595c6b"
     id="path851" />
</svg>
